<?xml version="1.0" standalone="no"?>
<!DOCTYPE svg PUBLIC "-//W3C//DTD SVG 20010904//EN"
 "http://www.w3.org/TR/2001/REC-SVG-20010904/DTD/svg10.dtd">
<svg version="1.0" xmlns="http://www.w3.org/2000/svg"
 width="2719.000000pt" height="1410.000000pt" viewBox="0 0 2719.000000 1410.000000"
 preserveAspectRatio="xMidYMid meet">

<g transform="translate(0.000000,1410.000000) scale(0.100000,-0.100000)"
fill="#000000" stroke="none">
<path d="M10 7050 l0 -7040 13585 0 13585 0 0 7040 0 7040 -13585 0 -13585 0
0 -7040z m18250 5000 l0 -1780 195 0 195 0 0 1780 0 1780 4135 0 4135 0 0
-4385 0 -4385 -3160 0 -3160 0 0 -195 0 -195 3160 0 3160 0 0 -2200 0 -2200
-8325 0 -8325 0 0 1700 0 1700 -195 0 -195 0 0 -1700 0 -1700 -4805 0 -4805 0
0 6780 0 6780 8995 0 8995 0 0 -1780z"/>
<path d="M14420 12095 l0 -1615 1870 0 1870 0 0 1615 0 1615 -1870 0 -1870 0
0 -1615z m2420 390 l0 -305 -30 0 -30 0 0 305 0 305 30 0 30 0 0 -305z m-1393
266 c49 -23 77 -68 68 -111 -13 -59 -80 -90 -193 -90 -101 0 -160 27 -180 82
-19 50 -1 86 58 116 59 29 184 31 247 3z m711 -91 l-4 -110 48 0 c41 0 48 -3
48 -20 0 -20 -7 -20 -285 -20 -278 0 -285 0 -285 20 0 19 7 20 210 20 l210 0
0 90 0 90 -160 0 c-153 0 -160 1 -160 20 0 19 7 20 191 20 l192 0 -5 -110z
m452 62 c55 -27 83 -77 78 -140 -7 -82 -65 -132 -155 -132 -60 0 -111 25 -141
70 -19 29 -23 45 -20 87 5 56 22 83 73 114 39 24 119 25 165 1z m840 -77 l0
-85 -175 0 -175 0 0 -45 0 -45 180 0 c173 0 180 -1 180 -20 0 -17 -7 -20 -45
-20 l-45 0 0 -60 0 -60 80 0 c73 0 80 -2 80 -20 0 -20 -7 -20 -280 -20 -273 0
-280 0 -280 20 0 18 7 20 80 20 l80 0 0 60 0 60 -40 0 -40 0 0 85 0 85 170 0
170 0 0 45 0 45 -170 0 c-163 0 -170 1 -170 20 0 19 7 20 200 20 l200 0 0 -85z
m-1840 -165 c0 -20 -7 -20 -285 -20 -278 0 -285 0 -285 20 0 20 7 20 285 20
278 0 285 0 285 -20z m220 -75 l0 -45 135 0 135 0 0 45 c0 43 1 45 30 45 l30
0 0 -125 0 -125 -190 0 -190 0 0 125 0 125 25 0 c23 0 25 -4 25 -45z m-398 3
c59 -18 88 -49 88 -98 0 -73 -63 -110 -186 -110 -137 0 -204 37 -204 111 0 44
22 72 73 94 39 17 176 19 229 3z m1318 -87 c0 -10 -7 -22 -16 -25 -17 -7 -404
-8 -404 -2 0 2 -3 11 -6 20 -7 17 33 21 284 24 133 2 142 1 142 -17z m-550
-521 l0 -220 -25 0 -25 0 0 220 0 220 25 0 25 0 0 -220z m630 -85 l0 -305 -30
0 -30 0 0 155 0 155 -60 0 c-53 0 -60 2 -60 20 0 18 7 20 60 20 l60 0 0 130 0
130 30 0 30 0 0 -305z m-740 90 l0 -205 -25 0 -25 0 0 120 0 120 -50 0 c-43 0
-50 3 -50 20 0 17 7 20 50 20 l50 0 0 65 c0 63 1 65 25 65 l25 0 0 -205z
m-220 130 c0 -75 24 -128 79 -175 42 -36 45 -41 30 -56 -22 -22 -48 -7 -97 55
l-39 49 -17 -33 c-10 -18 -36 -50 -57 -71 l-39 -38 -20 20 -21 20 41 33 c54
44 82 101 88 184 4 62 6 67 28 67 22 0 24 -4 24 -55z m800 15 c0 -19 -7 -20
-120 -20 l-120 0 0 -70 0 -70 90 0 c83 0 90 -1 90 -20 0 -19 -7 -20 -90 -20
l-90 0 0 -76 0 -77 134 7 c128 7 134 6 139 -13 3 -12 -1 -22 -10 -25 -8 -3
-82 -6 -164 -6 l-149 0 0 205 0 205 145 0 c138 0 145 -1 145 -20z m-800 -405
l0 -75 175 0 c168 0 175 -1 175 -20 0 -19 -7 -20 -200 -20 l-200 0 0 95 c0 95
0 95 25 95 24 0 25 -2 25 -75z"/>
<path d="M15275 12724 c-47 -12 -75 -27 -80 -45 -17 -52 32 -84 130 -84 97 0
147 32 130 83 -3 11 -17 24 -31 30 -29 14 -120 23 -149 16z"/>
<path d="M16480 12682 c-86 -42 -77 -152 15 -182 67 -22 131 16 142 84 7 45
-16 82 -62 102 -44 18 -53 18 -95 -4z"/>
<path d="M17180 12370 l0 -60 70 0 70 0 0 60 0 60 -70 0 -70 0 0 -60z"/>
<path d="M15830 12280 l0 -40 135 0 135 0 0 40 0 40 -135 0 -135 0 0 -40z"/>
<path d="M15256 12369 c-112 -27 -94 -108 26 -123 99 -13 195 24 186 70 -9 46
-124 75 -212 53z"/>
<path d="M20570 12795 l0 -905 1970 0 1970 0 0 905 0 905 -1970 0 -1970 0 0
-905z m1860 10 l0 -305 -25 0 -25 0 0 305 0 305 25 0 25 0 0 -305z m630 185
l0 -120 50 0 c43 0 50 -3 50 -20 0 -17 -7 -20 -50 -20 l-50 0 0 -165 0 -165
-30 0 -30 0 0 305 0 305 30 0 30 0 0 -120z m-900 70 l0 -40 70 0 c63 0 70 -2
70 -20 0 -18 -7 -20 -70 -20 l-70 0 0 -57 c0 -46 6 -69 30 -111 27 -46 87
-102 123 -115 12 -4 -18 -47 -33 -47 -15 0 -109 92 -131 127 l-22 35 -15 -28
c-23 -44 -70 -101 -104 -125 l-30 -22 -21 23 c-18 18 -19 23 -8 28 32 11 101
87 126 135 17 35 25 67 25 104 l0 53 -75 0 c-68 0 -75 2 -75 20 0 18 7 20 75
20 l75 0 0 40 c0 38 2 40 30 40 28 0 30 -2 30 -40z m756 -167 c-3 -86 -8 -158
-10 -160 -2 -2 -14 -1 -27 2 -24 6 -24 6 -21 140 l3 135 -125 0 c-119 0 -126
1 -126 20 0 19 7 20 157 20 l156 0 -7 -157z m-156 -123 l0 -100 105 0 c96 0
105 -2 105 -19 0 -27 -25 -31 -226 -31 -157 0 -183 2 -188 16 -3 9 -6 18 -6
20 0 2 27 4 59 4 93 0 91 -2 91 111 l0 99 30 0 30 0 0 -100z"/>
<path d="M5900 12670 l0 -950 1970 0 1970 0 0 950 0 950 -1970 0 -1970 0 0
-950z m1640 290 l0 -30 70 0 c63 0 70 -2 70 -20 0 -18 -7 -20 -65 -20 -36 0
-65 -4 -65 -9 0 -16 49 -49 83 -56 66 -13 68 -14 54 -36 -6 -10 -21 -19 -32
-19 -23 0 -120 43 -128 57 -4 6 -36 -5 -73 -24 -73 -36 -96 -40 -114 -18 -17
20 -6 31 35 38 39 6 105 43 105 58 0 5 -29 9 -65 9 -58 0 -65 2 -65 20 0 18 7
20 70 20 l70 0 0 30 c0 25 4 30 25 30 21 0 25 -5 25 -30z m260 -60 l0 -80 45
0 c38 0 45 -3 45 -20 0 -17 -7 -20 -45 -20 l-45 0 0 -65 c0 -63 -1 -65 -25
-65 l-25 0 0 165 0 165 25 0 c25 0 25 -1 25 -80z m660 -95 l0 -175 -25 0 c-23
0 -25 4 -25 45 l0 45 -64 0 c-44 0 -65 -4 -69 -13 -17 -45 -148 -62 -205 -27
-91 56 -97 200 -10 264 57 41 177 31 217 -18 10 -11 31 -16 72 -16 l59 0 0 35
c0 31 3 35 25 35 l25 0 0 -175z m640 25 l0 -150 -25 0 -25 0 0 150 0 150 25 0
25 0 0 -150z m-290 103 c1 -75 41 -132 134 -188 15 -9 15 -13 3 -29 -19 -26
-47 -14 -112 48 -52 51 -54 52 -64 30 -12 -26 -106 -104 -127 -104 -7 0 -18 8
-23 18 -8 16 -3 24 33 49 67 48 99 95 104 159 4 49 7 54 28 54 21 0 24 -5 24
-37z m-1926 -43 c16 -6 26 -17 26 -30 0 -19 -4 -20 -37 -13 -21 4 -62 7 -90 6
-98 -2 -162 -80 -163 -196 0 -160 114 -232 273 -172 13 6 17 2 17 -14 0 -57
-180 -70 -257 -19 -79 52 -115 179 -81 289 15 52 73 117 122 140 45 20 148 25
190 9z m386 -20 c0 -18 -7 -20 -70 -20 l-70 0 0 -210 0 -210 -30 0 -30 0 0
210 0 210 -65 0 c-58 0 -65 2 -65 20 0 19 7 20 165 20 158 0 165 -1 165 -20z
m270 -120 l0 -30 85 0 c77 0 85 -2 85 -19 0 -27 -25 -31 -222 -31 -171 0 -178
1 -178 20 0 18 7 20 74 20 94 0 106 5 106 41 0 24 4 29 25 29 21 0 25 -5 25
-30z m1560 -175 l0 -75 -160 0 -160 0 0 -35 0 -35 170 0 c163 0 170 -1 170
-20 0 -19 -7 -20 -200 -20 l-200 0 0 75 0 75 165 0 165 0 0 35 0 35 -165 0
c-158 0 -165 1 -165 20 0 19 7 20 190 20 l190 0 0 -75z m-1300 -20 l0 -65
-170 0 -170 0 0 -30 0 -30 180 0 c173 0 180 -1 180 -20 0 -19 -7 -20 -205 -20
l-205 0 0 70 0 70 170 0 170 0 0 25 0 25 -170 0 c-163 0 -170 1 -170 20 0 19
7 20 195 20 l195 0 0 -65z m606 46 c70 -32 90 -81 59 -141 -23 -45 -68 -63
-168 -68 -67 -3 -98 0 -132 13 -114 43 -113 160 0 200 60 21 191 19 241 -4z"/>
<path d="M8113 12915 c-87 -38 -80 -175 11 -205 75 -25 139 23 139 104 0 51
-24 91 -65 105 -39 14 -46 13 -85 -4z"/>
<path d="M8315 12815 l0 -55 48 0 47 0 0 55 0 55 -47 0 -48 0 0 -55z"/>
<path d="M8215 12571 c-59 -14 -76 -30 -73 -63 5 -51 43 -71 137 -72 66 -1 85
3 108 20 58 43 35 95 -48 113 -55 12 -80 12 -124 2z"/>
<path d="M22110 9070 l0 -1200 195 0 195 0 0 1200 0 1200 -195 0 -195 0 0
-1200z"/>
<path d="M4660 8370 l0 -1070 3405 0 3405 0 0 1070 0 1070 -3405 0 -3405 0 0
-1070z"/>
<path d="M16600 6025 l0 -1355 -845 0 -845 0 0 -225 0 -225 1040 0 1040 0 0
1580 0 1580 -195 0 -195 0 0 -1355z"/>
<path d="M17070 5795 l0 -1555 780 0 780 0 0 1555 0 1555 -780 0 -780 0 0
-1555z m720 955 l0 -40 81 0 c78 0 80 -1 77 -22 -3 -23 -5 -23 -185 -26 l-183
-2 0 25 c0 24 1 25 75 25 l75 0 0 33 c0 40 6 47 37 47 20 0 23 -5 23 -40z
m260 -95 l0 -135 45 0 c41 0 45 -2 45 -25 0 -23 -4 -25 -45 -25 l-45 0 0 -150
0 -150 -25 0 -25 0 0 310 0 310 25 0 25 0 0 -135z m-200 -37 c59 -30 79 -77
56 -132 -12 -30 -26 -42 -66 -59 -49 -21 -50 -22 -50 -65 l0 -45 90 7 90 7 0
-24 c0 -23 -3 -24 -107 -30 -194 -12 -300 -9 -307 9 -11 28 4 34 90 34 l84 0
0 44 c0 42 -1 44 -45 60 -55 22 -75 48 -75 102 0 95 133 146 240 92z m190
-598 l0 -80 45 0 c38 0 45 -3 45 -20 0 -17 -7 -20 -45 -20 l-45 0 0 -70 c0
-68 -1 -70 -25 -70 l-25 0 0 170 0 170 25 0 c25 0 25 -1 25 -80z m-140 30 c0
-18 -7 -20 -65 -20 -65 0 -65 0 -65 -28 0 -41 50 -114 103 -149 45 -30 46 -31
27 -48 -11 -10 -24 -14 -32 -9 -35 21 -96 76 -108 98 l-13 25 -29 -44 c-36
-54 -103 -109 -123 -101 -22 8 -32 39 -15 44 22 8 100 84 115 112 7 14 16 42
20 63 l7 37 -71 0 c-64 0 -71 2 -71 20 0 19 7 20 160 20 153 0 160 -1 160 -20z
m76 -329 c49 -22 74 -54 74 -96 0 -71 -71 -114 -189 -115 -86 0 -142 14 -176
46 -55 51 -38 125 37 163 58 28 193 30 254 2z m84 -451 l0 -150 -25 0 -25 0 0
150 0 150 25 0 25 0 0 -150z m-290 103 c1 -75 41 -132 134 -188 15 -9 15 -13
3 -29 -19 -26 -47 -14 -112 48 -52 51 -54 52 -64 30 -12 -26 -106 -104 -127
-104 -7 0 -18 8 -23 18 -8 16 -3 24 33 49 67 48 99 95 104 159 4 49 7 54 28
54 21 0 24 -5 24 -37z m290 -358 l0 -75 -160 0 -160 0 0 -35 0 -35 170 0 c163
0 170 -1 170 -20 0 -19 -7 -20 -200 -20 l-200 0 0 75 0 75 165 0 165 0 0 35 0
35 -165 0 c-158 0 -165 1 -165 20 0 19 7 20 190 20 l190 0 0 -75z"/>
<path d="M17686 6569 c-55 -44 -13 -109 71 -109 67 0 103 23 103 67 0 34 -45
63 -100 63 -33 0 -55 -6 -74 -21z"/>
<path d="M17786 5689 c-78 -19 -98 -72 -44 -112 33 -25 154 -29 206 -8 35 15
56 50 46 76 -15 39 -131 63 -208 44z"/>
<path d="M22890 2445 l0 -2095 1970 0 1970 0 0 2095 0 2095 -1970 0 -1970 0 0
-2095z m910 10 l0 -305 -30 0 -30 0 0 305 0 305 30 0 30 0 0 -305z m630 0 l0
-305 -30 0 -30 0 0 305 0 305 30 0 30 0 0 -305z m650 80 l0 -225 -25 0 -25 0
0 225 0 225 25 0 25 0 0 -225z m440 190 l0 -35 105 0 c98 0 105 -1 105 -20 0
-19 -7 -20 -235 -20 -228 0 -235 1 -235 20 0 19 7 20 105 20 l105 0 0 35 c0
31 3 35 25 35 22 0 25 -4 25 -35z m820 -85 l0 -120 50 0 c43 0 50 -3 50 -20 0
-17 -7 -20 -50 -20 l-50 0 0 -165 0 -165 -30 0 -30 0 0 305 0 305 30 0 30 0 0
-120z m-1480 82 c42 -22 80 -90 80 -142 0 -83 -68 -150 -154 -150 -100 0 -157
52 -163 147 -5 68 16 111 69 143 42 26 121 26 168 2z m-1303 -22 c52 -31 77
-91 77 -185 1 -136 -56 -215 -155 -215 -58 0 -102 28 -131 82 -18 34 -23 59
-23 123 0 140 54 215 155 215 27 0 58 -8 77 -20z m463 -65 l0 -75 95 0 95 0 0
75 c0 73 1 75 25 75 l25 0 0 -195 0 -195 -145 0 -145 0 0 195 0 195 25 0 c24
0 25 -2 25 -75z m2176 -92 c-3 -86 -8 -158 -10 -160 -2 -2 -14 -1 -27 2 -24 6
-24 6 -21 140 l3 135 -125 0 c-119 0 -126 1 -126 20 0 19 7 20 157 20 l156 0
-7 -157z m-592 66 c53 -15 86 -50 86 -92 0 -66 -65 -97 -199 -97 -131 1 -191
34 -191 108 0 57 69 91 185 92 44 0 97 -5 119 -11z m436 -189 l0 -100 105 0
c96 0 105 -2 105 -19 0 -27 -25 -31 -226 -31 -157 0 -183 2 -188 16 -3 9 -6
18 -6 20 0 2 27 4 59 4 93 0 91 -2 91 111 l0 99 30 0 30 0 0 -100z m-1290
-130 l0 -80 175 0 c168 0 175 -1 175 -20 0 -19 -7 -20 -205 -20 l-205 0 0 100
0 100 30 0 30 0 0 -80z m1030 60 c0 -19 -7 -20 -130 -20 l-130 0 0 -90 c0 -89
0 -90 -25 -90 -25 0 -25 1 -25 90 l0 90 -130 0 c-123 0 -130 1 -130 20 0 20 7
20 285 20 278 0 285 0 285 -20z"/>
<path d="M24733 2686 c-42 -19 -67 -68 -60 -118 7 -49 29 -75 78 -89 53 -16
108 11 128 64 36 96 -53 184 -146 143z"/>
<path d="M23439 2665 c-90 -50 -82 -277 12 -315 38 -16 69 -3 103 43 25 33 34
147 17 200 -22 66 -83 99 -132 72z"/>
<path d="M24020 2440 l0 -80 95 0 95 0 0 80 0 80 -95 0 -95 0 0 -80z"/>
<path d="M25440 2574 c-67 -13 -96 -36 -84 -68 21 -54 257 -54 278 0 8 21 -2
40 -29 52 -27 13 -129 22 -165 16z"/>
<path d="M2990 1345 l0 -955 1965 0 1965 0 0 955 0 955 -1965 0 -1965 0 0
-955z m1530 155 l0 -160 -25 0 c-24 0 -25 2 -25 70 l0 70 -70 0 c-63 0 -70 2
-70 20 0 18 7 20 70 20 l70 0 0 70 c0 68 1 70 25 70 l25 0 0 -160z m1010 115
l0 -45 70 0 c63 0 70 -2 70 -20 0 -18 -7 -20 -70 -20 l-70 0 0 -58 c0 -47 6
-68 33 -112 17 -30 53 -70 79 -89 44 -33 46 -36 31 -53 -9 -10 -20 -18 -25
-18 -14 0 -93 77 -124 121 l-28 40 -14 -28 c-21 -40 -80 -111 -108 -130 -23
-14 -26 -14 -44 2 -19 17 -18 19 37 69 69 62 103 130 103 204 l0 52 -70 0
c-63 0 -70 2 -70 20 0 18 7 20 70 20 l70 0 0 45 c0 43 1 45 30 45 29 0 30 -2
30 -45z m280 -260 l0 -305 -25 0 -25 0 0 170 0 170 -65 0 c-58 0 -65 2 -65 20
0 18 7 20 65 20 l65 0 0 115 0 115 25 0 25 0 0 -305z m-1440 255 c0 -18 -7
-20 -70 -20 -78 0 -81 -4 -54 -68 17 -43 55 -85 101 -113 28 -17 31 -24 23
-40 -17 -30 -35 -23 -102 39 l-62 59 -30 -40 c-17 -22 -48 -54 -68 -70 -37
-30 -38 -30 -58 -12 -25 23 -25 32 -1 40 51 16 130 127 131 183 0 21 -4 22
-65 22 -58 0 -65 2 -65 20 0 19 7 20 160 20 153 0 160 -1 160 -20z m610 -9 c0
-57 79 -120 177 -141 48 -11 51 -13 40 -31 -6 -10 -22 -19 -34 -19 -40 0 -129
39 -171 75 l-41 36 -45 -35 c-45 -34 -141 -76 -174 -76 -9 0 -23 9 -29 19 -11
18 -8 20 40 31 98 21 177 84 177 141 0 26 4 29 30 29 26 0 30 -3 30 -29z m250
-291 c0 -19 -7 -20 -125 -20 l-125 0 0 -120 0 -120 -30 0 -30 0 0 120 0 120
-125 0 c-118 0 -125 1 -125 20 0 20 7 20 280 20 273 0 280 0 280 -20z m-1040
-45 l0 -45 140 0 140 0 0 45 c0 41 2 45 25 45 l25 0 0 -120 0 -120 -190 0
-190 0 0 120 0 120 25 0 c23 0 25 -4 25 -45z"/>
<path d="M4190 1145 l0 -35 140 0 140 0 0 35 0 35 -140 0 -140 0 0 -35z"/>
</g>
</svg>
