<svg width="196" height="212" xmlns="http://www.w3.org/2000/svg" xmlns:xlink="http://www.w3.org/1999/xlink" xml:space="preserve" overflow="hidden"><g transform="translate(-108 -46)"><path d="M216.372 110.916 194.244 110.916C191.584 100.632 186.367 91.3826 179.272 83.888L191.061 67.5024C192.726 65.1902 192.2 61.9662 189.888 60.3038 187.573 58.6389 184.354 59.1678 182.689 61.4775L171.532 76.9846C162.471 70.1484 151.509 65.7317 139.56 64.7337L139.56 43.8562C139.56 41.0075 137.25 38.6978 134.402 38.6978 131.553 38.6978 129.243 41.0075 129.243 43.8562L129.243 64.7318C117.14 65.7358 106.035 70.2517 96.8952 77.2463L85.55 61.4775C83.8826 59.1653 80.6611 58.6313 78.3514 60.3038 76.0392 61.9662 75.5127 65.1902 77.1777 67.5024L89.2029 84.2164C82.2574 91.6533 77.1402 100.779 74.5137 110.916L51.8665 110.916C49.0178 110.916 46.7081 113.226 46.7081 116.074 46.7081 118.923 49.0178 121.233 51.8665 121.233L72.7371 121.233C72.596 122.932 72.476 124.638 72.476 126.372L72.476 178.424C74.1573 178.14 75.8729 177.958 77.6335 177.958L191.119 177.958C192.881 177.958 194.597 178.14 196.279 178.424L196.279 126.372C196.279 124.638 196.159 122.932 196.018 121.233L216.372 121.233C219.221 121.233 221.531 118.923 221.531 116.074 221.531 113.226 219.221 110.916 216.372 110.916ZM124.085 100.599C115.551 100.599 108.609 107.541 108.609 116.074 108.609 118.923 106.3 121.233 103.451 121.233 100.602 121.233 98.2925 118.923 98.2925 116.074 98.2925 101.853 109.864 90.2822 124.085 90.2822 126.933 90.2822 129.243 92.5919 129.243 95.4406 129.243 98.2894 126.933 100.599 124.085 100.599Z" fill="#F93E2B" transform="matrix(1.00092 0 0 1 71.7571 20.7131)"/><path d="M191.12 188.274 77.6345 188.274C66.2862 188.274 57.0007 197.559 57.0007 208.907 57.0007 220.308 66.2862 229.541 77.6345 229.541L191.12 229.541C202.52 229.541 211.754 220.308 211.754 208.907 211.754 197.559 202.52 188.274 191.12 188.274Z" transform="matrix(1.00092 0 0 1 71.7571 20.7131)"/></g></svg>