<?xml version="1.0" standalone="no"?>
<!DOCTYPE svg PUBLIC "-//W3C//DTD SVG 20010904//EN"
 "http://www.w3.org/TR/2001/REC-SVG-20010904/DTD/svg10.dtd">
<svg version="1.0" xmlns="http://www.w3.org/2000/svg"
 width="850.000000pt" height="600.000000pt" viewBox="0 0 850.000000 600.000000"
 preserveAspectRatio="xMidYMid meet">

<g transform="translate(0.000000,600.000000) scale(0.100000,-0.100000)"
fill="#000000" stroke="none">
<path d="M4087 4755 l3 -285 -1788 -2 -1787 -3 -3 -312 -2 -313 -235 0 c-228
0 -235 -1 -235 -20 0 -19 7 -20 255 -20 l255 0 0 315 0 315 1785 0 1785 0 0
285 0 285 23 5 c12 3 315 4 672 3 l650 -3 3 -287 2 -288 338 -2 337 -3 3 -267
2 -268 128 0 127 0 80 -138 c134 -231 173 -299 227 -389 l53 -88 5 -163 5
-163 385 -2 385 -2 3 -282 2 -283 113 0 c61 0 234 0 382 0 149 0 276 -4 283
-8 10 -7 12 -140 10 -633 l-3 -624 -3893 -3 -3892 -2 0 1205 0 1205 -255 0
c-248 0 -255 -1 -255 -20 0 -19 7 -20 235 -20 l235 0 0 -1205 0 -1205 3930 0
3930 0 0 670 0 670 -390 0 -390 0 0 285 0 285 -390 0 -390 0 0 143 0 144 -183
316 c-101 174 -189 323 -196 331 -10 12 -40 16 -129 18 l-117 3 -2 265 -1 265
-336 3 -336 2 0 285 0 285 -712 0 -713 0 2 -285z"/>
<path d="M4147 4708 l2 -273 196 -3 197 -2 31 26 32 27 3 -26 3 -27 420 0 419
0 0 275 0 275 -652 0 -653 0 2 -272z"/>
<path d="M572 4115 l3 -296 370 0 370 0 0 293 0 293 -373 3 -372 2 2 -295z
m403 165 c-3 -5 -15 -10 -26 -10 -25 0 -25 -26 1 -33 25 -6 36 -35 23 -56 -11
-18 -54 -22 -60 -5 -2 6 7 10 19 10 14 -1 24 6 26 17 3 13 -3 17 -22 17 -22 0
-26 5 -26 28 0 16 3 32 7 35 11 11 65 8 58 -3z m-204 -160 c24 -13 25 -46 2
-59 -16 -9 -16 -10 5 -11 12 0 22 -4 22 -10 0 -5 -7 -10 -15 -10 -9 0 -15 -9
-15 -25 0 -14 -4 -25 -10 -25 -5 0 -10 11 -10 25 0 16 -6 25 -15 25 -9 0 -15
-9 -15 -25 0 -14 -4 -25 -10 -25 -5 0 -10 11 -10 25 0 14 -4 25 -10 25 -5 0
-10 5 -10 10 0 6 10 10 23 10 20 1 20 2 5 11 -34 20 -13 68 30 69 7 0 22 -5
33 -10z m149 -10 c0 -11 4 -20 9 -20 5 0 4 -11 -2 -25 -18 -37 -27 -30 -27 20
0 25 5 45 10 45 6 0 10 -9 10 -20z m140 -55 l0 -75 -45 0 c-43 0 -45 1 -45 30
0 28 3 30 35 30 24 0 35 5 35 14 0 23 -23 24 -52 3 -38 -28 -47 -14 -12 17 28
24 28 25 7 26 -12 0 -25 5 -28 10 -4 6 9 10 30 10 29 0 36 -3 31 -15 -3 -9 0
-15 9 -15 8 0 15 9 15 20 0 11 5 20 10 20 6 0 10 -32 10 -75z m130 46 c0 -16
6 -32 13 -35 10 -5 10 -7 0 -12 -7 -3 -13 -21 -13 -40 0 -19 -4 -34 -10 -34
-6 0 -10 32 -10 75 0 43 4 75 10 75 6 0 10 -13 10 -29z m-360 9 c0 -5 7 -10
15 -10 8 0 15 5 15 10 0 6 5 10 10 10 6 0 10 -18 10 -40 0 -29 5 -42 20 -50
47 -25 -5 -75 -55 -52 -31 14 -32 40 -2 52 21 8 21 9 -5 9 -26 1 -28 4 -28 41
0 22 5 40 10 40 6 0 10 -4 10 -10z m300 -18 c0 -15 7 -38 16 -50 13 -19 13
-22 0 -22 -8 0 -17 6 -20 13 -3 8 -9 6 -20 -7 -22 -27 -32 -13 -12 16 9 12 16
35 16 50 0 16 5 28 10 28 6 0 10 -12 10 -28z"/>
<path d="M715 4100 c-4 -7 -3 -16 3 -22 14 -14 47 -6 47 12 0 18 -40 26 -50
10z"/>
<path d="M990 4010 c0 -5 11 -10 25 -10 14 0 25 5 25 10 0 6 -11 10 -25 10
-14 0 -25 -4 -25 -10z"/>
<path d="M830 4070 c0 -5 7 -10 15 -10 8 0 15 5 15 10 0 6 -7 10 -15 10 -8 0
-15 -4 -15 -10z"/>
<path d="M845 4010 c-8 -13 20 -24 41 -16 20 8 9 26 -16 26 -10 0 -22 -5 -25
-10z"/>
<path d="M1340 4240 l0 -170 350 2 351 3 0 165 1 165 -351 3 -351 2 0 -170z"/>
<path d="M2070 4115 l0 -295 315 0 c173 0 318 -1 323 -2 4 -2 8 131 10 295 l2
297 -325 0 -325 0 0 -295z m364 143 c7 -13 6 -26 -6 -51 -16 -34 -16 -35 5
-43 18 -6 16 -8 -17 -11 -21 -2 -40 -2 -43 1 -3 3 6 19 21 36 30 37 35 72 9
69 -31 -3 -38 1 -23 11 20 13 41 9 54 -12z m-158 -151 c8 3 14 0 14 -6 0 -6
-6 -11 -12 -11 -9 0 -8 -3 2 -10 8 -5 11 -12 7 -16 -3 -4 -13 -1 -22 6 -13 11
-14 10 -9 -4 3 -9 15 -16 25 -16 15 0 19 7 19 35 0 19 5 35 10 35 6 0 10 -6
10 -14 0 -8 6 -17 13 -20 10 -5 10 -7 0 -12 -7 -3 -13 -23 -13 -44 0 -37 -1
-39 -37 -43 l-38 -4 43 -1 c57 -3 45 -22 -14 -22 -43 0 -44 1 -44 33 0 18 -5
38 -12 45 -9 9 -8 12 8 12 16 0 17 2 4 10 -13 9 -13 11 0 20 10 6 11 10 3 10
-7 0 -13 4 -13 9 0 12 34 20 38 9 2 -4 10 -4 18 -1z m184 -32 c0 -42 -13 -61
-23 -32 -3 9 -9 9 -30 -2 -21 -11 -29 -12 -42 -1 -37 30 -7 74 44 64 20 -4 31
-3 31 5 0 6 5 11 10 11 6 0 10 -20 10 -45z m91 -8 c10 -8 16 -17 12 -20 -3 -4
-1 -7 5 -7 7 0 12 16 12 40 0 22 5 40 10 40 6 0 9 -30 8 -75 l-2 -75 -48 0
c-41 0 -48 3 -48 20 0 17 7 20 43 22 l42 1 -43 4 c-42 4 -50 23 -10 23 17 0
18 2 8 15 -12 14 -15 14 -31 -1 -24 -22 -37 -10 -17 13 8 10 19 27 23 38 8 19
9 19 12 -2 3 -13 13 -29 24 -36z m-110 -47 c44 -24 -1 -72 -47 -51 -28 13 -31
36 -6 50 22 13 29 13 53 1z"/>
<path d="M2253 4033 c9 -2 25 -2 35 0 9 3 1 5 -18 5 -19 0 -27 -2 -17 -5z"/>
<path d="M2370 4070 c0 -11 7 -20 15 -20 8 0 15 9 15 20 0 11 -7 20 -15 20 -8
0 -15 -9 -15 -20z"/>
<path d="M2420 4070 c0 -5 5 -10 10 -10 6 0 10 5 10 10 0 6 -4 10 -10 10 -5 0
-10 -4 -10 -10z"/>
<path d="M2390 3995 c0 -9 9 -15 25 -15 16 0 25 6 25 15 0 9 -9 15 -25 15 -16
0 -25 -6 -25 -15z"/>
<path d="M2747 4403 c-4 -3 -7 -136 -7 -294 l0 -288 202 -3 c199 -3 203 -3
222 20 11 12 25 22 32 22 7 0 14 -10 16 -22 2 -13 6 -22 11 -20 4 1 45 2 92 2
l85 0 -2 293 -3 292 -321 3 c-176 1 -323 -1 -327 -5z m193 -198 c0 -43 -4 -75
-10 -75 -5 0 -10 8 -10 18 0 14 -8 16 -51 13 -36 -2 -49 0 -45 8 4 6 27 11 52
11 l44 0 0 50 c0 28 5 50 10 50 6 0 10 -32 10 -75z m270 30 c0 -42 -13 -61
-22 -33 -4 10 -10 10 -31 1 -45 -21 -78 8 -56 48 9 17 17 19 50 14 25 -4 39
-3 39 4 0 6 5 11 10 11 6 0 10 -20 10 -45z m130 25 c0 -11 4 -20 9 -20 5 0 4
-11 -2 -25 -18 -37 -27 -30 -27 20 0 25 5 45 10 45 6 0 10 -9 10 -20z m-446
-6 c9 -8 16 -19 16 -24 0 -13 -30 -40 -44 -40 -17 0 -36 21 -36 40 0 19 19 40
36 40 7 0 20 -7 28 -16z m176 -9 c0 -22 -4 -25 -40 -25 -22 0 -40 -4 -40 -10
0 -5 18 -10 40 -10 22 0 40 -4 40 -10 0 -5 -4 -10 -10 -10 -5 0 -10 -4 -10
-10 0 -5 9 -10 21 -10 11 0 17 -4 14 -10 -3 -5 -33 -10 -66 -10 -33 0 -59 4
-59 10 0 6 7 10 15 10 8 0 15 5 15 10 0 6 -4 10 -10 10 -5 0 -10 14 -10 30 0
28 2 30 43 32 l42 1 -42 4 c-60 6 -54 23 7 23 47 0 50 -2 50 -25z m210 8 c0
-9 8 -25 18 -36 16 -20 16 -20 -7 -14 -14 3 -31 1 -38 -5 -21 -17 -28 0 -10
20 10 10 17 26 17 35 0 9 5 17 10 17 6 0 10 -8 10 -17z m-89 -73 c26 -15 24
-38 -6 -52 -48 -22 -102 25 -57 51 22 13 39 13 63 1z m130 0 c25 -14 24 -36
-2 -50 -44 -24 -95 13 -63 45 18 18 38 19 65 5z m-321 -94 c0 -13 6 -27 13
-30 10 -5 10 -7 0 -12 -7 -3 -13 -17 -13 -30 0 -13 -4 -24 -10 -24 -5 0 -10 7
-10 15 0 16 -17 19 -44 9 -26 -10 -6 -34 30 -34 19 0 34 -4 34 -10 0 -5 -20
-10 -45 -10 -40 0 -45 2 -45 23 0 13 -5 28 -12 35 -9 9 -8 12 5 12 9 0 17 7
17 15 0 8 5 15 10 15 6 0 10 -7 10 -15 0 -8 9 -15 20 -15 17 0 20 7 20 40 0
22 5 40 10 40 6 0 10 -11 10 -24z m140 -56 c0 -47 -4 -80 -10 -80 -5 0 -10 10
-10 23 0 20 -4 22 -45 19 l-45 -4 0 36 c0 32 3 36 25 36 14 0 25 5 25 10 0 6
-11 10 -25 10 -14 0 -25 5 -25 10 0 6 16 10 35 10 32 0 35 -2 35 -30 0 -25 -4
-30 -25 -30 -16 0 -25 -6 -25 -15 0 -10 11 -15 35 -15 l35 0 0 50 c0 28 5 50
10 50 6 0 10 -33 10 -80z m91 27 c10 -8 16 -17 12 -20 -3 -4 -1 -7 5 -7 7 0
12 16 12 40 0 22 5 40 10 40 6 0 9 -30 8 -75 l-2 -75 -48 0 c-41 0 -48 3 -48
20 0 17 7 20 43 22 l42 1 -43 4 c-42 4 -50 23 -10 23 17 0 18 2 8 15 -12 14
-15 14 -31 -1 -24 -22 -37 -10 -17 13 8 10 19 27 23 38 8 19 9 19 12 -2 3 -13
13 -29 24 -36z m-261 19 c0 -14 -4 -28 -10 -31 -5 -3 -10 3 -10 14 0 16 -6 21
-25 21 -14 0 -25 5 -25 10 0 6 16 10 35 10 30 0 35 -3 35 -24z"/>
<path d="M3114 4239 c-3 -6 -2 -15 4 -21 13 -13 32 -2 32 18 0 16 -26 19 -36
3z"/>
<path d="M3170 4230 c0 -5 5 -10 10 -10 6 0 10 5 10 10 0 6 -4 10 -10 10 -5 0
-10 -4 -10 -10z"/>
<path d="M2857 4244 c-14 -14 -7 -35 11 -32 9 2 17 10 17 17 0 16 -18 25 -28
15z"/>
<path d="M3010 4170 c0 -5 5 -10 10 -10 6 0 10 5 10 10 0 6 -4 10 -10 10 -5 0
-10 -4 -10 -10z"/>
<path d="M3137 4164 c-11 -12 3 -24 29 -24 15 0 24 6 24 15 0 15 -40 21 -53 9z"/>
<path d="M3265 4160 c-8 -13 20 -24 41 -16 20 8 9 26 -16 26 -10 0 -22 -5 -25
-10z"/>
<path d="M3420 4115 l0 -294 160 -3 160 -3 0 298 0 297 -160 0 -160 0 0 -295z
m150 84 c0 6 5 11 10 11 6 0 10 -16 10 -35 0 -34 -12 -46 -25 -24 -4 6 -14 8
-22 5 -11 -5 -13 -2 -9 10 3 8 6 23 6 31 0 13 3 13 15 3 10 -9 15 -9 15 -1z
m65 1 c4 -6 1 -17 -5 -25 -6 -8 -9 -19 -5 -25 3 -5 2 -10 -4 -10 -15 0 -23 18
-11 25 5 3 10 13 10 21 0 9 -5 12 -12 8 -7 -4 -8 -3 -4 4 9 15 23 15 31 2z
m-125 -100 c0 -5 5 -10 11 -10 5 0 7 5 3 11 -4 7 -1 10 7 7 22 -7 16 -33 -8
-36 -27 -4 -30 -19 -5 -25 13 -4 13 -5 -4 -6 -23 -1 -37 29 -27 55 6 16 23 19
23 4z m70 0 c0 -5 6 -10 13 -10 7 0 14 -11 15 -24 1 -22 -1 -23 -22 -13 -23
11 -35 57 -15 57 5 0 9 -4 9 -10z m69 -11 c-22 -14 -33 -10 -19 6 7 8 17 12
22 9 6 -4 5 -10 -3 -15z m41 11 c0 -5 -4 -10 -10 -10 -5 0 -10 5 -10 10 0 6 5
10 10 10 6 0 10 -4 10 -10z m-10 -40 c0 -13 -7 -20 -19 -20 -41 0 -29 28 17
39 1 1 2 -8 2 -19z"/>
<path d="M3770 4113 l0 -293 55 0 c52 0 55 1 55 25 0 30 22 33 48 8 16 -17 18
-17 35 0 25 25 47 22 47 -8 0 -24 3 -25 55 -25 l55 0 0 290 0 289 -175 3 -175
3 0 -292z m170 187 c0 -17 -7 -20 -39 -20 l-39 0 2 -41 c1 -22 -2 -43 -6 -45
-5 -3 -4 -12 2 -19 6 -7 8 -19 4 -28 -8 -21 7 -28 70 -28 91 -1 92 0 92 86
l-1 75 -37 0 c-31 0 -38 4 -38 20 0 18 7 20 74 20 l74 0 -1 -65 -1 -65 -30 -2
-31 -1 33 -4 c24 -3 32 -9 32 -24 0 -14 -8 -19 -32 -21 l-33 -1 31 -4 c29 -4
31 -7 31 -44 0 -38 -1 -39 -36 -41 l-36 -1 37 -4 36 -4 -1 -65 -1 -64 -72 0
c-71 0 -72 0 -77 29 -4 20 -12 28 -24 27 -15 -1 -18 9 -21 62 -3 62 -3 64 20
57 18 -6 20 -4 12 5 -7 6 -22 10 -35 8 -22 -3 -24 -8 -26 -70 l-1 -67 34 -7
c24 -4 34 -12 34 -25 0 -17 -8 -19 -74 -19 l-74 0 0 65 0 65 37 2 36 1 -37 4
c-36 4 -37 5 -36 44 0 35 3 39 27 40 l26 2 -27 4 c-20 3 -28 10 -28 24 0 14 7
19 28 20 l27 2 -27 4 c-27 4 -28 6 -27 69 l1 64 74 0 c67 0 74 -2 74 -20z m9
-106 c-24 -24 -45 -40 -47 -35 -4 13 78 95 86 86 3 -3 -14 -26 -39 -51z"/>
<path d="M3968 4093 c22 -4 29 -33 23 -100 -1 -12 3 -24 9 -28 6 -4 10 19 10
64 l0 71 -32 -1 c-24 -1 -27 -3 -10 -6z"/>
<path d="M3937 4040 c3 -11 7 -20 9 -20 2 0 4 9 4 20 0 11 -4 20 -9 20 -5 0
-7 -9 -4 -20z"/>
<path d="M4150 4405 c-1 -7 -1 -243 0 -252 0 -5 66 -7 147 -6 l148 1 0 129 0
128 -147 3 c-82 1 -148 0 -148 -3z m110 -114 c0 -5 3 -16 6 -24 4 -12 0 -14
-15 -10 -21 5 -28 23 -14 36 9 10 23 9 23 -2z m108 -11 c3 -9 -1 -11 -12 -7
-9 4 -16 1 -16 -5 0 -6 -2 -9 -5 -6 -3 3 -3 13 1 22 7 19 25 17 32 -4z m-158
6 c0 -2 -7 -9 -15 -16 -13 -11 -14 -10 -9 4 5 14 24 23 24 12z m110 -3 c0 -5
-5 -15 -10 -23 -9 -13 -11 -13 -20 0 -15 22 -12 30 10 30 11 0 20 -3 20 -7z
m100 -18 c0 -9 -9 -15 -21 -15 -18 0 -19 2 -9 15 7 8 16 15 21 15 5 0 9 -7 9
-15z"/>
<path d="M4657 4403 c-4 -3 -7 -170 -7 -370 l0 -363 145 0 144 0 3 113 3 112
233 3 232 2 -2 253 -3 252 -371 3 c-204 1 -373 -1 -377 -5z"/>
<path d="M5430 4105 l0 -305 270 0 270 0 0 25 c0 30 20 33 45 5 l18 -20 14 20
c20 28 43 25 43 -6 0 -19 4 -25 18 -22 16 3 17 26 17 303 l0 300 -347 3 -348
2 0 -305z m280 120 c19 -22 4 -64 -25 -71 -16 -4 -25 -13 -25 -25 0 -10 -4
-19 -10 -19 -6 0 -10 28 -10 65 0 65 0 65 29 65 16 0 34 -7 41 -15z m95 5 c-3
-5 -15 -10 -26 -10 -12 0 -19 -7 -19 -20 0 -13 7 -20 20 -20 11 0 20 -4 20
-10 0 -5 -9 -10 -20 -10 -11 0 -20 -7 -20 -15 0 -9 9 -15 25 -15 14 0 25 -4
25 -10 0 -5 -16 -10 -35 -10 l-35 0 0 65 0 65 36 0 c21 0 33 -4 29 -10z m95 0
c0 -5 -7 -10 -15 -10 -12 0 -15 -13 -15 -55 0 -30 -4 -55 -10 -55 -5 0 -10 25
-10 55 0 42 -3 55 -15 55 -8 0 -15 5 -15 10 0 6 18 10 40 10 22 0 40 -4 40
-10z m-130 -210 c0 -27 -4 -52 -10 -55 -6 -4 -10 17 -10 55 0 38 4 59 10 55 6
-3 10 -28 10 -55z m130 -14 c0 -41 -4 -78 -10 -81 -6 -4 -10 12 -10 39 0 46 0
46 -35 46 -24 0 -35 -5 -35 -15 0 -9 9 -15 25 -15 14 0 25 -4 25 -10 0 -5 -16
-10 -35 -10 l-35 0 0 55 c0 54 0 55 29 55 17 0 33 -4 36 -10 4 -6 -5 -10 -19
-10 -32 0 -34 -16 -3 -22 34 -7 47 1 47 28 0 13 5 24 10 24 6 0 10 -31 10 -74z
m-199 10 c15 -16 10 -30 -5 -17 -10 8 -16 9 -21 1 -12 -20 -25 -10 -16 13 5
12 13 31 17 42 7 18 8 18 12 -5 2 -14 8 -29 13 -34z m39 4 c0 -27 -4 -50 -10
-50 -5 0 -10 11 -10 24 0 13 -6 27 -12 30 -10 5 -10 7 0 12 6 3 12 12 12 20 0
8 5 14 10 14 6 0 10 -22 10 -50z m-50 -55 c0 -11 11 -15 40 -15 22 0 40 -4 40
-10 0 -5 -22 -10 -50 -10 -47 0 -50 2 -50 25 0 14 5 25 10 25 6 0 10 -7 10
-15z"/>
<path d="M5660 4194 c0 -33 33 -30 38 4 3 17 -2 22 -17 22 -16 0 -21 -6 -21
-26z"/>
<path d="M4150 4123 c-1 -2 -1 -71 -1 -154 l-1 -150 149 0 148 0 0 151 0 151
-148 2 c-81 1 -147 1 -147 0z m116 -123 c0 -12 -7 -20 -17 -20 -9 0 -19 9 -22
20 -4 16 0 20 17 20 15 0 22 -6 22 -20z m104 10 c0 -5 -6 -7 -14 -4 -7 3 -21
-2 -30 -11 -15 -15 -16 -15 -16 2 0 14 8 19 30 21 17 1 30 -2 30 -8z m-70 -10
c0 -5 -4 -10 -10 -10 -5 0 -10 5 -10 10 0 6 5 10 10 10 6 0 10 -4 10 -10z
m-80 -58 c0 -4 -9 -8 -20 -9 -11 -1 -20 2 -20 8 0 5 9 9 20 9 11 0 20 -4 20
-8z m54 -4 c5 -10 7 -10 12 0 7 15 34 16 34 1 0 -8 5 -7 15 1 9 7 18 10 22 6
3 -3 1 -6 -6 -6 -7 0 -9 -5 -6 -10 4 -6 11 -8 16 -5 5 4 9 1 9 -5 0 -7 -7 -9
-16 -6 -41 16 -64 18 -64 6 0 -10 -5 -9 -17 2 -10 9 -24 13 -30 11 -7 -3 -13
0 -13 6 0 15 37 14 44 -1z m135 3 c20 -13 6 -42 -16 -34 -10 4 -12 8 -5 11 7
2 12 8 12 13 0 6 -4 7 -10 4 -5 -3 -10 -1 -10 4 0 13 10 14 29 2z"/>
<path d="M1820 4011 c0 -10 -6 -22 -12 -24 -10 -4 -10 -6 0 -6 6 -1 12 -11 12
-22 0 -19 -4 -21 -35 -16 -32 5 -35 4 -35 -19 0 -22 4 -24 45 -24 l45 0 0 59
c0 33 -4 63 -10 66 -5 3 -10 -3 -10 -14z m0 -91 c0 -5 -11 -10 -25 -10 -14 0
-25 5 -25 10 0 6 11 10 25 10 14 0 25 -4 25 -10z"/>
<path d="M1748 4013 c17 -7 15 -30 -4 -41 -12 -7 -6 -9 24 -9 35 0 39 2 26 14
-19 19 -18 31 4 36 9 3 -1 5 -23 5 -22 0 -34 -2 -27 -5z"/>
<path d="M1893 3994 c-30 -32 -29 -40 1 -20 15 10 27 12 31 6 3 -6 16 -10 28
-9 l22 0 -22 11 c-13 6 -23 17 -23 25 0 19 -12 15 -37 -13z"/>
<path d="M1883 3943 c19 -3 27 -10 27 -24 0 -10 5 -19 10 -19 6 0 10 9 10 19
0 14 8 21 28 24 15 2 -2 4 -38 4 -36 0 -53 -2 -37 -4z"/>
<path d="M4964 3867 c-7 -20 0 -332 9 -329 4 1 104 2 222 2 l215 0 0 170 0
170 -220 0 c-171 0 -222 -3 -226 -13z"/>
<path d="M6150 3675 l0 -195 230 0 c127 0 230 3 230 8 0 4 -49 90 -108 192
l-108 185 -122 3 -122 3 0 -196z"/>
<path d="M1617 3845 c-10 -27 10 -30 195 -28 163 2 193 4 196 17 3 13 -24 16
-192 18 -124 2 -197 -1 -199 -7z"/>
<path d="M3900 3754 c-34 -33 -36 -62 -2 -31 28 25 32 21 32 -28 0 -25 5 -45
10 -45 6 0 10 20 10 45 0 47 12 58 29 28 7 -13 13 -15 21 -7 7 7 0 19 -27 41
l-38 30 -35 -33z"/>
<path d="M2420 3764 c0 -14 -8 -16 -51 -11 -61 7 -89 -5 -89 -38 0 -34 30 -47
90 -39 42 6 50 4 50 -10 0 -9 5 -16 10 -16 6 0 10 28 10 65 0 37 -4 65 -10 65
-5 0 -10 -7 -10 -16z m-65 -49 c0 -22 -31 -33 -47 -17 -17 17 -1 44 24 40 15
-2 23 -10 23 -23z m65 0 c0 -8 -9 -15 -20 -15 -11 0 -20 7 -20 15 0 8 9 15 20
15 11 0 20 -7 20 -15z"/>
<path d="M5430 3550 l0 -230 240 0 240 0 0 230 0 230 -240 0 -240 0 0 -230z"/>
<path d="M5930 3540 l0 -240 -222 -2 -223 -3 0 -460 0 -460 240 0 240 0 3 23
c4 26 19 28 43 6 17 -15 19 -15 34 0 25 24 45 20 45 -10 0 -19 4 -25 18 -22
16 3 17 46 20 706 l2 702 -100 0 -100 0 0 -240z m-260 -420 c0 -5 9 -10 20
-10 11 0 20 5 20 10 0 6 5 10 10 10 6 0 10 -11 10 -25 0 -16 6 -25 15 -25 9 0
15 9 15 25 0 14 5 25 10 25 6 0 10 -27 10 -60 0 -33 -4 -60 -10 -60 -5 0 -10
11 -10 25 0 16 -6 25 -15 25 -9 0 -15 -9 -15 -25 0 -14 -4 -25 -10 -25 -5 0
-10 18 -10 40 0 29 -4 40 -15 40 -13 0 -13 -3 -3 -20 18 -28 -1 -55 -37 -55
-36 0 -55 27 -37 55 10 17 10 20 -3 20 -8 0 -15 5 -15 10 0 6 9 10 20 10 11 0
20 5 20 10 0 6 7 10 15 10 8 0 15 -4 15 -10z m310 -90 c0 -82 -3 -100 -15
-100 -12 0 -15 18 -15 100 0 82 3 100 15 100 12 0 15 -18 15 -100z m-66 74
c32 -32 8 -84 -39 -84 -28 0 -55 24 -55 50 0 26 27 50 55 50 13 0 31 -7 39
-16z m-134 -140 c0 -39 -23 -44 -28 -6 -3 20 -10 22 -58 22 -30 0 -54 5 -54
10 0 6 30 10 70 10 l70 0 0 -36z m160 27 c0 -14 -27 -21 -81 -21 -66 0 -63 18
4 23 28 2 58 4 65 5 6 1 12 -2 12 -7z m-260 -91 c0 -5 11 -10 25 -10 14 0 25
-4 25 -10 0 -5 -9 -10 -20 -10 -18 0 -19 -2 -8 -20 27 -42 -40 -81 -76 -45
-20 20 -20 29 0 49 14 15 14 16 -5 16 -12 0 -21 5 -21 10 0 6 11 10 25 10 14
0 25 5 25 10 0 6 7 10 15 10 8 0 15 -4 15 -10z m90 -14 c0 -13 6 -27 13 -29 9
-4 9 -7 -1 -15 -8 -5 -14 -33 -15 -67 -1 -36 -7 -60 -14 -63 -8 -2 -13 6 -13
22 0 25 -3 26 -55 26 -30 0 -55 5 -55 10 0 6 25 10 55 10 l55 0 0 65 c0 51 3
65 15 65 9 0 15 -9 15 -24z m200 -16 c0 -29 4 -40 15 -40 8 0 15 -4 15 -10 0
-5 -7 -10 -15 -10 -11 0 -15 -12 -15 -50 0 -38 -4 -50 -15 -50 -12 0 -15 18
-15 100 0 82 3 100 15 100 11 0 15 -11 15 -40z m-50 -25 c0 -33 -4 -45 -15
-45 -10 0 -15 11 -15 35 0 33 -2 35 -35 35 -19 0 -35 5 -35 10 0 6 23 10 50
10 l50 0 0 -45z m-50 -41 c0 -35 1 -35 31 -29 24 6 30 4 27 -6 -6 -17 -118
-26 -118 -9 0 5 7 10 15 10 10 0 15 10 15 28 0 16 3 32 7 35 15 15 23 5 23
-29z m48 -321 c-3 -86 -3 -88 -28 -88 -25 0 -25 2 -28 88 l-3 87 31 0 31 0 -3
-87z"/>
<path d="M5635 3060 c-4 -7 -3 -16 3 -22 14 -14 45 -2 40 15 -6 16 -34 21 -43
7z"/>
<path d="M5854 3086 c-9 -24 4 -48 23 -44 12 2 18 12 18 28 0 29 -32 41 -41
16z"/>
<path d="M5645 2840 c-4 -7 -3 -16 3 -22 14 -14 45 -2 40 15 -6 16 -34 21 -43
7z"/>
<path d="M2610 3710 c0 -33 4 -60 10 -60 6 0 10 11 10 25 0 16 6 25 15 25 8 0
15 5 15 10 0 6 -7 10 -15 10 -9 0 -15 9 -15 25 0 14 -4 25 -10 25 -6 0 -10
-27 -10 -60z"/>
<path d="M2820 3670 c0 -60 4 -100 10 -100 6 0 10 40 10 100 0 60 -4 100 -10
100 -6 0 -10 -40 -10 -100z"/>
<path d="M2930 3760 c0 -5 -9 -10 -20 -10 -11 0 -20 -4 -20 -10 0 -5 7 -10 15
-10 12 0 13 -4 4 -19 -25 -38 13 -73 57 -53 28 13 32 46 7 61 -16 9 -16 10 5
11 12 0 22 5 22 10 0 6 -11 10 -25 10 -14 0 -25 5 -25 10 0 6 -4 10 -10 10 -5
0 -10 -4 -10 -10z m35 -70 c0 -8 -10 -16 -22 -18 -18 -3 -23 2 -23 18 0 16 5
21 23 18 12 -2 22 -10 22 -18z"/>
<path d="M3020 3710 c0 -33 4 -60 10 -60 6 0 10 11 10 25 0 16 6 25 15 25 8 0
15 5 15 10 0 6 -7 10 -15 10 -9 0 -15 9 -15 25 0 14 -4 25 -10 25 -6 0 -10
-27 -10 -60z"/>
<path d="M3220 3670 c0 -60 4 -100 10 -100 6 0 10 23 10 50 0 38 4 50 15 50 8
0 15 5 15 10 0 6 -7 10 -15 10 -11 0 -15 11 -15 40 0 22 -4 40 -10 40 -6 0
-10 -40 -10 -100z"/>
<path d="M2525 3730 c-4 -16 -16 -36 -27 -44 -12 -8 -15 -16 -9 -20 6 -4 19 2
30 13 17 17 21 18 32 5 6 -8 18 -14 27 -14 12 0 11 5 -6 23 -12 13 -22 33 -22
45 0 32 -17 27 -25 -8z"/>
<path d="M2712 3744 c-12 -8 -22 -23 -22 -33 0 -21 30 -51 51 -51 24 0 59 30
59 50 0 19 -35 50 -55 50 -6 0 -21 -7 -33 -16z m58 -19 c10 -12 10 -18 0 -30
-7 -8 -18 -15 -25 -15 -7 0 -18 7 -25 15 -10 12 -10 18 0 30 7 8 18 15 25 15
7 0 18 -7 25 -15z"/>
<path d="M3100 3740 c0 -5 19 -10 41 -10 l41 0 -6 -35 c-4 -20 -3 -35 2 -35
13 0 22 25 22 61 0 28 -1 29 -50 29 -27 0 -50 -4 -50 -10z"/>
<path d="M220 3685 c0 -30 5 -55 10 -55 6 0 10 25 10 55 0 30 -4 55 -10 55 -5
0 -10 -25 -10 -55z"/>
<path d="M350 3680 c0 -45 3 -61 11 -53 14 14 14 92 0 106 -8 8 -11 -6 -11
-53z"/>
<path d="M490 3726 c0 -18 -21 -21 -37 -5 -20 20 -53 1 -53 -31 0 -32 33 -51
53 -31 18 18 37 13 37 -9 0 -11 5 -20 10 -20 13 0 11 98 -2 106 -4 3 -8 -2 -8
-10z m-35 -36 c0 -8 -10 -16 -22 -18 -18 -3 -23 2 -23 18 0 16 5 21 23 18 12
-2 22 -10 22 -18z m35 0 c0 -5 -4 -10 -10 -10 -5 0 -10 5 -10 10 0 6 5 10 10
10 6 0 10 -4 10 -10z"/>
<path d="M630 3730 c0 -5 -19 -8 -42 -6 -24 2 -35 2 -25 -1 24 -6 21 -18 -10
-42 -16 -11 -23 -21 -16 -21 6 0 25 11 41 25 31 26 52 32 52 16 0 -5 -8 -12
-17 -14 -17 -4 -17 -5 0 -6 9 0 17 -5 17 -11 0 -5 5 -10 10 -10 6 0 10 18 10
40 0 22 -4 40 -10 40 -5 0 -10 -4 -10 -10z"/>
<path d="M150 3711 c0 -11 -7 -27 -16 -36 -9 -9 -13 -19 -9 -23 3 -4 13 2 21
12 13 19 14 19 34 1 11 -10 20 -13 20 -8 0 6 -7 16 -15 23 -8 7 -15 21 -15 31
0 11 -4 19 -10 19 -5 0 -10 -9 -10 -19z"/>
<path d="M710 3700 c0 -24 4 -30 23 -31 18 -1 16 -3 -8 -9 -23 -6 -14 -8 35
-7 36 0 52 2 35 5 l-30 5 25 7 c21 7 18 8 -17 9 -53 1 -57 18 -5 24 l37 4 -40
3 -40 3 45 7 45 7 -52 1 c-53 2 -53 2 -53 -28z"/>
<path d="M888 3723 c57 -5 59 -33 3 -33 -34 0 -40 -3 -38 -20 1 -12 8 -20 19
-20 29 0 21 -28 -9 -33 -16 -2 1 -4 37 -4 36 0 53 2 38 4 -34 5 -37 30 -5 36
12 2 3 5 -20 6 -54 1 -57 21 -3 21 36 0 40 3 40 25 0 24 -3 25 -52 23 -51 -1
-51 -2 -10 -5z"/>
<path d="M293 3713 c20 -3 27 -10 28 -26 0 -21 1 -21 9 -2 14 32 12 35 -27 34
-31 -2 -33 -3 -10 -6z"/>
<path d="M280 3676 c0 -8 -6 -17 -12 -19 -7 -3 7 -5 32 -5 25 0 35 3 23 5 -13
2 -23 11 -23 19 0 8 -4 14 -10 14 -5 0 -10 -6 -10 -14z"/>
<path d="M3130 3660 c0 -23 -4 -30 -20 -30 -11 0 -20 -4 -20 -10 0 -12 64 -12
100 0 24 8 23 8 -7 9 -30 1 -33 4 -33 31 0 17 -4 30 -10 30 -5 0 -10 -13 -10
-30z"/>
<path d="M590 3640 l45 -7 -42 -1 c-36 -2 -43 -5 -43 -22 0 -18 6 -20 53 -18
50 1 50 2 10 5 -53 5 -56 21 -6 25 61 5 54 28 -9 26 l-53 -1 45 -7z"/>
<path d="M2328 3639 c-24 -13 -23 -46 1 -59 44 -23 111 -5 111 30 0 35 -71 53
-112 29z m87 -29 c0 -18 -62 -27 -77 -12 -18 18 3 33 40 30 25 -2 37 -8 37
-18z"/>
<path d="M2528 3639 c-49 -28 1 -77 65 -65 36 7 51 25 41 50 -9 25 -74 34
-106 15z m87 -29 c0 -18 -62 -27 -77 -12 -18 18 3 33 40 30 25 -2 37 -8 37
-18z"/>
<path d="M142 3615 c2 -23 6 -25 53 -23 50 1 50 1 8 5 -35 3 -43 8 -43 24 0
10 -4 19 -10 19 -5 0 -9 -11 -8 -25z"/>
<path d="M420 3615 c0 -23 3 -25 48 -23 43 1 44 2 10 5 -30 3 -38 9 -38 24 0
10 -4 19 -10 19 -5 0 -10 -11 -10 -25z"/>
<path d="M2740 3630 c-46 -4 -60 -8 -47 -14 25 -12 137 4 116 17 -2 1 -33 0
-69 -3z"/>
<path d="M2910 3630 c0 -5 25 -10 55 -10 52 0 55 -1 55 -25 0 -14 5 -25 10
-25 6 0 10 16 10 35 l0 35 -65 0 c-37 0 -65 -4 -65 -10z"/>
<path d="M280 3610 c0 -17 6 -20 48 -18 43 1 44 2 10 5 -25 3 -38 9 -38 19 0
8 -4 14 -10 14 -5 0 -10 -9 -10 -20z"/>
<path d="M720 3610 c0 -17 7 -20 40 -20 33 0 40 3 40 20 0 17 -7 20 -40 20
-33 0 -40 -3 -40 -20z m70 0 c0 -5 -13 -10 -30 -10 -16 0 -30 5 -30 10 0 6 14
10 30 10 17 0 30 -4 30 -10z"/>
<path d="M4612 3480 l-3 -70 59 0 59 0 5 38 c3 20 3 52 1 70 -5 30 -8 32 -44
32 -28 0 -39 -4 -39 -15 0 -8 -5 -15 -11 -15 -6 0 -9 7 -5 15 3 8 0 15 -7 15
-9 0 -14 -21 -15 -70z m108 10 c0 -38 -15 -70 -32 -70 -38 0 -59 19 -52 48 4
15 8 30 10 33 4 8 74 -2 74 -11z"/>
<path d="M577 3513 c-4 -3 -7 -64 -7 -135 l0 -128 296 0 296 0 -4 133 -3 132
-286 3 c-157 1 -288 -1 -292 -5z"/>
<path d="M1180 3500 c0 -18 6 -20 71 -20 62 0 70 2 67 18 -3 14 -16 18 -71 20
-62 3 -67 1 -67 -18z"/>
<path d="M2068 3368 l-3 -153 -217 -3 -218 -2 0 -415 0 -415 270 0 270 0 0
570 0 570 -50 0 -49 0 -3 -152z m-228 -455 c-1 -18 -18 -35 -24 -24 -4 6 -4
16 -1 21 7 12 25 13 25 3z m33 -16 c-4 -7 -6 -20 -5 -29 2 -13 -4 -18 -22 -18
-31 0 -34 15 -6 32 11 7 20 19 20 26 0 7 5 10 10 7 6 -4 7 -12 3 -18z m73 -14
c8 -30 4 -34 -27 -25 -24 7 -34 25 -25 48 8 20 46 4 52 -23z m34 7 c-18 -11
-22 -7 -14 14 5 13 10 14 18 6 8 -8 7 -13 -4 -20z m37 -2 c-2 -29 -7 -33 -32
-36 l-30 -3 28 24 c15 13 27 29 27 36 0 6 2 11 5 11 3 0 4 -15 2 -32z m-186
-100 c-3 -21 -6 -26 -9 -15 -3 17 3 47 11 47 2 0 1 -15 -2 -32z m54 15 c12 29
25 19 21 -15 -3 -27 -8 -33 -26 -33 -19 0 -23 6 -27 35 -3 32 -2 33 11 15 14
-19 15 -19 21 -2z m93 -14 c3 -23 0 -26 -28 -25 -21 1 -29 5 -25 14 3 8 5 20
5 29 0 9 8 13 23 11 15 -2 23 -11 25 -29z m29 -16 c-3 -10 -5 -4 -5 12 0 17 2
24 5 18 2 -7 2 -21 0 -30z"/>
<path d="M1915 2880 c-3 -5 -2 -10 4 -10 5 0 13 5 16 10 3 6 2 10 -4 10 -5 0
-13 -4 -16 -10z"/>
<path d="M1870 2770 c0 -5 5 -10 10 -10 6 0 10 5 10 10 0 6 -4 10 -10 10 -5 0
-10 -4 -10 -10z"/>
<path d="M1950 2796 c0 -9 5 -16 10 -16 6 0 10 4 10 9 0 6 -4 13 -10 16 -5 3
-10 -1 -10 -9z"/>
<path d="M2197 3513 c-4 -3 -7 -260 -7 -570 l0 -563 265 0 265 0 -2 568 -3
567 -256 3 c-140 1 -258 -1 -262 -5z m198 -493 c-5 -8 -11 -8 -17 -2 -6 6 -7
16 -3 22 5 8 11 8 17 2 6 -6 7 -16 3 -22z m111 15 c-1 -5 -13 -10 -25 -9 -16
0 -20 -4 -16 -17 3 -9 2 -20 -3 -23 -9 -5 -14 42 -7 54 6 10 55 5 51 -5z m72
-50 c-2 -1 -13 -6 -25 -9 -17 -6 -23 -3 -23 8 0 9 5 16 10 16 6 0 10 5 10 11
0 6 -7 9 -15 5 -17 -6 -21 9 -4 19 6 4 17 -1 24 -11 14 -18 14 -18 16 6 2 19
3 17 6 -8 3 -19 3 -35 1 -37z m-142 39 c-3 -9 -6 -21 -6 -29 0 -15 -37 -27
-45 -15 -6 9 35 60 49 60 4 0 5 -7 2 -16z m71 -41 c-3 -3 -11 -2 -17 2 -9 6
-9 10 1 16 14 8 27 -7 16 -18z m-111 -67 c0 -19 -4 -32 -8 -30 -14 9 -8 64 7
64 0 0 1 -15 1 -34z m74 7 c0 -13 5 -23 10 -23 10 0 14 14 11 38 -1 6 3 12 9
12 5 0 10 -9 10 -19 0 -11 5 -23 11 -27 9 -5 10 1 5 22 -7 26 -6 27 8 14 20
-20 10 -66 -11 -49 -10 9 -20 9 -38 1 -17 -8 -25 -8 -25 -1 0 6 -9 8 -20 4
-13 -4 -22 -1 -26 9 -10 26 3 44 30 42 20 -1 26 -6 26 -23z m97 -25 c-2 -13
-4 -5 -4 17 -1 22 1 32 4 23 2 -10 2 -28 0 -40z"/>
<path d="M2420 2920 c0 -5 5 -10 10 -10 6 0 10 5 10 10 0 6 -4 10 -10 10 -5 0
-10 -4 -10 -10z"/>
<path d="M2747 3513 c-4 -3 -7 -134 -7 -290 l0 -283 328 2 327 3 0 285 0 285
-90 0 c-86 0 -90 -1 -93 -22 -4 -30 -28 -29 -48 2 l-16 25 -197 0 c-109 0
-201 -3 -204 -7z m191 -265 c9 -9 12 -9 12 0 0 7 5 12 10 12 6 0 10 -16 10
-36 0 -24 -4 -34 -12 -31 -7 2 -12 13 -10 23 2 11 0 15 -5 8 -4 -6 -15 -13
-24 -16 -12 -5 -14 0 -11 23 5 32 12 35 30 17z m145 -1 c8 -21 -7 -39 -26 -31
-9 3 -17 1 -17 -4 0 -6 10 -13 23 -15 19 -4 18 -4 -5 -6 -26 -1 -28 2 -28 34
0 30 3 35 24 35 13 0 26 -6 29 -13z m37 4 c0 -5 9 -12 19 -16 13 -4 17 -12 14
-26 -4 -13 -9 -16 -17 -10 -6 5 -15 9 -21 8 -5 -1 -11 10 -12 26 -1 15 2 27 8
27 5 0 9 -4 9 -9z m70 -21 c-18 -11 -22 -7 -14 14 5 13 10 14 18 6 8 -8 7 -13
-4 -20z m37 -2 c-2 -29 -7 -33 -32 -36 l-30 -3 28 24 c15 13 27 29 27 36 0 6
2 11 5 11 3 0 4 -15 2 -32z m-217 12 c0 -5 -4 -10 -10 -10 -5 0 -10 5 -10 10
0 6 5 10 10 10 6 0 10 -4 10 -10z"/>
<path d="M3055 3240 c3 -5 8 -10 11 -10 2 0 4 5 4 10 0 6 -5 10 -11 10 -5 0
-7 -4 -4 -10z"/>
<path d="M4960 3435 l0 -75 225 0 225 0 0 75 0 75 -225 0 -225 0 0 -75z"/>
<path d="M3864 3458 c-4 -6 -7 -39 -7 -73 0 -34 3 -67 7 -73 10 -16 128 -16
144 0 7 7 12 39 12 73 0 34 -5 66 -12 73 -16 16 -134 16 -144 0z m63 -33 c-4
-8 -2 -17 2 -20 5 -2 11 5 14 16 9 35 24 13 26 -41 l1 -50 -36 0 -35 0 4 53
c6 62 5 57 18 57 6 0 9 -7 6 -15z"/>
<path d="M3920 3380 c0 -5 7 -10 15 -10 8 0 15 5 15 10 0 6 -7 10 -15 10 -8 0
-15 -4 -15 -10z"/>
<path d="M3464 3444 c3 -9 6 -20 6 -25 0 -5 7 -9 15 -9 18 0 19 9 1 33 -16 21
-30 22 -22 1z"/>
<path d="M3490 3456 c0 -3 8 -15 17 -26 21 -24 43 -26 43 -5 0 8 5 15 10 15 6
0 10 -7 10 -16 0 -10 7 -14 18 -12 9 2 16 10 15 16 -2 7 4 12 13 12 8 0 12 -4
9 -10 -3 -5 0 -10 7 -10 8 0 14 8 15 18 1 16 -8 19 -78 21 -43 1 -79 0 -79 -3z"/>
<path d="M3673 3434 c0 -14 5 -24 13 -24 8 0 14 9 14 19 0 10 -6 21 -14 24 -9
4 -13 -2 -13 -19z"/>
<path d="M6149 3456 c-2 -2 -3 -50 -1 -105 l3 -101 300 0 c165 0 298 3 296 8
-2 4 -30 51 -62 105 l-57 97 -238 0 c-130 0 -239 -2 -241 -4z"/>
<path d="M1280 3290 c0 -33 3 -40 20 -40 17 0 20 7 20 40 0 33 -3 40 -20 40
-17 0 -20 -7 -20 -40z"/>
<path d="M4796 3137 l1 -192 331 -2 c201 -1 332 2 332 8 0 5 1 84 1 177 l0
167 -25 3 c-14 2 -26 10 -26 18 0 12 -47 14 -307 14 l-308 0 1 -193z"/>
<path d="M3859 3258 c-1 -13 0 -125 1 -141 0 -4 35 -7 78 -5 l77 3 0 75 0 75
-77 3 c-58 2 -78 0 -79 -10z m68 -33 c-4 -8 -2 -17 2 -20 5 -2 11 5 14 16 10
36 25 11 23 -38 -1 -46 -2 -48 -31 -48 -29 0 -30 1 -31 53 0 39 3 52 14 52 8
0 12 -6 9 -15z"/>
<path d="M3928 3183 c7 -3 16 -2 19 1 4 3 -2 6 -13 5 -11 0 -14 -3 -6 -6z"/>
<path d="M873 3222 l-303 -2 0 -130 0 -130 375 0 375 0 0 130 c0 128 0 130
-22 131 -55 4 -142 4 -425 1z"/>
<path d="M6149 3226 c-2 -2 -2 -65 1 -140 l5 -136 295 -1 295 0 3 140 3 141
-299 0 c-164 0 -301 -2 -303 -4z"/>
<path d="M3859 3068 c-7 -24 -1 -142 8 -149 6 -6 42 -9 80 -7 l68 3 0 75 0 75
-77 3 c-43 2 -78 2 -79 0z m72 -40 c1 -17 2 -19 6 -5 9 36 29 17 31 -32 2 -42
-1 -49 -19 -54 -41 -11 -50 1 -45 57 3 28 5 52 5 54 1 1 6 2 11 2 6 0 11 -10
11 -22z"/>
<path d="M3920 2988 c0 -4 7 -8 15 -8 8 0 15 4 15 8 0 5 -7 9 -15 9 -8 0 -15
-4 -15 -9z"/>
<path d="M4592 2983 l3 -78 75 0 75 0 0 75 0 75 -78 3 -78 3 3 -78z m68 35 c0
-21 0 -21 14 -2 19 25 25 17 30 -35 3 -42 -10 -60 -41 -55 -7 1 -17 2 -23 3
-12 1 -13 58 -1 65 5 3 7 15 4 26 -3 11 0 20 6 20 6 0 11 -10 11 -22z"/>
<path d="M4650 2979 c0 -5 10 -9 22 -9 12 0 18 3 14 7 -10 11 -36 12 -36 2z"/>
<path d="M577 2933 c-4 -3 -7 -64 -7 -135 l0 -128 375 0 376 0 -3 133 -3 132
-366 3 c-201 1 -368 -1 -372 -5z"/>
<path d="M6468 2922 l-318 -2 0 -270 0 -270 265 0 c146 0 402 0 570 0 168 0
359 0 425 0 l120 0 -2 270 -3 271 -370 2 c-203 1 -513 1 -687 -1z m219 -268
c16 -4 29 -2 35 7 7 11 11 11 15 2 7 -20 23 -15 23 6 0 15 -8 21 -32 24 -28 3
-26 4 11 5 41 2 43 1 37 -23 -7 -29 5 -32 34 -8 19 16 19 18 3 25 -11 4 3 7
32 7 36 0 44 -3 30 -9 -18 -7 -18 -9 -3 -15 9 -3 19 -13 22 -22 5 -13 -10 -14
-114 -11 l-120 3 0 -32 c0 -18 -4 -33 -10 -33 -5 0 -10 7 -10 15 0 10 -11 15
-35 15 -34 0 -35 1 -35 40 0 39 1 40 33 39 23 -1 26 -3 10 -6 -34 -7 -32 -53
2 -53 22 0 25 4 25 33 0 41 14 59 18 23 2 -18 11 -28 29 -32z m343 -9 l0 -65
-39 0 c-36 0 -39 2 -43 32 -4 24 0 36 16 49 l21 18 -25 10 c-25 10 -24 10 7
10 25 1 31 -3 27 -14 -4 -8 -2 -15 4 -15 5 0 12 9 15 20 10 38 17 20 17 -45z
m-478 30 c5 -24 4 -25 -46 -24 -28 1 -41 4 -28 6 12 2 22 9 22 16 0 8 3 8 12
-1 16 -16 29 -15 22 2 -3 8 -20 17 -37 19 -28 3 -26 4 9 5 37 2 42 -1 46 -23z
m588 0 c0 -27 1 -28 24 -19 9 3 16 15 16 25 0 10 5 19 10 19 6 0 10 -5 10 -12
0 -6 7 -20 17 -30 9 -10 11 -18 5 -18 -6 0 -14 5 -18 11 -4 8 -9 8 -17 0 -6
-6 -19 -11 -29 -11 -13 0 -18 -8 -18 -30 0 -16 -4 -30 -10 -30 -6 0 -10 27
-10 60 0 33 4 60 10 60 6 0 10 -11 10 -25z m119 -25 l-2 -50 -36 -1 -36 -2 40
-7 40 -7 -47 -2 c-37 -1 -48 3 -48 14 0 10 11 15 38 16 l37 2 -40 7 -40 7 38
2 c35 1 37 2 37 36 0 19 4 35 10 35 5 0 9 -22 9 -50z m-169 17 c0 -13 5 -28
12 -35 17 -17 2 -28 -17 -12 -10 8 -15 9 -15 1 0 -6 -7 -11 -16 -11 -14 0 -14
2 0 22 9 12 16 30 16 40 0 10 5 18 10 18 6 0 10 -10 10 -23z m-540 -52 c0 -10
-11 -15 -32 -16 l-33 -2 35 -7 35 -7 -42 -2 c-32 -1 -43 3 -43 14 0 10 11 15
33 16 l32 2 -35 7 -35 7 43 2 c31 1 42 -3 42 -14z m217 4 c19 -19 3 -39 -32
-39 -35 0 -51 20 -32 39 6 6 20 11 32 11 12 0 26 -5 32 -11z m113 -19 c0 -16
-7 -20 -34 -20 -36 0 -52 12 -41 30 3 6 22 10 41 10 27 0 34 -4 34 -20z"/>
<path d="M6825 2659 c-15 -6 -11 -8 18 -8 20 -1 37 1 37 3 0 9 -37 12 -55 5z"/>
<path d="M6966 2645 c-19 -14 -18 -15 17 -15 28 0 35 3 31 15 -8 19 -23 19
-48 0z"/>
<path d="M6970 2605 c0 -8 9 -15 20 -15 11 0 20 7 20 15 0 8 -9 15 -20 15 -11
0 -20 -7 -20 -15z"/>
<path d="M6715 2610 c-8 -12 20 -24 35 -15 6 3 8 11 5 16 -8 12 -32 12 -40 -1z"/>
<path d="M6820 2600 c0 -5 11 -10 25 -10 14 0 25 5 25 10 0 6 -11 10 -25 10
-14 0 -25 -4 -25 -10z"/>
<path d="M2740 2650 l0 -270 330 0 330 0 0 270 0 270 -330 0 -330 0 0 -270z
m150 85 c0 -57 -2 -64 -17 -58 -10 4 -24 15 -32 26 -9 13 -16 16 -24 8 -6 -6
-15 -11 -21 -11 -6 0 -5 5 2 12 15 15 16 48 1 48 -6 0 -3 7 6 17 14 14 18 14
26 2 6 -10 11 -11 17 -3 6 9 19 17 40 23 1 1 2 -28 2 -64z m110 0 c0 -37 -4
-65 -10 -65 -5 0 -10 7 -10 15 0 11 -12 15 -42 16 -24 1 -35 3 -25 6 19 5 22
18 7 28 -18 11 -11 43 12 51 15 4 25 1 34 -10 11 -16 13 -16 19 3 11 35 15 24
15 -44z m228 -5 c0 -33 -5 -60 -9 -60 -5 0 -9 7 -9 15 0 10 -11 16 -32 17
l-33 1 33 4 c19 3 32 10 32 19 0 17 -23 18 -52 3 -28 -15 -36 -2 -10 17 27 18
28 31 5 37 -11 3 -7 5 10 6 15 0 27 -3 27 -9 0 -5 5 -10 10 -10 6 0 10 7 10
16 0 8 4 13 9 9 6 -3 9 -32 9 -65z m115 8 c9 -6 9 -8 0 -8 -8 0 -13 -13 -13
-30 0 -16 -4 -30 -10 -30 -5 0 -10 7 -10 15 0 10 -10 15 -32 15 -32 0 -33 2
-33 40 0 38 1 40 32 40 17 0 35 6 40 13 5 8 9 2 11 -18 2 -16 9 -33 15 -37z
m-240 41 c7 0 3 -4 -8 -8 -19 -8 -19 -8 3 -15 28 -9 29 -36 0 -36 -21 0 -21
-1 -3 -13 24 -18 11 -37 -25 -37 -36 0 -49 19 -25 37 18 12 18 13 -3 13 -26 0
-25 20 3 37 l20 12 -20 1 -20 1 20 9 c11 5 26 7 33 4 8 -2 19 -4 25 -5z m-93
-220 c0 -61 -19 -85 -21 -26 l-2 32 -7 -35 c-5 -28 -8 -31 -14 -17 -5 10 -19
17 -38 17 -27 0 -28 1 -13 17 14 13 18 14 25 2 5 -7 12 -10 17 -6 11 11 -19
28 -39 21 -16 -5 -16 -3 -1 27 l16 33 10 -25 10 -24 4 23 c6 31 21 28 26 -5 4
-26 4 -25 6 5 2 58 21 24 21 -39z m109 1 c-1 -33 -5 -60 -10 -60 -5 0 -9 7 -9
15 0 10 -12 16 -37 17 l-38 1 38 4 c32 4 37 8 37 29 0 13 -6 24 -12 25 -10 0
-10 2 0 6 6 2 12 11 12 19 0 9 4 12 10 9 5 -3 9 -33 9 -65z m-38 10 c6 0 7 -5
3 -11 -4 -8 -9 -8 -17 0 -7 7 -14 7 -24 -1 -22 -18 -24 -4 -6 33 l17 33 9 -27
c5 -15 13 -27 18 -27z m99 31 c0 -11 6 -21 13 -24 6 -2 9 -8 5 -12 -4 -4 -14
-2 -22 4 -10 8 -16 9 -21 1 -3 -5 -11 -10 -17 -10 -6 0 -4 8 5 18 10 10 17 24
17 30 0 7 5 12 10 12 6 0 10 -9 10 -19z m49 -31 c-2 -49 -2 -50 -33 -51 l-31
-2 35 -7 35 -7 -42 -2 c-32 -1 -43 3 -43 14 0 10 11 15 33 16 l32 2 -35 7 -35
7 33 2 c30 1 32 3 32 36 0 19 4 35 10 35 5 0 9 -22 9 -50z"/>
<path d="M2830 2746 c0 -8 4 -17 9 -21 6 -3 9 4 8 15 -1 23 -17 28 -17 6z"/>
<path d="M2930 2754 c0 -9 5 -14 12 -12 18 6 21 28 4 28 -9 0 -16 -7 -16 -16z"/>
<path d="M2962 2738 c-16 -16 -15 -28 3 -28 8 0 15 9 15 20 0 23 -2 24 -18 8z"/>
<path d="M3188 2753 c7 -3 16 -2 19 1 4 3 -2 6 -13 5 -11 0 -14 -3 -6 -6z"/>
<path d="M3272 2740 c0 -19 2 -27 5 -17 2 9 2 25 0 35 -3 9 -5 1 -5 -18z"/>
<path d="M3302 2745 c0 -16 2 -22 5 -12 2 9 2 23 0 30 -3 6 -5 -1 -5 -18z"/>
<path d="M3050 2740 c-11 -7 -6 -10 20 -10 26 0 31 3 20 10 -8 5 -17 10 -20
10 -3 0 -12 -5 -20 -10z"/>
<path d="M3050 2690 c0 -5 9 -10 20 -10 11 0 20 5 20 10 0 6 -9 10 -20 10 -11
0 -20 -4 -20 -10z"/>
<path d="M4800 2790 l0 -130 330 0 330 0 0 130 0 130 -330 0 -330 0 0 -130z
m354 -19 c-4 -23 -12 -41 -19 -41 -17 0 -28 76 -14 101 l11 21 14 -21 c10 -14
12 -33 8 -60z"/>
<path d="M3420 2615 l0 -235 350 0 350 0 0 235 0 235 -350 0 -350 0 0 -235z
m140 89 c0 -92 -1 -95 -22 -92 -19 3 -21 9 -23 83 -1 95 1 105 26 105 17 0 19
-8 19 -96z m60 47 c0 -34 -4 -51 -15 -55 -9 -3 -15 -18 -15 -40 0 -19 -4 -38
-10 -41 -6 -4 -10 28 -10 89 0 96 0 96 25 96 23 0 25 -3 25 -49z m50 -1 c0
-43 -3 -50 -20 -50 -17 0 -20 7 -20 50 0 43 3 50 20 50 17 0 20 -7 20 -50z
m60 -1 c0 -47 -2 -50 -22 -47 -18 2 -24 11 -26 36 -4 45 3 62 28 62 17 0 20
-6 20 -51z m55 3 c0 -23 3 -42 8 -42 4 0 7 20 7 45 0 38 3 45 20 45 17 0 20
-7 22 -52 l2 -53 3 53 c4 48 6 52 29 52 24 0 25 -3 24 -52 -2 -29 0 -60 3 -68
4 -8 8 -42 11 -75 6 -71 4 -65 14 -65 14 0 5 145 -10 148 -9 2 -12 18 -10 57
3 46 7 55 23 55 17 0 19 -11 19 -195 0 -188 -1 -195 -20 -195 -18 0 -20 8 -22
63 l-2 62 -3 -62 c-4 -59 -5 -63 -28 -63 -24 0 -25 3 -27 63 l-2 62 -3 -62
c-3 -55 -7 -63 -23 -63 -17 0 -20 7 -20 55 0 30 -3 55 -7 55 -5 0 -8 -24 -8
-52 0 -47 -2 -53 -22 -56 -22 -3 -23 0 -23 57 0 33 5 63 10 66 6 3 10 19 10
36 0 16 6 29 13 30 10 0 10 2 0 6 -7 2 -13 22 -13 43 0 21 -4 42 -10 45 -5 3
-10 29 -10 56 0 47 2 50 23 47 19 -3 22 -9 22 -46z m225 -48 c0 -93 -1 -95
-22 -92 -21 3 -23 9 -26 82 -3 92 0 106 28 106 19 0 20 -6 20 -96z m-325 -94
c-26 -27 -52 -47 -57 -44 -12 8 73 94 91 94 9 0 -6 -21 -34 -50z m-125 -106
c0 -93 -1 -95 -22 -92 -22 3 -23 7 -23 88 0 99 0 100 26 100 17 0 19 -8 19
-96z m30 67 c0 -16 7 -34 15 -41 10 -8 15 -31 15 -66 0 -51 -1 -54 -25 -54
-25 0 -25 0 -25 95 0 57 4 95 10 95 6 0 10 -13 10 -29z m420 -67 c0 -93 -1
-95 -22 -92 -21 3 -23 9 -26 82 -3 92 0 106 28 106 19 0 20 -6 20 -96z m-340
-34 c0 -53 -2 -60 -20 -60 -18 0 -20 7 -20 60 0 53 2 60 20 60 18 0 20 -7 20
-60z m60 -1 c0 -57 -1 -60 -22 -57 -19 2 -24 10 -26 47 -4 55 2 71 28 71 18 0
20 -6 20 -61z"/>
<path d="M3789 2685 c0 -3 0 -35 -1 -72 0 -64 1 -68 23 -71 19 -3 22 -1 12 9
-8 7 -13 38 -13 70 0 37 5 59 13 62 6 3 2 6 -10 6 -13 1 -23 -1 -24 -4z"/>
<path d="M3850 2635 c6 -8 9 -19 5 -25 -3 -5 -1 -10 4 -10 6 0 11 11 11 25 0
16 -6 25 -16 25 -13 0 -14 -3 -4 -15z"/>
<path d="M4614 2645 c0 -66 1 -94 3 -62 l4 57 79 0 c44 0 80 3 80 8 0 4 -35 7
-77 7 l-78 0 -6 55 c-4 36 -6 13 -5 -65z"/>
<path d="M4187 2628 l-28 -32 35 -35 c20 -19 39 -31 43 -27 4 4 0 13 -10 20
-31 23 -20 38 25 35 26 -2 43 1 46 9 2 8 -10 12 -42 12 -45 0 -62 15 -31 26 8
4 15 10 15 15 0 19 -26 7 -53 -23z"/>
<path d="M577 2643 c-4 -3 -7 -64 -7 -135 l0 -128 375 0 376 0 -3 133 -3 132
-366 3 c-201 1 -368 -1 -372 -5z"/>
<path d="M4800 2505 l0 -125 330 0 330 0 0 125 0 125 -330 0 -330 0 0 -125z
m346 -33 c-10 -26 -15 -31 -15 -16 -1 11 -6 25 -12 31 -9 9 -9 20 1 44 l13 31
14 -27 c13 -23 12 -31 -1 -63z"/>
<path d="M573 2344 c-2 -5 -2 -59 -1 -117 l3 -108 300 0 300 0 0 116 0 116
-299 2 c-204 1 -300 -1 -303 -9z"/>
<path d="M1203 2344 c-2 -5 -2 -59 -1 -118 l3 -108 225 1 225 0 3 115 3 114
-31 7 c-50 11 -422 2 -427 -11z"/>
<path d="M1682 2234 l3 -115 120 0 120 0 3 115 3 116 -126 0 -126 0 3 -116z"/>
<path d="M1952 2234 l3 -116 110 0 110 0 3 116 3 116 -116 0 -116 0 3 -116z"/>
<path d="M2200 2226 c0 -100 -3 -125 -15 -130 -8 -3 -374 -5 -812 -5 l-798 0
-3 -481 -2 -480 1075 0 1075 0 0 530 c0 518 0 530 -19 530 -30 0 -34 17 -11
40 l20 20 -20 20 c-23 23 -19 40 11 40 12 0 19 7 19 20 0 19 -7 20 -260 20
l-260 0 0 -124z m198 -28 l-3 -93 -27 -3 -28 -3 0 95 0 96 30 0 31 0 -3 -92z
m-93 -2 c0 -13 -4 -28 -8 -32 -4 -5 -5 -1 -1 9 3 9 2 17 -4 17 -6 0 -12 -6
-15 -12 -3 -10 -7 -10 -20 1 -10 7 -17 18 -17 24 0 8 4 7 11 0 9 -9 15 -8 26
3 21 20 29 17 28 -10z m-730 -541 c0 -70 -4 -100 -12 -102 -10 -4 -13 21 -13
102 0 81 3 106 13 103 8 -3 12 -33 12 -103z m-85 80 c0 -8 9 -15 20 -15 11 0
20 -4 20 -10 0 -5 -9 -10 -20 -10 -14 0 -20 -7 -20 -23 0 -13 9 -32 20 -42 11
-10 20 -22 20 -27 0 -16 -30 -8 -42 11 -12 19 -13 19 -35 -5 -33 -36 -49 -20
-18 18 33 39 33 68 0 68 -14 0 -25 5 -25 10 0 6 11 10 25 10 16 0 25 6 25 15
0 8 7 15 15 15 8 0 15 -7 15 -15z m280 -25 c0 -29 4 -40 15 -40 8 0 15 -4 15
-10 0 -5 -7 -10 -15 -10 -11 0 -15 -12 -15 -50 0 -38 -4 -50 -15 -50 -12 0
-15 18 -15 100 0 82 3 100 15 100 11 0 15 -11 15 -40z m-50 -25 c0 -33 -4 -45
-15 -45 -10 0 -15 11 -15 35 0 33 -2 35 -35 35 -19 0 -35 5 -35 10 0 6 23 10
50 10 l50 0 0 -45z m-50 -41 c0 -35 1 -35 31 -29 24 6 30 4 27 -6 -6 -17 -118
-26 -118 -9 0 5 7 10 15 10 10 0 15 10 15 28 0 16 3 32 7 35 15 15 23 5 23
-29z"/>
<path d="M6146 2303 c2 -40 5 -49 23 -51 26 -4 27 -19 4 -45 -17 -18 -17 -19
0 -28 26 -15 22 -49 -5 -49 l-23 0 2 -342 c2 -189 3 -414 3 -500 l0 -158 1080
0 1080 0 0 190 0 190 -250 0 c-160 0 -250 4 -250 10 0 6 83 10 228 11 260 1
266 1 270 12 1 4 2 187 2 407 l0 400 -260 0 -260 0 2 -312 c3 -293 4 -311 21
-314 28 -4 29 -9 7 -36 -19 -25 -19 -26 0 -43 27 -24 25 -35 -5 -35 l-25 0 0
-230 c0 -147 -4 -230 -10 -230 -6 0 -10 117 -10 330 l0 330 -547 2 -548 3 -3
268 -2 267 -263 0 -263 0 2 -47z m234 -323 l0 -30 -105 0 -105 0 0 30 0 30
105 0 105 0 0 -30z m1550 -87 c0 -64 -7 -74 -34 -48 -8 8 -26 15 -39 15 -22 0
-24 4 -23 38 1 32 5 37 26 39 15 1 18 0 8 -3 -10 -3 -18 -10 -18 -15 0 -5 8
-10 18 -10 16 -1 16 -2 0 -6 -25 -6 -23 -32 2 -30 16 1 20 8 20 42 0 34 3 41
20 41 18 0 20 -7 20 -63z m343 27 c8 0 8 -3 -1 -9 -8 -4 -14 -23 -15 -42 -2
-30 -6 -34 -31 -37 -32 -4 -51 15 -34 35 6 7 19 13 29 13 15 0 19 7 19 33 0
39 13 59 18 28 2 -12 9 -21 15 -21z m-263 9 c0 12 5 21 10 21 6 0 10 -11 10
-25 0 -14 6 -25 13 -26 10 0 10 -2 0 -6 -7 -2 -13 -18 -13 -34 0 -16 -4 -29
-10 -29 -5 0 -10 14 -10 31 l0 31 -19 -23 -18 -23 -18 27 c-16 26 -16 28 0 54
l18 27 18 -23 c19 -23 19 -23 19 -2z m140 -25 c0 -27 -4 -43 -10 -39 -5 3 -10
15 -10 26 0 23 -22 25 -40 4 -7 -8 -17 -15 -23 -15 -6 0 0 11 12 24 l23 24
-24 5 c-17 3 -15 5 10 6 20 0 31 -3 27 -9 -3 -5 -1 -10 4 -10 6 0 11 7 11 15
0 8 5 15 10 15 6 0 10 -21 10 -46z m80 31 c0 -18 -35 -55 -52 -55 -6 0 -2 9
10 20 28 26 28 37 0 43 -17 3 -14 5 10 6 22 1 32 -3 32 -14z m-140 -79 c0 -9
13 -16 33 -19 28 -3 26 -4 -10 -5 -37 -2 -43 1 -43 18 0 11 5 20 10 20 6 0 10
-6 10 -14z m-110 -122 l0 -45 -29 21 c-18 12 -32 16 -36 10 -3 -5 -10 -10 -16
-10 -5 0 -4 9 3 20 11 17 10 22 -2 30 -11 7 -6 10 20 10 26 0 31 -3 20 -10
-13 -8 -13 -11 3 -27 16 -16 17 -16 17 15 0 18 5 32 10 32 6 0 10 -21 10 -46z
m110 31 c0 -8 6 -15 13 -16 10 0 10 -2 0 -6 -7 -2 -13 -17 -13 -31 -1 -25 -2
-25 -14 -9 -8 10 -26 17 -45 17 -26 0 -31 4 -31 25 0 22 4 25 33 24 23 -1 26
-3 10 -6 -32 -6 -30 -33 2 -33 20 0 25 5 25 25 0 14 5 25 10 25 6 0 10 -7 10
-15z m70 -4 c0 -11 6 -21 13 -24 6 -2 9 -8 5 -12 -4 -4 -14 -2 -22 4 -10 8
-16 9 -21 1 -3 -5 -11 -10 -17 -10 -6 0 -4 8 5 18 10 10 17 24 17 30 0 7 5 12
10 12 6 0 10 -9 10 -19z m49 -31 c-2 -49 -2 -50 -33 -51 l-31 -2 35 -7 35 -7
-42 -2 c-32 -1 -43 3 -43 14 0 10 11 15 33 16 l32 2 -35 7 -35 7 33 2 c30 1
32 3 32 36 0 19 4 35 10 35 5 0 9 -22 9 -50z m-179 -39 c0 -15 8 -21 38 -24
34 -3 33 -4 -10 -5 -45 -2 -48 0 -48 23 0 14 5 25 10 25 6 0 10 -9 10 -19z
m-110 -5 c0 -9 13 -16 33 -19 28 -3 26 -4 -10 -5 -37 -2 -43 1 -43 18 0 11 5
20 10 20 6 0 10 -6 10 -14z m-760 -161 c0 -60 -3 -75 -15 -75 -12 0 -15 14
-15 68 0 38 3 72 7 75 17 18 23 1 23 -68z m-410 36 c0 -16 6 -32 13 -35 10 -5
10 -7 0 -12 -7 -3 -13 -19 -13 -35 0 -19 -5 -29 -15 -29 -12 0 -15 14 -15 70
0 56 3 70 15 70 10 0 15 -10 15 -29z m86 14 c4 -10 20 -15 44 -15 24 0 40 5
44 15 11 30 26 14 26 -30 l0 -45 -70 0 -70 0 0 45 c0 44 15 60 26 30z m514
-25 c0 -29 4 -40 15 -40 8 0 15 -4 15 -10 0 -5 -7 -10 -15 -10 -11 0 -15 -12
-15 -50 0 -38 -4 -50 -15 -50 -9 0 -15 9 -15 23 0 22 -3 23 -65 19 -44 -3 -65
-1 -65 7 0 6 9 11 20 11 16 0 20 7 20 36 0 45 24 42 28 -4 3 -34 5 -35 40 -26
20 6 22 12 22 70 0 50 3 64 15 64 11 0 15 -11 15 -40z m-690 7 c0 -13 9 -32
20 -42 11 -10 20 -22 20 -27 0 -13 -27 -9 -39 6 -11 13 -15 12 -32 -5 -27 -27
-46 -13 -20 15 12 12 21 31 21 42 0 12 3 24 7 27 13 14 23 6 23 -16z m436 -2
c15 -23 15 -27 0 -50 -11 -17 -26 -25 -46 -25 -20 0 -35 8 -46 25 -15 23 -15
27 0 50 11 17 26 25 46 25 20 0 35 -8 46 -25z m210 -16 c-3 -17 -6 -38 -6 -45
0 -8 -6 -14 -13 -14 -9 0 -12 11 -9 35 4 35 4 35 -37 35 -23 0 -41 5 -41 10 0
6 25 10 56 10 l57 0 -7 -31z m-336 -69 c0 -5 -18 -10 -40 -10 -39 0 -40 -1
-40 -36 0 -45 -24 -42 -28 4 -3 29 -6 32 -38 32 -19 0 -34 5 -34 10 0 6 37 10
90 10 53 0 90 -4 90 -10z m-330 -30 c0 -18 7 -20 55 -20 30 0 55 -4 55 -10 0
-6 -30 -10 -70 -10 l-70 0 0 30 c0 20 5 30 15 30 8 0 15 -9 15 -20z m410 0 c0
-18 7 -20 60 -20 33 0 60 -4 60 -10 0 -6 -32 -10 -75 -10 l-75 0 0 30 c0 20 5
30 15 30 8 0 15 -9 15 -20z"/>
<path d="M8210 1860 c-12 -8 -12 -10 3 -16 21 -8 35 2 21 16 -5 5 -15 6 -24 0z"/>
<path d="M7964 1916 c-8 -21 3 -49 16 -41 5 3 10 15 10 25 0 25 -18 36 -26 16z"/>
<path d="M6840 1530 c0 -5 18 -10 40 -10 22 0 40 5 40 10 0 6 -18 10 -40 10
-22 0 -40 -4 -40 -10z"/>
<path d="M7024 1546 c-10 -26 4 -48 28 -44 17 2 23 10 23 28 0 18 -6 26 -23
28 -13 2 -25 -3 -28 -12z"/>
<path d="M6692 2093 l3 -258 288 0 288 0 0 255 0 255 -291 3 -290 2 2 -257z
m163 34 c18 -4 18 -5 -2 -6 -28 -1 -30 -21 -3 -28 11 -3 20 -10 20 -15 0 -5
-9 -6 -20 -3 -14 4 -20 2 -20 -9 0 -8 12 -16 28 -19 15 -2 0 -4 -33 -4 -33 0
-51 2 -40 4 12 2 26 13 33 23 13 22 3 27 -16 8 -6 -6 -15 -8 -19 -4 -4 4 0 12
10 17 22 13 22 29 0 29 -13 0 -11 4 7 13 14 7 27 10 30 6 3 -4 14 -9 25 -12z
m235 -13 c0 -26 1 -27 24 -18 9 3 16 15 16 25 0 10 5 19 10 19 6 0 10 -5 10
-12 0 -6 7 -20 17 -30 9 -10 11 -18 5 -18 -6 0 -14 5 -18 11 -4 8 -9 8 -17 0
-6 -6 -19 -11 -29 -11 -12 0 -18 -8 -18 -24 0 -14 -4 -28 -10 -31 -6 -4 -10
18 -10 60 0 42 4 64 10 60 6 -3 10 -17 10 -31z m-117 12 c7 -18 -12 -36 -38
-36 -12 0 -26 5 -32 11 -19 19 -3 39 32 39 19 0 35 -6 38 -14z m236 -36 l-2
-50 -36 -1 -36 -2 40 -7 40 -7 -47 -2 c-37 -1 -48 3 -48 14 0 10 11 15 38 16
l37 2 -40 7 -40 7 38 2 c35 1 37 2 37 36 0 19 4 35 10 35 5 0 9 -22 9 -50z
m-154 0 c1 -36 -1 -40 -25 -40 -23 0 -25 4 -25 40 0 36 2 40 25 40 22 0 25 -4
25 -40z m-87 -17 c-15 -2 -42 -2 -60 0 -18 2 -6 4 27 4 33 0 48 -2 33 -4z m12
-33 c0 -17 -7 -20 -45 -20 -38 0 -45 3 -45 20 0 17 7 20 45 20 38 0 45 -3 45
-20z"/>
<path d="M6915 2120 c-8 -12 20 -24 35 -15 6 3 8 11 5 16 -8 12 -32 12 -40 -1z"/>
<path d="M6910 2040 c0 -5 11 -10 25 -10 14 0 25 5 25 10 0 6 -11 10 -25 10
-14 0 -25 -4 -25 -10z"/>
<path d="M7297 2093 l3 -258 232 0 233 0 3 258 2 257 -237 0 -238 0 2 -257z"/>
<path d="M2740 1625 l0 -495 845 0 845 0 0 495 0 495 -225 0 c-216 0 -225 -1
-225 -19 0 -30 -17 -34 -40 -11 l-20 20 -20 -20 c-27 -27 -40 -25 -40 5 l0 25
-560 0 -560 0 0 -495z m620 9 c0 -80 -3 -105 -12 -102 -9 3 -14 33 -16 93 -3
92 0 115 18 115 6 0 10 -40 10 -106z m410 -4 c0 -82 -3 -100 -15 -100 -12 0
-15 18 -15 100 0 82 3 100 15 100 12 0 15 -18 15 -100z m190 60 c0 -29 4 -40
15 -40 8 0 15 -4 15 -10 0 -5 -7 -10 -15 -10 -11 0 -15 -12 -15 -50 0 -38 -4
-50 -15 -50 -9 0 -15 9 -15 23 0 22 -3 23 -65 19 -44 -3 -65 -1 -65 7 0 6 9
11 20 11 16 0 20 7 20 36 0 45 24 42 28 -4 3 -34 5 -35 40 -26 20 6 22 12 22
70 0 50 3 64 15 64 11 0 15 -11 15 -40z m-730 5 c0 -20 5 -25 25 -25 20 0 25
5 25 25 0 16 6 25 15 25 12 0 15 -14 15 -70 l0 -70 -55 0 -55 0 0 70 c0 56 3
70 15 70 9 0 15 -9 15 -25z m220 -20 l0 -35 55 0 c30 0 55 -4 55 -10 0 -5 -4
-10 -10 -10 -5 0 -10 -9 -10 -20 0 -13 7 -20 20 -20 11 0 20 -4 20 -10 0 -6
-37 -10 -90 -10 -53 0 -90 4 -90 10 0 6 9 10 20 10 13 0 20 7 20 20 0 11 -4
20 -10 20 -5 0 -10 20 -10 45 0 33 4 45 15 45 10 0 15 -11 15 -35z m257 -2
c-6 -37 -60 -103 -84 -103 -20 0 -16 9 22 44 19 19 35 43 35 55 0 17 -6 21
-35 21 -19 0 -35 5 -35 10 0 6 23 10 51 10 l52 0 -6 -37z m209 6 c-3 -17 -6
-38 -6 -45 0 -8 -6 -14 -13 -14 -9 0 -12 11 -9 35 4 35 4 35 -37 35 -23 0 -41
5 -41 10 0 6 25 10 56 10 l57 0 -7 -31z"/>
<path d="M3230 1625 c0 -20 5 -25 25 -25 20 0 25 5 25 25 0 20 -5 25 -25 25
-20 0 -25 -5 -25 -25z"/>
<path d="M3470 1600 c0 -13 7 -20 20 -20 13 0 20 7 20 20 0 13 -7 20 -20 20
-13 0 -20 -7 -20 -20z"/>
<path d="M5820 1460 l0 -331 151 3 150 3 0 325 0 325 -151 3 -150 3 0 -331z"/>
<path d="M4817 1658 l2 -123 478 -3 c263 -1 483 0 488 2 6 2 9 50 7 125 l-3
121 -487 0 -487 0 2 -122z m546 95 c-7 -2 -21 -2 -30 0 -10 3 -4 5 12 5 17 0
24 -2 18 -5z m-43 -52 c0 -6 12 -9 28 -8 39 3 34 -15 -16 -57 -48 -39 -50 -40
-72 -26 -13 9 -11 14 13 31 16 13 27 30 27 45 0 13 5 24 10 24 6 0 10 -4 10
-9z"/>
<path d="M5310 1655 c-23 -19 -36 -35 -28 -35 16 1 96 70 81 70 -6 0 -30 -16
-53 -35z"/>
<path d="M4818 1382 l-3 -122 490 0 490 0 -3 122 -3 123 -484 0 -484 0 -3
-123z m502 28 c0 -5 13 -7 30 -3 45 8 38 -15 -16 -59 -39 -32 -49 -36 -67 -26
-20 10 -20 11 6 30 16 12 27 29 27 44 0 13 5 24 10 24 6 0 10 -4 10 -10z"/>
<path d="M5308 1365 c-21 -19 -33 -35 -27 -35 7 0 29 16 50 35 22 19 33 35 27
35 -7 0 -30 -16 -50 -35z"/>
</g>
</svg>
