<?xml version="1.0" encoding="UTF-8"?>
<svg xmlns="http://www.w3.org/2000/svg" xmlns:xlink="http://www.w3.org/1999/xlink" width="3625px" height="1880px" viewBox="0 0 2039 1058" version="1.1">
<g id="surface1">
<path style=" stroke:none;fill-rule:nonzero;fill:rgb(0%,0%,0%);fill-opacity:1;" d="M 0.75 528.851562 L 0.75 1056.949219 L 2038.101562 1056.949219 L 2038.101562 0.75 L 0.75 0.75 Z M 1369.230469 153.777344 L 1369.230469 287.304688 L 1398.476562 287.304688 L 1398.476562 20.253906 L 2018.605469 20.253906 L 2018.605469 678.128906 L 1544.695312 678.128906 L 1544.695312 707.382812 L 2018.605469 707.382812 L 2018.605469 1037.445312 L 770.097656 1037.445312 L 770.097656 782.398438 L 740.855469 782.398438 L 740.855469 1037.445312 L 20.246094 1037.445312 L 20.246094 20.253906 L 1369.230469 20.253906 Z M 1369.230469 153.777344 "/>
<path style=" stroke:none;fill-rule:nonzero;fill:rgb(0%,0%,0%);fill-opacity:1;" d="M 1081.289062 150.402344 L 1081.289062 271.550781 L 1361.734375 271.550781 L 1361.734375 29.253906 L 1081.289062 29.253906 Z M 1262.753906 121.148438 L 1262.753906 144.027344 L 1258.253906 144.027344 L 1258.253906 98.269531 L 1262.753906 98.269531 Z M 1158.296875 101.195312 C 1161.972656 102.917969 1164.070312 106.296875 1163.398438 109.519531 C 1162.421875 113.945312 1157.398438 116.273438 1148.925781 116.273438 C 1141.351562 116.273438 1136.925781 114.246094 1135.425781 110.121094 C 1134.003906 106.371094 1135.351562 103.667969 1139.777344 101.417969 C 1144.199219 99.242188 1153.574219 99.09375 1158.296875 101.195312 Z M 1211.613281 108.019531 L 1211.3125 116.273438 L 1214.910156 116.273438 C 1217.984375 116.273438 1218.511719 116.496094 1218.511719 117.773438 C 1218.511719 119.273438 1217.984375 119.273438 1197.140625 119.273438 C 1176.292969 119.273438 1175.769531 119.273438 1175.769531 117.773438 C 1175.769531 116.347656 1176.292969 116.273438 1191.515625 116.273438 L 1207.261719 116.273438 L 1207.261719 102.769531 L 1195.265625 102.769531 C 1183.792969 102.769531 1183.269531 102.695312 1183.269531 101.269531 C 1183.269531 99.84375 1183.792969 99.769531 1197.589844 99.769531 L 1211.988281 99.769531 Z M 1245.503906 103.371094 C 1249.628906 105.394531 1251.730469 109.144531 1251.355469 113.871094 C 1250.828125 120.023438 1246.480469 123.773438 1239.730469 123.773438 C 1235.234375 123.773438 1231.410156 121.898438 1229.160156 118.523438 C 1227.734375 116.347656 1227.433594 115.148438 1227.660156 111.996094 C 1228.035156 107.796875 1229.308594 105.769531 1233.132812 103.445312 C 1236.058594 101.644531 1242.054688 101.570312 1245.503906 103.371094 Z M 1308.492188 109.144531 L 1308.492188 115.523438 L 1282.25 115.523438 L 1282.25 122.273438 L 1295.746094 122.273438 C 1308.71875 122.273438 1309.242188 122.347656 1309.242188 123.773438 C 1309.242188 125.046875 1308.71875 125.273438 1305.867188 125.273438 L 1302.496094 125.273438 L 1302.496094 134.273438 L 1308.492188 134.273438 C 1313.96875 134.273438 1314.492188 134.425781 1314.492188 135.777344 C 1314.492188 137.277344 1313.96875 137.277344 1293.496094 137.277344 C 1273.023438 137.277344 1272.5 137.277344 1272.5 135.777344 C 1272.5 134.425781 1273.023438 134.273438 1278.5 134.273438 L 1284.496094 134.273438 L 1284.496094 125.273438 L 1278.5 125.273438 L 1278.5 112.519531 L 1303.996094 112.519531 L 1303.996094 105.769531 L 1291.246094 105.769531 C 1279.023438 105.769531 1278.5 105.695312 1278.5 104.269531 C 1278.5 102.84375 1279.023438 102.769531 1293.496094 102.769531 L 1308.492188 102.769531 Z M 1170.519531 121.523438 C 1170.519531 123.023438 1169.996094 123.023438 1149.148438 123.023438 C 1128.304688 123.023438 1127.777344 123.023438 1127.777344 121.523438 C 1127.777344 120.023438 1128.304688 120.023438 1149.148438 120.023438 C 1169.996094 120.023438 1170.519531 120.023438 1170.519531 121.523438 Z M 1187.015625 127.148438 L 1187.015625 130.523438 L 1207.261719 130.523438 L 1207.261719 127.148438 C 1207.261719 123.921875 1207.339844 123.773438 1209.511719 123.773438 L 1211.761719 123.773438 L 1211.761719 142.527344 L 1183.269531 142.527344 L 1183.269531 123.773438 L 1185.140625 123.773438 C 1186.867188 123.773438 1187.015625 124.074219 1187.015625 127.148438 Z M 1157.171875 126.925781 C 1161.597656 128.273438 1163.773438 130.601562 1163.773438 134.273438 C 1163.773438 139.75 1159.046875 142.527344 1149.824219 142.527344 C 1139.550781 142.527344 1134.527344 139.75 1134.527344 134.199219 C 1134.527344 130.898438 1136.175781 128.800781 1140 127.148438 C 1142.925781 125.875 1153.199219 125.722656 1157.171875 126.925781 Z M 1256.003906 133.449219 C 1256.003906 134.199219 1255.480469 135.101562 1254.804688 135.324219 C 1253.527344 135.851562 1224.511719 135.925781 1224.511719 135.476562 C 1224.511719 135.324219 1224.285156 134.652344 1224.058594 133.976562 C 1223.535156 132.699219 1226.535156 132.398438 1245.355469 132.175781 C 1255.328125 132.023438 1256.003906 132.101562 1256.003906 133.449219 Z M 1214.761719 172.53125 L 1214.761719 189.035156 L 1211.011719 189.035156 L 1211.011719 156.03125 L 1214.761719 156.03125 Z M 1262.003906 178.910156 L 1262.003906 201.789062 L 1257.503906 201.789062 L 1257.503906 178.535156 L 1253.003906 178.535156 C 1249.03125 178.535156 1248.503906 178.382812 1248.503906 177.035156 C 1248.503906 175.683594 1249.03125 175.53125 1253.003906 175.53125 L 1257.503906 175.53125 L 1257.503906 156.03125 L 1262.003906 156.03125 Z M 1206.511719 172.15625 L 1206.511719 187.535156 L 1202.765625 187.535156 L 1202.765625 169.53125 L 1199.015625 169.53125 C 1195.789062 169.53125 1195.265625 169.308594 1195.265625 168.03125 C 1195.265625 166.757812 1195.789062 166.53125 1199.015625 166.53125 L 1202.765625 166.53125 L 1202.765625 161.65625 C 1202.765625 156.929688 1202.839844 156.78125 1204.640625 156.78125 L 1206.511719 156.78125 Z M 1190.015625 162.40625 C 1190.015625 168.03125 1191.816406 172.007812 1195.941406 175.53125 C 1199.089844 178.234375 1199.316406 178.609375 1198.191406 179.734375 C 1196.539062 181.382812 1194.589844 180.257812 1190.917969 175.609375 L 1187.992188 171.933594 L 1186.71875 174.40625 C 1185.96875 175.757812 1184.019531 178.160156 1182.441406 179.734375 L 1179.519531 182.585938 L 1178.019531 181.085938 L 1176.445312 179.582031 L 1179.519531 177.109375 C 1183.566406 173.808594 1185.667969 169.53125 1186.117188 163.304688 C 1186.417969 158.65625 1186.566406 158.28125 1188.21875 158.28125 C 1189.867188 158.28125 1190.015625 158.578125 1190.015625 162.40625 Z M 1250.003906 161.28125 C 1250.003906 162.707031 1249.480469 162.78125 1241.007812 162.78125 L 1232.007812 162.78125 L 1232.007812 173.28125 L 1238.757812 173.28125 C 1244.980469 173.28125 1245.503906 173.359375 1245.503906 174.78125 C 1245.503906 176.207031 1244.980469 176.285156 1238.757812 176.285156 L 1232.007812 176.285156 L 1232.007812 187.761719 L 1242.054688 187.234375 C 1251.65625 186.710938 1252.105469 186.785156 1252.480469 188.210938 C 1252.703125 189.109375 1252.40625 189.859375 1251.730469 190.085938 C 1251.128906 190.3125 1245.582031 190.535156 1239.433594 190.535156 L 1228.257812 190.535156 L 1228.257812 159.78125 L 1239.132812 159.78125 C 1249.480469 159.78125 1250.003906 159.855469 1250.003906 161.28125 Z M 1190.015625 191.660156 L 1190.015625 197.289062 L 1203.140625 197.289062 C 1215.738281 197.289062 1216.261719 197.363281 1216.261719 198.789062 C 1216.261719 200.210938 1215.738281 200.289062 1201.265625 200.289062 L 1186.265625 200.289062 L 1186.265625 193.160156 C 1186.265625 186.035156 1186.265625 186.035156 1188.140625 186.035156 C 1189.941406 186.035156 1190.015625 186.183594 1190.015625 191.660156 Z M 1190.015625 191.660156 "/>
<path style=" stroke:none;fill-rule:nonzero;fill:rgb(0%,0%,0%);fill-opacity:1;" d="M 1145.398438 103.21875 C 1141.875 104.121094 1139.777344 105.246094 1139.402344 106.59375 C 1138.125 110.496094 1141.800781 112.894531 1149.148438 112.894531 C 1156.421875 112.894531 1160.171875 110.496094 1158.898438 106.671875 C 1158.671875 105.84375 1157.621094 104.871094 1156.574219 104.417969 C 1154.398438 103.371094 1147.574219 102.695312 1145.398438 103.21875 Z M 1145.398438 103.21875 "/>
<path style=" stroke:none;fill-rule:nonzero;fill:rgb(0%,0%,0%);fill-opacity:1;" d="M 1235.757812 106.371094 C 1229.308594 109.519531 1229.984375 117.773438 1236.882812 120.023438 C 1241.90625 121.671875 1246.707031 118.824219 1247.53125 113.722656 C 1248.054688 110.347656 1246.332031 107.570312 1242.882812 106.070312 C 1239.582031 104.71875 1238.90625 104.71875 1235.757812 106.371094 Z M 1235.757812 106.371094 "/>
<path style=" stroke:none;fill-rule:nonzero;fill:rgb(0%,0%,0%);fill-opacity:1;" d="M 1288.246094 129.773438 L 1288.246094 134.273438 L 1298.746094 134.273438 L 1298.746094 125.273438 L 1288.246094 125.273438 Z M 1288.246094 129.773438 "/>
<path style=" stroke:none;fill-rule:nonzero;fill:rgb(0%,0%,0%);fill-opacity:1;" d="M 1187.015625 136.527344 L 1187.015625 139.527344 L 1207.261719 139.527344 L 1207.261719 133.523438 L 1187.015625 133.523438 Z M 1187.015625 136.527344 "/>
<path style=" stroke:none;fill-rule:nonzero;fill:rgb(0%,0%,0%);fill-opacity:1;" d="M 1143.976562 129.847656 C 1135.578125 131.875 1136.925781 137.949219 1145.925781 139.078125 C 1153.347656 140.050781 1160.546875 137.277344 1159.871094 133.824219 C 1159.199219 130.375 1150.574219 128.199219 1143.976562 129.847656 Z M 1143.976562 129.847656 "/>
<path style=" stroke:none;fill-rule:nonzero;fill:rgb(0%,0%,0%);fill-opacity:1;" d="M 1542.449219 97.894531 L 1542.449219 165.78125 L 1837.890625 165.78125 L 1837.890625 30.003906 L 1542.449219 30.003906 Z M 1681.921875 97.144531 L 1681.921875 120.023438 L 1678.171875 120.023438 L 1678.171875 74.265625 L 1681.921875 74.265625 Z M 1729.160156 83.265625 L 1729.160156 92.265625 L 1732.910156 92.265625 C 1736.132812 92.265625 1736.660156 92.492188 1736.660156 93.769531 C 1736.660156 95.042969 1736.132812 95.269531 1732.910156 95.269531 L 1729.160156 95.269531 L 1729.160156 120.023438 L 1724.660156 120.023438 L 1724.660156 74.265625 L 1729.160156 74.265625 Z M 1661.675781 78.015625 L 1661.675781 81.015625 L 1666.921875 81.015625 C 1671.648438 81.015625 1672.171875 81.164062 1672.171875 82.515625 C 1672.171875 83.867188 1671.648438 84.015625 1666.921875 84.015625 L 1661.675781 84.015625 L 1661.675781 88.292969 C 1661.675781 91.742188 1662.125 93.46875 1663.921875 96.617188 C 1665.949219 100.070312 1670.449219 104.269531 1673.148438 105.246094 C 1674.046875 105.546875 1671.796875 108.769531 1670.671875 108.769531 C 1669.546875 108.769531 1662.5 101.871094 1660.847656 99.242188 L 1659.199219 96.617188 L 1658.074219 98.71875 C 1656.351562 102.019531 1652.824219 106.296875 1650.277344 108.09375 L 1648.027344 109.746094 L 1646.453125 108.019531 C 1645.101562 106.671875 1645.027344 106.296875 1645.851562 105.921875 C 1648.25 105.09375 1653.425781 99.394531 1655.300781 95.792969 C 1656.574219 93.167969 1657.175781 90.765625 1657.175781 87.992188 L 1657.175781 84.015625 L 1651.550781 84.015625 C 1646.453125 84.015625 1645.925781 83.867188 1645.925781 82.515625 C 1645.925781 81.164062 1646.453125 81.015625 1651.550781 81.015625 L 1657.175781 81.015625 L 1657.175781 78.015625 C 1657.175781 75.164062 1657.324219 75.015625 1659.425781 75.015625 C 1661.523438 75.015625 1661.675781 75.164062 1661.675781 78.015625 Z M 1718.363281 90.542969 C 1718.136719 96.992188 1717.761719 102.394531 1717.613281 102.542969 C 1717.464844 102.695312 1716.5625 102.621094 1715.589844 102.394531 C 1713.789062 101.945312 1713.789062 101.945312 1714.015625 91.890625 L 1714.238281 81.765625 L 1704.867188 81.765625 C 1695.941406 81.765625 1695.417969 81.691406 1695.417969 80.265625 C 1695.417969 78.839844 1695.941406 78.765625 1707.191406 78.765625 L 1718.886719 78.765625 Z M 1706.664062 99.769531 L 1706.664062 107.269531 L 1714.539062 107.269531 C 1721.738281 107.269531 1722.410156 107.421875 1722.410156 108.695312 C 1722.410156 110.722656 1720.539062 111.019531 1705.464844 111.019531 C 1693.691406 111.019531 1691.742188 110.871094 1691.367188 109.820312 C 1691.144531 109.144531 1690.917969 108.46875 1690.917969 108.320312 C 1690.917969 108.171875 1692.941406 108.019531 1695.34375 108.019531 C 1702.316406 108.019531 1702.167969 108.171875 1702.167969 99.695312 L 1702.167969 92.265625 L 1706.664062 92.265625 Z M 1706.664062 99.769531 "/>
<path style=" stroke:none;fill-rule:nonzero;fill:rgb(0%,0%,0%);fill-opacity:1;" d="M 442.414062 107.269531 L 442.414062 178.535156 L 737.855469 178.535156 L 737.855469 36.007812 L 442.414062 36.007812 Z M 565.390625 85.515625 L 565.390625 87.765625 L 570.636719 87.765625 C 575.363281 87.765625 575.886719 87.917969 575.886719 89.265625 C 575.886719 90.617188 575.363281 90.765625 571.011719 90.765625 C 568.3125 90.765625 566.140625 91.066406 566.140625 91.441406 C 566.140625 92.640625 569.8125 95.117188 572.363281 95.644531 C 577.3125 96.617188 577.460938 96.691406 576.410156 98.34375 C 575.960938 99.09375 574.835938 99.769531 574.011719 99.769531 C 572.289062 99.769531 565.015625 96.542969 564.414062 95.492188 C 564.113281 95.042969 561.714844 95.867188 558.941406 97.292969 C 553.464844 99.992188 551.742188 100.292969 550.390625 98.644531 C 549.117188 97.144531 549.941406 96.316406 553.015625 95.792969 C 555.941406 95.34375 560.890625 92.566406 560.890625 91.441406 C 560.890625 91.066406 558.714844 90.765625 556.015625 90.765625 C 551.667969 90.765625 551.140625 90.617188 551.140625 89.265625 C 551.140625 87.917969 551.667969 87.765625 556.390625 87.765625 L 561.640625 87.765625 L 561.640625 85.515625 C 561.640625 83.640625 561.941406 83.265625 563.515625 83.265625 C 565.089844 83.265625 565.390625 83.640625 565.390625 85.515625 Z M 584.886719 90.015625 L 584.886719 96.019531 L 588.257812 96.019531 C 591.109375 96.019531 591.632812 96.242188 591.632812 97.519531 C 591.632812 98.792969 591.109375 99.019531 588.257812 99.019531 L 584.886719 99.019531 L 584.886719 103.894531 C 584.886719 108.621094 584.808594 108.769531 583.011719 108.769531 L 581.136719 108.769531 L 581.136719 84.015625 L 583.011719 84.015625 C 584.886719 84.015625 584.886719 84.089844 584.886719 90.015625 Z M 634.375 97.144531 L 634.375 110.269531 L 632.5 110.269531 C 630.777344 110.269531 630.625 109.972656 630.625 106.894531 L 630.625 103.519531 L 625.828125 103.519531 C 622.527344 103.519531 620.953125 103.820312 620.652344 104.496094 C 619.378906 107.871094 609.554688 109.144531 605.28125 106.519531 C 598.457031 102.320312 598.007812 91.515625 604.53125 86.714844 C 608.804688 83.640625 617.804688 84.390625 620.804688 88.066406 C 621.554688 88.890625 623.128906 89.265625 626.203125 89.265625 L 630.625 89.265625 L 630.625 86.640625 C 630.625 84.316406 630.851562 84.015625 632.5 84.015625 L 634.375 84.015625 Z M 682.367188 95.269531 L 682.367188 106.519531 L 678.617188 106.519531 L 678.617188 84.015625 L 682.367188 84.015625 Z M 660.621094 87.542969 C 660.695312 93.167969 663.695312 97.445312 670.667969 101.644531 C 671.792969 102.320312 671.792969 102.621094 670.894531 103.820312 C 669.46875 105.769531 667.367188 104.871094 662.496094 100.21875 C 658.597656 96.394531 658.445312 96.316406 657.695312 97.96875 C 656.796875 99.917969 649.746094 105.769531 648.171875 105.769531 C 647.648438 105.769531 646.824219 105.167969 646.449219 104.417969 C 645.847656 103.21875 646.222656 102.621094 648.921875 100.742188 C 653.945312 97.144531 656.347656 93.617188 656.722656 88.816406 C 657.019531 85.140625 657.246094 84.765625 658.820312 84.765625 C 660.394531 84.765625 660.621094 85.140625 660.621094 87.542969 Z M 516.199219 90.765625 C 517.398438 91.21875 518.148438 92.042969 518.148438 93.019531 C 518.148438 94.441406 517.847656 94.519531 515.375 93.992188 C 513.800781 93.691406 510.726562 93.46875 508.625 93.542969 C 501.277344 93.691406 496.476562 99.542969 496.402344 108.246094 C 496.402344 120.246094 504.949219 125.648438 516.875 121.148438 C 517.847656 120.699219 518.148438 120.996094 518.148438 122.199219 C 518.148438 126.472656 504.652344 127.449219 498.878906 123.625 C 492.953125 119.722656 490.253906 110.195312 492.804688 101.945312 C 493.929688 98.042969 498.277344 93.167969 501.953125 91.441406 C 505.324219 89.941406 513.050781 89.566406 516.199219 90.765625 Z M 545.144531 92.265625 C 545.144531 93.617188 544.617188 93.769531 539.894531 93.769531 L 534.644531 93.769531 L 534.644531 125.273438 L 530.144531 125.273438 L 530.144531 93.769531 L 525.273438 93.769531 C 520.921875 93.769531 520.398438 93.617188 520.398438 92.265625 C 520.398438 90.84375 520.921875 90.765625 532.769531 90.765625 C 544.617188 90.765625 545.144531 90.84375 545.144531 92.265625 Z M 565.390625 101.269531 L 565.390625 103.519531 L 571.761719 103.519531 C 577.535156 103.519531 578.136719 103.667969 578.136719 104.945312 C 578.136719 106.96875 576.261719 107.269531 561.488281 107.269531 C 548.667969 107.269531 548.140625 107.195312 548.140625 105.769531 C 548.140625 104.417969 548.667969 104.269531 553.691406 104.269531 C 560.738281 104.269531 561.640625 103.894531 561.640625 101.195312 C 561.640625 99.394531 561.941406 99.019531 563.515625 99.019531 C 565.089844 99.019531 565.390625 99.394531 565.390625 101.269531 Z M 682.367188 114.398438 L 682.367188 120.023438 L 658.371094 120.023438 L 658.371094 125.273438 L 671.117188 125.273438 C 683.339844 125.273438 683.867188 125.347656 683.867188 126.773438 C 683.867188 128.199219 683.339844 128.273438 668.867188 128.273438 L 653.871094 128.273438 L 653.871094 117.023438 L 678.617188 117.023438 L 678.617188 111.769531 L 666.246094 111.769531 C 654.398438 111.769531 653.871094 111.695312 653.871094 110.269531 C 653.871094 108.84375 654.398438 108.769531 668.117188 108.769531 L 682.367188 108.769531 Z M 584.886719 115.898438 L 584.886719 120.773438 L 559.390625 120.773438 L 559.390625 125.273438 L 572.886719 125.273438 C 585.859375 125.273438 586.386719 125.347656 586.386719 126.773438 C 586.386719 128.199219 585.859375 128.273438 571.011719 128.273438 L 555.640625 128.273438 L 555.640625 117.773438 L 581.136719 117.773438 L 581.136719 114.023438 L 568.386719 114.023438 C 556.164062 114.023438 555.640625 113.945312 555.640625 112.519531 C 555.640625 111.097656 556.164062 111.019531 570.261719 111.019531 L 584.886719 111.019531 Z M 630.328125 112.445312 C 635.574219 114.847656 637.074219 118.523438 634.75 123.023438 C 633.027344 126.398438 629.652344 127.75 622.152344 128.125 C 617.128906 128.347656 614.804688 128.125 612.253906 127.148438 C 603.707031 123.921875 603.78125 115.148438 612.253906 112.144531 C 616.753906 110.570312 626.578125 110.722656 630.328125 112.445312 Z M 630.328125 112.445312 "/>
<path style=" stroke:none;fill-rule:nonzero;fill:rgb(0%,0%,0%);fill-opacity:1;" d="M 608.355469 88.890625 C 601.832031 91.742188 602.355469 102.019531 609.179688 104.269531 C 614.804688 106.144531 619.601562 102.542969 619.601562 96.46875 C 619.601562 92.640625 617.804688 89.640625 614.730469 88.589844 C 611.804688 87.542969 611.28125 87.617188 608.355469 88.890625 Z M 608.355469 88.890625 "/>
<path style=" stroke:none;fill-rule:nonzero;fill:rgb(0%,0%,0%);fill-opacity:1;" d="M 623.503906 96.394531 L 623.503906 100.519531 L 630.625 100.519531 L 630.625 92.265625 L 623.503906 92.265625 Z M 623.503906 96.394531 "/>
<path style=" stroke:none;fill-rule:nonzero;fill:rgb(0%,0%,0%);fill-opacity:1;" d="M 616.003906 114.695312 C 611.578125 115.746094 610.304688 116.945312 610.53125 119.421875 C 610.90625 123.25 613.753906 124.75 620.804688 124.824219 C 625.753906 124.898438 627.175781 124.597656 628.902344 123.324219 C 633.25 120.097656 631.527344 116.195312 625.300781 114.847656 C 621.179688 113.945312 619.304688 113.945312 616.003906 114.695312 Z M 616.003906 114.695312 "/>
<path style=" stroke:none;fill-rule:nonzero;fill:rgb(0%,0%,0%);fill-opacity:1;" d="M 1657.925781 377.320312 L 1657.925781 467.339844 L 1687.167969 467.339844 L 1687.167969 287.304688 L 1657.925781 287.304688 Z M 1657.925781 377.320312 "/>
<path style=" stroke:none;fill-rule:nonzero;fill:rgb(0%,0%,0%);fill-opacity:1;" d="M 349.429688 429.832031 L 349.429688 510.097656 L 860.082031 510.097656 L 860.082031 349.566406 L 349.429688 349.566406 Z M 349.429688 429.832031 "/>
<path style=" stroke:none;fill-rule:nonzero;fill:rgb(0%,0%,0%);fill-opacity:1;" d="M 1244.753906 605.738281 L 1244.753906 707.382812 L 1118.03125 707.382812 L 1118.03125 741.140625 L 1274 741.140625 L 1274 504.09375 L 1244.753906 504.09375 Z M 1244.753906 605.738281 "/>
<path style=" stroke:none;fill-rule:nonzero;fill:rgb(0%,0%,0%);fill-opacity:1;" d="M 1280 622.992188 L 1280 739.640625 L 1396.976562 739.640625 L 1396.976562 506.347656 L 1280 506.347656 Z M 1333.988281 551.355469 L 1333.988281 554.355469 L 1340.0625 554.355469 C 1345.910156 554.355469 1346.0625 554.429688 1345.835938 556.003906 C 1345.609375 557.730469 1345.460938 557.730469 1331.964844 557.957031 L 1318.242188 558.105469 L 1318.242188 556.230469 C 1318.242188 554.429688 1318.316406 554.355469 1323.867188 554.355469 L 1329.488281 554.355469 L 1329.488281 551.878906 C 1329.488281 548.878906 1329.9375 548.355469 1332.261719 548.355469 C 1333.761719 548.355469 1333.988281 548.730469 1333.988281 551.355469 Z M 1353.484375 558.480469 L 1353.484375 568.609375 L 1356.859375 568.609375 C 1359.933594 568.609375 1360.234375 568.757812 1360.234375 570.484375 C 1360.234375 572.207031 1359.933594 572.359375 1356.859375 572.359375 L 1353.484375 572.359375 L 1353.484375 594.863281 L 1349.734375 594.863281 L 1349.734375 548.355469 L 1353.484375 548.355469 Z M 1338.488281 561.257812 C 1342.910156 563.507812 1344.410156 567.03125 1342.6875 571.15625 C 1341.785156 573.410156 1340.738281 574.308594 1337.738281 575.582031 C 1334.0625 577.160156 1333.988281 577.234375 1333.988281 580.460938 L 1333.988281 583.835938 L 1340.738281 583.308594 L 1347.484375 582.785156 L 1347.484375 584.585938 C 1347.484375 586.3125 1347.261719 586.386719 1339.460938 586.835938 C 1324.914062 587.734375 1316.964844 587.511719 1316.441406 586.160156 C 1315.617188 584.058594 1316.742188 583.609375 1323.191406 583.609375 L 1329.488281 583.609375 L 1329.488281 580.308594 C 1329.488281 577.160156 1329.414062 577.007812 1326.113281 575.808594 C 1321.992188 574.160156 1320.492188 572.207031 1320.492188 568.15625 C 1320.492188 561.03125 1330.464844 557.207031 1338.488281 561.257812 Z M 1352.734375 606.113281 L 1352.734375 612.117188 L 1356.109375 612.117188 C 1358.957031 612.117188 1359.484375 612.339844 1359.484375 613.617188 C 1359.484375 614.890625 1358.957031 615.117188 1356.109375 615.117188 L 1352.734375 615.117188 L 1352.734375 620.367188 C 1352.734375 625.46875 1352.660156 625.617188 1350.859375 625.617188 L 1348.984375 625.617188 L 1348.984375 600.113281 L 1350.859375 600.113281 C 1352.734375 600.113281 1352.734375 600.1875 1352.734375 606.113281 Z M 1342.238281 603.863281 C 1342.238281 605.214844 1341.710938 605.363281 1337.363281 605.363281 C 1332.488281 605.363281 1332.488281 605.363281 1332.488281 607.464844 C 1332.488281 610.539062 1336.238281 616.015625 1340.210938 618.640625 C 1343.585938 620.890625 1343.660156 620.96875 1342.238281 622.242188 C 1341.410156 622.992188 1340.4375 623.292969 1339.835938 622.917969 C 1337.210938 621.34375 1332.636719 617.214844 1331.738281 615.566406 L 1330.765625 613.691406 L 1328.589844 616.992188 C 1325.890625 621.042969 1320.867188 625.167969 1319.367188 624.566406 C 1317.714844 623.96875 1316.964844 621.640625 1318.242188 621.265625 C 1319.890625 620.667969 1325.738281 614.964844 1326.863281 612.867188 C 1327.390625 611.816406 1328.066406 609.714844 1328.363281 608.140625 L 1328.890625 605.363281 L 1323.566406 605.363281 C 1318.765625 605.363281 1318.242188 605.214844 1318.242188 603.863281 C 1318.242188 602.4375 1318.765625 602.363281 1330.238281 602.363281 C 1341.710938 602.363281 1342.238281 602.4375 1342.238281 603.863281 Z M 1347.9375 628.542969 C 1351.609375 630.195312 1353.484375 632.59375 1353.484375 635.746094 C 1353.484375 641.070312 1348.160156 644.296875 1339.3125 644.371094 C 1332.863281 644.371094 1328.664062 643.320312 1326.113281 640.921875 C 1321.992188 637.09375 1323.265625 631.542969 1328.890625 628.695312 C 1333.238281 626.59375 1343.363281 626.445312 1347.9375 628.542969 Z M 1354.234375 662.375 L 1354.234375 673.628906 L 1350.484375 673.628906 L 1350.484375 651.125 L 1354.234375 651.125 Z M 1332.488281 654.648438 C 1332.5625 660.273438 1335.5625 664.550781 1342.535156 668.75 C 1343.660156 669.425781 1343.660156 669.726562 1342.761719 670.925781 C 1341.335938 672.878906 1339.238281 671.976562 1334.363281 667.324219 C 1330.464844 663.5 1330.3125 663.425781 1329.5625 665.074219 C 1328.664062 667.027344 1321.617188 672.878906 1320.042969 672.878906 C 1319.515625 672.878906 1318.691406 672.277344 1318.316406 671.527344 C 1317.714844 670.328125 1318.089844 669.726562 1320.789062 667.851562 C 1325.816406 664.25 1328.214844 660.726562 1328.589844 655.925781 C 1328.890625 652.25 1329.113281 651.875 1330.6875 651.875 C 1332.261719 651.875 1332.488281 652.25 1332.488281 654.648438 Z M 1354.234375 681.503906 L 1354.234375 687.128906 L 1330.238281 687.128906 L 1330.238281 692.382812 L 1342.988281 692.382812 C 1355.210938 692.382812 1355.734375 692.457031 1355.734375 693.882812 C 1355.734375 695.304688 1355.210938 695.382812 1340.738281 695.382812 L 1325.738281 695.382812 L 1325.738281 684.128906 L 1350.484375 684.128906 L 1350.484375 678.878906 L 1338.113281 678.878906 C 1326.265625 678.878906 1325.738281 678.804688 1325.738281 677.378906 C 1325.738281 675.953125 1326.265625 675.878906 1339.988281 675.878906 L 1354.234375 675.878906 Z M 1354.234375 681.503906 "/>
<path style=" stroke:none;fill-rule:nonzero;fill:rgb(0%,0%,0%);fill-opacity:1;" d="M 1326.191406 564.933594 C 1322.066406 568.230469 1325.214844 573.109375 1331.515625 573.109375 C 1336.539062 573.109375 1339.238281 571.382812 1339.238281 568.082031 C 1339.238281 565.53125 1335.863281 563.355469 1331.738281 563.355469 C 1329.265625 563.355469 1327.613281 563.804688 1326.191406 564.933594 Z M 1326.191406 564.933594 "/>
<path style=" stroke:none;fill-rule:nonzero;fill:rgb(0%,0%,0%);fill-opacity:1;" d="M 1333.6875 630.945312 C 1327.839844 632.371094 1326.339844 636.34375 1330.390625 639.347656 C 1332.863281 641.222656 1341.9375 641.519531 1345.835938 639.945312 C 1348.460938 638.820312 1350.035156 636.195312 1349.285156 634.246094 C 1348.160156 631.320312 1339.460938 629.519531 1333.6875 630.945312 Z M 1333.6875 630.945312 "/>
<path style=" stroke:none;fill-rule:nonzero;fill:rgb(0%,0%,0%);fill-opacity:1;" d="M 1716.414062 874.289062 L 1716.414062 1031.445312 L 2011.855469 1031.445312 L 2011.855469 717.136719 L 1716.414062 717.136719 Z M 1784.648438 873.539062 L 1784.648438 896.417969 L 1780.152344 896.417969 L 1780.152344 850.660156 L 1784.648438 850.660156 Z M 1831.890625 873.539062 L 1831.890625 896.417969 L 1827.390625 896.417969 L 1827.390625 850.660156 L 1831.890625 850.660156 Z M 1880.632812 867.539062 L 1880.632812 884.417969 L 1876.882812 884.417969 L 1876.882812 850.660156 L 1880.632812 850.660156 Z M 1913.625 853.285156 L 1913.625 855.910156 L 1921.5 855.910156 C 1928.847656 855.910156 1929.371094 855.988281 1929.371094 857.410156 C 1929.371094 858.835938 1928.847656 858.914062 1911.75 858.914062 C 1894.652344 858.914062 1894.128906 858.835938 1894.128906 857.410156 C 1894.128906 855.988281 1894.652344 855.910156 1902 855.910156 L 1909.875 855.910156 L 1909.875 853.285156 C 1909.875 850.960938 1910.101562 850.660156 1911.75 850.660156 C 1913.398438 850.660156 1913.625 850.960938 1913.625 853.285156 Z M 1975.113281 859.664062 L 1975.113281 868.664062 L 1978.863281 868.664062 C 1982.085938 868.664062 1982.609375 868.890625 1982.609375 870.164062 C 1982.609375 871.441406 1982.085938 871.664062 1978.863281 871.664062 L 1975.113281 871.664062 L 1975.113281 896.417969 L 1970.613281 896.417969 L 1970.613281 850.660156 L 1975.113281 850.660156 Z M 1864.132812 853.511719 C 1867.285156 855.160156 1870.132812 860.261719 1870.132812 864.164062 C 1870.132812 870.390625 1865.035156 875.414062 1858.585938 875.414062 C 1851.085938 875.414062 1846.8125 871.515625 1846.363281 864.386719 C 1845.988281 859.289062 1847.5625 856.0625 1851.535156 853.660156 C 1854.6875 851.710938 1860.609375 851.710938 1864.132812 853.511719 Z M 1766.429688 855.160156 C 1770.328125 857.488281 1772.203125 861.988281 1772.203125 869.039062 C 1772.277344 879.242188 1768.003906 885.167969 1760.578125 885.167969 C 1756.230469 885.167969 1752.929688 883.066406 1750.757812 879.015625 C 1749.40625 876.464844 1749.03125 874.589844 1749.03125 869.789062 C 1749.03125 859.289062 1753.082031 853.660156 1760.65625 853.660156 C 1762.679688 853.660156 1765.003906 854.261719 1766.429688 855.160156 Z M 1801.148438 860.039062 L 1801.148438 865.664062 L 1815.394531 865.664062 L 1815.394531 860.039062 C 1815.394531 854.5625 1815.46875 854.410156 1817.269531 854.410156 L 1819.144531 854.410156 L 1819.144531 883.667969 L 1797.398438 883.667969 L 1797.398438 854.410156 L 1799.273438 854.410156 C 1801.070312 854.410156 1801.148438 854.5625 1801.148438 860.039062 Z M 1964.316406 866.9375 C 1964.089844 873.390625 1963.714844 878.792969 1963.566406 878.941406 C 1963.414062 879.089844 1962.515625 879.015625 1961.539062 878.792969 C 1959.742188 878.339844 1959.742188 878.339844 1959.964844 868.289062 L 1960.191406 858.164062 L 1950.816406 858.164062 C 1941.894531 858.164062 1941.371094 858.085938 1941.371094 856.660156 C 1941.371094 855.238281 1941.894531 855.160156 1953.140625 855.160156 L 1964.839844 855.160156 Z M 1919.921875 861.988281 C 1923.898438 863.113281 1926.371094 865.738281 1926.371094 868.890625 C 1926.371094 873.839844 1921.5 876.164062 1911.449219 876.164062 C 1901.625 876.089844 1897.128906 873.613281 1897.128906 868.0625 C 1897.128906 863.789062 1902.300781 861.238281 1911 861.164062 C 1914.300781 861.164062 1918.273438 861.539062 1919.921875 861.988281 Z M 1952.617188 876.164062 L 1952.617188 883.667969 L 1960.492188 883.667969 C 1967.6875 883.667969 1968.363281 883.816406 1968.363281 885.09375 C 1968.363281 887.117188 1966.488281 887.417969 1951.417969 887.417969 C 1939.644531 887.417969 1937.695312 887.269531 1937.320312 886.21875 C 1937.09375 885.542969 1936.871094 884.867188 1936.871094 884.71875 C 1936.871094 884.566406 1938.894531 884.417969 1941.292969 884.417969 C 1948.269531 884.417969 1948.117188 884.566406 1948.117188 876.089844 L 1948.117188 868.664062 L 1952.617188 868.664062 Z M 1855.886719 885.917969 L 1855.886719 891.917969 L 1869.007812 891.917969 C 1881.605469 891.917969 1882.128906 891.992188 1882.128906 893.417969 C 1882.128906 894.84375 1881.605469 894.917969 1866.757812 894.917969 L 1851.386719 894.917969 L 1851.386719 879.917969 L 1855.886719 879.917969 Z M 1933.121094 881.417969 C 1933.121094 882.84375 1932.597656 882.917969 1923.371094 882.917969 L 1913.625 882.917969 L 1913.625 889.667969 C 1913.625 896.34375 1913.625 896.417969 1911.75 896.417969 C 1909.875 896.417969 1909.875 896.34375 1909.875 889.667969 L 1909.875 882.917969 L 1900.128906 882.917969 C 1890.902344 882.917969 1890.378906 882.84375 1890.378906 881.417969 C 1890.378906 879.917969 1890.902344 879.917969 1911.75 879.917969 C 1932.597656 879.917969 1933.121094 879.917969 1933.121094 881.417969 Z M 1933.121094 881.417969 "/>
<path style=" stroke:none;fill-rule:nonzero;fill:rgb(0%,0%,0%);fill-opacity:1;" d="M 1854.609375 856.210938 C 1851.460938 857.636719 1849.585938 861.3125 1850.113281 865.0625 C 1850.636719 868.738281 1852.285156 870.691406 1855.960938 871.738281 C 1859.933594 872.941406 1864.058594 870.914062 1865.558594 866.9375 C 1868.257812 859.738281 1861.585938 853.136719 1854.609375 856.210938 Z M 1854.609375 856.210938 "/>
<path style=" stroke:none;fill-rule:nonzero;fill:rgb(0%,0%,0%);fill-opacity:1;" d="M 1757.582031 857.789062 C 1750.832031 861.539062 1751.429688 878.566406 1758.480469 881.417969 C 1761.328125 882.617188 1763.652344 881.640625 1766.203125 878.191406 C 1768.078125 875.714844 1768.753906 867.164062 1767.476562 863.1875 C 1765.828125 858.238281 1761.253906 855.761719 1757.582031 857.789062 Z M 1757.582031 857.789062 "/>
<path style=" stroke:none;fill-rule:nonzero;fill:rgb(0%,0%,0%);fill-opacity:1;" d="M 1801.148438 874.664062 L 1801.148438 880.667969 L 1815.394531 880.667969 L 1815.394531 868.664062 L 1801.148438 868.664062 Z M 1801.148438 874.664062 "/>
<path style=" stroke:none;fill-rule:nonzero;fill:rgb(0%,0%,0%);fill-opacity:1;" d="M 1907.625 864.613281 C 1902.601562 865.589844 1900.425781 867.3125 1901.328125 869.714844 C 1902.902344 873.765625 1920.597656 873.765625 1922.171875 869.714844 C 1922.773438 868.140625 1922.023438 866.714844 1920 865.8125 C 1917.972656 864.839844 1910.324219 864.164062 1907.625 864.613281 Z M 1907.625 864.613281 "/>
<path style=" stroke:none;fill-rule:nonzero;fill:rgb(0%,0%,0%);fill-opacity:1;" d="M 224.207031 956.804688 L 224.207031 1028.445312 L 518.898438 1028.445312 L 518.898438 885.167969 L 224.207031 885.167969 Z M 338.933594 945.179688 L 338.933594 957.179688 L 337.058594 957.179688 C 335.257812 957.179688 335.183594 957.03125 335.183594 951.929688 L 335.183594 946.679688 L 329.933594 946.679688 C 325.210938 946.679688 324.6875 946.527344 324.6875 945.179688 C 324.6875 943.828125 325.210938 943.679688 329.933594 943.679688 L 335.183594 943.679688 L 335.183594 938.425781 C 335.183594 933.328125 335.257812 933.175781 337.058594 933.175781 L 338.933594 933.175781 Z M 414.667969 936.550781 L 414.667969 939.925781 L 419.917969 939.925781 C 424.640625 939.925781 425.167969 940.078125 425.167969 941.429688 C 425.167969 942.777344 424.640625 942.929688 419.917969 942.929688 L 414.667969 942.929688 L 414.667969 947.277344 C 414.667969 950.804688 415.117188 952.378906 417.144531 955.679688 C 418.417969 957.929688 421.117188 960.933594 423.066406 962.355469 C 426.367188 964.832031 426.515625 965.058594 425.390625 966.332031 C 424.714844 967.082031 423.890625 967.683594 423.515625 967.683594 C 422.46875 967.683594 416.542969 961.90625 414.21875 958.605469 L 412.121094 955.605469 L 411.070312 957.707031 C 409.496094 960.707031 405.070312 966.03125 402.972656 967.457031 C 401.246094 968.507812 401.019531 968.507812 399.671875 967.308594 C 398.246094 966.03125 398.320312 965.882812 402.445312 962.132812 C 407.621094 957.480469 410.167969 952.378906 410.167969 946.828125 L 410.167969 942.929688 L 404.921875 942.929688 C 400.195312 942.929688 399.671875 942.777344 399.671875 941.429688 C 399.671875 940.078125 400.195312 939.925781 404.921875 939.925781 L 410.167969 939.925781 L 410.167969 936.550781 C 410.167969 933.328125 410.246094 933.175781 412.417969 933.175781 C 414.59375 933.175781 414.667969 933.328125 414.667969 936.550781 Z M 435.664062 956.054688 L 435.664062 978.933594 L 431.914062 978.933594 L 431.914062 953.429688 L 427.042969 953.429688 C 422.691406 953.429688 422.167969 953.28125 422.167969 951.929688 C 422.167969 950.578125 422.691406 950.429688 427.042969 950.429688 L 431.914062 950.429688 L 431.914062 933.175781 L 435.664062 933.175781 Z M 327.6875 936.925781 C 327.6875 938.277344 327.160156 938.425781 322.4375 938.425781 C 316.589844 938.425781 316.363281 938.726562 318.386719 943.527344 C 319.664062 946.753906 322.511719 949.90625 325.960938 952.003906 C 328.0625 953.28125 328.285156 953.804688 327.6875 955.003906 C 326.410156 957.257812 325.0625 956.730469 320.039062 952.078125 L 315.386719 947.652344 L 313.136719 950.65625 C 311.863281 952.304688 309.539062 954.707031 308.039062 955.90625 C 305.265625 958.15625 305.191406 958.15625 303.691406 956.804688 C 301.816406 955.082031 301.816406 954.40625 303.617188 953.804688 C 307.441406 952.605469 313.363281 944.277344 313.4375 940.078125 C 313.4375 938.503906 313.136719 938.425781 308.566406 938.425781 C 304.214844 938.425781 303.691406 938.277344 303.691406 936.925781 C 303.691406 935.5 304.214844 935.425781 315.6875 935.425781 C 327.160156 935.425781 327.6875 935.5 327.6875 936.925781 Z M 373.425781 937.601562 C 373.425781 941.878906 379.351562 946.605469 386.699219 948.179688 C 390.296875 949.003906 390.523438 949.15625 389.699219 950.503906 C 389.25 951.253906 388.050781 951.929688 387.148438 951.929688 C 384.148438 951.929688 377.476562 949.003906 374.328125 946.304688 L 371.253906 943.601562 L 367.878906 946.230469 C 364.503906 948.78125 357.304688 951.929688 354.832031 951.929688 C 354.15625 951.929688 353.105469 951.253906 352.65625 950.503906 C 351.832031 949.15625 352.054688 949.003906 355.65625 948.179688 C 363.003906 946.605469 368.925781 941.878906 368.925781 937.601562 C 368.925781 935.652344 369.226562 935.425781 371.175781 935.425781 C 373.125 935.425781 373.425781 935.652344 373.425781 937.601562 Z M 392.171875 959.429688 C 392.171875 960.855469 391.648438 960.933594 382.800781 960.933594 L 373.425781 960.933594 L 373.425781 978.933594 L 368.925781 978.933594 L 368.925781 960.933594 L 359.554688 960.933594 C 350.707031 960.933594 350.179688 960.855469 350.179688 959.429688 C 350.179688 957.929688 350.707031 957.929688 371.175781 957.929688 C 391.648438 957.929688 392.171875 957.929688 392.171875 959.429688 Z M 314.1875 962.808594 L 314.1875 966.183594 L 335.183594 966.183594 L 335.183594 962.808594 C 335.183594 959.730469 335.335938 959.429688 337.058594 959.429688 L 338.933594 959.429688 L 338.933594 977.433594 L 310.4375 977.433594 L 310.4375 959.429688 L 312.3125 959.429688 C 314.039062 959.429688 314.1875 959.730469 314.1875 962.808594 Z M 314.1875 962.808594 "/>
<path style=" stroke:none;fill-rule:nonzero;fill:rgb(0%,0%,0%);fill-opacity:1;" d="M 314.1875 971.808594 L 314.1875 974.433594 L 335.183594 974.433594 L 335.183594 969.183594 L 314.1875 969.183594 Z M 314.1875 971.808594 "/>
</g>
</svg>
