<?xml version="1.0" standalone="no"?>
<!DOCTYPE svg PUBLIC "-//W3C//DTD SVG 20010904//EN"
 "http://www.w3.org/TR/2001/REC-SVG-20010904/DTD/svg10.dtd">
<svg version="1.0" xmlns="http://www.w3.org/2000/svg"
 width="850.000000pt" height="686.000000pt" viewBox="0 0 850.000000 686.000000"
 preserveAspectRatio="xMidYMid meet">

<g transform="translate(0.000000,686.000000) scale(0.100000,-0.100000)"
fill="#000000" stroke="none">
<path d="M3540 5396 l0 -1245 -42 -3 -43 -3 -3 -337 -2 -338 -1340 0 -1340 0
0 -290 0 -290 -173 -2 -172 -3 -3 -197 -2 -198 175 0 175 0 0 -1130 0 -1130
1778 -2 1777 -3 3 -72 3 -73 237 3 237 2 3 73 3 72 1679 0 1680 0 0 1165 0
1165 -385 0 -385 0 0 1035 0 1035 -692 2 -693 3 -3 43 -3 42 -165 0 -164 0 0
-45 0 -45 -310 0 -310 0 0 855 0 855 -315 0 -315 0 0 150 0 150 -445 0 -445 0
0 -1244z m640 1049 l0 -145 25 0 c20 0 25 5 25 25 0 30 20 33 44 6 17 -19 18
-19 37 0 27 27 49 24 49 -6 l0 -25 325 0 325 0 0 -855 0 -855 389 0 390 0 3
36 3 36 28 -22 c26 -21 29 -21 46 -6 27 24 41 19 41 -14 l0 -30 725 0 725 0 0
-1170 0 -1170 60 0 60 0 0 80 0 80 49 0 c48 0 50 1 53 31 l3 31 25 -20 c24
-20 25 -20 49 -1 33 26 41 24 41 -11 0 -27 3 -30 30 -30 25 0 30 4 30 24 0 34
14 39 41 17 23 -18 24 -18 48 0 33 26 41 24 41 -11 0 -29 2 -30 45 -30 l45 0
0 -80 0 -80 75 0 75 0 0 -990 0 -990 -1685 0 -1685 0 0 335 0 335 504 0 c394
0 505 -3 509 -12 3 -8 6 -6 6 5 1 16 -30 17 -514 17 l-515 0 0 -340 0 -340
-60 0 c-57 0 -60 -1 -60 -25 0 -31 -32 -34 -53 -5 -13 19 -13 19 -30 0 -24
-28 -47 -25 -47 5 l0 25 -1840 0 -1840 0 1 1580 1 1580 1334 0 1334 0 0 335 0
335 45 0 45 0 0 1245 0 1245 300 0 300 0 0 -145z m190 78 c0 -5 -31 -7 -70 -5
l-70 4 0 -71 c0 -66 1 -71 22 -71 17 0 19 3 10 12 -7 7 -12 36 -12 65 l0 53
45 0 45 0 1 -37 c1 -21 3 -45 4 -53 1 -8 3 -21 4 -28 0 -8 6 -10 14 -6 9 5 9
4 1 -5 -7 -8 -34 -11 -75 -9 l-64 3 -3 64 c-2 35 -1 70 2 77 4 10 26 14 76 14
38 0 70 -3 70 -7z m-3774 -3751 c1 -16 -4 -22 -20 -21 -11 0 -16 3 -10 5 7 3
9 14 6 26 -3 15 -1 19 9 16 8 -3 15 -14 15 -26z m52 1 c1 -17 -4 -23 -18 -23
-14 0 -19 6 -18 23 1 13 9 23 18 23 9 0 17 -10 18 -23z m32 7 c0 -11 -4 -20
-10 -20 -5 0 -10 9 -10 20 0 11 5 20 10 20 6 0 10 -9 10 -20z m17 -12 c-3 -7
-5 -2 -5 12 0 14 2 19 5 13 2 -7 2 -19 0 -25z m28 22 c3 -5 1 -10 -4 -10 -6 0
-11 5 -11 10 0 6 2 10 4 10 3 0 8 -4 11 -10z m25 -9 c0 -10 -9 -21 -20 -24
-25 -6 -25 -2 -2 22 22 25 22 25 22 2z m-220 -26 l0 -35 -26 17 -26 17 22 18
c29 24 30 24 30 -17z m86 -38 c3 -19 -12 -32 -20 -18 -4 5 -1 13 5 17 8 4 7 9
-2 16 -12 8 -12 9 0 6 8 -2 15 -12 17 -21z m80 11 c4 -6 2 -14 -4 -16 -7 -2
-10 -8 -6 -13 3 -5 1 -9 -4 -9 -6 0 -9 11 -8 25 1 27 10 32 22 13z m24 -7 c0
-11 -3 -22 -7 -24 -5 -3 -8 6 -8 19 0 13 3 24 8 24 4 0 7 -9 7 -19z m-143 -13
c-3 -8 -6 -5 -6 6 -1 11 2 17 5 13 3 -3 4 -12 1 -19z m78 4 c-3 -3 -11 0 -18
7 -9 10 -8 11 6 5 10 -3 15 -9 12 -12z m-125 -112 c0 -33 -6 -36 -34 -15 -20
15 -20 15 0 30 28 21 34 18 34 -15z m54 9 c4 6 18 11 32 11 17 0 24 -6 24 -19
0 -16 -6 -19 -32 -18 -32 2 -48 12 -48 32 0 6 4 4 9 -4 6 -9 11 -10 15 -2z
m128 -11 c-5 -19 -7 -20 -10 -5 -2 9 -10 17 -18 17 -17 0 -19 -16 -1 -23 7 -3
5 -6 -5 -6 -12 -1 -18 6 -18 19 0 15 7 20 29 20 25 0 28 -3 23 -22z m38 10 c0
-9 4 -8 10 2 11 17 13 1 4 -24 -10 -25 -31 -19 -31 9 0 14 3 25 8 25 5 0 9 -6
9 -12z"/>
<path d="M3600 6435 l0 -135 280 0 c273 0 280 0 280 20 0 16 -7 20 -30 20 -28
0 -29 1 -18 25 6 13 19 27 30 30 16 6 18 17 18 91 l0 84 -29 0 c-23 0 -30 -5
-33 -22 -4 -32 -24 -33 -51 -4 l-24 26 -212 0 -211 0 0 -135z m115 25 c3 -5
-1 -10 -10 -10 -9 0 -13 5 -10 10 3 6 8 10 10 10 2 0 7 -4 10 -10z m46 -7 c0
-15 2 -15 9 2 8 19 9 19 9 -2 1 -15 -5 -23 -16 -24 -15 0 -15 -2 2 -9 19 -8
19 -9 -2 -9 -13 -1 -23 4 -23 9 0 6 -12 10 -27 9 -25 0 -26 -1 -8 -9 19 -8 19
-9 -2 -9 -14 -1 -23 5 -23 14 0 10 10 15 30 15 20 0 30 5 30 15 0 21 20 19 21
-2z m113 2 c3 -9 0 -15 -9 -15 -9 0 -12 6 -9 15 4 8 7 15 9 15 2 0 5 -7 9 -15z
m64 -17 c-1 -27 -21 -38 -33 -18 -3 5 0 7 8 4 8 -3 14 1 14 10 0 8 -6 12 -12
10 -6 -3 -12 2 -12 10 0 8 8 14 18 13 12 -1 17 -9 17 -29z m55 13 c2 -10 1
-25 -4 -32 -6 -10 -9 -11 -9 -1 0 6 -6 11 -12 10 -7 -2 -14 7 -16 20 -3 16 2
22 16 22 11 0 22 -9 25 -19z m34 4 c0 -8 -4 -15 -9 -15 -4 0 -8 7 -8 15 0 8 4
15 8 15 5 0 9 -7 9 -15z m20 -7 c-3 -8 -6 -5 -6 6 -1 11 2 17 5 13 3 -3 4 -12
1 -19z m-217 -16 c0 -25 0 -25 -16 -6 -8 10 -13 13 -9 7 3 -7 1 -13 -4 -13
-21 0 -11 36 9 37 15 1 20 -4 20 -25z m53 -9 c-7 -2 -21 -2 -30 0 -10 3 -4 5
12 5 17 0 24 -2 18 -5z m162 -4 c-7 -11 -35 -12 -35 -1 0 4 9 8 20 9 11 1 18
-2 15 -8z"/>
<path d="M4440 6155 l0 -125 275 0 275 0 0 125 0 125 -275 0 -275 0 0 -125z"/>
<path d="M3600 6150 l0 -120 275 0 275 0 0 30 c0 25 -4 30 -25 30 -30 0 -33
22 -7 48 18 18 18 19 0 42 -24 30 -23 40 7 40 20 0 25 5 25 25 l0 25 -275 0
-275 0 0 -120z m110 -1 c0 -81 -2 -90 -17 -87 -15 3 -18 16 -20 78 -3 86 0
100 22 100 12 0 15 -16 15 -91z m172 79 c6 -10 8 -10 8 0 0 6 7 12 15 12 8 0
15 -6 15 -12 0 -9 3 -10 8 -2 4 6 33 12 65 13 l57 2 0 -91 0 -91 -57 2 c-32 1
-61 7 -65 13 -5 8 -8 7 -8 -1 0 -7 -7 -13 -15 -13 -8 0 -15 6 -15 13 0 9 -2 9
-8 0 -5 -8 -34 -12 -85 -11 -68 1 -77 3 -77 20 0 11 5 16 11 13 6 -4 35 -8 65
-9 62 -3 68 5 60 79 -2 22 -5 44 -5 48 -1 5 -30 7 -66 5 -44 -2 -65 1 -65 8 0
17 151 18 162 2z m-52 -42 c0 -9 -62 -66 -72 -66 -6 0 4 15 23 34 31 31 49 43
49 32z"/>
<path d="M3877 6203 c-2 -5 -4 -30 -3 -58 1 -35 5 -50 16 -53 12 -2 14 8 12
51 l-4 54 36 1 c33 1 36 -1 37 -26 3 -89 19 -110 19 -24 l0 62 -54 0 c-30 0
-57 -3 -59 -7z"/>
<path d="M3926 6165 c4 -8 8 -15 10 -15 2 0 4 7 4 15 0 8 -4 15 -10 15 -5 0
-7 -7 -4 -15z"/>
<path d="M4282 6179 c-17 -26 -15 -29 13 -29 28 0 30 7 12 32 -12 15 -14 15
-25 -3z"/>
<path d="M4440 5540 l0 -470 275 0 275 0 0 470 0 470 -275 0 -275 0 0 -470z"/>
<path d="M3600 5395 l0 -605 280 0 c232 0 280 2 280 14 0 7 -11 21 -25 30 -14
9 -25 25 -25 36 0 15 7 20 25 20 l25 0 0 555 0 555 -280 0 -280 0 0 -605z
m232 38 c-10 -4 -10 -8 0 -21 10 -12 10 -16 1 -19 -7 -3 -13 -12 -13 -21 0
-12 -4 -11 -21 7 -16 17 -18 25 -9 36 8 10 8 14 -2 18 -7 3 3 5 22 5 19 0 29
-2 22 -5z m59 -37 c5 -6 9 2 10 20 1 16 3 22 6 12 6 -22 32 -24 39 -3 6 14 8
13 20 -2 13 -17 13 -17 14 0 0 9 5 17 11 17 9 0 9 -13 -1 -77 0 -2 -11 -3 -25
-3 -31 0 -33 20 -2 21 19 1 18 2 -6 9 -37 11 -58 3 -49 -18 5 -15 4 -15 -12 1
-14 14 -21 15 -32 6 -9 -8 -14 -8 -14 -1 0 6 5 14 10 17 6 3 11 16 11 28 1 20
2 20 6 2 3 -11 9 -24 14 -29z"/>
<path d="M3808 5403 c7 -3 16 -2 19 1 4 3 -2 6 -13 5 -11 0 -14 -3 -6 -6z"/>
<path d="M4430 4820 l0 -230 285 0 285 0 0 230 0 230 -285 0 -285 0 0 -230z"/>
<path d="M4053 4708 c-1 -10 5 -18 13 -18 8 0 14 8 14 18 0 10 -6 19 -13 19
-7 0 -14 -9 -14 -19z"/>
<path d="M4090 4703 c0 -7 7 -13 15 -13 8 0 15 6 15 13 0 8 -7 14 -15 14 -8 0
-15 -6 -15 -14z"/>
<path d="M4033 4650 c1 -11 7 -20 14 -20 7 0 13 9 13 20 0 11 -6 20 -14 20 -9
0 -14 -9 -13 -20z"/>
<path d="M4122 4650 c-10 -17 -10 -20 3 -20 8 0 15 9 15 20 0 11 -1 20 -3 20
-1 0 -8 -9 -15 -20z"/>
<path d="M4070 4645 c0 -8 6 -15 13 -15 8 0 14 7 14 15 0 8 -6 15 -14 15 -7 0
-13 -7 -13 -15z"/>
<path d="M4440 3945 l0 -624 25 -25 c14 -14 25 -30 25 -36 0 -5 -11 -10 -25
-10 -25 0 -25 -1 -25 -85 l0 -85 315 0 315 0 0 745 0 745 -315 0 -315 0 0
-625z m383 -238 c-7 -47 -13 -46 -13 2 0 23 4 40 9 37 5 -4 7 -21 4 -39z
m-162 26 c-9 -4 -10 -7 -2 -13 7 -3 -3 -7 -21 -7 -18 0 -27 2 -20 5 6 2 10 8
6 13 -3 5 7 9 23 8 15 0 22 -3 14 -6z m62 -38 c9 -17 8 -18 -5 -7 -10 8 -19 9
-22 3 -3 -5 -15 -7 -26 -4 -13 3 -20 0 -20 -8 0 -9 -3 -10 -8 -3 -4 6 -14 14
-22 17 -8 4 5 5 30 4 41 -1 45 1 49 23 2 16 5 20 9 10 2 -8 9 -24 15 -35z m24
-7 c-2 -13 -4 -5 -4 17 -1 22 1 32 4 23 2 -10 2 -28 0 -40z m51 27 c-3 -28
-23 -34 -32 -9 -10 26 -7 34 14 34 15 0 19 -6 18 -25z m102 10 c0 -8 -5 -15
-11 -15 -5 0 -8 4 -4 9 3 5 -5 12 -17 14 -20 4 -19 4 5 6 18 1 27 -4 27 -14z
m-17 -25 c9 -11 17 -26 16 -33 0 -9 -2 -9 -6 1 -2 6 -17 12 -31 12 -19 0 -23
3 -13 9 7 5 10 14 7 20 -12 19 9 12 27 -9z"/>
<path d="M4770 3720 c0 -5 5 -10 10 -10 6 0 10 5 10 10 0 6 -4 10 -10 10 -5 0
-10 -4 -10 -10z"/>
<path d="M5090 4310 l0 -260 160 0 160 0 0 -90 0 -90 55 0 c52 0 55 1 55 25 0
30 20 33 44 6 17 -19 18 -19 37 0 24 24 44 20 44 -7 0 -18 10 -19 178 -22
l177 -2 0 90 0 90 360 0 360 0 0 130 0 130 -405 0 -405 0 0 -25 c0 -30 -10
-31 -40 -7 -23 18 -24 18 -42 0 -25 -25 -38 -23 -38 7 0 22 -4 24 -57 27 -65
3 -60 -5 -62 104 l-1 51 -95 -1 -95 -1 0 53 0 52 -195 0 -195 0 0 -260z m785
-201 c10 -15 -1 -23 -20 -15 -9 3 -13 10 -10 16 8 13 22 13 30 -1z m22 -21
c-3 -7 -5 -2 -5 12 0 14 2 19 5 13 2 -7 2 -19 0 -25z m34 -8 c5 0 9 9 9 20 0
11 5 20 10 20 6 0 10 -14 10 -31 0 -24 -3 -30 -16 -25 -9 3 -20 6 -25 6 -5 0
-8 12 -8 28 2 23 2 24 6 5 2 -13 9 -23 14 -23z m-41 -16 c0 -2 -9 -4 -20 -4
-11 0 -20 4 -20 9 0 5 9 7 20 4 11 -3 20 -7 20 -9z m100 -49 c0 -25 -1 -25
-85 -25 -84 0 -85 0 -85 25 0 25 1 25 85 25 84 0 85 0 85 -25z"/>
<path d="M5500 4530 l0 -41 87 3 87 3 0 35 0 35 -87 3 -87 3 0 -41z"/>
<path d="M5700 4450 l0 -120 45 0 c38 0 45 3 45 19 0 11 -4 23 -10 26 -5 3
-10 40 -10 81 0 43 4 74 10 74 6 0 10 9 10 20 0 17 -7 20 -45 20 l-45 0 0
-120z"/>
<path d="M5912 4545 c4 -17 1 -25 -9 -25 -12 0 -14 -13 -10 -65 l4 -65 -44 0
c-48 0 -55 12 -50 88 2 29 -1 42 -10 42 -9 0 -13 -20 -13 -70 0 -65 2 -70 21
-70 12 0 28 -8 35 -17 13 -16 15 -17 27 -2 6 8 21 18 33 21 17 4 20 1 16 -23
-4 -28 -3 -29 42 -29 l46 0 0 120 0 120 -46 0 c-44 0 -46 -1 -42 -25z"/>
<path d="M6020 4450 l0 -120 155 0 155 0 0 120 0 120 -155 0 -155 0 0 -120z"/>
<path d="M6350 4450 l0 -120 185 0 185 0 0 120 0 120 -185 0 -185 0 0 -120z"/>
<path d="M6740 3985 l0 -585 300 0 300 0 0 585 0 585 -300 0 -300 0 0 -585z"/>
<path d="M5830 4545 c-11 -13 -8 -15 20 -15 28 0 31 2 20 15 -7 8 -16 15 -20
15 -4 0 -13 -7 -20 -15z"/>
<path d="M3627 4503 c-12 -12 -8 -131 5 -139 7 -4 42 -7 78 -7 l65 1 3 76 3
76 -74 0 c-40 0 -77 -3 -80 -7z m66 -38 c-3 -8 0 -15 7 -15 6 0 9 4 6 9 -3 5
1 14 9 21 8 7 15 11 15 9 1 -2 3 -28 6 -56 l6 -53 -37 0 -36 0 4 53 c6 63 5
59 17 52 5 -3 7 -12 3 -20z"/>
<path d="M3685 4430 c3 -5 12 -7 20 -3 21 7 19 13 -6 13 -11 0 -18 -4 -14 -10z"/>
<path d="M5824 4478 c-4 -7 -3 -8 4 -4 7 4 12 1 12 -8 0 -9 4 -16 8 -16 4 0 8
9 8 20 0 22 -20 27 -32 8z"/>
<path d="M3624 4306 c-3 -7 -4 -42 -2 -77 l3 -64 78 -3 77 -3 0 81 0 80 -75 0
c-54 0 -77 -4 -81 -14z m96 -21 c11 0 14 -13 15 -50 0 -49 -1 -50 -30 -50 -29
0 -30 2 -31 50 -1 57 3 68 19 58 7 -4 19 -8 27 -8z"/>
<path d="M3693 4233 c9 -2 23 -2 30 0 6 3 -1 5 -18 5 -16 0 -22 -2 -12 -5z"/>
<path d="M3624 4036 c-3 -7 -4 -42 -2 -77 l3 -64 75 0 75 0 3 78 3 77 -76 0
c-54 0 -77 -4 -81 -14z m95 -21 c10 0 16 -15 18 -47 l4 -48 -36 0 -36 0 5 53
c5 64 3 60 19 50 6 -4 18 -8 26 -8z"/>
<path d="M3693 3963 c9 -2 23 -2 30 0 6 3 -1 5 -18 5 -16 0 -22 -2 -12 -5z"/>
<path d="M5090 3950 l0 -80 150 0 150 0 0 80 0 80 -150 0 -150 0 0 -80z m145
-20 c-4 -17 -10 -30 -15 -30 -13 0 -19 53 -7 72 10 15 13 15 20 2 5 -8 5 -28
2 -44z m49 45 c7 -19 -4 -75 -14 -75 -10 0 -21 56 -14 75 4 8 10 15 14 15 4 0
10 -7 14 -15z"/>
<path d="M6020 3951 l0 -80 53 -3 52 -3 3 -62 3 -63 54 0 55 0 0 145 0 145
-110 0 -110 0 0 -79z"/>
<path d="M6270 3885 l0 -145 225 0 225 0 0 145 0 145 -225 0 -225 0 0 -145z"/>
<path d="M5090 3304 l0 -544 30 0 c35 0 37 -8 11 -41 -19 -24 -19 -25 1 -49
l20 -25 -28 -5 c-23 -4 -30 -11 -32 -33 -3 -26 -6 -27 -58 -27 l-54 0 0 -85 0
-85 -85 0 -85 0 0 -195 0 -195 310 0 310 0 0 -150 0 -150 645 0 645 0 0 690 0
690 -460 0 -460 0 0 373 0 373 -75 2 c-74 3 -75 3 -75 -23 0 -31 -32 -35 -53
-5 -13 19 -13 19 -30 0 -24 -28 -47 -25 -47 4 l0 25 -215 0 -215 -1 0 -544z
m560 -524 c0 -16 -7 -20 -34 -20 -19 0 -38 5 -41 10 -11 18 5 30 41 30 27 0
34 -4 34 -20z m120 6 c0 -8 3 -21 6 -30 5 -13 -3 -16 -51 -16 -35 0 -54 4 -50
10 3 6 22 10 41 10 19 0 34 5 34 10 0 6 -13 10 -30 10 -16 0 -30 5 -30 10 0 6
18 10 40 10 28 0 40 -4 40 -14z m90 -19 c0 -17 -20 -37 -37 -37 -7 0 -17 9
-23 19 -14 28 13 55 41 41 10 -6 19 -16 19 -23z m30 -27 c0 -33 -4 -60 -10
-60 -5 0 -10 6 -10 13 0 9 -12 11 -40 9 -25 -3 -40 0 -40 7 0 6 17 11 40 11
l40 0 0 40 c0 22 5 40 10 40 6 0 10 -27 10 -60z m170 30 c0 -10 5 -22 12 -26
8 -5 9 -2 5 9 -7 20 1 47 14 47 5 0 9 -18 9 -40 0 -43 -6 -48 -36 -26 -13 10
-23 11 -31 4 -9 -7 -13 -7 -13 0 0 6 5 14 10 17 6 3 10 15 10 26 0 11 5 17 10
14 6 -3 10 -15 10 -25z m57 -37 c-2 -16 -4 -5 -4 22 0 28 2 40 4 28 2 -13 2
-35 0 -50z m112 5 c-1 -35 -4 -49 -6 -33 -3 17 -9 36 -15 43 -7 8 -7 12 1 12
6 0 11 9 11 20 0 11 2 20 5 20 3 0 4 -28 4 -62z m-229 32 c0 -16 -7 -20 -37
-22 l-38 -1 38 -4 c37 -4 49 -17 25 -26 -8 -3 -6 -6 5 -6 9 -1 17 -5 17 -11 0
-6 -26 -10 -57 -10 -47 1 -55 3 -43 13 9 7 14 24 12 41 -3 27 -2 28 27 24 17
-3 31 -1 31 3 0 4 -15 10 -32 12 -29 3 -27 4 10 5 36 2 42 -1 42 -18z m182 13
c-13 -3 -21 -10 -19 -16 3 -7 10 -11 16 -9 6 1 11 -2 11 -8 0 -5 -7 -10 -15
-10 -8 0 -15 -4 -15 -10 0 -5 12 -10 28 -10 21 0 24 -2 12 -10 -8 -5 -25 -10
-37 -10 -21 0 -23 5 -23 45 0 44 0 45 33 44 24 -1 26 -3 9 -6z m-522 -43 c0
-5 -8 -10 -17 -10 -17 -1 -17 -1 -1 -11 27 -15 10 -39 -28 -39 -37 0 -58 25
-33 41 11 7 11 9 -3 9 -10 0 -18 5 -18 10 0 6 23 10 50 10 28 0 50 -4 50 -10z
m110 -38 c0 -21 -4 -23 -42 -20 -34 2 -44 7 -46 23 -2 17 3 20 43 20 40 0 45
-2 45 -23z m316 -2 c19 0 34 -4 34 -10 0 -5 -18 -10 -40 -10 -35 0 -40 3 -39
23 0 12 3 16 6 10 2 -7 20 -13 39 -13z"/>
<path d="M5590 2780 c0 -5 11 -10 25 -10 14 0 25 5 25 10 0 6 -11 10 -25 10
-14 0 -25 -4 -25 -10z"/>
<path d="M5810 2765 c0 -8 7 -15 15 -15 8 0 15 7 15 15 0 8 -7 15 -15 15 -8 0
-15 -7 -15 -15z"/>
<path d="M5585 2700 c3 -5 15 -10 25 -10 10 0 22 5 25 10 4 6 -7 10 -25 10
-18 0 -29 -4 -25 -10z"/>
<path d="M5700 2700 c0 -5 11 -10 25 -10 14 0 25 5 25 10 0 6 -11 10 -25 10
-14 0 -25 -4 -25 -10z"/>
<path d="M5820 3485 l0 -365 450 0 450 0 -2 298 -3 297 -235 2 c-129 1 -265 2
-302 2 l-67 1 -3 63 -3 62 -142 3 -143 3 0 -366z"/>
<path d="M840 3110 l0 -290 246 0 247 0 23 25 c13 14 28 25 34 25 5 0 10 -11
10 -25 0 -22 4 -25 35 -25 l35 0 0 290 0 290 -315 0 -315 0 0 -290z m277 -7
c-3 -26 -37 -48 -37 -24 0 6 8 8 18 4 14 -5 13 -3 -3 10 l-20 16 20 1 20 1
-20 9 c-19 8 -19 9 3 9 19 1 22 -3 19 -26z m48 2 c0 -17 -5 -25 -17 -25 -20 0
-24 15 -8 25 6 4 8 11 5 16 -4 5 0 9 7 9 7 0 13 -11 13 -25z m58 12 c3 10 5 4
6 -14 1 -26 -3 -33 -18 -33 -19 0 -31 25 -23 49 4 12 7 11 18 -3 12 -16 13
-16 17 1z"/>
<path d="M1500 3110 l0 -290 225 0 224 0 0 290 -1 290 -224 0 -224 0 0 -290z
m144 41 c7 -11 -14 -20 -31 -13 -7 2 -10 8 -7 13 7 12 31 12 38 0z m66 0 c0
-5 -10 -7 -22 -5 l-23 5 23 -10 c13 -6 22 -19 22 -31 0 -33 -45 -23 -46 10 0
14 1 28 3 33 6 10 43 9 43 -2z m79 -6 c16 9 41 -13 41 -36 0 -12 -7 -19 -20
-19 -25 0 -27 27 -2 33 10 3 6 5 -10 6 -22 1 -28 -4 -29 -21 0 -13 -3 -17 -6
-10 -2 6 -13 12 -24 12 -13 0 -19 7 -18 23 0 21 1 21 9 2 l9 -20 1 20 1 20 9
-20 c8 -18 9 -18 9 5 1 18 4 21 10 11 5 -7 14 -10 20 -6z m-148 -23 c-11 -4
-11 -6 0 -13 10 -6 5 -8 -16 -8 -16 0 -24 3 -16 6 10 4 10 7 1 13 -7 4 0 7 16
7 16 0 23 -2 15 -5z m109 -98 c0 -15 -6 -24 -15 -24 -15 0 -21 40 -9 53 12 11
24 -3 24 -29z"/>
<path d="M1678 3103 c7 -3 16 -2 19 1 4 3 -2 6 -13 5 -11 0 -14 -3 -6 -6z"/>
<path d="M1732 3030 c0 -14 2 -19 5 -12 2 6 2 18 0 25 -3 6 -5 1 -5 -13z"/>
<path d="M1970 3285 l0 -115 760 0 760 0 0 115 0 115 -760 0 -760 0 0 -115z"/>
<path d="M3510 3225 l0 -175 145 0 145 0 0 175 0 175 -145 0 -145 0 0 -175z
m66 56 c-4 -5 0 -11 6 -14 7 -2 10 -8 6 -12 -12 -13 -38 3 -32 20 3 8 10 15
16 15 5 0 7 -4 4 -9z m80 -14 c1 -11 -7 -22 -19 -28 l-22 -10 23 5 c12 2 22 0
22 -5 0 -5 -11 -9 -25 -9 -21 0 -25 5 -25 28 0 16 3 32 7 36 12 12 36 2 39
-17z m124 -12 c0 -28 -4 -35 -20 -35 -11 0 -20 7 -20 15 0 8 7 15 15 15 8 0
15 9 15 20 0 11 2 20 5 20 3 0 5 -16 5 -35z m-82 3 c-5 -32 -28 -35 -28 -4 0
17 5 26 16 26 10 0 14 -7 12 -22z m19 -25 c-3 -10 -5 -2 -5 17 0 19 2 27 5 18
2 -10 2 -26 0 -35z m32 26 c-16 -10 -23 -4 -14 10 3 6 11 8 17 5 6 -4 5 -9 -3
-15z m-149 -25 c0 -2 -11 -4 -25 -4 -14 0 -25 4 -25 9 0 4 11 6 25 3 14 -2 25
-6 25 -8z m78 -81 c-2 -14 -9 -28 -16 -29 -7 -1 -8 0 -2 3 5 2 10 9 10 14 0 6
-4 7 -10 4 -5 -3 -10 3 -10 14 0 12 7 21 16 21 11 0 14 -8 12 -27z"/>
<path d="M3628 3273 c7 -3 16 -2 19 1 4 3 -2 6 -13 5 -11 0 -14 -3 -6 -6z"/>
<path d="M3681 3254 c0 -11 3 -14 6 -6 3 7 2 16 -1 19 -3 4 -6 -2 -5 -13z"/>
<path d="M3830 3110 l0 -290 45 0 c41 0 45 2 45 25 0 29 21 33 45 9 15 -15 17
-15 34 0 27 25 51 20 51 -9 0 -23 4 -25 45 -25 l45 0 0 290 0 290 -155 0 -155
0 0 -290z m150 196 c0 -10 -13 -16 -37 -18 -38 -3 -38 -3 -36 -45 1 -39 -1
-43 -23 -43 -25 0 -36 29 -11 31 10 0 10 2 0 6 -8 2 -13 22 -13 44 l0 39 60 0
c46 0 60 -3 60 -14z m128 -23 c0 -21 -5 -41 -11 -45 -9 -6 -9 -8 1 -8 6 0 12
-7 12 -15 0 -9 -10 -15 -26 -15 -18 0 -25 5 -23 18 1 9 1 29 0 45 -1 24 -5 27
-36 27 -24 0 -35 5 -35 15 0 12 13 15 59 15 l59 0 0 -37z m-113 -73 c-22 -21
-46 -39 -54 -40 -7 0 6 18 30 40 57 52 76 52 24 0z m-90 -47 c0 -31 6 -34 74
-34 68 -1 92 11 84 41 -4 16 0 20 20 20 24 0 25 -3 25 -60 0 -54 -2 -60 -22
-61 -20 -2 -20 -2 2 -6 20 -4 22 -10 21 -64 l-2 -59 -58 0 c-40 0 -59 4 -60
13 0 10 -2 10 -6 0 -3 -9 -26 -13 -64 -13 l-59 0 0 60 c0 55 2 60 23 61 21 2
21 2 1 6 -19 4 -22 11 -23 64 -1 57 0 60 21 57 16 -2 23 -10 23 -25z"/>
<path d="M3917 3103 c-4 -3 -7 -35 -7 -70 0 -62 0 -63 28 -62 15 0 21 3 15 6
-20 7 -16 70 4 77 9 4 20 1 25 -6 5 -9 8 -8 8 6 0 14 -5 17 -25 12 -21 -5 -25
-3 -25 14 0 19 5 21 42 18 40 -3 43 -5 44 -34 0 -17 4 -36 8 -42 3 -6 0 -12
-6 -15 -10 -3 -8 -9 5 -23 16 -17 17 -15 17 54 l0 72 -63 0 c-35 0 -67 -3 -70
-7z"/>
<path d="M6740 2705 l0 -675 45 0 c41 0 45 2 45 25 0 32 14 32 46 0 l25 -25
220 0 219 0 -2 673 -3 672 -297 3 -298 2 0 -675z m258 -12 c-2 -17 -9 -28 -18
-28 -9 0 -15 10 -16 28 -1 20 4 27 18 27 15 0 19 -6 16 -27z m48 10 c-2 -10 2
-21 8 -25 6 -4 -2 -8 -19 -8 -16 0 -25 4 -19 8 6 4 10 15 8 25 -1 9 4 17 11
17 7 0 12 -8 11 -17z m44 7 c0 -5 -4 -10 -10 -10 -5 0 -10 5 -10 10 0 6 5 10
10 10 6 0 10 -4 10 -10z m20 -15 c0 -18 -5 -25 -20 -25 -25 0 -25 5 -2 29 22
25 22 25 22 -4z"/>
<path d="M2240 2985 l0 -165 195 0 195 0 0 165 0 165 -195 0 -195 0 0 -165z
m117 47 c0 -10 -9 -19 -18 -19 -15 -1 -18 9 -10 35 1 1 7 2 15 2 8 0 14 -8 13
-18z m68 -17 c0 -24 -5 -31 -22 -33 -17 -3 -23 2 -23 17 0 11 8 25 18 31 16
11 16 11 0 6 -10 -3 -18 -1 -18 5 0 6 10 9 22 7 18 -2 23 -10 23 -33z m65 6
c0 -25 -3 -28 -25 -23 -18 3 -25 11 -24 26 0 20 1 20 9 1 l9 -20 1 20 1 20 9
-20 c8 -19 9 -19 9 3 1 33 11 27 11 -7z m40 8 c0 -5 -7 -9 -15 -9 -9 0 -12 6
-9 15 6 15 24 11 24 -6z m20 -14 c0 -28 -4 -35 -20 -35 -11 0 -20 7 -20 15 0
8 7 15 15 15 8 0 15 9 15 20 0 11 2 20 5 20 3 0 5 -16 5 -35z m-180 -21 c0 -2
-15 -4 -32 -3 -27 0 -29 2 -13 8 18 8 45 4 45 -5z m47 -91 c-3 -10 -5 -4 -5
12 0 17 2 24 5 18 2 -7 2 -21 0 -30z m53 12 c0 -25 -23 -35 -35 -15 -10 16 2
40 20 40 9 0 15 -9 15 -25z"/>
<path d="M2440 2915 c0 -8 5 -15 10 -15 6 0 10 7 10 15 0 8 -4 15 -10 15 -5 0
-10 -7 -10 -15z"/>
<path d="M2650 2985 l0 -166 190 3 190 3 -2 160 -3 160 -187 3 -188 2 0 -165z
m115 44 c2 -8 -5 -16 -15 -16 -16 -1 -18 4 -11 35 2 10 25 -6 26 -19z m65 13
c0 -4 -9 -8 -20 -8 -11 0 -20 4 -20 8 0 4 9 8 20 8 11 0 20 -4 20 -8z m70 -21
c0 -25 -3 -28 -25 -23 -18 3 -25 11 -24 26 0 20 1 20 9 1 l9 -20 1 20 1 20 9
-20 c8 -19 9 -19 9 3 1 33 11 27 11 -7z m33 16 c3 -8 -1 -14 -8 -14 -7 0 -11
6 -8 14 3 7 6 13 8 13 2 0 5 -6 8 -13z m27 -22 c0 -28 -4 -35 -20 -35 -11 0
-20 7 -20 15 0 8 7 15 15 15 8 0 15 9 15 20 0 11 2 20 5 20 3 0 5 -16 5 -35z
m-135 7 c18 -12 11 -37 -11 -40 -23 -3 -41 33 -20 42 16 7 20 6 31 -2z m-45
-28 c0 -2 -15 -4 -32 -3 -27 0 -29 2 -13 8 18 8 45 4 45 -5z m80 -79 c0 -17
-5 -25 -17 -25 -14 0 -15 2 -5 9 11 7 10 9 -3 15 -19 7 -11 26 11 26 8 0 14
-10 14 -25z"/>
<path d="M4440 2940 l0 -120 315 0 315 0 0 120 0 120 -315 0 -315 0 0 -120z"/>
<path d="M3640 2930 l0 -100 -69 0 c-82 0 -78 8 -70 -145 3 -60 6 -93 7 -72 2
32 5 37 27 37 31 0 32 13 2 37 l-24 18 24 18 c30 23 29 37 -2 37 -21 0 -25 5
-25 30 l0 30 145 0 145 0 0 105 0 105 -80 0 -80 0 0 -100z"/>
<path d="M3244 3009 c-3 -6 -2 -15 3 -20 5 -5 9 -1 10 11 2 22 -2 25 -13 9z"/>
<path d="M3120 3000 c0 -5 5 -10 10 -10 6 0 10 5 10 10 0 6 -4 10 -10 10 -5 0
-10 -4 -10 -10z"/>
<path d="M2040 2970 c-9 -6 -10 -10 -3 -10 6 0 15 5 18 10 8 12 4 12 -15 0z"/>
<path d="M2336 2745 c-7 -18 11 -30 47 -30 20 0 27 5 27 20 0 16 -8 21 -34 22
-22 2 -36 -2 -40 -12z m34 -10 c0 -8 -4 -15 -9 -15 -13 0 -22 16 -14 24 11 11
23 6 23 -9z"/>
<path d="M2434 2733 c-14 -23 -15 -26 -1 -15 9 8 20 11 26 8 5 -3 7 3 4 14 -7
25 -7 25 -29 -7z"/>
<path d="M2490 2733 c0 -21 3 -24 9 -14 5 8 7 20 4 28 -8 21 -13 15 -13 -14z"/>
<path d="M2524 2745 c-4 -9 -2 -21 4 -27 15 -15 44 -1 40 19 -4 23 -36 29 -44
8z m36 -10 c0 -8 -7 -15 -15 -15 -16 0 -20 12 -8 23 11 12 23 8 23 -8z"/>
<path d="M2670 2733 c0 -36 -14 -42 -42 -16 -11 9 -18 11 -18 5 0 -7 5 -12 11
-12 5 0 7 -4 4 -10 -3 -6 5 -10 19 -10 13 0 26 -6 29 -12 2 -7 6 4 8 25 3 20
1 43 -3 50 -5 7 -8 -1 -8 -20z"/>
<path d="M2761 2715 c1 -43 2 -46 9 -22 5 16 5 38 0 50 -7 17 -9 10 -9 -28z"/>
<path d="M2610 2746 c0 -10 28 -13 41 -5 10 6 7 9 -13 9 -16 0 -28 -2 -28 -4z"/>
<path d="M2722 2743 c9 -2 19 -12 21 -21 3 -12 5 -10 6 6 1 17 -4 22 -21 21
-16 -1 -18 -3 -6 -6z"/>
<path d="M995 2716 l-20 -16 20 -16 c18 -14 20 -14 23 0 2 9 2 23 0 32 -3 14
-5 14 -23 0z"/>
<path d="M2645 2720 c-3 -5 -1 -10 4 -10 6 0 11 5 11 10 0 6 -2 10 -4 10 -3 0
-8 -4 -11 -10z"/>
<path d="M2707 2700 c-4 -15 0 -20 15 -20 18 0 19 2 7 18 -7 9 -14 18 -15 20
-1 1 -4 -6 -7 -18z"/>
<path d="M2350 2685 c0 -8 4 -15 8 -15 5 0 9 7 9 15 0 8 -4 15 -9 15 -4 0 -8
-7 -8 -15z"/>
<path d="M2393 2685 c0 -8 4 -15 9 -15 4 0 8 7 8 15 0 8 -4 15 -8 15 -5 0 -9
-7 -9 -15z"/>
<path d="M2440 2685 c0 -8 4 -15 8 -15 5 0 9 7 9 15 0 8 -4 15 -9 15 -4 0 -8
-7 -8 -15z"/>
<path d="M2478 2693 c6 -2 10 -9 6 -14 -3 -5 0 -9 5 -9 6 0 11 7 11 15 0 8 -8
15 -17 14 -11 0 -13 -3 -5 -6z"/>
<path d="M2538 2693 c12 -2 30 -2 40 0 9 3 -1 5 -23 4 -22 0 -30 -2 -17 -4z"/>
<path d="M840 2300 l0 -280 315 0 315 0 0 280 0 280 -315 0 -315 0 0 -280z
m230 42 c0 -10 -8 -18 -19 -19 -17 -1 -20 8 -12 35 1 1 8 2 16 2 8 0 15 -8 15
-18z m64 9 c4 -5 -4 -7 -16 -5 l-23 5 23 -10 c32 -15 30 -51 -4 -51 -23 0 -25
3 -20 33 2 17 5 33 5 35 3 6 30 1 35 -7z m65 -28 c0 -21 -3 -32 -6 -25 -2 6
-13 12 -24 12 -12 0 -19 7 -19 20 0 25 27 27 33 3 4 -14 5 -12 6 5 2 38 11 24
10 -15z m61 2 c0 -28 -4 -35 -19 -35 -10 0 -21 9 -24 19 -5 22 7 48 17 33 3
-6 0 -13 -6 -15 -8 -3 -6 -6 5 -6 11 -1 17 6 17 19 0 11 2 20 5 20 3 0 5 -16
5 -35z m-180 -21 c0 -2 -12 -4 -27 -4 -21 0 -24 3 -14 9 13 8 41 5 41 -5z
m100 -70 c0 -8 -6 -14 -12 -14 -9 0 -8 -4 2 -10 13 -8 12 -10 -2 -10 -20 0
-24 15 -8 25 6 3 10 11 10 16 0 6 -5 7 -12 3 -7 -4 -8 -3 -4 5 9 14 26 5 26
-15z m-53 -21 c-3 -10 -5 -4 -5 12 0 17 2 24 5 18 2 -7 2 -21 0 -30z"/>
<path d="M1108 2303 c7 -3 16 -2 19 1 4 3 -2 6 -13 5 -11 0 -14 -3 -6 -6z"/>
<path d="M1500 2300 l0 -280 315 0 315 0 0 280 0 280 -315 0 -315 0 0 -280z
m246 37 c1 -9 -3 -17 -9 -18 -7 0 -3 -4 8 -9 16 -7 14 -9 -15 -9 -19 0 -30 3
-25 7 6 4 10 14 10 22 -3 34 26 40 31 7z m66 6 c7 -30 -3 -53 -22 -53 -10 0
-20 8 -22 18 -7 29 3 52 22 52 10 0 20 -8 22 -17z m63 -26 c-8 -20 -53 -10
-51 11 1 21 38 33 49 16 4 -7 5 -19 2 -27z m39 28 c3 -9 0 -15 -9 -15 -9 0
-12 6 -9 15 4 8 7 15 9 15 2 0 5 -7 9 -15z m24 -20 c-1 -26 -7 -35 -19 -35
-27 0 -34 21 -10 27 12 3 21 13 21 24 0 11 2 19 5 19 3 0 5 -16 3 -35z m-128
-100 c0 -14 -2 -25 -4 -25 -2 0 -6 11 -8 25 -3 14 -1 25 3 25 5 0 9 -11 9 -25z"/>
<path d="M1845 2330 c3 -5 8 -10 11 -10 2 0 4 5 4 10 0 6 -5 10 -11 10 -5 0
-7 -4 -4 -10z"/>
<path d="M2150 2460 l0 -120 150 0 150 0 0 120 0 120 -30 0 c-20 0 -30 -5 -30
-15 0 -12 -16 -15 -85 -15 -69 0 -85 3 -85 15 0 10 -11 15 -35 15 l-35 0 0
-120z m116 25 c-3 -8 0 -16 7 -19 7 -2 3 -5 -9 -5 -16 -1 -20 4 -18 22 3 30 3
29 15 22 6 -4 8 -13 5 -20z m54 0 c0 -15 -6 -25 -14 -25 -16 0 -25 19 -18 38
8 22 32 13 32 -13z m50 1 c0 -19 -4 -23 -20 -19 -21 5 -28 33 -9 33 5 0 7 -4
4 -10 -3 -5 -1 -10 4 -10 6 0 11 7 11 15 0 8 2 15 5 15 3 0 5 -11 5 -24z m-81
-62 c4 3 8 -4 8 -15 1 -10 -4 -19 -12 -19 -16 0 -24 19 -17 39 4 11 7 11 10 3
2 -7 7 -10 11 -8z m51 1 c11 -13 10 -14 -4 -9 -12 5 -15 2 -10 -12 5 -15 4
-16 -4 -5 -6 8 -8 20 -5 28 6 16 8 16 23 -2z"/>
<path d="M2480 2300 l0 -280 505 0 505 0 0 280 0 280 -225 0 -225 0 0 -25 c0
-31 -32 -34 -53 -5 -13 19 -13 19 -30 0 -24 -28 -47 -25 -47 5 l0 25 -215 0
-215 0 0 -280z m326 47 c10 -22 8 -24 -16 -24 -24 0 -26 2 -16 24 6 12 13 23
16 23 3 0 10 -11 16 -23z m34 -28 l0 -50 -32 3 c-46 4 -53 38 -9 38 28 0 31 3
31 30 0 17 2 30 5 30 3 0 5 -23 5 -51z m57 37 c-3 -7 -1 -18 5 -24 7 -7 3 -10
-14 -9 -31 2 -37 47 -6 47 13 0 18 -5 15 -14z m34 -44 c-5 -31 -10 -37 -31
-37 -16 0 -26 6 -28 18 -3 13 3 17 22 17 23 0 26 4 26 33 0 20 3 27 9 19 4 -7
5 -30 2 -50z m64 48 c3 -5 -3 -18 -15 -30 l-20 -20 35 0 c19 0 38 -1 43 -2 4
-2 12 13 19 32 10 31 12 32 12 10 1 -15 6 -31 13 -38 6 -6 9 -15 5 -18 -4 -4
-9 0 -12 8 -5 13 -11 12 -32 -8 -35 -33 -71 -32 -84 3 -8 21 -7 28 6 36 15 8
15 10 -2 23 -17 13 -17 13 4 14 12 0 24 -4 28 -10z m35 -15 c0 -14 -4 -25 -9
-25 -12 0 -19 21 -13 38 8 21 22 13 22 -13z m80 -46 c-7 -31 -8 -29 -8 21 -1
39 2 49 8 34 4 -11 5 -36 0 -55z m61 49 c10 -18 9 -20 -5 -15 -8 3 -18 2 -21
-3 -4 -6 7 -10 24 -10 25 0 30 5 34 28 2 15 5 3 6 -26 l1 -53 -32 3 c-41 4
-50 28 -11 29 l28 1 -29 7 c-17 3 -29 8 -28 11 2 3 5 15 8 28 8 27 10 27 25 0z"/>
<path d="M2798 2293 c6 -2 18 -2 25 0 6 3 1 5 -13 5 -14 0 -19 -2 -12 -5z"/>
<path d="M2888 2288 c9 -9 15 -9 24 0 9 9 7 12 -12 12 -19 0 -21 -3 -12 -12z"/>
<path d="M2978 2293 c6 -2 18 -2 25 0 6 3 1 5 -13 5 -14 0 -19 -2 -12 -5z"/>
<path d="M3614 2544 c3 -9 6 -20 6 -25 0 -5 7 -9 15 -9 25 0 19 45 -6 47 -15
1 -19 -2 -15 -13z"/>
<path d="M3660 2535 c0 -25 23 -35 35 -15 3 6 1 10 -4 10 -6 0 -11 7 -11 15 0
8 -4 15 -10 15 -5 0 -10 -11 -10 -25z"/>
<path d="M3917 2533 c-4 -3 -7 -40 -7 -80 l0 -74 78 3 77 3 3 69 c2 49 -1 72
-10 77 -16 10 -132 12 -141 2z m68 -32 c7 -12 -12 -24 -25 -16 -11 7 -4 25 10
25 5 0 11 -4 15 -9z m34 -57 l2 -45 -33 3 c-29 3 -33 7 -36 36 -3 29 -1 32 22
32 14 0 25 3 25 8 -1 4 -1 14 0 22 3 31 17 -10 20 -56z"/>
<path d="M3960 2456 c0 -9 40 -13 46 -5 3 5 -6 9 -20 9 -14 0 -26 -2 -26 -4z"/>
<path d="M3592 2465 c2 -17 8 -25 20 -25 13 0 18 8 18 25 0 18 -5 25 -20 25
-15 0 -19 -6 -18 -25z"/>
<path d="M3702 2469 c-7 -11 -11 -24 -8 -27 10 -9 28 15 24 32 -2 14 -5 13
-16 -5z"/>
<path d="M3640 2465 c0 -8 7 -15 15 -15 8 0 15 7 15 15 0 8 -7 15 -15 15 -8 0
-15 -7 -15 -15z"/>
<path d="M7500 2320 l0 -71 38 3 c30 2 38 7 40 26 4 26 19 28 43 6 17 -15 19
-15 34 0 24 24 45 20 45 -9 0 -21 5 -25 30 -25 25 0 30 4 30 25 0 32 32 34 54
4 l14 -21 11 21 c17 30 51 28 51 -4 0 -22 4 -25 35 -25 l35 0 0 70 0 70 -35 0
c-31 0 -35 -3 -35 -25 0 -30 -10 -31 -41 -6 -24 19 -24 19 -46 -1 -24 -22 -43
-17 -43 13 0 14 -7 19 -30 19 -25 0 -30 -4 -30 -25 0 -30 -10 -31 -41 -6 -22
18 -23 18 -43 0 -26 -25 -34 -24 -38 4 -2 18 -10 23 -40 25 l-38 3 0 -71z"/>
<path d="M3912 2263 l3 -78 75 0 75 0 0 75 0 75 -78 3 -78 3 3 -78z m68 37 c0
-11 5 -20 10 -20 6 0 9 3 9 8 -1 4 -1 14 0 22 3 31 17 -10 20 -55 l2 -45 -36
0 c-38 0 -40 4 -29 73 7 39 24 51 24 17z"/>
<path d="M3978 2253 c6 -2 18 -2 25 0 6 3 1 5 -13 5 -14 0 -19 -2 -12 -5z"/>
<path d="M2150 2170 l0 -150 150 0 150 0 0 150 0 150 -150 0 -150 0 0 -150z"/>
<path d="M7360 2095 c0 -127 1 -135 19 -135 32 0 35 -20 7 -49 l-26 -27 0
-797 0 -797 370 0 370 0 0 970 0 970 -370 0 -370 0 0 -135z m350 -738 c0 -16
-20 -37 -34 -37 -6 0 -3 5 7 11 9 5 17 14 17 19 0 5 -8 11 -17 13 -14 4 -12 5
5 6 12 0 22 -5 22 -12z m33 0 c3 -8 1 -20 -4 -28 -6 -10 -9 -7 -9 14 0 29 5
35 13 14z m45 6 c-10 -2 -18 -10 -18 -18 0 -8 7 -11 20 -8 14 4 20 0 20 -11 0
-9 5 -16 10 -16 19 0 10 -29 -10 -35 -28 -9 -54 13 -39 31 8 10 8 14 0 14 -6
0 -11 11 -11 25 0 20 5 25 23 24 16 -1 18 -2 5 -6z m45 -6 c3 -8 1 -20 -4 -28
-6 -10 -9 -7 -9 14 0 29 5 35 13 14z m-109 -43 c9 -3 16 -12 16 -19 0 -20 -38
-29 -56 -14 -14 12 -14 14 2 26 21 15 18 15 38 7z"/>
<path d="M7788 1288 c9 -9 15 -9 24 0 9 9 7 12 -12 12 -19 0 -21 -3 -12 -12z"/>
<path d="M7698 1288 c9 -9 15 -9 24 0 9 9 7 12 -12 12 -19 0 -21 -3 -12 -12z"/>
<path d="M3917 2144 c-4 -4 -7 -41 -7 -81 l0 -74 78 3 77 3 0 75 0 75 -70 3
c-39 1 -74 0 -78 -4z m101 -83 l3 -52 -33 3 c-29 3 -33 7 -36 36 -3 29 -1 32
23 32 15 0 24 4 20 10 -4 6 -11 8 -16 5 -12 -8 -31 4 -24 15 3 5 18 7 33 6 25
-3 27 -7 30 -55z"/>
<path d="M3973 2063 c9 -2 23 -2 30 0 6 3 -1 5 -18 5 -16 0 -22 -2 -12 -5z"/>
<path d="M4602 2043 l3 -78 75 0 75 0 0 75 0 75 -78 3 -78 3 3 -78z m71 32
c-3 -8 0 -15 6 -15 6 0 10 3 10 8 -1 4 -1 14 0 22 3 33 21 -15 21 -57 0 -42 0
-43 -35 -43 -32 0 -35 2 -35 29 0 17 5 33 10 36 6 4 8 11 5 16 -8 12 4 31 15
24 5 -3 7 -12 3 -20z"/>
<path d="M4668 2033 c6 -2 18 -2 25 0 6 3 1 5 -13 5 -14 0 -19 -2 -12 -5z"/>
<path d="M840 1745 l0 -255 730 0 730 0 0 30 c0 29 2 30 23 19 12 -7 25 -17
29 -23 4 -7 13 -4 26 7 26 24 42 21 42 -8 l0 -25 310 0 310 0 0 160 0 160 225
0 225 0 0 95 0 95 -1325 0 -1325 0 0 -255z m1070 45 c9 -6 17 -5 22 3 4 7 8
-7 8 -30 0 -40 -2 -43 -27 -44 l-28 -1 30 -8 30 -8 -32 -1 c-26 -1 -33 3 -33
18 0 11 -2 26 -5 33 -4 9 2 14 15 14 13 0 19 -5 16 -13 -3 -7 1 -13 8 -13 22
0 12 35 -10 36 -48 3 -50 4 -34 14 19 12 21 12 40 0z m76 -1 c4 -8 9 -7 15 2
7 11 9 11 9 -1 0 -13 1 -13 10 0 7 11 9 -1 9 -40 -1 -30 -3 -47 -6 -37 -3 10
-15 17 -31 18 -17 1 -21 3 -9 6 9 2 17 12 16 21 0 11 -2 12 -6 5 -6 -16 -29
-17 -38 -3 -8 14 1 40 14 40 5 0 13 -5 17 -11z m132 -11 c3 -14 -3 -18 -26
-18 -34 0 -43 7 -35 27 8 20 57 13 61 -9z m63 -14 c7 -29 7 -29 9 6 1 19 4 29
7 21 5 -11 7 -11 14 0 6 9 8 -4 7 -36 -3 -48 -4 -50 -33 -50 -20 0 -30 5 -31
15 0 8 -4 23 -9 33 -9 22 1 50 18 45 6 -3 15 -18 18 -34z m-68 -21 c-13 -2
-35 -2 -50 0 -16 2 -5 4 22 4 28 0 40 -2 28 -4z m-19 -30 c8 3 18 2 21 -3 4
-6 -7 -10 -24 -10 -23 0 -31 5 -31 18 0 14 2 14 9 3 5 -8 16 -11 25 -8z"/>
<path d="M1965 1770 c3 -5 8 -10 11 -10 2 0 4 5 4 10 0 6 -5 10 -11 10 -5 0
-7 -4 -4 -10z"/>
<path d="M2011 1754 c0 -11 3 -14 6 -6 3 7 2 16 -1 19 -3 4 -6 -2 -5 -13z"/>
<path d="M2070 1780 c0 -5 9 -10 20 -10 11 0 20 5 20 10 0 6 -9 10 -20 10 -11
0 -20 -4 -20 -10z"/>
<path d="M2170 1720 c0 -5 7 -10 15 -10 8 0 15 5 15 10 0 6 -7 10 -15 10 -8 0
-15 -4 -15 -10z"/>
<path d="M4810 1875 l0 -125 -74 0 -75 0 -4 53 c-2 28 -3 0 -4 -63 0 -77 2
-97 6 -60 l6 55 85 7 c47 3 214 6 373 7 l287 1 0 125 0 125 -300 0 -300 0 0
-125z m304 39 c8 -20 -4 -94 -15 -94 -5 0 -9 8 -9 18 0 10 -5 23 -12 30 -9 9
-8 17 2 37 15 29 25 32 34 9z"/>
<path d="M3510 1709 l0 -222 53 7 c28 3 172 6 320 6 l267 0 0 215 0 215 -320
0 -320 0 0 -221z m242 157 c6 -8 8 -7 8 2 0 6 9 12 20 12 11 0 20 -6 21 -12 0
-10 2 -10 6 0 2 6 13 12 24 12 10 0 19 -6 20 -12 0 -10 2 -10 6 0 2 6 13 12
24 12 16 0 19 -8 21 -47 l2 -48 3 48 c3 39 8 47 24 47 16 0 19 -8 21 -47 l2
-48 3 48 c3 39 8 47 24 47 18 0 19 -8 19 -170 0 -163 -1 -170 -20 -170 -17 0
-20 7 -22 48 l-2 47 -3 -47 c-3 -40 -8 -48 -24 -48 -16 0 -19 8 -21 48 l-2 47
-3 -47 -4 -47 -145 0 -144 -1 0 80 0 80 29 0 c26 0 30 -4 33 -32 3 -30 7 -33
38 -36 19 -2 38 -9 42 -15 6 -9 8 -8 8 2 0 9 8 12 25 8 33 -6 47 19 47 84 -1
76 -10 85 -79 82 -77 -4 -83 -7 -83 -42 0 -21 -6 -32 -20 -36 -34 -11 -40 3
-40 86 l0 79 68 -1 c37 -1 70 -7 74 -13z m298 -71 c0 -78 -2 -85 -20 -85 -18
0 -20 7 -20 85 0 78 2 85 20 85 18 0 20 -7 20 -85z m-290 -85 c-22 -22 -46
-40 -53 -40 -16 0 64 79 81 80 7 0 -6 -18 -28 -40z m290 -90 c0 -73 -2 -80
-20 -80 -18 0 -20 7 -20 80 0 73 2 80 20 80 18 0 20 -7 20 -80z"/>
<path d="M3852 1810 c0 -14 2 -19 5 -12 2 6 2 18 0 25 -3 6 -5 1 -5 -13z"/>
<path d="M3850 1710 c0 -60 3 -70 18 -70 15 0 17 8 14 65 l-4 65 41 0 c40 0
41 -1 42 -37 1 -21 3 -45 4 -53 1 -8 3 -21 4 -27 0 -7 6 -13 11 -13 6 0 10 30
10 70 l0 70 -70 0 -70 0 0 -70z"/>
<path d="M3907 1719 c4 -13 9 -17 15 -11 11 11 3 32 -12 32 -4 0 -6 -9 -3 -21z"/>
<path d="M3751 1584 c0 -11 3 -14 6 -6 3 7 2 16 -1 19 -3 4 -6 -2 -5 -13z"/>
<path d="M3060 1640 l0 -150 215 0 215 0 0 150 0 150 -215 0 -215 0 0 -150z
m181 -3 c0 -12 3 -16 6 -9 2 6 14 12 24 12 11 0 18 -4 15 -9 -4 -5 0 -11 6
-14 7 -2 -4 -6 -24 -8 -21 -3 -38 -2 -38 2 0 3 -10 5 -23 4 -19 -2 -23 2 -21
19 1 11 3 21 3 21 1 0 12 2 26 3 20 1 25 -3 26 -21z m79 3 c-12 -8 -10 -10 8
-10 14 0 22 6 22 17 0 9 3 14 6 10 4 -3 4 -18 0 -32 -8 -30 -41 -34 -49 -6 -5
19 12 46 22 35 3 -3 -1 -9 -9 -14z"/>
<path d="M7030 1760 c0 -5 11 -10 25 -10 18 0 25 -5 25 -20 0 -12 -10 -25 -25
-32 l-25 -11 0 -379 0 -378 -480 0 -480 0 0 -145 0 -145 235 0 235 0 0 -175 0
-175 395 0 395 0 0 740 0 740 -150 0 c-93 0 -150 -4 -150 -10z m120 -515 l0
-435 -525 0 -525 0 0 55 0 55 475 0 475 0 0 380 0 380 50 0 50 0 0 -435z
m-326 -648 c-2 -25 14 -21 19 6 2 12 5 3 6 -20 1 -35 -2 -41 -15 -36 -13 5
-13 7 -2 14 10 7 9 9 -4 9 -10 0 -18 -2 -18 -4 0 -2 -3 -11 -6 -19 -4 -11 2
-17 23 -20 27 -4 27 -4 -4 -6 -29 -1 -33 2 -33 24 0 14 -6 25 -12 26 -10 0
-10 2 0 6 6 2 10 9 6 14 -8 14 6 30 24 27 10 -2 16 -11 16 -21z m206 -54 c-5
-16 -9 -22 -9 -15 -1 6 -14 12 -30 12 -25 0 -28 3 -23 23 5 18 7 19 10 5 2
-10 12 -18 23 -18 15 0 19 7 20 38 1 35 1 36 9 10 5 -16 5 -40 0 -55z m-90 47
c0 -14 -7 -20 -22 -21 -19 -1 -17 -3 7 -9 24 -6 26 -8 8 -9 -14 -1 -23 -8 -24
-18 -1 -17 -2 -17 -6 0 -2 9 -14 17 -26 18 -21 0 -21 1 -3 8 14 5 16 10 8 15
-26 16 -12 36 23 36 28 0 35 -4 35 -20z m70 -5 c0 -14 -4 -25 -9 -25 -5 0 -7
9 -4 19 4 14 -1 21 -19 24 -21 4 -20 4 5 6 23 1 27 -3 27 -24z"/>
<path d="M7070 1285 l0 -385 -475 0 -475 0 0 -35 0 -35 505 0 505 0 0 420 0
420 -30 0 -30 0 0 -385z"/>
<path d="M6795 600 c4 -6 11 -8 16 -5 14 9 11 15 -7 15 -8 0 -12 -5 -9 -10z"/>
<path d="M6898 593 c6 -2 18 -2 25 0 6 3 1 5 -13 5 -14 0 -19 -2 -12 -5z"/>
<path d="M4810 1605 l0 -125 300 0 300 0 0 125 0 125 -300 0 -300 0 0 -125z
m310 4 c0 -10 -5 -30 -11 -46 l-12 -28 -8 30 c-5 17 -7 46 -3 65 5 33 7 34 20
15 8 -10 14 -27 14 -36z"/>
<path d="M6220 1590 l0 -110 250 0 250 0 0 110 0 110 -250 0 -250 0 0 -110z"/>
<path d="M5629 1648 c-1 -2 -3 -13 -4 -25 -2 -15 4 -22 21 -26 21 -4 24 -1 23
27 -1 23 -3 26 -6 9 -2 -13 -9 -23 -14 -23 -6 0 -7 5 -3 12 4 7 3 8 -4 4 -7
-4 -12 -3 -12 3 0 5 6 12 13 14 10 4 10 6 0 6 -7 1 -14 0 -14 -1z"/>
<path d="M5755 1640 c3 -5 8 -10 11 -10 2 0 4 5 4 10 0 6 -5 10 -11 10 -5 0
-7 -4 -4 -10z"/>
<path d="M5910 1640 c0 -5 5 -10 11 -10 5 0 7 5 4 10 -3 6 -8 10 -11 10 -2 0
-4 -4 -4 -10z"/>
<path d="M5680 1615 c0 -8 4 -15 8 -15 5 0 9 7 9 15 0 8 -4 15 -9 15 -4 0 -8
-7 -8 -15z"/>
<path d="M5715 1620 c3 -5 8 -10 11 -10 2 0 4 5 4 10 0 6 -5 10 -11 10 -5 0
-7 -4 -4 -10z"/>
<path d="M5813 1613 c9 -2 23 -2 30 0 6 3 -1 5 -18 5 -16 0 -22 -2 -12 -5z"/>
<path d="M5903 1613 c9 -2 25 -2 35 0 9 3 1 5 -18 5 -19 0 -27 -2 -17 -5z"/>
<path d="M5750 1600 c0 -5 9 -10 20 -10 11 0 20 5 20 10 0 6 -9 10 -20 10 -11
0 -20 -4 -20 -10z"/>
<path d="M5960 1602 c0 -4 9 -8 20 -9 11 -1 20 2 20 8 0 5 -9 9 -20 9 -11 0
-20 -4 -20 -8z"/>
<path d="M5450 1515 l0 -35 363 2 362 3 0 30 0 30 -362 3 -363 2 0 -35z"/>
<path d="M840 880 l0 -590 685 0 685 0 0 455 0 455 -25 0 c-30 0 -33 20 -6 44
19 17 19 18 0 37 -27 27 -24 49 6 49 24 0 25 2 25 70 l0 70 -685 0 -685 0 0
-590z m1250 485 l0 -35 -80 0 -80 0 0 35 0 35 80 0 80 0 0 -35z m-80 -75 c0
17 36 24 45 9 3 -5 -2 -6 -12 -3 -16 5 -16 4 1 -10 27 -22 9 -40 -26 -27 -14
5 -29 7 -32 4 -3 -4 -6 7 -6 22 0 28 1 28 15 9 11 -15 14 -16 15 -4z m-607
-372 c4 -10 8 -9 16 2 9 11 11 3 9 -35 -3 -48 -4 -50 -33 -50 -39 0 -41 29 -2
33 15 2 27 9 27 18 0 8 -2 14 -4 14 -2 0 -13 3 -23 7 -16 6 -17 5 -3 -12 13
-17 13 -18 -1 -13 -9 4 -22 1 -28 -5 -6 -6 -11 -7 -11 -1 0 5 5 15 12 22 9 9
9 12 -1 12 -7 0 -9 5 -6 10 9 14 42 12 48 -2z m81 3 c4 -5 1 -11 -6 -13 -8 -3
-6 -7 5 -11 9 -3 16 -3 16 1 -3 18 2 32 11 32 7 0 10 -19 8 -47 -3 -46 -4 -48
-33 -48 -20 0 -30 5 -30 15 0 8 -4 21 -9 29 -5 8 -3 16 5 22 11 7 11 9 1 9 -7
0 -10 5 -7 10 8 13 32 13 39 1z m96 -6 c10 -12 10 -19 2 -27 -16 -16 -15 -28
2 -28 10 0 16 13 19 38 3 27 4 22 5 -18 0 -30 -2 -49 -5 -42 -2 6 -21 13 -41
13 -20 1 -29 3 -19 6 18 5 24 23 7 23 -11 0 -14 33 -3 43 10 11 19 8 33 -8z
m121 -60 c-2 -16 -6 -24 -8 -17 -3 6 -21 12 -41 12 -20 0 -32 4 -26 8 6 4 14
14 17 22 4 12 6 11 6 -2 1 -11 9 -18 21 -18 16 0 20 7 21 38 1 31 2 33 8 12 4
-14 5 -38 2 -55z m-21 53 c0 -7 -5 -20 -10 -28 -8 -12 -10 -11 -10 7 0 12 -8
24 -17 26 -11 3 -7 5 10 6 16 1 27 -4 27 -11z"/>
<path d="M2025 1270 c3 -5 11 -10 16 -10 6 0 7 5 4 10 -3 6 -11 10 -16 10 -6
0 -7 -4 -4 -10z"/>
<path d="M1375 850 c3 -5 13 -10 21 -10 8 0 14 5 14 10 0 6 -9 10 -21 10 -11
0 -17 -4 -14 -10z"/>
<path d="M1470 850 c0 -5 7 -10 15 -10 8 0 15 5 15 10 0 6 -7 10 -15 10 -8 0
-15 -4 -15 -10z"/>
<path d="M1550 900 c0 -5 7 -10 15 -10 8 0 15 5 15 10 0 6 -7 10 -15 10 -8 0
-15 -4 -15 -10z"/>
<path d="M2230 695 l0 -405 800 0 800 0 0 155 0 155 -170 0 -170 0 0 250 0
251 -147 -3 c-145 -3 -148 -3 -151 -25 -4 -27 -19 -29 -43 -7 -17 15 -19 15
-34 0 -24 -24 -45 -20 -45 9 l0 25 -420 0 -420 0 0 -405z m780 305 l0 -80 -30
0 -30 0 0 80 0 80 30 0 30 0 0 -80z m-167 0 c-7 -28 -13 -25 -13 6 0 14 4 23
9 20 5 -3 7 -15 4 -26z m64 15 c-4 -8 -2 -17 4 -20 16 -11 -1 -25 -26 -23 -31
3 -42 29 -19 45 24 18 48 17 41 -2z m-17 -344 c0 -41 -3 -51 -20 -56 -29 -9
-54 13 -38 32 6 8 20 12 30 10 10 -3 18 -1 18 4 0 5 -6 9 -12 9 -9 0 -8 4 2
10 8 5 10 10 4 10 -6 0 -17 -7 -24 -15 -7 -8 -17 -15 -23 -15 -5 0 -2 9 7 19
14 15 15 20 4 24 -7 2 -1 3 15 1 15 -2 27 1 27 6 0 6 2 10 5 10 3 0 5 -22 5
-49z m-124 16 c10 -22 8 -24 -16 -24 -24 0 -26 2 -16 24 6 12 13 23 16 23 3 0
10 -11 16 -23z m31 -29 c-2 -13 -4 -5 -4 17 -1 22 1 32 4 23 2 -10 2 -28 0
-40z m160 36 c3 -8 1 -20 -6 -27 -15 -15 -14 -27 3 -27 10 0 16 13 19 38 3 36
4 35 5 -8 l2 -46 -42 5 c-24 3 -35 6 -25 9 20 4 22 13 6 29 -15 15 -4 43 16
43 9 0 18 -7 22 -16z m115 -29 c0 -20 -3 -39 -6 -42 -3 -4 -6 15 -6 42 0 27 3
46 6 42 3 -3 6 -22 6 -42z m-22 15 c0 -11 -5 -20 -11 -20 -6 0 -9 6 -6 14 4
10 -2 16 -16 19 -18 4 -17 5 6 6 21 1 27 -4 27 -19z m-9 -35 c5 4 9 1 9 -4 0
-6 -11 -11 -24 -11 -20 0 -23 4 -19 21 5 19 7 19 15 5 5 -9 13 -14 19 -11z
m-291 -4 c0 -5 12 -12 28 -14 22 -3 20 -4 -10 -6 -28 -1 -38 3 -38 14 0 8 5
15 10 15 6 0 10 -4 10 -9z"/>
<path d="M2870 1001 c0 -5 7 -11 15 -15 8 -3 15 -1 15 3 0 5 -7 11 -15 15 -8
3 -15 1 -15 -3z"/>
<path d="M2848 633 c6 -2 18 -2 25 0 6 3 1 5 -13 5 -14 0 -19 -2 -12 -5z"/>
<path d="M2926 691 c-4 -5 -2 -12 3 -15 5 -4 12 -2 15 3 4 5 2 12 -3 15 -5 4
-12 2 -15 -3z"/>
<path d="M3510 860 l0 -240 320 0 320 0 0 240 0 240 -49 0 c-48 0 -50 -1 -53
-31 l-3 -31 -28 22 c-18 14 -32 19 -35 13 -4 -6 -17 -15 -29 -22 -21 -11 -23
-10 -23 19 l0 30 -210 0 -210 0 0 -240z m293 66 c-3 -38 15 -32 20 7 3 29 4
28 5 -8 l2 -41 -37 5 c-21 3 -30 7 -20 9 14 3 16 7 6 18 -14 17 -4 47 14 41 6
-2 11 -16 10 -31z m98 19 c5 14 8 7 7 -25 0 -37 -1 -41 -8 -20 l-8 25 -1 -25
c-1 -18 -4 -21 -10 -11 -5 7 -14 10 -20 7 -6 -4 -14 1 -18 10 -4 11 -1 20 6
22 11 4 11 6 0 13 -11 7 -10 9 4 9 19 0 23 -26 5 -33 -8 -3 -6 -6 5 -6 12 -1
17 7 18 27 1 21 2 23 7 7 l5 -20 8 20z m-59 -106 c-1 -8 4 -6 13 6 15 19 16
18 13 -20 -3 -36 -6 -40 -32 -43 -17 -2 -26 0 -22 6 3 6 2 21 -3 35 -5 14 -7
28 -3 31 11 12 37 0 34 -15z m-85 -17 c0 -16 -6 -29 -13 -29 -7 0 -11 10 -9
26 5 33 4 31 13 31 5 0 9 -13 9 -28z m33 -7 c0 -19 -4 -35 -10 -35 -5 0 -10
16 -10 35 0 19 5 35 10 35 6 0 10 -16 10 -35z m123 22 c3 -8 -3 -14 -15 -14
-16 -2 -17 1 -8 13 15 17 17 17 23 1z m37 -2 c0 -8 -4 -15 -8 -15 -5 0 -9 7
-9 15 0 8 4 15 9 15 4 0 8 -7 8 -15z m-5 -34 c-6 -5 -20 -12 -32 -16 -17 -5
-23 -2 -23 9 0 11 10 16 32 16 19 0 28 -4 23 -9z"/>
<path d="M3780 940 c0 -5 5 -10 10 -10 6 0 10 5 10 10 0 6 -4 10 -10 10 -5 0
-10 -4 -10 -10z"/>
<path d="M4200 980 l0 -120 80 0 80 0 0 120 0 120 -80 0 -80 0 0 -120z m138
-12 c-2 -18 -5 -19 -14 -7 -8 10 -9 21 -1 39 8 20 11 22 14 8 3 -10 3 -28 1
-40z m-80 30 c-3 -7 -11 -13 -18 -13 -7 0 -15 6 -17 13 -3 7 4 12 17 12 13 0
20 -5 18 -12z m39 -20 c-3 -7 -5 -2 -5 12 0 14 2 19 5 13 2 -7 2 -19 0 -25z
m-17 -24 c0 -2 -11 -4 -25 -4 -14 0 -25 4 -25 9 0 4 11 6 25 3 14 -2 25 -6 25
-8z"/>
<path d="M4810 780 l0 -120 480 0 480 0 0 120 0 120 -480 0 -480 0 0 -120z
m465 31 c-3 -6 9 -7 30 -4 28 4 35 2 35 -11 0 -9 -6 -16 -13 -16 -7 0 -26 -14
-42 -30 -17 -18 -38 -30 -49 -28 -30 5 -31 27 -2 38 19 7 26 17 26 35 0 14 5
25 11 25 5 0 8 -4 4 -9z"/>
<path d="M5262 769 c-19 -17 -31 -33 -28 -37 4 -3 21 8 39 25 17 17 39 33 47
36 11 4 9 6 -5 6 -11 0 -35 -13 -53 -30z"/>
<path d="M4200 550 l0 -260 80 0 80 0 0 260 0 260 -80 0 -80 0 0 -260z m94 99
c13 23 13 23 19 2 3 -11 2 -19 -3 -16 -4 3 -13 -2 -20 -10 -7 -8 -23 -15 -36
-15 -21 0 -24 4 -22 31 2 23 6 29 20 26 10 -3 19 0 19 6 1 7 4 -1 6 -18 l5
-30 12 24z m43 -21 c-2 -13 -4 -5 -4 17 -1 22 1 32 4 23 2 -10 2 -28 0 -40z
m-70 -68 c-3 -11 -1 -23 4 -26 14 -8 0 -24 -21 -24 -14 0 -18 8 -18 35 0 28 4
35 20 35 15 0 19 -5 15 -20z m53 -6 c0 -8 -7 -14 -15 -14 -15 0 -21 21 -9 33
10 9 24 -2 24 -19z m17 -6 c-3 -8 -6 -5 -6 6 -1 11 2 17 5 13 3 -3 4 -12 1
-19z m3 -28 c0 -5 -11 -10 -25 -10 -14 0 -25 5 -25 10 0 6 11 10 25 10 14 0
25 -4 25 -10z m-23 -63 c-2 -6 -10 -12 -18 -15 -11 -3 -11 -1 1 8 13 10 13 11
0 7 -8 -2 -16 -13 -18 -25 -3 -21 -22 -32 -22 -13 0 5 -7 8 -16 7 -9 0 -19 6
-21 14 -4 13 -3 13 7 0 10 -13 11 -12 7 6 -4 18 1 21 40 21 27 1 43 -3 40 -10z
m20 -9 c-3 -8 -6 -5 -6 6 -1 11 2 17 5 13 3 -3 4 -12 1 -19z m3 -27 c0 -4 -11
-6 -25 -3 -14 2 -25 6 -25 8 0 2 11 4 25 4 14 0 25 -4 25 -9z"/>
<path d="M4245 650 c-3 -5 1 -10 10 -10 9 0 13 5 10 10 -3 6 -8 10 -10 10 -2
0 -7 -4 -10 -10z"/>
<path d="M4248 623 c7 -3 16 -2 19 1 4 3 -2 6 -13 5 -11 0 -14 -3 -6 -6z"/>
<path d="M6070 455 l0 -165 225 0 225 0 0 165 0 165 -225 0 -225 0 0 -165z
m183 52 c-2 -4 -3 -16 -3 -27 0 -13 -7 -20 -20 -20 -11 0 -20 4 -20 10 0 5 7
7 16 3 12 -4 15 -1 13 12 -2 10 -11 20 -19 22 -13 4 -13 3 0 -6 9 -7 10 -11 3
-11 -14 0 -25 15 -16 23 8 8 49 2 46 -6z m67 -8 c0 -10 -4 -19 -10 -19 -5 0
-10 4 -10 10 0 5 -7 7 -15 4 -8 -4 -15 -2 -15 3 0 14 7 18 30 20 14 1 20 -4
20 -18z m30 11 c-13 -8 -13 -10 2 -10 9 0 19 6 21 13 3 6 5 -4 5 -23 0 -19 -2
-27 -5 -17 -2 9 -12 17 -21 17 -15 0 -15 -2 -2 -10 13 -8 12 -10 -2 -10 -13 0
-18 8 -18 25 0 17 5 25 18 25 14 0 15 -2 2 -10z m-30 -46 c0 -2 -11 -4 -25 -4
-14 0 -25 4 -25 9 0 4 11 6 25 3 14 -2 25 -6 25 -8z m-67 -96 c-6 -11 -43 -10
-43 2 0 5 7 7 15 4 11 -5 13 -2 9 10 -3 9 -10 13 -15 10 -10 -6 -12 9 -3 19 8
8 44 -35 37 -45z m37 42 c-13 -8 -13 -10 2 -10 9 0 18 6 21 13 3 6 5 -3 4 -20
0 -28 -4 -33 -24 -33 -12 0 -23 4 -23 10 0 5 8 7 18 3 14 -5 13 -3 -3 10 -11
8 -23 13 -27 11 -5 -3 -8 1 -8 8 0 8 12 15 28 16 21 1 23 0 12 -8z m83 -3 c3
10 5 4 6 -14 1 -28 -2 -33 -22 -33 -24 0 -24 1 -18 55 1 6 8 2 15 -8 14 -18
14 -18 19 0z"/>
<path d="M3850 445 l0 -155 150 0 150 0 0 155 0 155 -150 0 -150 0 0 -155z
m100 15 c8 23 8 23 9 -8 1 -29 -1 -32 -18 -23 -10 6 -21 8 -23 5 -3 -2 -3 8 0
23 l5 27 10 -25 10 -24 7 25z m72 2 c7 -25 -27 -48 -36 -26 -11 28 -6 44 13
44 10 0 21 -8 23 -18z m59 3 c6 15 7 12 4 -10 -2 -16 -4 -33 -4 -37 -2 -15
-41 -8 -41 7 0 8 5 15 10 15 6 0 10 5 10 11 0 5 -4 7 -10 4 -11 -7 -14 8 -3
19 4 3 11 -1 17 -11 9 -16 10 -16 17 2z"/>
<path d="M4810 485 l0 -115 480 0 480 0 0 115 0 115 -480 0 -480 0 0 -115z
m465 36 c-3 -6 9 -7 30 -4 28 5 35 2 35 -11 0 -9 -8 -19 -17 -23 -10 -3 -30
-17 -45 -30 -25 -24 -58 -28 -65 -8 -2 6 7 15 19 20 14 6 24 20 26 38 2 15 8
27 13 27 6 0 8 -4 4 -9z"/>
<path d="M5279 484 c-13 -14 -33 -30 -44 -34 -19 -8 -19 -9 -1 -9 10 -1 36 15
57 34 22 19 33 35 26 35 -8 0 -24 -12 -38 -26z"/>
<path d="M4550 339 c9 -16 14 -18 26 -8 21 17 17 29 -11 29 -23 0 -24 -2 -15
-21z"/>
<path d="M4292 6455 c6 -14 13 -23 16 -21 7 7 -9 46 -18 46 -5 0 -4 -11 2 -25z"/>
<path d="M1224 4057 c-2 -7 -4 -54 -2 -103 l3 -89 105 0 105 0 0 100 0 100
-103 3 c-79 2 -104 0 -108 -11z m121 -92 c-30 -30 -62 -55 -71 -55 -11 0 -6 9
14 30 17 17 35 30 41 30 6 0 11 5 11 10 0 18 24 39 43 40 13 0 2 -16 -38 -55z"/>
<path d="M1530 3965 l0 -105 105 0 106 0 -3 103 -3 102 -102 3 -103 3 0 -106z
m160 59 c0 -8 5 -14 10 -14 6 0 10 -13 10 -30 0 -16 -4 -30 -10 -30 -5 0 -10
-15 -10 -33 0 -23 -5 -34 -15 -34 -10 0 -15 11 -15 34 0 18 -4 33 -10 33 -5 0
-10 14 -10 30 0 17 4 30 9 30 5 0 11 9 14 21 6 23 27 17 27 -7z m-83 2 c-3 -8
-1 -16 4 -18 21 -7 5 -118 -16 -118 -23 0 -36 107 -15 120 7 4 9 13 6 19 -4 6
0 11 9 11 11 0 15 -5 12 -14z"/>
<path d="M1837 4063 c-4 -3 -7 -51 -7 -105 l0 -98 105 0 c58 0 105 3 105 8 0
4 2 41 5 82 6 124 9 120 -104 120 -54 0 -101 -3 -104 -7z m91 -35 c10 -10 15
-10 22 2 9 13 11 13 20 0 5 -8 8 -21 5 -29 -3 -7 -1 -19 5 -26 5 -7 9 -27 7
-46 -2 -33 -4 -34 -50 -37 l-47 -3 0 45 c0 26 5 46 10 46 6 0 10 7 10 15 0 8
-4 15 -10 15 -5 0 -7 7 -4 15 7 18 16 19 32 3z"/>
<path d="M1920 3996 c0 -9 7 -16 16 -16 9 0 14 5 12 12 -6 18 -28 21 -28 4z"/>
<path d="M1907 3963 c-3 -5 10 -9 29 -10 19 -1 34 2 34 8 0 11 -57 12 -63 2z"/>
<path d="M1920 3909 c0 -5 12 -9 27 -9 30 0 27 9 -6 15 -11 2 -21 0 -21 -6z"/>
<path d="M930 3965 l0 -95 32 0 c25 0 29 3 20 12 -19 19 -15 95 5 102 28 11
36 -9 18 -45 -13 -29 -13 -31 0 -15 8 11 15 24 15 30 0 5 6 2 13 -8 8 -11 21
-16 33 -13 17 4 16 5 -3 6 -17 1 -23 7 -23 24 0 12 -5 29 -10 37 -8 12 -13 13
-30 3 -28 -18 -30 -17 -30 17 0 30 1 30 55 30 l55 0 0 -49 c0 -28 5 -53 10
-56 8 -5 8 -11 0 -20 -8 -10 -8 -19 2 -34 7 -12 16 -21 20 -21 5 0 8 43 8 95
l0 95 -95 0 -95 0 0 -95z"/>
<path d="M1008 3873 c7 -3 16 -2 19 1 4 3 -2 6 -13 5 -11 0 -14 -3 -6 -6z"/>
<path d="M1008 3782 c-3 -11 0 -19 7 -19 7 0 10 8 7 19 -2 10 -6 18 -7 18 -1
0 -5 -8 -7 -18z"/>
<path d="M1323 3765 c0 -22 2 -30 4 -17 2 12 2 30 0 40 -3 9 -5 -1 -4 -23z"/>
<path d="M1380 3773 c0 -18 2 -33 4 -33 9 0 13 39 5 51 -6 10 -9 4 -9 -18z"/>
<path d="M1549 3789 c-1 -8 -3 -24 -4 -36 -1 -13 3 -23 11 -23 8 0 11 10 9 31
-5 34 -14 51 -16 28z"/>
<path d="M1583 3760 c0 -25 2 -35 4 -22 4 19 19 27 45 23 4 0 5 6 2 14 -7 17
-24 20 -24 5 0 -17 -18 -11 -23 8 -3 9 -5 -3 -4 -28z"/>
<path d="M1650 3782 c0 -12 3 -21 8 -20 4 1 20 -4 35 -10 16 -7 29 -12 31 -12
1 0 2 15 3 33 0 21 -1 24 -4 9 -4 -23 -5 -23 -24 -6 -15 13 -19 14 -19 3 -1
-10 -5 -8 -15 5 -15 19 -15 19 -15 -2z"/>
<path d="M930 3763 c0 -18 5 -23 23 -22 16 1 18 2 5 6 -10 2 -18 9 -18 15 0 5
6 8 13 5 8 -3 14 0 14 7 0 6 -9 12 -19 12 -12 0 -18 -8 -18 -23z"/>
<path d="M982 3760 c0 -19 2 -27 5 -17 2 9 2 25 0 35 -3 9 -5 1 -5 -18z"/>
<path d="M1040 3774 c0 -8 5 -12 10 -9 6 4 8 11 5 16 -9 14 -15 11 -15 -7z"/>
<path d="M1111 3778 c-1 -12 -10 -18 -28 -19 -17 -1 -21 -3 -10 -6 9 -2 17 -9
17 -14 0 -6 7 -3 16 5 8 9 13 24 11 34 -4 16 -5 16 -6 0z"/>
<path d="M1282 3778 c9 -7 18 -22 21 -33 3 -13 5 -8 6 13 1 27 -3 32 -21 32
-19 0 -20 -1 -6 -12z"/>
<path d="M1826 3775 c13 -11 14 -13 3 -9 -13 4 -15 0 -12 -20 3 -16 12 -26 22
-26 10 0 12 3 5 8 -9 5 -8 11 2 20 8 7 14 8 14 2 0 -5 8 -10 18 -10 14 0 15 2
2 10 -10 6 -11 10 -2 10 6 0 12 7 12 15 0 8 -5 15 -11 15 -5 0 -7 -4 -4 -10 3
-5 1 -10 -4 -10 -6 0 -11 5 -11 10 0 6 -12 10 -27 10 -26 0 -26 -1 -7 -15z"/>
<path d="M1900 3760 c0 -22 4 -28 15 -24 8 4 12 10 9 15 -3 5 0 9 5 9 6 0 11
-7 11 -15 0 -8 5 -15 10 -15 6 0 10 14 10 30 0 30 -14 40 -24 18 -5 -10 -7
-10 -12 0 -10 22 -24 13 -24 -18z"/>
<path d="M2002 3760 c0 -19 2 -27 5 -17 2 9 2 25 0 35 -3 9 -5 1 -5 -18z"/>
<path d="M2020 3765 c0 -17 5 -25 18 -25 14 0 15 2 2 10 -13 8 -12 10 3 10 9
0 17 4 17 10 0 5 -7 6 -17 3 -11 -4 -14 -3 -9 5 4 7 2 12 -3 12 -6 0 -11 -11
-11 -25z"/>
<path d="M1276 3753 c-6 -14 -5 -15 5 -6 7 7 10 15 7 18 -3 3 -9 -2 -12 -12z"/>
<path d="M1348 3763 c7 -3 16 -2 19 1 4 3 -2 6 -13 5 -11 0 -14 -3 -6 -6z"/>
<path d="M1007 3744 c-10 -11 3 -24 24 -24 10 0 19 7 19 15 0 15 -31 21 -43 9z
m30 -10 c-3 -3 -12 -4 -19 -1 -8 3 -5 6 6 6 11 1 17 -2 13 -5z"/>
<path d="M1340 3741 c0 -10 19 -25 25 -20 1 2 -3 10 -11 17 -8 7 -14 8 -14 3z"/>
<path d="M1613 3738 c2 -7 12 -13 22 -13 10 0 20 6 23 13 2 7 -6 12 -23 12
-17 0 -25 -5 -22 -12z m34 -4 c-3 -3 -12 -4 -19 -1 -8 3 -5 6 6 6 11 1 17 -2
13 -5z"/>
<path d="M1680 3729 c0 -5 11 -9 25 -9 14 0 25 2 25 4 0 2 -11 6 -25 8 -14 3
-25 1 -25 -3z"/>
</g>
</svg>
