<?xml version="1.0" standalone="no"?>
<!DOCTYPE svg PUBLIC "-//W3C//DTD SVG 20010904//EN"
 "http://www.w3.org/TR/2001/REC-SVG-20010904/DTD/svg10.dtd">
<svg version="1.0" xmlns="http://www.w3.org/2000/svg"
 width="850.000000pt" height="600.000000pt" viewBox="0 0 850.000000 600.000000"
 preserveAspectRatio="xMidYMid meet">

<g transform="translate(0.000000,600.000000) scale(0.100000,-0.100000)"
fill="#000000" stroke="none">
<path d="M4570 4845 l0 -195 -1745 0 -1745 0 0 -175 0 -175 -470 0 -470 0 0
-1250 0 -1250 470 0 470 0 0 -105 0 -105 3648 0 3647 0 -3 1530 -2 1530 -1328
2 -1327 3 -3 193 -2 192 -570 0 -570 0 0 -195z m943 116 l18 -31 -55 0 c-31 0
-56 3 -56 7 0 3 12 21 26 40 28 37 37 35 67 -16z m-585 -58 c12 -12 13 -18 5
-20 -9 -3 -8 -9 4 -21 15 -16 15 -17 -13 -23 -23 -5 -24 -7 -6 -8 40 -2 26
-31 -15 -32 l-38 -2 40 -7 40 -7 -53 -2 c-64 -1 -68 20 -6 30 l39 6 -40 2
c-32 2 -36 4 -20 11 17 7 16 9 -10 10 -16 1 -24 4 -17 7 6 2 10 9 6 14 -3 5 3
9 13 9 14 0 15 2 4 9 -12 8 -12 11 0 25 18 20 46 20 67 -1z m150 -58 l0 -65
-49 0 c-45 0 -49 2 -49 24 0 22 3 24 40 19 l40 -6 0 52 c0 30 4 50 9 46 5 -3
9 -34 9 -70z m-268 55 c0 -5 -8 -10 -17 -10 -16 -1 -16 -2 1 -15 25 -19 14
-30 -14 -15 -16 9 -25 9 -33 1 -6 -6 -18 -11 -26 -11 -11 0 -9 6 9 20 20 15
21 20 8 20 -9 0 -20 5 -23 10 -4 6 13 10 44 10 28 0 51 -4 51 -10z m217 -6 c7
-18 -6 -45 -24 -51 -6 -2 -18 3 -27 12 -12 12 -13 21 -6 36 13 23 48 25 57 3z
m171 -14 c-3 -16 -1 -30 4 -30 4 0 8 -4 8 -10 0 -5 -11 -10 -25 -10 -20 0 -25
-5 -25 -24 0 -14 -4 -28 -10 -31 -6 -4 -10 7 -10 24 0 26 -4 31 -25 31 -14 0
-25 5 -25 10 0 6 20 10 45 10 38 0 45 3 45 20 0 17 -7 20 -40 20 -22 0 -40 5
-40 10 0 6 23 10 51 10 51 0 51 0 47 -30z m192 -12 c0 -10 -6 -18 -12 -19 -7
0 -4 -4 7 -9 17 -7 15 -9 -12 -9 -40 -1 -44 -18 -5 -24 26 -4 26 -4 -4 -6 -24
-1 -33 4 -37 19 -4 14 0 20 11 21 11 0 12 2 5 6 -7 2 -13 12 -13 21 0 12 9 17
30 17 22 0 30 -5 30 -17z m93 -29 c-3 -11 -12 -14 -29 -11 -13 2 -24 0 -24 -6
0 -6 12 -13 28 -15 26 -4 26 -4 -4 -6 -23 -1 -33 4 -37 18 -6 23 7 48 17 32
14 -22 36 -11 37 17 0 23 1 24 8 7 4 -11 6 -27 4 -36z m127 41 c11 -7 12 -10
2 -10 -10 0 -9 -5 4 -17 10 -10 12 -19 6 -21 -6 -2 -9 -9 -6 -17 7 -17 -33
-30 -50 -16 -11 9 -15 50 -6 59 1 1 4 7 5 12 1 6 3 12 4 15 2 8 25 5 41 -5z
m-150 -17 c0 -11 -3 -14 -8 -7 -4 6 -14 14 -22 17 -10 4 -8 6 8 6 15 1 22 -5
22 -16z m70 -18 c0 -19 -4 -35 -9 -35 -10 0 -21 57 -13 65 14 13 22 2 22 -30z
m-710 -15 c0 -5 -11 -10 -25 -10 -18 0 -25 -5 -25 -20 0 -11 -4 -20 -10 -20
-5 0 -10 9 -10 20 0 15 -7 20 -25 20 -14 0 -25 5 -25 10 0 6 27 10 60 10 33 0
60 -4 60 -10z m650 -90 c-1 -31 -2 -33 -14 -18 -8 11 -20 15 -33 12 -11 -3
-24 -1 -28 6 -11 18 13 37 45 36 27 -1 30 -4 30 -36z m80 -5 c0 -44 -1 -45
-31 -45 -26 0 -29 3 -24 20 4 13 2 20 -6 20 -7 0 -4 6 7 15 15 11 16 15 4 16
-8 1 -1 5 15 9 17 4 31 8 33 9 1 0 2 -19 2 -44z m-130 -24 c0 -5 12 -12 28
-14 22 -3 20 -4 -10 -6 -28 -1 -38 3 -38 14 0 8 5 15 10 15 6 0 10 -4 10 -9z
m-515 -98 c9 -21 16 -23 97 -23 87 0 88 0 88 25 0 31 29 34 55 5 l18 -20 14
20 c21 29 53 26 53 -5 0 -24 3 -25 56 -25 48 0 59 4 76 25 11 14 28 25 39 25
14 0 19 -7 19 -25 l0 -25 1445 0 1445 0 0 -1470 0 -1470 -3585 0 -3585 0 0
110 0 110 -465 0 -465 0 0 1185 0 1185 465 0 465 0 0 175 0 175 1855 0 1855 0
0 26 c0 21 4 25 23 22 12 -2 26 -13 32 -25z"/>
<path d="M4870 4860 c-11 -7 -4 -10 25 -10 29 0 36 3 25 10 -8 5 -19 10 -25
10 -5 0 -17 -5 -25 -10z"/>
<path d="M5013 4793 c9 -2 25 -2 35 0 9 3 1 5 -18 5 -19 0 -27 -2 -17 -5z"/>
<path d="M4983 4878 c2 -7 10 -13 17 -13 7 0 15 6 18 13 2 7 -5 12 -18 12 -13
0 -20 -5 -17 -12z"/>
<path d="M5348 4863 c6 -2 18 -2 25 0 6 3 1 5 -13 5 -14 0 -19 -2 -12 -5z"/>
<path d="M5575 4850 c-3 -5 1 -10 10 -10 9 0 13 5 10 10 -3 6 -8 10 -10 10 -2
0 -7 -4 -10 -10z"/>
<path d="M5575 4810 c4 -6 11 -8 16 -5 14 9 11 15 -7 15 -8 0 -12 -5 -9 -10z"/>
<path d="M5410 4750 c0 -5 5 -10 10 -10 6 0 10 5 10 10 0 6 -4 10 -10 10 -5 0
-10 -4 -10 -10z"/>
<path d="M5516 4745 c-3 -9 0 -15 8 -15 7 0 13 7 13 15 0 8 -4 15 -8 15 -4 0
-9 -7 -13 -15z"/>
<path d="M1166 4561 c-3 -5 -6 -183 -5 -395 l0 -386 170 0 169 0 0 395 0 395
-164 0 c-91 0 -167 -4 -170 -9z"/>
<path d="M1527 4563 c-4 -3 -7 -181 -7 -395 l0 -388 250 0 250 0 0 395 0 395
-243 0 c-134 0 -247 -3 -250 -7z m175 -150 c2 -32 -3 -68 -13 -79 -7 -8 -6
-14 3 -17 7 -2 9 -8 5 -13 -4 -4 -16 -3 -27 4 -12 7 -21 8 -25 2 -8 -13 -35
-13 -35 0 0 6 8 10 17 10 15 0 14 2 -3 15 -18 13 -17 14 19 15 37 0 37 1 37
40 0 39 18 58 22 23z m94 2 c19 -14 19 -14 -1 -15 -15 -1 -16 -3 -5 -7 34 -13
39 -43 8 -44 -17 -1 -19 -2 -5 -6 9 -2 17 -13 17 -24 0 -16 -7 -19 -45 -19
-38 0 -45 3 -45 19 0 12 8 21 23 24 18 4 17 5 -7 6 -21 1 -27 5 -22 17 3 9 6
18 6 20 0 2 8 4 18 5 14 0 14 2 -3 9 -19 8 -19 8 5 18 33 14 33 14 56 -3z m88
-1 c15 -14 16 -14 16 0 0 9 5 16 10 16 6 0 10 -28 10 -64 0 -57 -2 -64 -22
-69 -31 -9 -60 10 -53 34 4 11 2 19 -5 19 -8 0 -10 10 -8 25 3 14 1 25 -6 25
-12 1 23 30 35 30 4 0 15 -7 23 -16z m-224 -24 c0 -27 -3 -30 -30 -30 -27 0
-30 3 -30 30 0 27 3 30 30 30 27 0 30 -3 30 -30z m-10 -224 c0 -36 -4 -68 -10
-71 -6 -4 -10 20 -10 64 0 41 4 71 10 71 6 0 10 -28 10 -64z m100 44 c0 -25
10 -25 36 -1 18 16 23 17 40 4 16 -11 17 -15 5 -23 -12 -7 -13 -13 -3 -35 16
-34 15 -40 -3 -25 -12 10 -18 10 -30 0 -23 -19 -30 -5 -11 22 19 26 20 38 5
38 -16 0 -39 -26 -39 -44 0 -9 -4 -16 -10 -16 -5 0 -10 23 -10 50 0 28 5 50
10 50 6 0 10 -9 10 -20z m120 -30 c0 -35 4 -50 13 -50 9 0 12 10 9 30 -4 28
-2 30 29 32 l34 1 -32 4 c-47 6 -41 23 7 23 36 0 40 -3 40 -24 0 -20 -6 -25
-32 -29 -31 -4 -31 -4 6 -5 33 -2 37 -4 26 -17 -10 -12 -9 -15 6 -15 13 0 15
-3 7 -11 -5 -5 -32 -9 -59 -7 -34 2 -53 -1 -61 -12 -10 -12 -12 -1 -13 58 0
41 4 72 10 72 6 0 10 -22 10 -50z m-300 25 c0 -8 5 -15 10 -15 6 0 10 7 10 15
0 8 5 15 10 15 6 0 10 -23 10 -51 0 -49 -1 -50 -27 -47 -26 3 -28 7 -31 51 -2
28 1 47 7 47 6 0 11 -7 11 -15z m148 -18 c2 -18 -2 -29 -12 -33 -28 -11 -18
-34 13 -34 17 0 33 -4 36 -10 4 -6 -11 -10 -38 -10 -44 0 -45 1 -51 38 -12 73
-9 84 22 80 21 -2 28 -9 30 -31z m42 -208 c0 -42 -3 -49 -20 -49 -11 0 -20 4
-20 9 0 15 -32 22 -46 10 -11 -9 -14 -8 -14 4 0 9 5 19 10 22 6 3 10 15 10 26
0 10 5 19 10 19 6 0 10 -4 10 -10 0 -5 5 -10 10 -10 6 0 10 6 10 13 0 7 9 13
20 14 18 2 20 -4 20 -48z m110 -13 c0 -36 -4 -68 -10 -71 -6 -4 -10 8 -10 29
0 35 -12 46 -42 38 -28 -7 -21 -22 10 -23 26 0 26 -1 5 -11 -37 -18 -53 -4
-53 47 0 43 1 45 30 45 17 0 30 -4 30 -10 0 -5 -9 -10 -20 -10 -11 0 -20 -4
-20 -10 0 -5 14 -10 30 -10 25 0 30 4 30 25 0 14 5 25 10 25 6 0 10 -28 10
-64z m-136 -46 c14 0 26 -4 26 -10 0 -5 -18 -10 -40 -10 -37 0 -40 2 -40 28 1
24 2 25 14 10 7 -10 25 -18 40 -18z"/>
<path d="M1758 4373 c7 -3 16 -2 19 1 4 3 -2 6 -13 5 -11 0 -14 -3 -6 -6z"/>
<path d="M1850 4369 c0 -5 5 -7 10 -4 6 3 10 8 10 11 0 2 -4 4 -10 4 -5 0 -10
-5 -10 -11z"/>
<path d="M1885 4350 c3 -5 8 -10 11 -10 2 0 4 5 4 10 0 6 -5 10 -11 10 -5 0
-7 -4 -4 -10z"/>
<path d="M1860 4320 c0 -5 9 -10 20 -10 11 0 20 5 20 10 0 6 -9 10 -20 10 -11
0 -20 -4 -20 -10z"/>
<path d="M1620 4390 c0 -5 5 -10 10 -10 6 0 10 5 10 10 0 6 -4 10 -10 10 -5 0
-10 -4 -10 -10z"/>
<path d="M1570 4155 c0 -8 5 -15 10 -15 6 0 10 7 10 15 0 8 -4 15 -10 15 -5 0
-10 -7 -10 -15z"/>
<path d="M1680 4185 c0 -8 5 -15 10 -15 6 0 10 7 10 15 0 8 -4 15 -10 15 -5 0
-10 -7 -10 -15z"/>
<path d="M1705 3970 c3 -5 8 -10 11 -10 2 0 4 5 4 10 0 6 -5 10 -11 10 -5 0
-7 -4 -4 -10z"/>
<path d="M5107 4522 l-58 -3 3 -97 3 -97 95 0 95 0 3 96 3 97 -43 3 c-24 2
-69 3 -101 1z m105 -64 c1 -29 1 -64 0 -77 -1 -14 4 -31 10 -38 8 -10 2 -13
-30 -13 -23 0 -44 5 -48 11 -4 8 -9 7 -14 -2 -7 -10 -11 -10 -24 0 -12 10 -15
32 -15 92 l1 79 59 0 59 0 2 -52z"/>
<path d="M5134 4438 c0 -18 -4 -42 -8 -53 -4 -11 1 -6 10 10 14 24 19 26 22
13 2 -11 12 -18 25 -17 17 1 18 2 5 6 -10 2 -20 18 -24 39 -8 43 -29 44 -30 2z"/>
<path d="M2040 4083 l0 -303 215 0 215 0 0 300 0 299 -215 3 -215 3 0 -302z
m140 82 c0 -37 -4 -65 -10 -65 -5 0 -10 6 -10 14 0 11 -10 13 -40 9 -26 -4
-40 -2 -40 6 0 6 7 11 15 11 17 0 20 17 4 22 -6 2 -9 17 -6 33 4 27 5 28 11 8
5 -11 19 -23 32 -26 19 -3 24 0 24 18 0 19 7 35 17 35 2 0 3 -29 3 -65z m75
36 c-3 -9 3 -5 14 9 l19 24 4 -67 3 -67 -43 0 c-42 0 -43 1 -38 30 2 17 0 30
-6 30 -6 0 -8 9 -5 20 3 11 0 20 -6 20 -7 0 -4 7 6 14 24 18 60 9 52 -13z
m141 -1 c1 -14 5 -33 9 -42 4 -11 3 -18 -4 -18 -6 0 -11 -9 -11 -20 0 -11 -4
-20 -10 -20 -5 0 -10 9 -10 20 0 11 -4 20 -10 20 -5 0 -10 -9 -10 -20 0 -11
-4 -20 -10 -20 -5 0 -10 9 -10 20 0 12 -7 20 -16 20 -11 0 -14 5 -10 16 3 9 6
22 6 30 0 9 13 15 38 16 l37 1 -38 4 c-48 5 -38 25 11 21 32 -3 37 -7 38 -28z
m-216 -235 l0 -65 -39 0 c-36 0 -39 2 -44 33 -3 21 0 35 9 40 19 11 18 27 -1
27 -8 0 -15 5 -15 10 0 15 57 12 63 -2 3 -8 6 -6 6 5 1 9 6 17 11 17 6 0 10
-28 10 -65z m110 41 c0 -35 18 -42 32 -12 15 34 20 33 38 -6 l15 -33 3 30 c7
58 20 47 24 -19 l3 -66 -42 0 c-41 0 -43 1 -43 30 0 20 -5 30 -15 30 -10 0
-15 -11 -15 -35 0 -19 -4 -35 -10 -35 -5 0 -10 10 -10 22 0 12 -3 18 -7 15 -3
-4 -14 0 -23 8 -16 14 -18 14 -24 0 -3 -9 -10 -13 -16 -10 -7 4 -5 14 5 28 8
12 15 32 15 44 0 13 5 23 10 23 6 0 10 -13 10 -29 0 -16 7 -34 15 -41 13 -11
15 -6 15 34 0 25 5 46 10 46 6 0 10 -11 10 -24z"/>
<path d="M2130 4150 c0 -5 4 -10 9 -10 6 0 13 5 16 10 3 6 -1 10 -9 10 -9 0
-16 -4 -16 -10z"/>
<path d="M2240 4160 c-12 -8 -10 -10 8 -10 13 0 20 4 17 10 -7 12 -6 12 -25 0z"/>
<path d="M2120 3965 c-11 -13 -8 -15 14 -15 16 0 26 5 26 15 0 8 -6 15 -14 15
-7 0 -19 -7 -26 -15z"/>
<path d="M2128 3923 c6 -2 18 -2 25 0 6 3 1 5 -13 5 -14 0 -19 -2 -12 -5z"/>
<path d="M2490 4083 l0 -303 240 0 240 0 0 303 0 302 -240 0 -240 0 0 -302z
m120 97 c0 -27 -4 -50 -10 -50 -5 0 -10 23 -10 50 0 28 5 50 10 50 6 0 10 -22
10 -50z m110 -14 c0 -36 -4 -68 -10 -71 -6 -4 -10 20 -10 64 0 41 4 71 10 71
6 0 10 -28 10 -64z m110 34 l0 -30 63 0 c50 -1 59 -3 47 -13 -8 -7 -15 -21
-15 -32 0 -16 -7 -20 -35 -20 -30 0 -35 3 -34 22 0 12 -5 24 -13 27 -9 4 -13
-4 -13 -24 0 -17 -4 -30 -10 -30 -6 0 -10 28 -10 65 0 37 4 65 10 65 6 0 10
-13 10 -30z m40 15 c0 -10 10 -15 30 -15 17 0 30 -4 30 -10 0 -5 -18 -10 -40
-10 -36 0 -40 3 -40 25 0 14 5 25 10 25 6 0 10 -7 10 -15z m-296 -18 c9 -15 7
-22 -11 -34 -35 -23 -29 -43 12 -43 19 0 35 -4 35 -10 0 -5 -21 -10 -46 -10
-44 0 -45 1 -43 28 1 15 -2 35 -6 45 -18 43 34 65 59 24z m116 13 c0 -5 -7
-10 -15 -10 -8 0 -15 -6 -15 -14 0 -8 7 -21 15 -30 8 -8 15 -20 15 -27 0 -9
-5 -8 -17 4 -16 15 -18 15 -35 0 -16 -15 -18 -15 -18 0 0 9 5 19 10 22 6 3 10
15 10 26 0 10 -4 19 -10 19 -5 0 -10 5 -10 10 0 6 16 10 35 10 19 0 35 -4 35
-10z m100 -14 c0 -28 -44 -85 -56 -73 -4 4 2 17 14 30 28 29 28 47 1 47 -11 0
-17 5 -14 10 3 6 17 10 31 10 19 0 24 -5 24 -24z m-130 -231 l0 -65 -39 0
c-36 0 -39 2 -44 33 -3 21 0 35 9 40 19 11 18 27 -1 27 -8 0 -15 5 -15 10 0
15 57 12 63 -2 3 -8 6 -6 6 5 1 9 6 17 11 17 6 0 10 -28 10 -65z m110 41 c0
-35 18 -42 32 -12 15 34 20 33 38 -6 l15 -33 3 30 c7 58 20 47 24 -19 l3 -66
-42 0 c-41 0 -43 1 -43 30 0 20 -5 30 -15 30 -10 0 -15 -11 -15 -35 0 -19 -4
-35 -10 -35 -5 0 -10 10 -10 22 0 12 -3 18 -7 15 -3 -4 -14 0 -23 8 -16 14
-18 14 -24 0 -3 -9 -10 -13 -16 -10 -7 4 -5 14 5 28 8 12 15 32 15 44 0 13 5
23 10 23 6 0 10 -13 10 -29 0 -16 7 -34 15 -41 13 -11 15 -6 15 34 0 25 5 46
10 46 6 0 10 -11 10 -24z"/>
<path d="M2878 4123 c6 -2 18 -2 25 0 6 3 1 5 -13 5 -14 0 -19 -2 -12 -5z"/>
<path d="M2530 4184 c0 -9 5 -14 12 -12 18 6 21 28 4 28 -9 0 -16 -7 -16 -16z"/>
<path d="M2600 3965 c-11 -13 -8 -15 14 -15 16 0 26 5 26 15 0 8 -6 15 -14 15
-7 0 -19 -7 -26 -15z"/>
<path d="M2608 3923 c6 -2 18 -2 25 0 6 3 1 5 -13 5 -14 0 -19 -2 -12 -5z"/>
<path d="M2990 4080 l0 -300 865 0 865 0 0 300 0 300 -865 0 -865 0 0 -300z
m650 5 l0 -95 -55 0 -55 0 0 40 0 40 45 0 45 0 0 55 c0 30 5 55 10 55 6 0 10
-38 10 -95z m160 70 c0 -16 6 -25 15 -25 8 0 15 -4 15 -10 0 -5 -6 -10 -14
-10 -18 0 -25 -48 -11 -73 21 -38 -59 -64 -101 -33 -28 22 -7 50 40 54 l36 3
0 60 c0 33 4 59 10 59 6 0 10 -11 10 -25z m190 -70 c0 -57 -4 -95 -10 -95 -5
0 -10 20 -10 45 0 25 -4 45 -10 45 -5 0 -10 -18 -10 -40 0 -22 -4 -40 -10 -40
-5 0 -10 10 -10 23 0 20 -4 22 -40 19 l-40 -4 0 56 c0 31 5 56 10 56 6 0 10
-20 10 -45 0 -43 1 -45 30 -45 30 0 30 1 30 55 0 30 5 55 10 55 6 0 10 -16 10
-35 0 -19 5 -35 10 -35 6 0 10 18 10 40 0 22 5 40 10 40 6 0 10 -38 10 -95z
m160 55 c0 -29 4 -40 15 -40 8 0 15 -4 15 -10 0 -5 -7 -10 -15 -10 -11 0 -15
-12 -15 -45 0 -25 -4 -45 -10 -45 -6 0 -10 38 -10 95 0 57 4 95 10 95 6 0 10
-18 10 -40z m-590 16 c0 -7 10 -25 21 -40 25 -32 18 -47 -11 -21 -18 16 -20
16 -35 1 -16 -16 -35 -21 -35 -10 0 3 9 17 20 31 11 14 20 32 20 39 0 8 5 14
10 14 6 0 10 -6 10 -14z m210 -1 c0 -3 -9 -9 -21 -13 l-20 -8 21 -26 c22 -29
11 -48 -13 -23 -13 13 -16 13 -27 0 -14 -17 -40 -20 -40 -5 0 6 4 10 8 10 5 0
14 11 20 25 10 22 9 25 -8 25 -11 0 -20 5 -20 10 0 6 23 10 50 10 28 0 50 -2
50 -5z m340 -40 c0 -25 -4 -45 -10 -45 -5 0 -10 16 -10 35 0 33 -2 35 -35 35
-19 0 -35 5 -35 10 0 6 20 10 45 10 l45 0 0 -45z m-40 -30 c0 -20 5 -25 26
-25 16 0 24 -5 22 -12 -6 -16 -108 -24 -108 -9 0 6 9 11 20 11 16 0 20 7 20
30 0 17 5 30 10 30 6 0 10 -11 10 -25z"/>
<path d="M3550 4030 c0 -16 7 -20 35 -20 28 0 35 4 35 20 0 16 -7 20 -35 20
-28 0 -35 -4 -35 -20z"/>
<path d="M3715 4031 c-7 -13 30 -24 55 -16 28 9 15 25 -20 25 -16 0 -31 -4
-35 -9z"/>
<path d="M5570 4170 c0 -195 1 -210 18 -210 13 0 18 8 17 28 0 21 4 26 20 24
11 -2 27 -11 35 -21 15 -17 16 -17 30 0 8 10 24 19 35 21 15 2 21 -3 23 -24
l3 -28 325 0 324 0 0 210 0 210 -415 0 -415 0 0 -210z m260 85 c0 -84 0 -85
-25 -85 -25 0 -25 1 -25 85 0 84 0 85 25 85 25 0 25 -1 25 -85z m62 43 l1 -43
4 43 c4 37 7 42 29 42 21 0 24 -5 26 -42 l1 -43 4 43 c4 37 7 42 29 42 21 0
24 -5 26 -42 l1 -43 4 43 c4 37 7 42 29 42 21 0 24 -4 24 -39 0 -22 -4 -43
-10 -46 -5 -3 -10 -24 -10 -46 0 -24 -5 -39 -12 -40 -10 0 -10 -2 0 -6 6 -2
12 -19 12 -37 0 -18 5 -37 11 -43 6 -6 9 -28 7 -49 -2 -31 -7 -39 -23 -39 -16
0 -21 8 -24 45 l-5 45 -5 -45 c-5 -36 -10 -45 -26 -45 -16 0 -21 8 -24 45 l-5
45 -5 -45 c-5 -36 -10 -45 -26 -45 -16 0 -21 9 -26 45 l-5 45 -5 -45 c-3 -37
-8 -45 -24 -45 -19 0 -20 7 -22 173 l-3 172 25 0 c22 0 25 -4 27 -42z m238 2
c0 -36 -2 -40 -25 -40 -22 0 -25 4 -25 40 0 36 3 40 25 40 23 0 25 -4 25 -40z
m60 0 c0 -36 -2 -40 -25 -40 -22 0 -25 4 -25 40 0 36 3 40 25 40 23 0 25 -4
25 -40z m60 -39 c0 -44 -4 -83 -10 -86 -6 -4 -10 10 -10 35 0 27 -5 43 -15 46
-10 4 -15 20 -15 45 0 35 3 39 25 39 25 0 25 -1 25 -79z m58 -3 c-3 -77 -5
-83 -25 -86 -22 -3 -23 -1 -23 82 0 85 0 86 25 86 26 0 26 0 23 -82z m-158
-88 c-44 -44 -70 -61 -70 -45 0 14 87 94 102 94 12 1 2 -15 -32 -49z m-322
-92 c-3 -75 -5 -83 -23 -83 -18 0 -20 8 -23 83 l-3 82 26 0 26 0 -3 -82z m420
0 c-3 -75 -5 -83 -23 -83 -16 0 -21 8 -23 39 -2 28 1 42 12 48 10 6 16 23 16
43 0 19 5 35 10 35 7 0 10 -30 8 -82z m60 0 c-3 -77 -5 -83 -25 -86 -22 -3
-23 -1 -23 82 0 85 0 86 25 86 26 0 26 0 23 -82z m-180 -40 c-2 -35 -7 -43
-23 -43 -16 0 -21 8 -23 43 -3 39 -2 42 23 42 25 0 26 -3 23 -42z m60 0 c-2
-35 -7 -43 -23 -43 -16 0 -21 8 -23 43 -3 39 -2 42 23 42 25 0 26 -3 23 -42z"/>
<path d="M5865 4238 c-2 -7 -3 -42 -2 -78 2 -64 3 -65 31 -68 27 -3 28 -2 13
12 -11 12 -16 34 -16 76 l1 60 49 0 49 0 2 -42 c4 -99 6 -93 -32 -99 -33 -6
-32 -6 13 -8 l47 -1 0 80 0 80 -75 0 c-52 0 -77 -4 -80 -12z"/>
<path d="M5930 4203 c0 -5 5 -15 10 -23 8 -12 10 -11 10 8 0 12 -4 22 -10 22
-5 0 -10 -3 -10 -7z"/>
<path d="M6497 4263 c-4 -3 -7 -48 -7 -99 0 -107 -3 -104 105 -104 97 0 105 8
105 109 0 46 -5 82 -12 89 -13 13 -179 17 -191 5z m91 -35 c10 -10 15 -10 21
0 7 11 10 10 15 -3 3 -9 4 -21 1 -25 -3 -5 -1 -11 5 -15 5 -3 10 -24 10 -45 0
-34 -4 -41 -24 -46 -53 -13 -61 -4 -62 66 0 84 6 96 34 68z"/>
<path d="M6580 4200 c0 -5 5 -10 10 -10 6 0 10 5 10 10 0 6 -4 10 -10 10 -5 0
-10 -4 -10 -10z"/>
<path d="M6560 4162 c0 -10 46 -9 56 1 4 4 -7 7 -24 7 -18 0 -32 -4 -32 -8z"/>
<path d="M6747 4264 c-4 -4 -7 -49 -7 -100 0 -75 3 -93 16 -98 23 -9 157 -7
172 2 9 6 12 34 10 103 l-3 94 -90 3 c-50 1 -94 0 -98 -4z m86 -36 c3 -10 7
-10 19 0 13 10 17 10 22 -3 3 -8 3 -21 0 -29 -3 -8 -1 -17 5 -21 15 -9 14 -58
-1 -73 -7 -7 -24 -12 -38 -12 -14 0 -31 5 -38 12 -15 15 -16 65 -1 74 6 3 8
16 5 29 -8 31 17 52 27 23z"/>
<path d="M6820 4200 c0 -5 7 -10 16 -10 8 0 12 5 9 10 -3 6 -10 10 -16 10 -5
0 -9 -4 -9 -10z"/>
<path d="M6815 4160 c3 -5 17 -10 31 -10 13 0 24 5 24 10 0 6 -14 10 -31 10
-17 0 -28 -4 -24 -10z"/>
<path d="M6828 4113 c7 -3 16 -2 19 1 4 3 -2 6 -13 5 -11 0 -14 -3 -6 -6z"/>
<path d="M230 3810 l0 -410 195 0 195 0 0 25 c0 21 -5 25 -30 25 -35 0 -40 20
-12 48 18 18 18 19 0 42 -27 33 -23 50 12 50 l30 0 0 315 0 315 -195 0 -195 0
0 -410z m338 260 c0 -48 -1 -50 -29 -50 -27 0 -30 4 -29 38 1 10 -77 18 -133
14 -42 -4 -47 -7 -47 -28 0 -20 -5 -24 -30 -24 -29 0 -30 1 -30 50 l0 49 149
0 150 0 -1 -49z m-116 -77 c-51 -47 -72 -63 -82 -63 -19 0 75 89 94 89 15 1
12 -4 -12 -26z m-122 -3 c0 -16 -7 -20 -30 -20 -23 0 -30 4 -30 20 0 16 7 20
30 20 23 0 30 -4 30 -20z m240 0 c0 -16 -7 -20 -30 -20 -23 0 -30 4 -30 20 0
16 7 20 30 20 23 0 30 -4 30 -20z m-240 -55 c0 -21 -5 -25 -30 -25 -25 0 -30
4 -30 25 0 21 5 25 30 25 25 0 30 -4 30 -25z m240 0 c0 -21 -5 -25 -30 -25
-25 0 -30 4 -30 25 0 21 5 25 30 25 25 0 30 -4 30 -25z m-150 -48 c8 0 45 3
83 8 64 7 67 6 67 -14 0 -17 -7 -21 -32 -23 l-33 -1 33 -4 c26 -4 32 -9 32
-29 0 -20 -5 -24 -32 -26 l-33 -1 33 -4 c24 -3 32 -9 32 -24 0 -14 -8 -19 -32
-21 l-33 -1 33 -4 c31 -4 32 -5 32 -53 l0 -49 -150 0 -150 0 0 49 c0 49 0 50
33 52 l32 1 -32 4 c-25 3 -33 9 -33 24 0 14 7 19 28 20 l27 2 -27 4 c-22 3
-28 10 -28 29 0 20 5 24 33 26 l32 1 -32 4 c-25 3 -33 9 -33 25 0 19 4 20 68
13 37 -5 74 -8 82 -8z"/>
<path d="M342 3783 c3 -74 4 -78 28 -81 21 -3 22 -2 11 12 -8 10 -12 37 -9 81
3 57 1 65 -15 65 -16 0 -18 -9 -15 -77z"/>
<path d="M471 3808 c3 -29 5 -56 2 -61 -2 -4 -1 -16 2 -27 13 -40 25 -7 25 66
0 65 -2 74 -18 74 -16 0 -18 -6 -11 -52z"/>
<path d="M407 3800 c3 -11 9 -20 14 -20 4 0 7 9 6 20 -1 11 -7 20 -13 20 -7 0
-10 -8 -7 -20z"/>
<path d="M396 3753 c-6 -14 -5 -15 5 -6 7 7 10 15 7 18 -3 3 -9 -2 -12 -12z"/>
<path d="M692 4098 c-14 -14 -17 -165 -4 -186 6 -9 34 -12 103 -10 l94 3 3 88
c2 57 -1 94 -9 103 -15 18 -169 20 -187 2z m82 -54 c-5 -18 -2 -24 10 -24 8 0
13 6 11 13 -3 6 0 19 5 27 16 24 26 -2 26 -67 l-1 -58 -40 0 c-39 0 -40 1 -43
39 -2 24 2 42 9 47 10 6 10 11 1 21 -9 11 -9 17 0 26 17 17 29 4 22 -24z"/>
<path d="M760 4000 c0 -5 14 -10 31 -10 17 0 28 4 24 10 -3 6 -17 10 -31 10
-13 0 -24 -4 -24 -10z"/>
<path d="M1167 3433 c-4 -3 -7 -145 -7 -315 l0 -308 250 0 250 0 0 315 0 315
-243 0 c-134 0 -247 -3 -250 -7z"/>
<path d="M2040 3125 l0 -315 210 0 210 0 0 315 0 315 -210 0 -210 0 0 -315z"/>
<path d="M2490 3125 l0 -315 210 0 210 0 0 315 0 315 -210 0 -210 0 0 -315z"/>
<path d="M2940 3125 l0 -315 660 0 660 0 0 315 0 315 -265 0 -265 0 0 -30 c0
-36 -20 -40 -50 -10 l-20 20 -20 -20 c-30 -30 -50 -26 -50 10 l0 30 -325 0
-325 0 0 -315z m360 50 c0 -24 5 -35 15 -35 8 0 15 -4 15 -10 0 -5 -7 -10 -15
-10 -11 0 -15 -12 -15 -50 0 -27 -4 -50 -10 -50 -6 0 -10 38 -10 95 0 57 4 95
10 95 6 0 10 -16 10 -35z m180 -25 c0 -33 -4 -60 -10 -60 -5 0 -10 11 -10 25
0 18 -5 25 -20 25 -11 0 -20 5 -20 10 0 6 9 10 20 10 15 0 20 7 20 25 0 14 5
25 10 25 6 0 10 -27 10 -60z m170 -35 c0 -57 -4 -95 -10 -95 -6 0 -10 38 -10
95 0 57 4 95 10 95 6 0 10 -38 10 -95z m90 85 c0 -5 9 -10 20 -10 11 0 20 -4
20 -10 0 -5 -7 -10 -15 -10 -12 0 -13 -4 -4 -19 18 -28 4 -51 -31 -51 -35 0
-49 23 -31 51 9 15 8 19 -4 19 -8 0 -15 5 -15 10 0 6 9 10 20 10 11 0 20 5 20
10 0 6 5 10 10 10 6 0 10 -4 10 -10z m70 -15 c0 -16 6 -25 15 -25 8 0 15 -4
15 -10 0 -5 -7 -10 -15 -10 -12 0 -15 -13 -15 -60 0 -33 -4 -60 -10 -60 -5 0
-10 11 -10 25 0 23 -4 25 -45 25 -25 0 -45 5 -45 10 0 6 20 10 45 10 l45 0 0
60 c0 33 4 60 10 60 6 0 10 -11 10 -25z m180 -15 c0 -29 4 -40 15 -40 8 0 15
-4 15 -10 0 -5 -7 -10 -15 -10 -11 0 -15 -12 -15 -45 0 -25 -4 -45 -10 -45 -6
0 -10 38 -10 95 0 57 4 95 10 95 6 0 10 -18 10 -40z m-730 10 c0 -23 -29 -76
-54 -99 -38 -36 -44 -18 -7 24 40 46 40 65 1 65 -16 0 -30 5 -30 10 0 6 20 10
45 10 25 0 45 -5 45 -10z m170 1 c0 -5 -7 -11 -16 -13 -14 -3 -13 -7 5 -30 15
-19 18 -29 10 -34 -7 -4 -18 0 -24 10 -11 14 -14 15 -25 1 -12 -15 -40 -21
-40 -9 0 3 9 18 21 32 l21 27 -21 3 c-39 6 -21 22 24 22 25 0 45 -4 45 -9z
m168 -3 c7 -7 12 -21 12 -33 0 -12 -5 -26 -12 -33 -7 -7 -21 -12 -33 -12 -12
0 -26 5 -33 12 -7 7 -12 21 -12 33 0 12 5 26 12 33 7 7 21 12 33 12 12 0 26
-5 33 -12z m352 -33 c0 -35 -4 -45 -16 -45 -13 0 -15 7 -10 35 l7 35 -41 0
c-25 0 -39 4 -35 10 3 6 26 10 51 10 l44 0 0 -45z m-50 -33 c0 -26 3 -28 31
-24 24 3 30 1 27 -9 -6 -17 -108 -26 -108 -10 0 6 7 11 15 11 10 0 15 10 15
30 0 17 5 30 10 30 6 0 10 -13 10 -28z m-430 -37 c28 -34 -26 -67 -79 -49 -29
10 -40 42 -19 55 21 14 85 10 98 -6z m148 3 c-5 -16 -108 -24 -108 -9 0 9 29
15 88 19 15 1 22 -3 20 -10z"/>
<path d="M3717 3144 c-13 -13 -7 -24 14 -24 11 0 19 5 17 12 -5 14 -22 21 -31
12z"/>
<path d="M3543 3154 c-3 -8 -1 -20 6 -27 14 -14 47 15 37 32 -10 16 -36 13
-43 -5z"/>
<path d="M3385 3061 c-7 -13 30 -24 55 -16 28 9 15 25 -20 25 -16 0 -31 -4
-35 -9z"/>
<path d="M5990 3125 l0 -315 190 0 190 0 0 190 0 190 -75 0 -75 0 0 125 0 125
-115 0 -115 0 0 -315z m210 -39 c0 -8 5 -16 10 -18 7 -2 8 -24 4 -61 -5 -45
-10 -57 -24 -57 -14 0 -19 12 -24 57 -4 37 -3 59 4 61 5 2 10 10 10 18 0 8 5
14 10 14 6 0 10 -6 10 -14z"/>
<path d="M6470 3315 l0 -125 -35 0 -35 0 0 -190 0 -190 150 0 150 0 0 315 0
315 -115 0 -115 0 0 -125z m86 -230 c-3 -8 -2 -15 3 -15 15 0 19 -37 7 -74 -6
-20 -16 -36 -23 -36 -18 0 -27 76 -11 110 13 30 35 44 24 15z"/>
<path d="M7430 3115 l0 -325 -225 0 -225 0 0 -60 0 -60 30 0 c35 0 38 -15 9
-46 l-21 -22 22 -22 c26 -26 22 -44 -13 -48 l-27 -3 0 -430 0 -429 655 0 655
0 0 885 0 885 -430 0 -430 0 0 -325z m60 -470 c0 -11 11 -15 36 -15 21 0 33
-4 29 -10 -3 -5 -16 -10 -28 -10 -20 -1 -20 -2 -4 -11 25 -15 21 -48 -8 -61
-35 -16 -31 -28 10 -28 19 0 35 -4 35 -10 0 -6 -33 -10 -80 -10 -47 0 -80 4
-80 10 0 6 16 10 35 10 41 0 45 12 10 28 -29 13 -33 46 -7 61 15 9 15 10 -5
11 -12 0 -25 5 -28 10 -4 6 8 10 29 10 25 0 36 4 36 15 0 8 5 15 10 15 6 0 10
-7 10 -15z m170 5 c0 -5 14 -10 30 -10 17 0 30 -4 30 -10 0 -5 -4 -10 -8 -10
-5 0 -8 -10 -8 -22 1 -21 -4 -23 -49 -23 -43 0 -50 3 -50 20 0 11 -7 25 -15
32 -13 10 -10 12 18 13 17 0 32 5 32 10 0 6 5 10 10 10 6 0 10 -4 10 -10z
m230 -85 c0 -57 -4 -95 -10 -95 -6 0 -10 38 -10 95 0 57 4 95 10 95 6 0 10
-38 10 -95z m-53 38 c-6 -37 -50 -93 -74 -93 -20 0 -16 9 17 40 17 15 30 37
30 49 0 17 -6 21 -30 21 -16 0 -30 5 -30 10 0 6 21 10 46 10 l47 0 -6 -37z
m-107 -53 c0 -5 -4 -10 -10 -10 -5 0 -10 -16 -10 -35 l0 -35 -55 0 -55 0 0 35
c0 19 -4 35 -10 35 -5 0 -10 5 -10 10 0 6 32 10 75 10 43 0 75 -4 75 -10z
m-280 -170 c0 -11 7 -20 15 -20 8 0 15 -4 15 -10 0 -5 -7 -10 -15 -10 -11 0
-15 -12 -15 -45 l0 -45 -45 0 c-25 0 -45 -4 -45 -10 0 -5 23 -10 50 -10 28 0
50 -4 50 -10 0 -6 -27 -10 -60 -10 l-60 0 0 30 c0 29 2 30 48 32 l47 2 -47 3
c-61 5 -63 23 -3 23 l45 0 0 50 c0 28 5 50 10 50 6 0 10 -9 10 -20z m190 -75
c0 -57 -4 -95 -10 -95 -6 0 -10 38 -10 95 0 57 4 95 10 95 6 0 10 -38 10 -95z
m340 0 c0 -57 -4 -95 -10 -95 -6 0 -10 38 -10 95 0 57 4 95 10 95 6 0 10 -38
10 -95z m-576 63 c14 -23 -3 -52 -33 -56 -42 -6 -67 38 -39 66 17 17 58 11 72
-10z m196 -63 c0 -50 -4 -85 -10 -85 -5 0 -10 20 -10 45 0 45 0 45 -35 45 -24
0 -35 -5 -35 -15 0 -10 10 -15 30 -15 17 0 30 -4 30 -10 0 -5 -18 -10 -40 -10
-39 0 -40 1 -40 35 0 31 3 35 25 35 16 0 25 6 25 15 0 9 -9 15 -25 15 -14 0
-25 5 -25 10 0 6 16 10 35 10 31 0 35 -3 35 -25 0 -14 5 -25 10 -25 6 0 10 14
10 30 0 17 5 30 10 30 6 0 10 -35 10 -85z m200 45 c0 -29 -1 -30 -50 -30 -27
0 -50 -4 -50 -10 0 -5 25 -10 55 -10 30 0 55 -4 55 -10 0 -6 -28 -10 -65 -10
l-65 0 0 30 c0 29 1 30 50 30 28 0 50 5 50 10 0 6 -22 10 -50 10 -27 0 -50 5
-50 10 0 6 27 10 60 10 l60 0 0 -30z m127 -7 c-6 -37 -50 -93 -74 -93 -20 0
-16 9 17 40 17 15 30 37 30 49 0 17 -6 21 -30 21 -16 0 -30 5 -30 10 0 6 21
10 46 10 l47 0 -6 -37z m-107 -103 c0 -6 -33 -10 -80 -10 -47 0 -80 4 -80 10
0 6 33 10 80 10 47 0 80 -4 80 -10z m-370 -190 l0 -90 -60 0 -60 0 0 35 0 35
50 0 c43 0 50 3 50 19 0 29 -40 31 -73 4 -30 -24 -57 -30 -57 -13 0 6 11 15
24 20 14 5 30 18 36 30 10 18 8 20 -20 20 -16 0 -30 5 -30 10 0 6 20 10 44 10
39 0 44 -2 39 -20 -4 -15 0 -20 16 -20 16 0 21 6 21 25 0 14 5 25 10 25 6 0
10 -37 10 -90z m170 55 c0 -24 5 -35 15 -35 8 0 15 -4 15 -10 0 -5 -7 -10 -15
-10 -11 0 -15 -12 -15 -45 0 -25 -4 -45 -10 -45 -6 0 -10 37 -10 90 0 53 4 90
10 90 6 0 10 -16 10 -35z m200 -35 c0 -40 -4 -70 -10 -70 -6 0 -10 30 -10 70
0 40 4 70 10 70 6 0 10 -30 10 -70z m178 -23 c2 -73 0 -87 -13 -87 -11 0 -15
11 -15 45 l0 45 -50 0 c-38 0 -50 -4 -50 -15 0 -11 11 -15 40 -15 22 0 40 -4
40 -10 0 -5 -22 -10 -50 -10 l-50 0 0 60 0 60 45 0 c25 0 45 -4 45 -10 0 -5
-16 -10 -35 -10 -24 0 -35 -5 -35 -15 0 -11 12 -15 50 -15 l50 0 0 36 c0 24 4
34 13 32 8 -3 13 -33 15 -91z m-448 56 c0 -16 9 -42 20 -60 22 -37 12 -53 -15
-23 -17 19 -18 19 -35 -2 -10 -13 -22 -18 -29 -14 -9 6 -7 14 7 30 11 11 23
38 27 59 8 43 25 50 25 10z m230 -38 c0 -37 -4 -65 -10 -65 -5 0 -10 16 -10
35 0 26 -4 35 -16 35 -14 0 -14 -3 -4 -15 15 -18 5 -34 -12 -17 -8 8 -17 7
-34 -5 -19 -12 -24 -13 -24 -2 0 8 7 23 15 33 8 11 15 28 15 38 0 10 5 18 10
18 6 0 10 -7 10 -15 0 -8 9 -15 20 -15 13 0 20 7 20 20 0 11 5 20 10 20 6 0
10 -28 10 -65z m-60 -65 c0 -18 7 -20 55 -20 30 0 55 -4 55 -10 0 -6 -30 -10
-70 -10 -67 0 -70 1 -70 23 0 13 3 27 7 30 12 13 23 7 23 -13z"/>
<path d="M7450 2580 c-13 -9 -13 -11 0 -20 8 -5 22 -10 30 -10 8 0 22 5 30 10
13 9 13 11 0 20 -8 5 -22 10 -30 10 -8 0 -22 -5 -30 -10z"/>
<path d="M7638 2593 c12 -2 30 -2 40 0 9 3 -1 5 -23 4 -22 0 -30 -2 -17 -4z"/>
<path d="M7620 2530 c0 -5 16 -10 35 -10 19 0 35 5 35 10 0 6 -16 10 -35 10
-19 0 -35 -4 -35 -10z"/>
<path d="M7638 2493 c12 -2 30 -2 40 0 9 3 -1 5 -23 4 -22 0 -30 -2 -17 -4z"/>
<path d="M7345 2360 c-4 -7 -3 -16 3 -22 14 -14 45 -2 40 15 -6 16 -34 21 -43
7z"/>
<path d="M7350 1995 c0 -11 11 -15 40 -15 29 0 40 4 40 15 0 11 -11 15 -40 15
-29 0 -40 -4 -40 -15z"/>
<path d="M4507 3424 c-4 -4 -7 -18 -7 -30 0 -22 4 -23 78 -26 l77 -3 3 -237 2
-238 -80 0 -80 0 0 -30 0 -30 110 0 110 0 -2 298 -3 297 -101 3 c-55 1 -103 0
-107 -4z"/>
<path d="M6812 3372 c-9 -6 -12 -34 -10 -103 l3 -94 95 0 95 0 3 94 c2 69 -1
97 -10 103 -7 4 -47 8 -88 8 -41 0 -81 -4 -88 -8z m86 -44 c10 -10 15 -10 22
2 9 13 10 13 11 0 3 -24 6 -34 13 -52 4 -9 6 -29 4 -45 -3 -25 -8 -28 -42 -31
-24 -2 -42 2 -47 10 -12 18 -11 66 1 73 6 4 10 14 9 23 -3 35 7 42 29 20z"/>
<path d="M6886 3305 c-4 -10 1 -15 16 -15 17 0 18 2 8 15 -7 8 -14 15 -15 15
-2 0 -5 -7 -9 -15z"/>
<path d="M6870 3270 c0 -5 14 -10 30 -10 17 0 30 5 30 10 0 6 -13 10 -30 10
-16 0 -30 -4 -30 -10z"/>
<path d="M1160 2065 l0 -395 230 0 230 0 0 395 0 395 -230 0 -230 0 0 -395z"/>
<path d="M1640 2065 l0 -395 410 0 410 0 0 395 0 395 -115 0 -115 0 0 -35 0
-36 -97 3 -98 3 -3 33 c-3 29 -6 32 -38 32 -31 0 -34 -2 -34 -30 0 -36 -13
-38 -45 -6 -23 23 -25 24 -35 7 -5 -10 -19 -21 -30 -24 -17 -4 -20 0 -20 24
l0 29 -95 0 -95 0 0 -395z m150 95 c0 -5 16 -10 35 -10 19 0 35 -4 35 -10 0
-5 -6 -10 -13 -10 -8 0 -13 -10 -13 -22 1 -21 -4 -23 -49 -23 -45 0 -50 2 -49
23 0 12 -5 22 -13 22 -7 0 -13 5 -13 10 0 6 14 10 30 10 17 0 30 5 30 10 0 6
5 10 10 10 6 0 10 -4 10 -10z m410 -85 c0 -57 -4 -95 -10 -95 -6 0 -10 38 -10
95 0 57 4 95 10 95 6 0 10 -38 10 -95z m160 55 c0 -29 4 -40 15 -40 8 0 15 -4
15 -10 0 -5 -7 -10 -15 -10 -11 0 -15 -12 -15 -45 0 -25 -4 -45 -10 -45 -6 0
-10 38 -10 95 0 57 4 95 10 95 6 0 10 -18 10 -40z m-440 20 c0 -5 18 -10 40
-10 22 0 40 5 40 10 0 6 5 10 10 10 6 0 10 -18 10 -40 l0 -40 -60 0 -60 0 0
40 c0 22 5 40 10 40 6 0 10 -4 10 -10z m221 0 c25 -14 25 -56 -1 -72 -27 -17
-25 -28 6 -28 16 0 24 -5 22 -12 -6 -16 -118 -24 -118 -8 0 5 11 10 25 10 30
0 33 20 5 38 -22 14 -27 51 -8 70 15 15 43 15 69 2z m179 -45 c0 -25 -4 -45
-10 -45 -5 0 -10 16 -10 35 0 33 -2 35 -35 35 -19 0 -35 5 -35 10 0 6 20 10
45 10 l45 0 0 -45z m-40 -30 c0 -20 5 -25 26 -25 16 0 24 -5 22 -12 -6 -16
-108 -24 -108 -9 0 6 9 11 20 11 16 0 20 7 20 30 0 17 5 30 10 30 6 0 10 -11
10 -25z m-420 -15 c0 -5 -7 -10 -16 -10 -13 0 -14 -3 -5 -14 10 -12 8 -19 -8
-35 -38 -38 -108 -19 -97 25 5 17 2 24 -9 24 -8 0 -15 5 -15 10 0 6 32 10 75
10 43 0 75 -4 75 -10z m180 -10 c0 -5 -16 -10 -35 -10 -32 0 -35 -2 -35 -30 0
-16 -4 -30 -10 -30 -5 0 -10 14 -10 30 0 28 -3 30 -35 30 -19 0 -35 5 -35 10
0 6 33 10 80 10 47 0 80 -4 80 -10z"/>
<path d="M1768 2103 c12 -2 30 -2 40 0 9 3 -1 5 -23 4 -22 0 -30 -2 -17 -4z"/>
<path d="M1920 2110 c0 -5 18 -10 40 -10 22 0 40 5 40 10 0 6 -18 10 -40 10
-22 0 -40 -4 -40 -10z"/>
<path d="M2090 2125 c-15 -18 -5 -35 20 -35 10 0 22 5 25 10 7 11 -12 40 -25
40 -4 0 -13 -7 -20 -15z"/>
<path d="M1773 2043 c9 -2 23 -2 30 0 6 3 -1 5 -18 5 -16 0 -22 -2 -12 -5z"/>
<path d="M1764 2009 c12 -8 25 -8 40 -1 18 9 16 11 -19 11 -33 0 -37 -1 -21
-10z"/>
<path d="M2060 2435 c0 -24 2 -25 75 -25 73 0 75 1 75 25 0 24 -2 25 -75 25
-73 0 -75 -1 -75 -25z"/>
<path d="M2490 2065 l0 -395 210 0 210 0 0 395 0 395 -210 0 -210 0 0 -395z
m127 99 c3 -9 -3 -24 -17 -37 l-22 -22 17 28 c16 24 16 27 1 27 -9 0 -16 5
-16 10 0 16 30 11 37 -6z m30 -51 c-2 -16 -4 -5 -4 22 0 28 2 40 4 28 2 -13 2
-35 0 -50z m63 50 c0 -12 -3 -14 -8 -7 -4 7 -16 14 -27 17 -15 4 -14 5 8 6 20
1 27 -4 27 -16z m25 -25 c-4 -9 -17 -13 -40 -10 -19 2 -32 8 -29 13 3 5 16 6
30 3 20 -5 24 -3 24 17 1 20 2 22 10 7 6 -9 8 -22 5 -30z m65 33 c0 -5 -6 -11
-12 -14 -10 -4 -10 -7 0 -18 16 -17 16 -34 -1 -20 -10 8 -17 7 -26 -2 -11 -10
-11 -8 -1 13 9 18 10 25 1 28 -21 7 -11 22 14 22 14 0 25 -4 25 -9z m17 -58
c-2 -16 -4 -5 -4 22 0 28 2 40 4 28 2 -13 2 -35 0 -50z m-102 -16 c13 -3 9 -5
-12 -6 -24 -1 -33 3 -33 15 0 12 3 14 13 6 6 -5 21 -12 32 -15z m-105 -82 c0
-38 -3 -44 -20 -42 -11 1 -20 5 -20 9 0 4 -9 8 -20 8 -16 0 -20 7 -20 30 0 17
5 30 10 30 6 0 10 -11 10 -25 0 -14 5 -25 10 -25 6 0 10 13 10 28 0 21 5 28
20 29 17 2 20 -4 20 -42z m55 -17 c6 -10 5 -10 -5 -1 -9 8 -17 9 -25 3 -9 -8
-9 -2 -1 25 10 33 11 34 17 11 4 -14 10 -30 14 -38z m22 -5 c-2 -16 -4 -5 -4
22 0 28 2 40 4 28 2 -13 2 -35 0 -50z m93 40 c0 -16 -4 -21 -15 -17 -8 4 -12
11 -8 18 3 6 -3 3 -14 -6 -24 -22 -40 -24 -23 -3 9 10 9 15 1 15 -6 0 -11 4
-11 10 0 5 16 9 35 7 29 -2 35 -6 35 -24z m50 3 c13 -18 13 -19 -1 -14 -9 4
-22 1 -28 -5 -6 -6 -11 -8 -11 -4 0 7 23 48 25 44 0 -1 7 -11 15 -21z m36 -7
c-3 -17 -6 -38 -6 -45 0 -9 -11 -14 -30 -14 -16 0 -30 2 -30 4 0 18 15 36 31
36 14 0 19 7 19 25 0 14 5 25 11 25 8 0 9 -11 5 -31z m-88 -41 c3 -14 -3 -18
-26 -18 -35 0 -45 9 -30 27 15 19 52 12 56 -9z"/>
<path d="M2738 1983 c6 -2 18 -2 25 0 6 3 1 5 -13 5 -14 0 -19 -2 -12 -5z"/>
<path d="M2940 2065 l0 -395 890 0 890 0 0 395 0 395 -890 0 -890 0 0 -395z
m210 90 c0 -11 11 -15 36 -15 21 0 33 -4 29 -10 -3 -5 -16 -10 -28 -10 -20 -1
-20 -2 -4 -11 25 -15 21 -48 -8 -61 -35 -16 -31 -28 10 -28 19 0 35 -4 35 -10
0 -6 -33 -10 -80 -10 -47 0 -80 4 -80 10 0 6 16 10 35 10 41 0 45 12 10 28
-29 13 -33 46 -7 61 15 9 15 10 -5 11 -12 0 -25 5 -28 10 -4 6 8 10 29 10 25
0 36 4 36 15 0 8 5 15 10 15 6 0 10 -7 10 -15z m180 5 c0 -5 14 -10 30 -10 17
0 30 -4 30 -10 0 -5 -6 -10 -13 -10 -8 0 -13 -10 -13 -22 1 -21 -4 -23 -49
-23 -43 0 -50 3 -50 20 0 11 -7 25 -15 32 -12 10 -9 12 23 13 20 0 37 5 37 10
0 6 5 10 10 10 6 0 10 -4 10 -10z m220 -85 c0 -57 -4 -95 -10 -95 -6 0 -10 38
-10 95 0 57 4 95 10 95 6 0 10 -38 10 -95z m170 75 c0 -11 7 -20 15 -20 8 0
15 -4 15 -10 0 -5 -7 -10 -15 -10 -11 0 -15 -12 -15 -45 l0 -45 -45 0 c-25 0
-45 -4 -45 -10 0 -5 23 -10 50 -10 28 0 50 -4 50 -10 0 -6 -27 -10 -60 -10
l-60 0 0 30 c0 29 2 30 48 32 l47 2 -47 3 c-61 5 -63 23 -3 23 l45 0 0 50 c0
28 5 50 10 50 6 0 10 -9 10 -20z m180 -75 c0 -57 -4 -95 -10 -95 -6 0 -10 38
-10 95 0 57 4 95 10 95 6 0 10 -38 10 -95z m340 0 c0 -57 -4 -95 -10 -95 -6 0
-10 38 -10 95 0 57 4 95 10 95 6 0 10 -38 10 -95z m180 0 c0 -57 -4 -95 -10
-95 -5 0 -10 20 -10 45 0 25 -4 45 -10 45 -5 0 -10 -18 -10 -40 0 -22 -4 -40
-10 -40 -5 0 -10 10 -10 23 0 20 -4 22 -40 19 l-40 -4 0 56 c0 31 5 56 10 56
6 0 10 -20 10 -45 0 -43 1 -45 30 -45 30 0 30 1 30 55 0 30 5 55 10 55 6 0 10
-16 10 -35 0 -19 5 -35 10 -35 6 0 10 18 10 40 0 22 5 40 10 40 6 0 10 -38 10
-95z m160 55 c0 -29 4 -40 15 -40 8 0 15 -4 15 -10 0 -5 -7 -10 -15 -10 -11 0
-15 -12 -15 -45 0 -25 -4 -45 -10 -45 -6 0 -10 38 -10 95 0 57 4 95 10 95 6 0
10 -18 10 -40z m-910 15 c27 -33 -8 -73 -53 -61 -47 11 -31 76 19 76 12 0 27
-7 34 -15z m200 -70 c0 -50 -4 -85 -10 -85 -5 0 -10 20 -10 45 0 45 0 45 -35
45 -24 0 -35 -5 -35 -15 0 -10 10 -15 30 -15 17 0 30 -4 30 -10 0 -5 -18 -10
-40 -10 -39 0 -40 1 -40 35 0 28 4 35 20 35 11 0 20 7 20 15 0 8 -9 15 -20 15
-11 0 -20 5 -20 10 0 6 14 10 30 10 25 0 30 -4 30 -25 0 -16 6 -25 15 -25 10
0 15 10 15 30 0 17 5 30 10 30 6 0 10 -35 10 -85z m-373 38 c-6 -37 -50 -93
-74 -93 -20 0 -16 9 17 40 17 15 30 37 30 49 0 17 -6 21 -30 21 -16 0 -30 5
-30 10 0 6 21 10 46 10 l47 0 -6 -37z m573 7 c0 -29 -1 -30 -50 -30 -27 0 -50
-4 -50 -10 0 -5 25 -10 55 -10 30 0 55 -4 55 -10 0 -6 -28 -10 -65 -10 l-65 0
0 30 c0 29 1 30 50 30 28 0 50 5 50 10 0 6 -22 10 -50 10 -27 0 -50 5 -50 10
0 6 27 10 60 10 l60 0 0 -30z m117 -7 c-6 -37 -50 -93 -74 -93 -20 0 -16 9 17
40 17 15 30 37 30 49 0 17 -6 21 -30 21 -16 0 -30 5 -30 10 0 6 21 10 46 10
l47 0 -6 -37z m353 -8 c0 -25 -4 -45 -10 -45 -5 0 -10 16 -10 35 0 33 -2 35
-36 35 -21 0 -33 4 -29 10 3 6 24 10 46 10 l39 0 0 -45z m-40 -34 c0 -25 3
-28 26 -23 20 4 25 1 22 -9 -5 -17 -98 -26 -98 -10 0 6 7 11 15 11 10 0 15 10
15 30 0 17 5 30 10 30 6 0 10 -13 10 -29z m-1100 -11 c0 -5 -4 -10 -10 -10 -5
0 -10 -16 -10 -35 l0 -35 -60 0 -60 0 0 35 c0 19 -4 35 -10 35 -5 0 -10 5 -10
10 0 6 33 10 80 10 47 0 80 -4 80 -10z m690 -50 c0 -6 -33 -10 -80 -10 -47 0
-80 4 -80 10 0 6 33 10 80 10 47 0 80 -4 80 -10z"/>
<path d="M3110 2090 c-13 -9 -13 -11 0 -20 8 -5 22 -10 30 -10 8 0 22 5 30 10
13 9 13 11 0 20 -8 5 -22 10 -30 10 -8 0 -22 -5 -30 -10z"/>
<path d="M3298 2103 c12 -2 30 -2 40 0 9 3 -1 5 -23 4 -22 0 -30 -2 -17 -4z"/>
<path d="M3615 2130 c-4 -7 -3 -16 3 -22 14 -14 45 -2 40 15 -6 16 -34 21 -43
7z"/>
<path d="M3280 2040 c0 -5 18 -10 40 -10 22 0 40 5 40 10 0 6 -18 10 -40 10
-22 0 -40 -4 -40 -10z"/>
<path d="M3298 2003 c12 -2 32 -2 45 0 12 2 2 4 -23 4 -25 0 -35 -2 -22 -4z"/>
<path d="M4770 2065 l0 -395 400 0 400 0 0 395 0 395 -400 0 -400 0 0 -395z
m270 80 c0 -16 6 -25 15 -25 8 0 15 -4 15 -10 0 -5 -7 -10 -15 -10 -12 0 -15
-13 -15 -60 l0 -60 -55 0 -55 0 0 40 0 40 45 0 45 0 0 55 c0 30 5 55 10 55 6
0 10 -11 10 -25z m180 -45 c0 -40 -4 -70 -10 -70 -6 0 -10 30 -10 70 0 40 4
70 10 70 6 0 10 -30 10 -70z m170 -25 c0 -57 -4 -95 -10 -95 -5 0 -10 23 -10
50 0 38 -4 50 -15 50 -8 0 -15 5 -15 10 0 6 7 10 15 10 10 0 15 11 15 35 0 19
5 35 10 35 6 0 10 -38 10 -95z m-398 59 c14 -31 1 -57 -31 -62 -28 -4 -51 14
-51 42 0 50 62 65 82 20z m198 -39 c0 -37 -4 -65 -10 -65 -5 0 -10 16 -10 35
0 26 -4 35 -16 35 -14 0 -14 -3 -4 -15 15 -18 5 -34 -11 -18 -9 9 -16 9 -30 0
-25 -16 -36 -1 -16 21 10 10 17 28 17 40 0 12 5 22 10 22 6 0 10 -9 10 -19 0
-14 5 -18 20 -14 11 3 20 14 20 24 0 11 5 19 10 19 6 0 10 -28 10 -65z m150
45 c0 -5 -13 -10 -30 -10 -20 0 -30 -5 -30 -15 0 -9 9 -15 25 -15 14 0 25 -4
25 -10 0 -5 -11 -10 -25 -10 -16 0 -25 -6 -25 -15 0 -10 11 -15 35 -15 19 0
35 -4 35 -10 0 -5 -20 -10 -45 -10 l-45 0 0 60 0 60 40 0 c22 0 40 -4 40 -10z
m-210 -110 c0 -17 7 -20 50 -20 28 0 50 -4 50 -10 0 -6 -27 -10 -60 -10 l-60
0 0 30 c0 17 5 30 10 30 6 0 10 -9 10 -20z"/>
<path d="M4950 2020 c0 -16 7 -20 35 -20 28 0 35 4 35 20 0 16 -7 20 -35 20
-28 0 -35 -4 -35 -20z"/>
<path d="M4934 2125 c-7 -18 3 -35 21 -35 21 0 28 19 15 35 -16 19 -29 19 -36
0z"/>
<path d="M7264 1367 c-2 -7 -3 -65 -2 -128 l3 -114 119 -3 c78 -2 123 1 132 9
10 8 14 39 14 114 0 57 -3 110 -6 119 -5 13 -26 16 -130 16 -94 0 -126 -3
-130 -13z m216 -57 c0 -5 -7 -10 -15 -10 -8 0 -15 -7 -15 -15 0 -8 -7 -15 -15
-15 -8 0 -15 -7 -15 -15 0 -8 -7 -15 -15 -15 -8 0 -15 -7 -15 -15 0 -8 -7 -15
-15 -15 -8 0 -15 -7 -15 -15 0 -9 -9 -15 -25 -15 -14 0 -25 5 -25 10 0 6 7 10
15 10 8 0 15 7 15 15 0 8 7 15 15 15 8 0 15 7 15 15 0 8 7 15 15 15 8 0 15 7
15 15 0 8 7 15 15 15 8 0 15 7 15 15 0 9 9 15 25 15 14 0 25 -4 25 -10z"/>
<path d="M7634 1367 c-2 -7 -3 -65 -2 -128 l3 -114 125 0 125 0 3 128 3 127
-126 0 c-94 0 -127 -3 -131 -13z m96 -38 c0 -5 -7 -9 -15 -9 -15 0 -20 12 -9
23 8 8 24 -1 24 -14z m94 -3 c-1 -9 4 -16 12 -16 10 0 14 -13 14 -40 0 -22 -5
-40 -11 -40 -6 0 -9 -15 -7 -36 3 -32 0 -37 -19 -40 -21 -4 -23 0 -23 35 0 22
-4 43 -10 46 -16 10 -12 65 5 71 8 4 15 15 15 26 0 11 5 18 13 15 6 -2 11 -12
11 -21z m-74 -42 c8 -20 6 -34 -5 -57 -8 -16 -15 -40 -15 -52 0 -13 -6 -22
-15 -22 -10 0 -15 11 -15 34 0 18 -4 33 -10 33 -5 0 -7 7 -4 15 4 8 1 15 -4
15 -8 0 -8 9 -1 30 14 40 55 42 69 4z"/>
<path d="M8004 1367 c-2 -7 -3 -65 -2 -128 l3 -114 125 0 125 0 0 125 0 125
-123 3 c-95 2 -124 0 -128 -11z m120 -42 c3 -8 10 -15 16 -15 5 0 10 7 10 15
0 8 5 15 10 15 6 0 10 -7 10 -15 0 -8 5 -15 11 -15 8 0 7 -6 -2 -17 -11 -13
-11 -17 -1 -20 7 -3 12 -25 12 -59 l0 -55 -57 3 -58 3 -3 43 c-2 24 2 50 9 58
6 7 9 24 5 37 -3 13 -3 27 1 31 11 11 31 6 37 -9z"/>
<path d="M8110 1290 c0 -13 7 -20 20 -20 23 0 26 10 8 28 -18 18 -28 15 -28
-8z"/>
<path d="M8097 1253 c-15 -14 -5 -19 33 -19 26 0 40 5 40 13 0 14 -61 19 -73
6z"/>
<path d="M8091 1194 c0 -11 3 -14 6 -6 3 7 2 16 -1 19 -3 4 -6 -2 -5 -13z"/>
<path d="M8110 1190 c0 -5 5 -10 11 -10 5 0 7 5 4 10 -3 6 -8 10 -11 10 -2 0
-4 -4 -4 -10z"/>
<path d="M6910 1250 l0 -120 115 0 115 0 0 120 0 120 -115 0 -115 0 0 -120z
m180 45 c0 -37 4 -65 10 -65 14 0 12 -27 -2 -33 -10 -3 -10 -9 0 -26 17 -30
16 -31 -30 -31 -25 0 -49 7 -60 17 -18 16 -18 16 -12 0 8 -22 -4 -22 -28 0
-25 22 -26 108 0 117 9 3 22 9 29 12 20 9 20 -29 1 -68 -10 -21 -16 -38 -13
-38 2 0 13 17 24 38 19 35 21 36 27 15 5 -17 13 -23 33 -22 23 2 23 2 4 6 -12
2 -25 13 -28 24 -3 10 -7 28 -10 38 -4 13 0 21 12 24 10 3 4 5 -13 6 -17 0
-37 -6 -44 -14 -22 -26 -40 -18 -40 18 0 19 3 37 7 40 3 4 35 7 70 7 l63 0 0
-65z"/>
<path d="M6990 1330 c0 -5 5 -10 10 -10 6 0 10 5 10 10 0 6 -4 10 -10 10 -5 0
-10 -4 -10 -10z"/>
<path d="M6910 1008 c0 -31 4 -38 20 -38 16 0 20 7 20 38 0 28 -3 33 -10 22
-9 -13 -11 -13 -20 0 -7 11 -10 6 -10 -22z m30 -13 c0 -8 -4 -15 -10 -15 -5 0
-10 7 -10 15 0 8 5 15 10 15 6 0 10 -7 10 -15z"/>
<path d="M6968 1000 c-2 -22 0 -40 4 -40 5 0 8 18 8 40 0 22 -2 40 -4 40 -2 0
-6 -18 -8 -40z"/>
<path d="M7002 1023 c-9 -15 -7 -19 9 -19 21 0 23 4 10 25 -7 11 -11 10 -19
-6z"/>
<path d="M7050 1016 c0 -18 -6 -25 -22 -28 -32 -4 -30 -33 2 -33 22 0 25 5 28
43 1 23 0 42 -3 42 -3 0 -5 -11 -5 -24z m-5 -46 c-3 -5 -13 -10 -21 -10 -8 0
-14 5 -14 10 0 6 9 10 21 10 11 0 17 -4 14 -10z"/>
<path d="M7103 1033 c35 -6 30 -26 -9 -34 -16 -4 -21 -7 -12 -8 9 0 19 -11 21
-23 l4 -23 2 23 c1 14 7 22 20 22 14 0 17 6 13 25 -4 21 -10 25 -36 24 -31 -2
-31 -2 -3 -6z"/>
<path d="M7334 1023 c3 -8 1 -24 -5 -36 -9 -18 -9 -20 2 -9 18 16 29 15 29 -3
0 -8 7 -15 15 -15 11 0 15 11 15 39 0 38 -2 40 -30 39 -22 -1 -29 -5 -26 -15z"/>
<path d="M7400 1020 c0 -15 6 -20 28 -19 23 2 24 2 5 6 -27 5 -30 20 -5 26 13
4 11 5 -5 6 -17 1 -23 -5 -23 -19z"/>
<path d="M7460 1013 c0 -18 2 -33 4 -33 9 0 13 39 5 51 -6 10 -9 4 -9 -18z"/>
<path d="M7652 1033 c-10 -4 -9 -9 5 -19 17 -13 17 -15 -1 -29 -19 -14 -18
-15 11 -15 17 0 34 -6 36 -12 3 -7 6 -1 6 15 1 26 11 32 46 28 6 0 11 8 11 19
0 12 -7 20 -18 20 -11 0 -15 -5 -12 -15 4 -9 0 -15 -9 -15 -9 0 -18 8 -20 18
-3 9 -5 2 -6 -15 0 -18 -5 -33 -9 -33 -4 0 -8 12 -8 27 1 27 -9 35 -32 26z"/>
<path d="M7780 1016 c0 -18 -6 -26 -22 -28 -12 -2 -23 -8 -25 -15 -5 -15 36
-28 49 -15 14 14 18 71 7 78 -5 3 -9 -6 -9 -20z m0 -46 c0 -5 -7 -10 -15 -10
-8 0 -15 5 -15 10 0 6 7 10 15 10 8 0 15 -4 15 -10z"/>
<path d="M7816 1024 c-3 -9 -6 -17 -6 -18 0 -1 9 -2 20 -2 11 0 20 1 20 2 0
11 -14 34 -20 34 -4 0 -11 -7 -14 -16z"/>
<path d="M7868 1018 c-2 -15 -11 -24 -25 -26 -31 -5 -29 -28 2 -34 14 -3 25
-5 26 -4 0 0 2 20 5 44 5 43 -2 61 -8 20z"/>
<path d="M7974 1028 c-4 -5 -2 -14 3 -19 12 -12 53 0 53 16 0 15 -48 17 -56 3z
m26 -2 c0 -3 -4 -8 -10 -11 -5 -3 -10 -1 -10 4 0 6 5 11 10 11 6 0 10 -2 10
-4z"/>
<path d="M8050 1029 c11 -8 12 -12 3 -16 -23 -9 -14 -40 12 -45 16 -4 25 -1
25 7 0 8 -8 11 -20 8 -11 -3 -20 0 -20 6 0 6 5 11 10 11 6 0 10 9 10 20 0 12
-7 20 -17 20 -16 0 -16 -2 -3 -11z"/>
<path d="M8140 1023 c0 -10 -4 -14 -8 -8 -16 22 -33 15 -30 -12 4 -31 24 -42
31 -16 4 14 5 13 6 -4 2 -40 21 -24 21 17 0 22 -4 40 -10 40 -5 0 -10 -8 -10
-17z"/>
<path d="M8174 1027 c-7 -20 -2 -47 11 -50 14 -3 19 43 6 56 -7 7 -12 6 -17
-6z m13 -34 c-3 -10 -5 -4 -5 12 0 17 2 24 5 18 2 -7 2 -21 0 -30z"/>
<path d="M8213 1000 c0 -25 2 -35 4 -22 2 12 2 32 0 45 -2 12 -4 2 -4 -23z"/>
<path d="M8230 1005 c0 -27 4 -35 18 -35 14 0 15 2 2 10 -12 8 -13 11 -1 19
11 7 11 9 0 14 -12 4 -11 7 1 16 13 9 13 11 -2 11 -14 0 -18 -8 -18 -35z"/>
<path d="M8003 993 c-20 -7 -15 -30 7 -36 15 -4 20 0 20 13 0 22 -9 29 -27 23z"/>
<path d="M7410 968 c0 -4 14 -8 30 -8 17 0 30 2 30 4 0 2 -13 6 -30 8 -16 3
-30 1 -30 -4z"/>
</g>
</svg>
