<?xml version="1.0" standalone="no"?>
<!DOCTYPE svg PUBLIC "-//W3C//DTD SVG 20010904//EN"
 "http://www.w3.org/TR/2001/REC-SVG-20010904/DTD/svg10.dtd">
<svg version="1.0" xmlns="http://www.w3.org/2000/svg"
 width="850.000000pt" height="600.000000pt" viewBox="0 0 850.000000 600.000000"
 preserveAspectRatio="xMidYMid meet">

<g transform="translate(0.000000,600.000000) scale(0.100000,-0.100000)"
fill="#000000" stroke="none">
<path d="M1080 4495 l0 -175 -472 -2 -473 -3 -3 -497 -2 -498 475 0 475 0 0
-870 0 -870 3680 0 3680 0 -2 1543 -3 1542 -515 0 -515 0 -3 -92 -3 -93 -829
0 -830 0 0 95 0 95 -2330 0 -2330 0 0 -175z m4590 15 l0 -90 897 2 898 3 0 85
0 85 453 3 452 2 0 -1475 0 -1475 -3615 0 -3615 0 0 865 0 865 -470 0 -470 0
0 435 0 435 470 0 470 0 0 175 0 175 2265 0 2265 0 0 -90z"/>
<path d="M1160 4295 l0 -285 210 0 210 0 0 55 c0 30 5 55 10 55 6 0 10 -25 10
-55 l0 -55 215 0 215 0 0 55 c0 30 5 55 10 55 6 0 10 -25 10 -55 l0 -55 215 0
215 0 0 55 c0 30 5 55 10 55 6 0 10 -25 10 -55 l0 -55 215 0 215 0 0 55 c0 30
5 55 10 55 6 0 10 -25 10 -55 l0 -55 210 0 210 0 0 55 c0 30 5 55 10 55 6 0
10 -25 10 -55 l0 -55 215 0 215 0 0 285 0 285 -215 0 -215 0 0 -65 c0 -37 -4
-65 -10 -65 -6 0 -10 28 -10 65 l0 65 -210 0 -210 0 0 -65 c0 -37 -4 -65 -10
-65 -6 0 -10 28 -10 65 l0 65 -215 0 -215 0 0 -65 c0 -37 -4 -65 -10 -65 -6 0
-10 28 -10 65 l0 65 -215 0 -215 0 0 -65 c0 -37 -4 -65 -10 -65 -6 0 -10 28
-10 65 l0 65 -215 0 -215 0 0 -65 c0 -37 -4 -65 -10 -65 -6 0 -10 28 -10 65
l0 65 -210 0 -210 0 0 -285z m1280 0 c0 -50 -4 -85 -10 -85 -5 0 -11 19 -12
43 -1 40 -1 40 -5 7 -5 -41 -23 -66 -23 -32 0 18 -6 22 -35 22 l-35 0 0 55 c0
30 5 55 10 55 6 0 10 -20 10 -45 0 -41 2 -45 25 -45 23 0 25 3 25 50 0 55 19
70 21 18 1 -27 2 -28 6 -8 13 79 23 64 23 -35z m280 -5 c0 -53 -4 -90 -10 -90
-6 0 -10 37 -10 90 0 53 4 90 10 90 6 0 10 -37 10 -90z m288 13 c16 -11 16
-12 0 -13 -15 0 -18 -9 -18 -46 0 -27 -4 -43 -10 -39 -12 7 -14 158 -2 169 4
4 8 -7 10 -25 2 -18 11 -39 20 -46z m472 -8 c0 -50 -4 -85 -10 -85 -5 0 -11
19 -12 43 -1 40 -1 40 -5 7 -5 -41 -23 -66 -23 -32 0 18 -6 22 -35 22 l-35 0
0 55 c0 30 5 55 10 55 6 0 10 -20 10 -45 0 -41 2 -45 25 -45 23 0 25 3 25 50
0 55 19 70 21 18 1 -27 2 -28 6 -8 13 79 23 64 23 -35z m-2060 45 c0 -10 7
-26 16 -35 21 -20 9 -33 -16 -18 -14 10 -21 9 -30 -2 -9 -11 -9 -15 -1 -15 6
0 11 -9 11 -20 0 -17 7 -20 45 -20 25 0 45 -4 45 -10 0 -5 -25 -10 -55 -10
-54 0 -55 1 -55 28 0 15 -5 33 -10 38 -8 8 -6 15 5 24 8 7 15 22 15 35 0 12 3
25 6 28 11 10 24 -3 24 -23z m60 -30 c0 -33 -4 -60 -10 -60 -6 0 -10 27 -10
60 0 33 4 60 10 60 6 0 10 -27 10 -60z m140 41 c0 -11 6 -22 13 -25 10 -5 10
-7 0 -12 -7 -3 -13 -14 -13 -25 0 -10 -4 -19 -10 -19 -5 0 -10 23 -10 50 0 28
5 50 10 50 6 0 10 -9 10 -19z m95 9 c25 10 65 3 65 -11 0 -5 5 -9 10 -9 6 0
10 7 10 15 0 8 5 15 10 15 6 0 10 -30 10 -69 l0 -70 -42 -4 -43 -4 48 -1 c64
-3 52 -22 -14 -22 l-49 0 0 35 c0 34 1 35 40 35 22 0 40 5 40 11 0 7 -16 8
-45 3 -36 -5 -46 -3 -51 10 -3 9 0 23 7 32 12 14 11 16 -6 13 -14 -3 -23 -21
-36 -72 -17 -67 -25 -85 -34 -76 -4 5 33 157 43 173 3 6 7 5 9 -1 3 -8 12 -9
28 -3z m216 -12 l2 -23 4 23 c10 51 23 16 23 -64 0 -54 -4 -83 -10 -79 -5 3
-10 15 -10 26 0 16 -7 19 -40 19 -22 0 -40 5 -40 10 0 6 11 10 25 10 16 0 25
6 25 15 0 12 -4 13 -19 4 -28 -18 -51 -4 -51 31 0 35 23 49 51 31 15 -9 19 -8
19 4 0 24 20 17 21 -7z m306 6 c14 -13 14 -17 2 -25 -12 -8 -12 -10 0 -18 12
-8 12 -12 -2 -26 -13 -13 -14 -20 -5 -35 17 -26 -6 -50 -47 -50 -66 0 -72 62
-6 68 30 3 31 5 31 53 0 53 3 57 27 33z m54 -79 c-19 -75 -27 -93 -36 -84 -4
5 33 157 43 173 14 24 11 -18 -7 -89z m199 85 c0 -5 14 -10 30 -10 17 0 30 5
30 10 0 6 5 10 10 10 6 0 10 -16 10 -35 l0 -35 -50 0 -50 0 0 35 c0 19 5 35
10 35 6 0 10 -4 10 -10z m340 -20 c0 -16 5 -30 10 -30 6 0 10 14 10 30 0 17 5
30 10 30 6 0 10 -25 10 -56 0 -49 2 -55 15 -44 8 7 18 30 21 51 7 42 24 54 24
17 0 -13 7 -36 15 -52 21 -39 19 -52 -5 -31 -19 17 -21 17 -38 2 -10 -10 -22
-14 -25 -10 -4 3 -7 -6 -7 -20 0 -15 -4 -27 -10 -27 -5 0 -10 20 -10 45 0 25
-4 45 -10 45 -5 0 -10 -18 -10 -40 0 -22 -4 -40 -10 -40 -5 0 -10 7 -10 15 0
10 -11 15 -35 15 l-35 0 0 55 c0 54 0 55 30 55 17 0 30 -4 30 -10 0 -5 -9 -10
-20 -10 -16 0 -20 -7 -20 -35 0 -35 5 -40 34 -29 12 4 16 20 16 55 0 27 5 49
10 49 6 0 10 -13 10 -30z m320 0 c0 -18 -53 -70 -71 -70 -17 0 -9 18 16 34 33
22 32 38 -2 34 -24 -3 -29 -10 -44 -71 -17 -67 -25 -85 -34 -76 -4 4 32 156
40 169 2 3 24 4 49 2 36 -3 46 -8 46 -22z m40 11 c0 -11 6 -22 13 -25 10 -5
10 -7 0 -12 -8 -3 -13 -25 -13 -55 l0 -49 -50 0 c-49 0 -50 1 -50 30 0 28 2
30 40 30 l40 0 0 50 c0 28 5 50 10 50 6 0 10 -9 10 -19z m150 -61 l0 -80 -50
0 c-49 0 -50 1 -50 30 0 28 2 30 40 30 22 0 40 4 40 10 0 5 -21 9 -47 7 l-48
-2 0 35 0 35 48 -2 c26 -2 47 2 47 7 0 6 5 10 10 10 6 0 10 -33 10 -80z m270
46 c0 -19 6 -37 13 -40 10 -5 10 -7 0 -12 -7 -3 -13 -23 -13 -45 0 -21 -4 -39
-10 -39 -5 0 -10 9 -10 20 0 17 -7 20 -50 20 -27 0 -50 5 -50 10 0 6 7 10 15
10 8 0 15 9 15 19 0 11 5 23 10 26 6 4 10 -5 10 -19 0 -21 5 -26 25 -26 24 0
25 3 25 55 0 30 5 55 10 55 6 0 10 -15 10 -34z m-2020 15 c0 -5 -10 -11 -22
-13 l-23 -3 23 -23 c26 -26 21 -43 -6 -26 -13 8 -23 8 -39 -3 -28 -19 -38 -1
-13 22 24 22 26 35 5 35 -8 0 -15 5 -15 10 0 6 20 10 45 10 25 0 45 -4 45 -9z
m520 -1 c0 -5 -12 -10 -27 -11 l-28 -1 28 -11 c15 -6 27 -14 27 -19 0 -11 -28
-10 -52 3 -14 8 -23 8 -31 0 -13 -13 -47 -15 -47 -2 0 5 10 12 23 16 l22 8
-22 4 c-47 9 -21 23 42 23 37 0 65 -4 65 -10z m80 -5 c26 -32 -13 -81 -47 -59
-35 22 -23 74 17 74 10 0 23 -7 30 -15z m430 -5 c0 -13 7 -20 20 -20 13 0 20
7 20 20 0 11 5 20 10 20 6 0 10 -27 10 -60 l0 -60 -40 0 -40 0 0 60 c0 33 4
60 10 60 6 0 10 -9 10 -20z m960 -30 c0 -22 -4 -40 -10 -40 -5 0 -10 14 -10
30 0 27 -3 30 -30 30 -16 0 -30 5 -30 10 0 6 18 10 40 10 l40 0 0 -40z m-1530
-10 c0 -5 16 -10 35 -10 19 0 35 -4 35 -10 0 -5 -12 -10 -27 -10 -24 -1 -25
-2 -10 -11 23 -13 22 -36 -2 -49 -50 -26 -107 2 -83 41 11 16 9 19 -8 19 -11
0 -20 5 -20 10 0 6 14 10 30 10 17 0 30 5 30 10 0 6 5 10 10 10 6 0 10 -4 10
-10z m540 -20 c0 -5 -13 -10 -30 -10 -20 0 -30 -5 -30 -15 0 -8 -4 -15 -10
-15 -5 0 -10 7 -10 15 0 10 -10 15 -30 15 -16 0 -30 5 -30 10 0 6 30 10 70 10
40 0 70 -4 70 -10z m-979 -26 c28 -34 -41 -73 -77 -43 -17 14 -18 46 -1 52 26
11 65 6 78 -9z m879 -9 c0 -11 11 -15 39 -15 22 0 43 -4 46 -10 4 -6 -15 -10
-49 -10 -53 0 -56 1 -56 25 0 14 5 25 10 25 6 0 10 -7 10 -15z"/>
<path d="M1725 4310 c-3 -5 1 -10 9 -10 9 0 16 5 16 10 0 6 -4 10 -9 10 -6 0
-13 -4 -16 -10z"/>
<path d="M1778 4313 c7 -3 16 -2 19 1 4 3 -2 6 -13 5 -11 0 -14 -3 -6 -6z"/>
<path d="M1860 4320 c0 -13 5 -20 13 -17 6 2 12 10 12 17 0 7 -6 15 -12 18 -8
2 -13 -5 -13 -18z"/>
<path d="M1932 4290 c0 -14 2 -19 5 -12 2 6 2 18 0 25 -3 6 -5 1 -5 -13z"/>
<path d="M2156 4241 c-3 -5 1 -12 10 -15 21 -8 56 3 49 15 -8 12 -52 12 -59 0z"/>
<path d="M2503 4323 c9 -2 25 -2 35 0 9 3 1 5 -18 5 -19 0 -27 -2 -17 -5z"/>
<path d="M3110 4240 c0 -5 14 -10 30 -10 17 0 30 5 30 10 0 6 -13 10 -30 10
-16 0 -30 -4 -30 -10z"/>
<path d="M3240 4320 c0 -15 5 -20 18 -18 9 2 17 10 17 18 0 8 -8 16 -17 18
-13 2 -18 -3 -18 -18z"/>
<path d="M3300 4320 c0 -5 5 -10 10 -10 6 0 10 5 10 10 0 6 -4 10 -10 10 -5 0
-10 -4 -10 -10z"/>
<path d="M3260 4240 c0 -5 14 -10 30 -10 17 0 30 5 30 10 0 6 -13 10 -30 10
-16 0 -30 -4 -30 -10z"/>
<path d="M2144 4329 c-10 -17 13 -36 27 -22 12 12 4 33 -11 33 -5 0 -12 -5
-16 -11z"/>
<path d="M2620 4280 c0 -13 7 -20 20 -20 13 0 20 7 20 20 0 13 -7 20 -20 20
-13 0 -20 -7 -20 -20z"/>
<path d="M2015 4241 c-9 -15 14 -24 43 -16 20 5 23 8 11 16 -18 11 -46 12 -54
0z"/>
<path d="M1545 4240 c-8 -13 20 -24 41 -16 20 8 9 26 -16 26 -10 0 -22 -5 -25
-10z"/>
<path d="M3840 4295 l0 -285 220 0 220 0 0 285 0 285 -220 0 -220 0 0 -285z"/>
<path d="M4300 4295 l0 -285 440 0 440 0 0 285 0 285 -440 0 -440 0 0 -285z
m120 85 c0 -5 16 -10 35 -10 19 0 35 5 35 10 0 6 5 10 10 10 6 0 10 -15 10
-34 0 -30 -4 -35 -27 -39 -23 -3 -21 -4 10 -6 71 -2 38 -21 -38 -21 -43 0 -75
4 -75 10 0 6 15 11 33 11 23 1 26 3 10 6 -19 4 -23 11 -23 39 0 19 5 34 10 34
6 0 10 -4 10 -10z m230 0 c0 -6 27 -10 60 -10 33 0 60 -4 60 -10 0 -5 -9 -10
-20 -10 -11 0 -20 -6 -20 -14 0 -7 9 -25 20 -39 24 -30 25 -37 5 -37 -9 0 -18
7 -22 16 -5 13 -9 12 -28 -6 -24 -23 -43 -15 -21 9 8 9 17 28 21 42 5 21 2 27
-13 31 -11 3 -26 2 -33 -3 -12 -8 -11 -11 1 -20 11 -8 12 -12 3 -16 -8 -3 -13
-23 -13 -49 0 -24 -4 -44 -10 -44 -5 0 -10 11 -10 25 0 23 -4 25 -46 25 -27 0
-43 4 -39 10 3 6 24 10 46 10 l39 0 0 50 c0 28 5 50 10 50 6 0 10 -4 10 -10z
m150 -75 c0 -50 -4 -85 -10 -85 -6 0 -10 35 -10 85 0 50 4 85 10 85 6 0 10
-35 10 -85z m230 68 c0 -9 7 -25 17 -35 20 -22 10 -36 -12 -18 -13 11 -19 11
-33 -3 -15 -16 -13 -17 26 -17 l42 0 0 45 c0 25 5 45 10 45 6 0 10 -30 10 -69
l0 -70 -42 -4 -43 -4 48 -1 c66 -3 59 -22 -8 -22 -52 0 -55 1 -55 25 0 22 4
25 43 27 l42 1 -40 4 c-48 5 -80 39 -51 55 9 5 16 17 16 27 0 10 3 21 7 24 12
12 23 7 23 -10z m-430 -8 c26 -32 -13 -81 -47 -59 -35 22 -23 74 17 74 10 0
23 -7 30 -15z m345 5 c4 -6 -12 -10 -39 -10 -39 0 -46 -3 -46 -20 0 -17 7 -20
45 -20 25 0 45 -4 45 -10 0 -5 -11 -10 -25 -10 -18 0 -25 -5 -25 -20 0 -16 7
-20 30 -20 17 0 30 -4 30 -10 0 -6 -30 -10 -70 -10 -40 0 -70 4 -70 10 0 6 14
10 30 10 23 0 30 4 30 20 0 13 -7 20 -20 20 -17 0 -20 7 -20 40 l0 40 49 0
c28 0 53 -4 56 -10z m-435 -120 c0 -16 -4 -30 -10 -30 -5 0 -10 9 -10 20 0 17
-7 20 -45 20 -25 0 -45 5 -45 10 0 6 25 10 55 10 54 0 55 0 55 -30z"/>
<path d="M4438 4343 c12 -2 30 -2 40 0 9 3 -1 5 -23 4 -22 0 -30 -2 -17 -4z"/>
<path d="M4554 4349 c-10 -17 13 -36 27 -22 12 12 4 33 -11 33 -5 0 -12 -5
-16 -11z"/>
<path d="M5610 4500 c0 -73 2 -80 20 -80 18 0 20 7 20 80 0 73 -2 80 -20 80
-18 0 -20 -7 -20 -80z"/>
<path d="M5374 4383 c0 -14 9 -18 33 -18 26 0 33 4 33 19 0 19 0 19 -22 0 -19
-17 -21 -17 -15 -1 5 12 1 17 -11 17 -10 0 -18 -7 -18 -17z"/>
<path d="M5473 4386 c-9 -11 -7 -14 12 -12 17 1 21 4 13 14 -12 14 -10 14 -25
-2z"/>
<path d="M5610 4185 c0 -208 1 -215 20 -215 16 0 20 7 20 30 0 35 8 37 41 11
24 -19 25 -19 48 0 34 28 51 24 51 -11 l0 -30 325 0 325 0 0 215 0 215 -415 0
-415 0 0 -215z m260 85 c0 -79 0 -80 -25 -80 -25 0 -25 1 -25 80 0 79 0 80 25
80 25 0 25 -1 25 -80z m62 38 l1 -43 4 43 c4 37 7 42 29 42 21 0 24 -5 26 -42
l1 -43 4 43 c4 37 7 42 29 42 21 0 24 -5 26 -42 l1 -43 4 43 c4 37 7 42 29 42
21 0 24 -4 24 -39 0 -22 -5 -41 -11 -43 -14 -5 -14 -157 0 -171 6 -6 11 -28
11 -49 0 -34 -3 -38 -25 -38 -22 0 -25 4 -27 43 l-1 42 -4 -42 c-4 -38 -7 -43
-29 -43 -21 0 -24 5 -26 43 l-1 42 -4 -42 c-4 -38 -7 -43 -29 -43 -21 0 -24 5
-26 43 l-1 42 -4 -42 c-4 -38 -7 -43 -28 -43 l-24 0 0 170 0 170 24 0 c22 0
25 -4 27 -42z m236 5 c-2 -31 -7 -39 -25 -41 -21 -3 -23 1 -23 37 0 37 2 41
26 41 23 0 25 -3 22 -37z m60 0 c-2 -31 -7 -39 -25 -41 -21 -3 -23 1 -23 37 0
37 2 41 26 41 23 0 25 -3 22 -37z m62 -43 c0 -47 -4 -80 -10 -80 -5 0 -10 16
-10 35 0 22 -6 38 -15 41 -10 4 -15 20 -15 45 0 35 3 39 25 39 25 0 25 -1 25
-80z m60 0 c0 -79 0 -80 -25 -80 -25 0 -25 1 -25 80 0 79 0 80 25 80 25 0 25
-1 25 -80z m-163 -89 c-28 -27 -55 -47 -59 -45 -11 7 75 92 94 93 10 1 -3 -17
-35 -48z m-317 -91 c0 -79 0 -80 -25 -80 -25 0 -25 1 -25 80 0 79 0 80 25 80
25 0 25 -1 25 -80z m420 0 c0 -79 0 -80 -25 -80 -22 0 -25 4 -25 39 0 22 6 44
15 51 8 7 15 25 15 41 0 16 5 29 10 29 6 0 10 -33 10 -80z m60 0 c0 -79 0 -80
-25 -80 -25 0 -25 1 -25 80 0 79 0 80 25 80 25 0 25 -1 25 -80z m-180 -40 c0
-36 -2 -40 -25 -40 -22 0 -25 4 -25 40 0 36 3 40 25 40 23 0 25 -4 25 -40z
m60 0 c0 -36 -2 -40 -25 -40 -22 0 -25 4 -25 40 0 36 3 40 25 40 23 0 25 -4
25 -40z"/>
<path d="M5902 4183 l3 -78 75 0 75 0 3 78 c3 71 1 77 -17 77 -12 0 -19 -5
-16 -12 2 -7 6 -41 9 -75 l4 -63 -41 0 c-64 0 -69 8 -65 84 3 58 1 66 -15 66
-16 0 -18 -9 -15 -77z"/>
<path d="M5970 4205 c6 -8 8 -20 4 -26 -4 -8 -3 -9 4 -5 18 11 14 46 -4 46
-13 0 -14 -3 -4 -15z"/>
<path d="M5480 4330 c0 -11 2 -20 4 -20 2 0 6 9 9 20 3 11 1 20 -4 20 -5 0 -9
-9 -9 -20z"/>
<path d="M5375 4330 c-8 -12 17 -23 41 -18 10 1 19 9 22 16 5 15 -54 17 -63 2z
m42 -6 c-3 -3 -12 -4 -19 -1 -8 3 -5 6 6 6 11 1 17 -2 13 -5z"/>
<path d="M6534 4267 c-2 -8 -4 -52 -2 -98 l3 -84 100 0 100 0 0 95 0 95 -98 3
c-75 2 -99 0 -103 -11z m94 -29 c10 -10 15 -10 22 2 15 24 23 4 27 -65 l4 -65
-45 0 -46 0 0 39 c0 22 5 43 10 46 8 5 7 11 0 20 -12 14 -6 35 9 35 4 0 13 -6
19 -12z"/>
<path d="M6620 4210 c0 -5 7 -10 16 -10 8 0 12 5 9 10 -3 6 -10 10 -16 10 -5
0 -9 -4 -9 -10z"/>
<path d="M6602 4175 c10 -11 45 -13 59 -4 10 6 2 9 -25 9 -22 0 -37 -2 -34 -5z"/>
<path d="M6784 4267 c-2 -8 -4 -52 -2 -98 l3 -84 100 0 100 0 0 95 0 95 -98 3
c-75 2 -99 0 -103 -11z m94 -29 c10 -10 15 -10 22 2 15 24 23 4 27 -65 l4 -65
-45 0 -46 0 0 38 c0 21 6 44 12 50 10 10 10 15 -1 21 -7 5 -10 14 -7 20 9 14
19 14 34 -1z"/>
<path d="M6870 4210 c0 -5 7 -10 16 -10 8 0 12 5 9 10 -3 6 -10 10 -16 10 -5
0 -9 -4 -9 -10z"/>
<path d="M6852 4175 c10 -11 45 -13 59 -4 10 6 2 9 -25 9 -22 0 -37 -2 -34 -5z"/>
<path d="M5384 4256 c-9 -10 -6 -13 16 -13 23 0 26 3 15 14 -16 16 -17 16 -31
-1z"/>
<path d="M5451 4253 c-1 -18 4 -23 22 -22 15 1 17 3 5 6 -9 2 -19 12 -21 21
-3 12 -5 10 -6 -5z"/>
<path d="M5510 4251 c0 -25 6 -27 13 -6 4 8 2 17 -3 20 -6 4 -10 -3 -10 -14z"/>
<path d="M220 3820 l0 -410 195 0 195 0 0 25 c0 21 -5 25 -29 25 -24 0 -28 3
-24 20 3 11 14 27 25 34 16 12 17 15 5 23 -18 10 -38 48 -30 57 3 3 17 6 30 6
l23 0 0 315 0 315 -195 0 -195 0 0 -410z m190 290 c0 -18 -7 -20 -75 -20 -68
0 -75 2 -75 20 0 18 7 20 75 20 68 0 75 -2 75 -20z m160 0 c0 -18 -7 -20 -75
-20 -68 0 -75 2 -75 20 0 18 7 20 75 20 68 0 75 -2 75 -20z m-248 -55 c-3 -20
-10 -25 -33 -25 -24 0 -29 4 -29 25 0 22 4 25 34 25 30 0 33 -2 28 -25z m248
0 c0 -22 -4 -25 -35 -25 -31 0 -35 3 -35 25 0 22 4 25 35 25 31 0 35 -3 35
-25z m-100 -20 c0 -3 -20 -26 -45 -50 -62 -63 -88 -58 -28 4 42 43 73 63 73
46z m-150 -35 c0 -16 -7 -20 -30 -20 -23 0 -30 4 -30 20 0 16 7 20 30 20 23 0
30 -4 30 -20z m250 0 c0 -16 -7 -20 -35 -20 -28 0 -35 4 -35 20 0 16 7 20 35
20 28 0 35 -4 35 -20z m-250 -55 c0 -21 -5 -25 -30 -25 -25 0 -30 4 -30 25 0
21 5 25 30 25 25 0 30 -4 30 -25z m250 0 c0 -22 -4 -25 -35 -25 -31 0 -35 3
-35 25 0 22 4 25 35 25 31 0 35 -3 35 -25z m-155 -48 c6 0 43 4 83 8 69 7 72
7 72 -14 0 -17 -6 -21 -37 -23 l-38 -1 36 -4 37 -4 0 -50 0 -49 -37 -2 -36 -1
36 -4 37 -4 0 -50 0 -49 -74 0 c-72 0 -74 1 -74 25 0 14 -4 25 -9 25 -4 0 -6
-11 -3 -25 4 -25 4 -25 -71 -25 l-76 0 1 50 c0 49 1 50 31 52 l32 1 -32 4
c-32 4 -33 5 -33 54 0 48 0 49 33 51 l32 1 -32 4 c-25 3 -33 9 -33 25 0 19 4
20 73 13 39 -5 77 -8 82 -8z"/>
<path d="M332 3793 l3 -78 75 0 75 0 3 78 c3 71 1 77 -17 77 -12 0 -19 -5 -16
-12 2 -7 6 -41 9 -75 l4 -63 -41 0 c-64 0 -69 8 -65 84 3 58 1 66 -15 66 -16
0 -18 -9 -15 -77z"/>
<path d="M400 3815 c6 -8 8 -20 4 -26 -4 -8 -3 -9 4 -5 18 11 14 46 -4 46 -13
0 -14 -3 -4 -15z"/>
<path d="M293 3703 c9 -2 23 -2 30 0 6 3 -1 5 -18 5 -16 0 -22 -2 -12 -5z"/>
<path d="M518 3703 c6 -2 18 -2 25 0 6 3 1 5 -13 5 -14 0 -19 -2 -12 -5z"/>
<path d="M5373 4223 c9 -2 17 -12 17 -21 0 -14 1 -14 13 0 6 9 19 18 27 21 8
3 -5 5 -30 5 -25 0 -37 -2 -27 -5z"/>
<path d="M5464 4200 c2 -22 50 -20 54 3 2 9 -1 17 -7 17 -6 0 -11 -7 -11 -15
0 -18 -27 -20 -33 -2 -2 7 -3 6 -3 -3z"/>
<path d="M684 4107 c-2 -7 -4 -54 -2 -103 l3 -89 95 0 95 0 0 100 0 100 -93 3
c-71 2 -94 0 -98 -11z m87 -29 c1 -7 1 -21 0 -30 -1 -10 3 -18 9 -18 7 0 10 6
7 13 -3 7 1 21 8 31 12 16 14 16 20 -3 3 -12 3 -25 0 -31 -3 -5 -1 -10 5 -10
7 0 10 -16 8 -42 -3 -43 -3 -43 -43 -43 l-40 0 -1 65 c0 36 1 68 3 73 6 12 23
8 24 -5z"/>
<path d="M750 4010 c0 -5 14 -10 30 -10 17 0 30 5 30 10 0 6 -13 10 -30 10
-16 0 -30 -4 -30 -10z"/>
<path d="M5300 4050 l0 -40 145 0 145 0 0 40 0 40 -145 0 -145 0 0 -40z"/>
<path d="M1472 3433 l3 -258 503 -3 502 -2 0 260 0 260 -505 0 -505 0 2 -257z
m258 68 c0 -11 6 -22 13 -25 10 -5 10 -7 0 -12 -7 -3 -13 -14 -13 -25 0 -10
-4 -19 -10 -19 -5 0 -10 23 -10 50 0 28 5 50 10 50 6 0 10 -9 10 -19z m310 0
c0 -11 6 -22 13 -25 10 -5 10 -7 0 -12 -7 -3 -13 -14 -13 -25 0 -10 -4 -19
-10 -19 -5 0 -10 23 -10 50 0 28 5 50 10 50 6 0 10 -9 10 -19z m150 0 c0 -11
6 -22 13 -25 10 -5 10 -7 0 -12 -8 -3 -13 -25 -13 -55 l0 -49 -50 0 c-49 0
-50 1 -50 30 0 28 2 30 40 30 l40 0 0 50 c0 28 5 50 10 50 6 0 10 -9 10 -19z
m90 4 c0 -8 9 -24 20 -35 22 -22 8 -39 -16 -19 -11 9 -18 9 -26 1 -7 -7 -19
-12 -27 -12 -11 0 -9 6 7 23 12 13 22 31 22 40 0 9 5 17 10 17 6 0 10 -7 10
-15z m70 -54 l0 -70 -42 -4 -43 -4 48 -1 c66 -3 59 -22 -8 -22 -52 0 -55 1
-55 25 0 22 4 25 43 27 l42 1 -42 4 c-54 5 -56 23 -3 23 l40 0 0 45 c0 25 5
45 10 45 6 0 10 -30 10 -69z m-670 49 c0 -5 -11 -10 -25 -10 -19 0 -25 -5 -25
-21 0 -17 5 -20 31 -17 17 2 32 -1 33 -7 0 -5 -18 -11 -41 -13 l-43 -3 0 40
c0 40 1 41 35 41 19 0 35 -4 35 -10z m110 -20 c0 -29 2 -30 45 -30 25 0 45 -4
45 -10 0 -5 -4 -10 -10 -10 -5 0 -10 -9 -10 -20 0 -13 7 -20 20 -20 11 0 20
-4 20 -10 0 -6 -32 -10 -75 -10 -43 0 -75 4 -75 10 0 6 9 10 20 10 13 0 20 7
20 20 0 11 -4 20 -10 20 -5 0 -10 18 -10 40 0 22 5 40 10 40 6 0 10 -13 10
-30z m180 15 c0 -8 9 -24 20 -35 22 -22 8 -39 -16 -19 -11 9 -18 8 -33 -5 -11
-10 -22 -13 -25 -8 -3 5 3 17 14 27 11 10 20 26 20 37 0 10 5 18 10 18 6 0 10
-7 10 -15z m180 5 c0 -5 -11 -10 -25 -10 -19 0 -25 -5 -25 -21 0 -18 5 -21 30
-17 19 3 29 1 27 -6 -2 -6 -20 -12 -40 -14 l-37 -3 0 40 c0 40 1 41 35 41 19
0 35 -4 35 -10z m-430 -95 c28 -34 -27 -68 -76 -46 -44 20 -23 61 32 61 17 0
37 -7 44 -15z m301 5 c26 -15 24 -38 -5 -51 -51 -24 -111 18 -71 47 22 17 49
18 76 4z"/>
<path d="M2110 3390 c0 -5 14 -10 30 -10 17 0 30 5 30 10 0 6 -13 10 -30 10
-16 0 -30 -4 -30 -10z"/>
<path d="M1810 3410 c0 -11 7 -20 15 -20 8 0 15 9 15 20 0 11 -7 20 -15 20 -8
0 -15 -9 -15 -20z"/>
<path d="M1645 3391 c-7 -13 17 -24 40 -19 9 1 16 8 16 13 0 14 -48 19 -56 6z"/>
<path d="M1955 3391 c-7 -13 17 -24 40 -19 9 1 16 8 16 13 0 14 -48 19 -56 6z"/>
<path d="M2500 3430 l0 -260 215 0 215 0 0 260 0 260 -215 0 -215 0 0 -260z"/>
<path d="M2950 3430 l0 -260 260 0 260 0 0 260 0 260 -260 0 -260 0 0 -260z
m90 85 c0 -18 -5 -25 -20 -25 -15 0 -20 7 -20 25 0 18 5 25 20 25 15 0 20 -7
20 -25z m33 -16 c-8 -29 -13 -23 -13 14 0 22 3 28 9 18 5 -7 6 -22 4 -32z m50
20 c3 -12 3 -18 0 -15 -4 3 -12 1 -20 -5 -16 -14 -17 -5 -3 22 13 24 16 24 23
-2z m35 -24 c0 -43 -2 -45 -29 -45 -19 0 -29 5 -29 15 0 17 34 37 45 27 5 -4
5 1 2 11 -6 17 -2 37 8 37 2 0 4 -20 3 -45z m58 22 c10 -22 8 -24 -16 -24 -24
0 -26 2 -16 24 6 12 13 23 16 23 3 0 10 -11 16 -23z m31 -24 c-3 -10 -5 -2 -5
17 0 19 2 27 5 18 2 -10 2 -26 0 -35z m83 25 c0 -13 -8 -18 -30 -18 -22 0 -30
5 -30 18 0 12 8 17 30 17 22 0 30 -5 30 -17z m61 9 c-7 -9 -7 -17 0 -24 7 -7
3 -10 -15 -10 -22 0 -24 2 -14 14 9 11 9 16 -3 24 -10 6 -6 9 15 9 22 0 26 -3
17 -13z m39 -17 c0 -33 -15 -41 -22 -12 -6 21 1 42 13 42 5 0 9 -13 9 -30z
m-100 -27 c-8 -4 -20 -13 -27 -22 -11 -15 -12 -14 -13 1 0 9 -8 19 -17 21 -10
3 2 5 27 5 25 0 38 -2 30 -5z m-280 -26 c21 -4 20 -4 -7 -6 -25 -1 -33 3 -33
17 0 11 3 13 8 6 4 -7 18 -14 32 -17z m180 0 c21 -4 20 -4 -7 -6 -25 -1 -33 3
-33 17 0 11 3 13 8 6 4 -7 18 -14 32 -17z m180 0 c18 -3 15 -5 -12 -6 -29 -1
-38 3 -38 15 0 12 3 14 13 6 6 -5 23 -12 37 -15z m-160 -89 c0 -40 -3 -49 -12
-40 -7 7 -22 12 -35 12 -16 0 -23 6 -23 20 0 11 7 20 15 20 21 0 19 18 -2 23
-14 4 -12 5 5 6 16 1 22 -5 22 -19 0 -11 -7 -20 -15 -20 -8 0 -15 -4 -15 -10
0 -5 9 -10 20 -10 15 0 20 7 20 28 0 25 7 42 17 42 2 0 3 -23 3 -52z m79 0
c-1 -29 -3 -45 -6 -35 -3 10 -15 18 -31 18 l-27 2 28 4 c22 4 27 9 27 34 0 16
2 29 5 29 3 0 4 -24 4 -52z m-166 22 c3 -11 2 -20 -3 -20 -4 0 -6 -12 -4 -26
2 -23 -1 -25 -29 -22 -26 2 -32 7 -30 26 2 12 -3 23 -10 23 -6 1 4 5 23 9 31
7 32 7 8 9 -40 2 -34 21 6 21 25 0 35 -5 39 -20z m112 0 c-3 -5 5 -11 17 -13
20 -4 19 -4 -4 -6 -22 -1 -28 3 -28 20 0 11 5 17 10 14 6 -4 8 -10 5 -15z"/>
<path d="M3016 3521 c-4 -7 -5 -15 -2 -18 9 -9 19 4 14 18 -4 11 -6 11 -12 0z"/>
<path d="M3118 3463 c6 -2 18 -2 25 0 6 3 1 5 -13 5 -14 0 -19 -2 -12 -5z"/>
<path d="M3288 3513 c6 -2 18 -2 25 0 6 3 1 5 -13 5 -14 0 -19 -2 -12 -5z"/>
<path d="M3650 3670 c0 -18 7 -20 75 -20 l75 0 0 -220 0 -220 -75 0 c-68 0
-75 -2 -75 -20 0 -19 7 -20 95 -20 l95 0 0 260 0 260 -95 0 c-88 0 -95 -1 -95
-20z"/>
<path d="M5610 3135 l0 -315 195 0 195 0 0 315 0 315 -195 0 -195 0 0 -315z
m160 90 c5 -6 -1 -10 -14 -10 -21 0 -22 3 -13 24 8 15 13 19 15 10 3 -8 8 -18
12 -24z m30 -10 c0 -43 -1 -45 -30 -45 -20 0 -30 5 -30 15 0 9 9 15 25 15 21
0 25 5 25 30 0 17 2 30 5 30 3 0 5 -20 5 -45z m57 23 c0 -17 -6 -23 -24 -25
-17 -1 -22 2 -15 9 6 6 8 17 5 24 -3 9 2 14 15 14 14 0 19 -7 19 -22z m35 10
c6 -17 -1 -38 -13 -38 -5 0 -9 11 -9 25 0 26 14 34 22 13z m-5 -65 c6 -17 -35
-27 -52 -13 -8 7 -12 17 -9 22 8 13 57 6 61 -9z m-87 -64 c0 -4 -8 -13 -17
-18 -16 -9 -15 -11 7 -11 23 -1 23 -2 5 -10 -11 -5 -14 -9 -7 -9 6 -1 12 -8
12 -16 0 -10 -11 -15 -35 -15 -24 0 -35 5 -35 15 0 8 6 15 13 16 6 0 3 4 -8 9
-19 8 -18 9 4 9 23 1 24 2 6 15 -18 13 -18 14 0 23 19 11 55 6 55 -8z m-113 5
c-3 -3 -12 -4 -19 -1 -8 3 -5 6 6 6 11 1 17 -2 13 -5z m208 -24 c8 0 18 7 23
17 9 14 11 14 22 -7 7 -12 7 -20 2 -16 -20 12 -62 -13 -63 -36 0 -13 -3 -17
-6 -10 -2 6 -17 12 -31 12 -23 0 -27 4 -27 30 0 24 4 30 22 30 16 0 23 -7 26
-27 4 -25 4 -24 7 7 1 19 4 27 7 18 2 -10 11 -18 18 -18z m84 -15 c-3 -44 -4
-45 -36 -45 -18 0 -33 2 -33 4 0 18 15 36 31 36 14 0 19 7 19 25 0 14 5 25 10
25 7 0 10 -19 9 -45z m-278 18 c-11 -4 -11 -7 0 -14 7 -4 11 -10 8 -13 -3 -3
-18 4 -34 14 l-30 20 35 -1 c19 0 29 -3 21 -6z m-26 -24 c4 -6 17 -14 29 -19
16 -7 11 -9 -24 -8 -25 0 -37 2 -27 5 9 2 17 9 17 14 0 6 -4 7 -10 4 -5 -3
-10 -1 -10 4 0 14 17 14 25 0z"/>
<path d="M5758 3183 c6 -2 18 -2 25 0 6 3 1 5 -13 5 -14 0 -19 -2 -12 -5z"/>
<path d="M5848 3183 c7 -3 16 -2 19 1 4 3 -2 6 -13 5 -11 0 -14 -3 -6 -6z"/>
<path d="M5758 3113 c7 -3 16 -2 19 1 4 3 -2 6 -13 5 -11 0 -14 -3 -6 -6z"/>
<path d="M5758 3053 c7 -3 16 -2 19 1 4 3 -2 6 -13 5 -11 0 -14 -3 -6 -6z"/>
<path d="M5830 3090 c0 -11 2 -20 4 -20 2 0 6 9 9 20 3 11 1 20 -4 20 -5 0 -9
-9 -9 -20z"/>
<path d="M6030 3135 l0 -315 194 0 194 0 -1 188 -2 187 -77 3 -78 3 0 124 0
125 -115 0 -115 0 0 -315z m210 -39 c0 -8 5 -16 11 -18 7 -2 9 -22 4 -61 -6
-45 -11 -57 -25 -57 -14 0 -19 12 -25 57 -5 39 -3 59 4 61 6 2 11 10 11 18 0
8 5 14 10 14 6 0 10 -6 10 -14z"/>
<path d="M6520 3325 l0 -125 -40 0 -40 0 0 -190 0 -190 155 0 155 0 0 315 0
315 -115 0 -115 0 0 -125z m77 -229 c-3 -8 -1 -16 5 -18 14 -5 20 -68 7 -68
-5 0 -9 -11 -9 -25 0 -14 -4 -25 -10 -25 -5 0 -10 11 -10 25 0 14 -4 25 -9 25
-4 0 -7 10 -7 23 3 36 17 77 28 77 6 0 8 -6 5 -14z"/>
<path d="M7892 3133 l3 -318 228 -3 227 -2 0 320 0 320 -230 0 -230 0 2 -317z"/>
<path d="M6844 3367 c-2 -8 -4 -52 -2 -98 l3 -84 100 0 100 0 0 95 0 95 -98 3
c-75 2 -99 0 -103 -11z m94 -29 c10 -10 15 -10 22 2 16 24 27 -3 29 -71 l2
-59 -46 0 -45 0 0 38 c0 21 5 43 12 50 8 8 8 15 0 25 -20 23 4 37 26 15z"/>
<path d="M6930 3310 c0 -5 7 -10 16 -10 8 0 12 5 9 10 -3 6 -10 10 -16 10 -5
0 -9 -4 -9 -10z"/>
<path d="M6925 3271 c3 -6 15 -8 27 -6 34 7 34 15 -1 15 -18 0 -30 -4 -26 -9z"/>
<path d="M1160 2605 l0 -245 210 0 210 0 0 245 0 245 -210 0 -210 0 0 -245z"/>
<path d="M1673 2843 l77 -4 0 -29 c0 -36 13 -38 43 -7 l22 22 22 -22 c30 -31
43 -29 43 7 l0 30 253 3 c138 1 74 2 -143 3 -217 0 -360 -2 -317 -3z"/>
<path d="M2410 2655 l0 -195 255 0 255 0 0 195 0 195 -255 0 -255 0 0 -195z"/>
<path d="M2940 2635 l0 -215 205 0 205 0 0 215 0 215 -205 0 -205 0 0 -215z"/>
<path d="M3377 2843 c-4 -3 -7 -100 -7 -215 l0 -208 225 0 225 0 0 215 0 215
-218 0 c-120 0 -222 -3 -225 -7z"/>
<path d="M3840 2635 l0 -215 220 0 220 0 0 215 0 215 -220 0 -220 0 0 -215z"/>
<path d="M4300 2635 l0 -215 75 0 75 0 0 215 0 215 -75 0 -75 0 0 -215z"/>
<path d="M4663 2843 l187 -3 0 -30 c0 -37 22 -40 46 -7 l17 23 23 -23 c30 -30
42 -29 46 5 3 26 6 27 60 30 l58 3 2 -203 3 -203 523 -3 c346 -1 522 1 522 8
0 7 -177 10 -520 10 l-520 0 0 200 0 200 -317 -2 c-214 -2 -256 -4 -130 -5z"/>
<path d="M4670 2640 l0 -171 28 3 27 3 0 165 0 165 -27 3 -28 3 0 -171z"/>
<path d="M2030 2710 l0 -90 140 0 c133 0 140 1 140 20 0 19 -7 20 -120 20
l-120 0 0 70 c0 63 -2 70 -20 70 -19 0 -20 -7 -20 -90z"/>
<path d="M6524 2630 c0 -91 2 -128 3 -82 2 45 2 119 0 165 -1 45 -3 8 -3 -83z"/>
<path d="M6177 2444 c-4 -4 -7 -180 -7 -391 l0 -383 180 0 180 0 -2 388 -3
387 -171 3 c-93 1 -173 -1 -177 -4z"/>
<path d="M2680 2290 l0 -150 120 0 120 0 0 150 0 150 -120 0 -120 0 0 -150z"/>
<path d="M2947 2393 c-4 -3 -7 -168 -7 -365 l0 -358 205 0 205 0 0 365 0 365
-198 0 c-109 0 -202 -3 -205 -7z"/>
<path d="M1160 2005 l0 -335 210 0 210 0 0 335 0 335 -210 0 -210 0 0 -335z"/>
<path d="M1600 1895 l0 -225 230 0 230 0 0 30 c0 17 5 30 10 30 6 0 10 -13 10
-30 l0 -30 205 0 205 0 0 30 c0 17 5 30 10 30 6 0 10 -13 10 -30 l0 -30 205 0
205 0 0 225 0 225 -205 0 -205 0 0 -35 c0 -19 -4 -35 -10 -35 -5 0 -10 16 -10
35 l0 35 -205 0 -205 0 0 -35 c0 -19 -4 -35 -10 -35 -5 0 -10 16 -10 35 l0 35
-230 0 -230 0 0 -225z m490 50 c0 -30 -4 -55 -10 -55 -5 0 -10 11 -10 25 0 18
-5 25 -20 25 -11 0 -20 5 -20 10 0 6 9 10 20 10 13 0 20 7 20 20 0 11 5 20 10
20 6 0 10 -25 10 -55z m90 45 c0 -5 9 -10 20 -10 11 0 20 -4 20 -10 0 -5 5
-10 10 -10 6 0 10 9 10 20 0 11 5 20 10 20 7 0 10 -33 9 -86 -1 -79 -3 -86
-24 -96 -49 -22 -110 19 -71 47 15 12 15 13 -4 18 -26 7 -36 35 -21 58 9 15 8
19 -4 19 -8 0 -15 5 -15 10 0 6 9 10 20 10 11 0 20 5 20 10 0 6 5 10 10 10 6
0 10 -4 10 -10z m260 -85 c0 -57 -4 -95 -10 -95 -6 0 -10 38 -10 95 0 57 4 95
10 95 6 0 10 -38 10 -95z m160 55 c0 -29 4 -40 15 -40 8 0 15 -4 15 -10 0 -5
-7 -10 -15 -10 -11 0 -15 -12 -15 -45 0 -25 -4 -45 -10 -45 -6 0 -10 38 -10
95 0 57 4 95 10 95 6 0 10 -18 10 -40z m-585 0 c4 -16 14 -34 23 -39 9 -5 13
-13 9 -17 -4 -5 -17 -2 -28 5 -18 10 -24 10 -40 -5 -28 -25 -35 -10 -10 22 11
15 21 35 21 45 0 30 18 22 25 -11z m366 20 c25 -14 25 -56 -1 -72 -27 -17 -25
-28 6 -28 16 0 24 -5 22 -12 -6 -16 -118 -24 -118 -8 0 5 11 10 25 10 30 0 33
20 5 38 -22 14 -27 51 -8 70 15 15 43 15 69 2z m179 -45 c0 -25 -4 -45 -10
-45 -5 0 -10 16 -10 35 0 33 -2 35 -35 35 -19 0 -35 5 -35 10 0 6 20 10 45 10
l45 0 0 -45z m-40 -30 c0 -20 5 -25 26 -25 16 0 24 -5 22 -12 -6 -16 -108 -24
-108 -9 0 6 9 11 20 11 16 0 20 7 20 30 0 17 5 30 10 30 6 0 10 -11 10 -25z
m-446 -28 c43 -32 -15 -81 -71 -61 -54 19 -33 74 27 74 14 0 34 -6 44 -13z"/>
<path d="M2202 1940 c13 -21 38 -27 38 -10 0 6 -7 10 -15 10 -8 0 -15 5 -15
10 0 6 -5 10 -10 10 -6 0 -5 -8 2 -20z"/>
<path d="M2154 1929 c-10 -17 13 -36 27 -22 12 12 4 33 -11 33 -5 0 -12 -5
-16 -11z"/>
<path d="M2196 1891 c-3 -5 5 -11 19 -13 17 -4 25 -1 25 8 0 15 -36 19 -44 5z"/>
<path d="M2182 1851 c-19 -12 14 -24 41 -15 16 5 17 8 6 15 -18 11 -30 11 -47
0z"/>
<path d="M2330 1955 c-15 -18 -5 -35 20 -35 10 0 22 5 25 10 7 11 -12 40 -25
40 -4 0 -13 -7 -20 -15z"/>
<path d="M2000 1860 c-13 -9 -13 -11 0 -20 8 -5 22 -10 30 -10 8 0 22 5 30 10
13 9 13 11 0 20 -8 5 -22 10 -30 10 -8 0 -22 -5 -30 -10z"/>
<path d="M3378 1895 l3 -225 219 0 220 0 0 225 0 225 -222 0 -223 0 3 -225z"/>
<path d="M3840 1895 l0 -225 225 0 225 0 0 30 c0 17 5 30 10 30 6 0 10 -13 10
-30 l0 -30 220 0 220 0 0 30 c0 17 5 30 10 30 6 0 10 -13 10 -30 l0 -30 225 0
225 0 0 225 0 225 -225 0 -225 0 0 -35 c0 -19 -4 -35 -10 -35 -5 0 -10 16 -10
35 l0 35 -220 0 -220 0 0 -35 c0 -19 -4 -35 -10 -35 -5 0 -10 16 -10 35 l0 35
-225 0 -225 0 0 -225z m590 10 c0 -57 -4 -95 -10 -95 -6 0 -10 38 -10 95 0 57
4 95 10 95 6 0 10 -38 10 -95z m330 55 c0 -29 4 -40 15 -40 8 0 15 -4 15 -10
0 -5 -7 -10 -15 -10 -11 0 -15 -12 -15 -45 0 -25 -4 -45 -10 -45 -6 0 -10 38
-10 95 0 57 4 95 10 95 6 0 10 -18 10 -40z m-260 20 c0 -5 16 -10 35 -10 19 0
35 5 35 10 0 6 5 10 10 10 6 0 10 -18 10 -40 l0 -40 -55 0 -55 0 0 40 c0 22 5
40 10 40 6 0 10 -4 10 -10z m-110 -10 c0 -5 -4 -10 -10 -10 -5 0 -10 -18 -10
-40 0 -24 4 -39 11 -37 6 1 14 -4 16 -10 3 -10 -11 -13 -51 -13 -31 0 -56 5
-56 10 0 6 5 10 10 10 6 0 10 18 10 40 0 22 -4 40 -10 40 -5 0 -10 5 -10 10 0
6 23 10 50 10 28 0 50 -4 50 -10z m330 -35 c0 -25 -4 -45 -10 -45 -5 0 -10 16
-10 35 0 33 -2 35 -36 35 -21 0 -33 4 -29 10 3 6 24 10 46 10 l39 0 0 -45z
m-40 -34 c0 -25 3 -28 26 -23 20 4 25 1 22 -9 -5 -17 -98 -26 -98 -10 0 6 7
11 15 11 10 0 15 10 15 30 0 17 5 30 10 30 6 0 10 -13 10 -29z m-70 -21 c0 -5
-16 -10 -35 -10 -32 0 -35 -2 -35 -30 0 -16 -4 -30 -10 -30 -5 0 -10 14 -10
30 0 27 -3 30 -30 30 -16 0 -30 5 -30 10 0 6 32 10 75 10 43 0 75 -4 75 -10z"/>
<path d="M4500 1940 c0 -5 16 -10 35 -10 19 0 35 5 35 10 0 6 -16 10 -35 10
-19 0 -35 -4 -35 -10z"/>
<path d="M4330 1920 c0 -22 5 -40 10 -40 6 0 10 18 10 40 0 22 -4 40 -10 40
-5 0 -10 -18 -10 -40z"/>
<path d="M5240 1895 l0 -225 225 0 225 0 0 225 0 225 -225 0 -225 0 0 -225z"/>
<path d="M5710 1895 l0 -225 220 0 220 0 0 225 0 225 -220 0 -220 0 0 -225z"/>
<path d="M7264 1367 c-2 -7 -3 -65 -2 -128 l3 -114 119 -3 c78 -2 123 1 132 9
10 8 14 39 14 114 0 57 -3 110 -6 119 -5 13 -26 16 -130 16 -94 0 -126 -3
-130 -13z m216 -57 c0 -5 -7 -10 -15 -10 -8 0 -15 -7 -15 -15 0 -8 -7 -15 -15
-15 -8 0 -15 -7 -15 -15 0 -8 -7 -15 -15 -15 -8 0 -15 -7 -15 -15 0 -8 -7 -15
-15 -15 -8 0 -15 -7 -15 -15 0 -9 -9 -15 -25 -15 -14 0 -25 5 -25 10 0 6 7 10
15 10 8 0 15 7 15 15 0 8 7 15 15 15 8 0 15 7 15 15 0 8 7 15 15 15 8 0 15 7
15 15 0 8 7 15 15 15 8 0 15 7 15 15 0 9 9 15 25 15 14 0 25 -4 25 -10z"/>
<path d="M7634 1367 c-2 -7 -3 -65 -2 -128 l3 -114 125 0 125 0 3 128 3 127
-126 0 c-94 0 -127 -3 -131 -13z m96 -38 c0 -5 -7 -9 -15 -9 -15 0 -20 12 -9
23 8 8 24 -1 24 -14z m94 -3 c-1 -9 4 -16 12 -16 10 0 14 -13 14 -40 0 -22 -5
-40 -11 -40 -6 0 -9 -15 -7 -36 3 -32 0 -37 -19 -40 -21 -4 -23 0 -23 35 0 22
-4 43 -10 46 -16 10 -12 65 5 71 8 4 15 15 15 26 0 11 5 18 13 15 6 -2 11 -12
11 -21z m-74 -42 c8 -20 6 -34 -5 -57 -8 -16 -15 -40 -15 -52 0 -13 -6 -22
-15 -22 -10 0 -15 11 -15 34 0 18 -4 33 -10 33 -5 0 -7 7 -4 15 4 8 1 15 -4
15 -8 0 -8 9 -1 30 14 40 55 42 69 4z"/>
<path d="M8004 1367 c-2 -7 -3 -65 -2 -128 l3 -114 125 0 125 0 0 125 0 125
-123 3 c-95 2 -124 0 -128 -11z m120 -42 c3 -8 10 -15 16 -15 5 0 10 7 10 15
0 8 5 15 10 15 6 0 10 -7 10 -15 0 -8 5 -15 11 -15 8 0 7 -6 -2 -17 -11 -13
-11 -17 -1 -20 7 -3 12 -25 12 -59 l0 -55 -57 3 -58 3 -3 43 c-2 24 2 50 9 58
6 7 9 24 5 37 -3 13 -3 27 1 31 11 11 31 6 37 -9z"/>
<path d="M8110 1290 c0 -13 7 -20 20 -20 23 0 26 10 8 28 -18 18 -28 15 -28
-8z"/>
<path d="M8097 1253 c-15 -14 -5 -19 33 -19 26 0 40 5 40 13 0 14 -61 19 -73
6z"/>
<path d="M8091 1194 c0 -11 3 -14 6 -6 3 7 2 16 -1 19 -3 4 -6 -2 -5 -13z"/>
<path d="M8110 1190 c0 -5 5 -10 11 -10 5 0 7 5 4 10 -3 6 -8 10 -11 10 -2 0
-4 -4 -4 -10z"/>
<path d="M6910 1250 l0 -120 115 0 115 0 0 120 0 120 -115 0 -115 0 0 -120z
m180 45 c0 -37 4 -65 10 -65 14 0 12 -27 -2 -33 -10 -3 -10 -9 0 -26 17 -30
16 -31 -30 -31 -25 0 -49 7 -60 17 -18 16 -18 16 -12 0 8 -22 -4 -22 -28 0
-25 22 -26 108 0 117 9 3 22 9 29 12 20 9 20 -29 1 -68 -10 -21 -16 -38 -13
-38 2 0 13 17 24 38 19 35 21 36 27 15 5 -17 13 -23 33 -22 23 2 23 2 4 6 -12
2 -25 13 -28 24 -3 10 -7 28 -10 38 -4 13 0 21 12 24 10 3 4 5 -13 6 -17 0
-37 -6 -44 -14 -22 -26 -40 -18 -40 18 0 19 3 37 7 40 3 4 35 7 70 7 l63 0 0
-65z"/>
<path d="M6990 1330 c0 -5 5 -10 10 -10 6 0 10 5 10 10 0 6 -4 10 -10 10 -5 0
-10 -4 -10 -10z"/>
<path d="M6910 1008 c0 -31 4 -38 20 -38 16 0 20 7 20 38 0 28 -3 33 -10 22
-9 -13 -11 -13 -20 0 -7 11 -10 6 -10 -22z m30 -13 c0 -8 -4 -15 -10 -15 -5 0
-10 7 -10 15 0 8 5 15 10 15 6 0 10 -7 10 -15z"/>
<path d="M6968 1000 c-2 -22 0 -40 4 -40 5 0 8 18 8 40 0 22 -2 40 -4 40 -2 0
-6 -18 -8 -40z"/>
<path d="M7002 1023 c-9 -15 -7 -19 9 -19 21 0 23 4 10 25 -7 11 -11 10 -19
-6z"/>
<path d="M7050 1016 c0 -18 -6 -25 -22 -28 -32 -4 -30 -33 2 -33 22 0 25 5 28
43 1 23 0 42 -3 42 -3 0 -5 -11 -5 -24z m-5 -46 c-3 -5 -13 -10 -21 -10 -8 0
-14 5 -14 10 0 6 9 10 21 10 11 0 17 -4 14 -10z"/>
<path d="M7103 1033 c35 -6 30 -26 -9 -34 -16 -4 -21 -7 -12 -8 9 0 19 -11 21
-23 l4 -23 2 23 c1 14 7 22 20 22 14 0 17 6 13 25 -4 21 -10 25 -36 24 -31 -2
-31 -2 -3 -6z"/>
<path d="M7334 1023 c3 -8 1 -24 -5 -36 -9 -18 -9 -20 2 -9 18 16 29 15 29 -3
0 -8 7 -15 15 -15 11 0 15 11 15 39 0 38 -2 40 -30 39 -22 -1 -29 -5 -26 -15z"/>
<path d="M7400 1020 c0 -15 6 -20 28 -19 23 2 24 2 5 6 -27 5 -30 20 -5 26 13
4 11 5 -5 6 -17 1 -23 -5 -23 -19z"/>
<path d="M7460 1013 c0 -18 2 -33 4 -33 9 0 13 39 5 51 -6 10 -9 4 -9 -18z"/>
<path d="M7652 1033 c-10 -4 -9 -9 5 -19 17 -13 17 -15 -1 -29 -19 -14 -18
-15 11 -15 17 0 34 -6 36 -12 3 -7 6 -1 6 15 1 26 11 32 46 28 6 0 11 8 11 19
0 12 -7 20 -18 20 -11 0 -15 -5 -12 -15 4 -9 0 -15 -9 -15 -9 0 -18 8 -20 18
-3 9 -5 2 -6 -15 0 -18 -5 -33 -9 -33 -4 0 -8 12 -8 27 1 27 -9 35 -32 26z"/>
<path d="M7780 1016 c0 -18 -6 -26 -22 -28 -12 -2 -23 -8 -25 -15 -5 -15 36
-28 49 -15 14 14 18 71 7 78 -5 3 -9 -6 -9 -20z m0 -46 c0 -5 -7 -10 -15 -10
-8 0 -15 5 -15 10 0 6 7 10 15 10 8 0 15 -4 15 -10z"/>
<path d="M7816 1024 c-3 -9 -6 -17 -6 -18 0 -1 9 -2 20 -2 11 0 20 1 20 2 0
11 -14 34 -20 34 -4 0 -11 -7 -14 -16z"/>
<path d="M7868 1018 c-2 -15 -11 -24 -25 -26 -31 -5 -29 -28 2 -34 14 -3 25
-5 26 -4 0 0 2 20 5 44 5 43 -2 61 -8 20z"/>
<path d="M7974 1028 c-4 -5 -2 -14 3 -19 12 -12 53 0 53 16 0 15 -48 17 -56 3z
m26 -2 c0 -3 -4 -8 -10 -11 -5 -3 -10 -1 -10 4 0 6 5 11 10 11 6 0 10 -2 10
-4z"/>
<path d="M8050 1029 c11 -8 12 -12 3 -16 -23 -9 -14 -40 12 -45 16 -4 25 -1
25 7 0 8 -8 11 -20 8 -11 -3 -20 0 -20 6 0 6 5 11 10 11 6 0 10 9 10 20 0 12
-7 20 -17 20 -16 0 -16 -2 -3 -11z"/>
<path d="M8140 1023 c0 -10 -4 -14 -8 -8 -16 22 -33 15 -30 -12 4 -31 24 -42
31 -16 4 14 5 13 6 -4 2 -40 21 -24 21 17 0 22 -4 40 -10 40 -5 0 -10 -8 -10
-17z"/>
<path d="M8174 1027 c-7 -20 -2 -47 11 -50 14 -3 19 43 6 56 -7 7 -12 6 -17
-6z m13 -34 c-3 -10 -5 -4 -5 12 0 17 2 24 5 18 2 -7 2 -21 0 -30z"/>
<path d="M8213 1000 c0 -25 2 -35 4 -22 2 12 2 32 0 45 -2 12 -4 2 -4 -23z"/>
<path d="M8230 1005 c0 -27 4 -35 18 -35 14 0 15 2 2 10 -12 8 -13 11 -1 19
11 7 11 9 0 14 -12 4 -11 7 1 16 13 9 13 11 -2 11 -14 0 -18 -8 -18 -35z"/>
<path d="M8003 993 c-18 -7 -16 -30 3 -37 23 -9 24 -8 24 13 0 22 -9 30 -27
24z"/>
<path d="M7410 968 c0 -4 14 -8 30 -8 17 0 30 2 30 4 0 2 -13 6 -30 8 -16 3
-30 1 -30 -4z"/>
</g>
</svg>
