<?xml version="1.0" standalone="no"?>
<!DOCTYPE svg PUBLIC "-//W3C//DTD SVG 20010904//EN"
 "http://www.w3.org/TR/2001/REC-SVG-20010904/DTD/svg10.dtd">
<svg version="1.0" xmlns="http://www.w3.org/2000/svg"
 width="850.000000pt" height="600.000000pt" viewBox="0 0 850.000000 600.000000"
 preserveAspectRatio="xMidYMid meet">

<g transform="translate(0.000000,600.000000) scale(0.100000,-0.100000)"
fill="#000000" stroke="none">
<path d="M5360 4620 l0 -80 -2607 -2 -2608 -3 -3 -1222 -2 -1223 460 0 460 0
0 -105 0 -105 3548 -2 c1951 -2 3602 -2 3670 0 l122 3 0 594 0 595 -110 0
-110 0 -2 728 -3 727 -427 3 -428 2 0 85 0 85 -980 0 -980 0 0 -80z m1898 -67
l3 -83 424 0 425 0 0 -995 c0 -657 -3 -995 -10 -995 -6 0 -10 42 -10 105 l0
105 -30 0 c-35 0 -38 12 -10 40 l21 21 -21 26 c-27 35 -25 43 10 43 l30 0 0
125 0 126 -142 -3 -143 -3 -3 -122 -3 -123 31 0 c35 0 37 -8 10 -43 l-21 -26
21 -21 c28 -28 25 -40 -10 -40 l-30 0 0 -111 c0 -107 -1 -112 -30 -152 -62
-88 -62 -200 1 -286 25 -36 29 -49 29 -111 l0 -70 145 0 145 0 0 65 c0 37 4
65 10 65 6 0 10 -32 10 -75 l0 -75 -3495 0 -3495 0 0 105 0 105 -455 0 -455 0
0 1160 0 1160 2605 0 2605 0 0 78 c0 43 3 82 6 85 4 4 417 6 918 4 l911 -2 3
-82z m1110 -1790 c3 -120 8 -116 -123 -111 l-80 3 -3 94 c-1 52 0 101 2 108 4
11 28 13 103 11 l98 -3 3 -102z m-63 -202 c-16 -7 -17 -9 -4 -17 9 -5 18 -17
22 -26 5 -13 1 -18 -13 -18 -11 0 -20 -7 -20 -15 0 -8 -4 -15 -10 -15 -5 0
-10 7 -10 15 0 8 -9 15 -20 15 -26 0 -26 15 0 37 19 16 19 18 3 25 -11 4 0 7
27 7 31 0 39 -3 25 -8z m-235 -82 c22 -13 40 -25 40 -29 0 -3 -34 -39 -75 -80
l-75 -74 -75 74 c-73 72 -74 75 -57 93 51 50 167 58 242 16z m-192 -122 l72
-72 -74 -74 c-46 -46 -78 -71 -86 -66 -22 14 -50 89 -50 138 0 60 35 147 59
147 4 0 39 -33 79 -73z m276 40 c32 -43 35 -152 6 -212 -12 -25 -27 -45 -33
-45 -6 0 -44 33 -84 72 l-73 73 72 72 c40 40 77 72 82 70 5 -2 19 -15 30 -30z
m146 23 c0 -21 2 -25 16 -33 10 -6 12 -13 6 -20 -5 -7 -8 -20 -7 -29 3 -15 -4
-18 -37 -18 -29 0 -39 4 -35 13 3 8 1 20 -3 28 -5 8 -4 19 2 26 6 7 7 13 4 13
-4 0 -1 7 6 15 15 16 48 20 48 5z m-20 -156 c11 -12 10 -18 -3 -32 -16 -15
-18 -15 -34 0 -13 14 -14 20 -3 32 7 9 16 16 20 16 4 0 13 -7 20 -16z m40 -39
l0 -55 -35 0 c-28 0 -35 4 -35 19 0 15 6 19 28 18 24 -2 27 1 30 36 5 55 12
45 12 -18z m-280 -30 c82 -83 82 -79 5 -115 -67 -32 -152 -21 -225 29 -12 9
-2 24 60 86 41 41 77 75 80 75 3 0 39 -34 80 -75z m275 -96 c-4 -12 -2 -19 6
-19 7 0 9 -3 5 -7 -4 -4 -15 -8 -24 -8 -9 0 -19 -11 -23 -25 -6 -22 -7 -23 -8
-4 -1 13 -10 25 -23 29 -20 7 -18 9 15 12 48 5 52 33 5 34 -26 0 -29 2 -14 8
11 4 30 6 43 3 18 -3 22 -9 18 -23z"/>
<path d="M5440 4405 c0 -176 2 -205 15 -205 9 0 15 9 15 25 0 31 29 34 55 5
l18 -20 14 20 c21 29 53 26 53 -5 l0 -25 318 0 317 0 0 205 0 205 -402 0 -403
0 0 -205z m250 84 c0 -78 -1 -80 -22 -77 -21 3 -23 9 -26 67 -4 76 1 91 28 91
18 0 20 -6 20 -81z m62 39 l1 -43 4 43 c4 37 7 42 29 42 21 0 24 -5 26 -42 l1
-43 4 43 c4 37 7 42 29 42 21 0 24 -5 26 -42 l1 -43 4 43 c4 37 7 42 29 42 21
0 24 -5 24 -34 0 -19 -4 -38 -10 -41 -5 -3 -10 -24 -10 -46 0 -24 -5 -39 -12
-39 -9 0 -9 -3 0 -12 7 -7 12 -26 12 -43 0 -17 5 -36 11 -42 6 -6 9 -26 7 -44
-2 -26 -8 -35 -25 -37 -21 -3 -23 1 -25 45 l-1 48 -6 -45 c-5 -37 -10 -46 -28
-48 -21 -3 -23 1 -25 45 l-2 48 -3 -47 c-4 -43 -7 -48 -29 -48 -22 0 -24 4
-26 48 l-2 47 -3 -48 c-4 -43 -7 -48 -26 -45 -20 3 -22 10 -25 76 -2 46 2 79
9 88 8 10 8 14 0 14 -7 0 -11 28 -11 80 0 79 0 80 25 80 22 0 25 -4 27 -42z
m228 2 c0 -33 -3 -40 -20 -40 -17 0 -20 7 -20 40 0 33 3 40 20 40 17 0 20 -7
20 -40z m60 -1 c0 -36 -2 -40 -22 -37 -19 2 -24 10 -26 41 -3 34 -1 37 22 37
24 0 26 -4 26 -41z m60 -39 c0 -47 -4 -80 -10 -80 -5 0 -10 16 -10 35 0 22 -6
38 -15 41 -10 4 -15 20 -15 45 0 35 3 39 25 39 25 0 25 -1 25 -80z m60 0 c0
-79 0 -80 -25 -80 -25 0 -25 1 -25 80 0 79 0 80 25 80 25 0 25 -1 25 -80z
m-154 -85 c-25 -25 -50 -45 -56 -45 -15 0 72 88 88 89 7 1 -8 -19 -32 -44z
m-316 -91 c0 -83 -1 -85 -22 -82 -21 3 -23 9 -26 72 -4 82 1 96 28 96 19 0 20
-6 20 -86z m410 1 c0 -84 0 -85 -25 -85 -23 0 -25 4 -25 44 0 30 5 46 15 50 9
3 15 19 15 41 0 19 5 35 10 35 6 0 10 -35 10 -85z m60 0 c0 -84 0 -85 -25 -85
-25 0 -25 1 -25 85 0 84 0 85 25 85 25 0 25 -1 25 -85z m-180 -40 c0 -38 -3
-45 -20 -45 -17 0 -20 7 -20 45 0 38 3 45 20 45 17 0 20 -7 20 -45z m60 -1 c0
-41 -2 -45 -22 -42 -40 5 -38 88 2 88 17 0 20 -6 20 -46z"/>
<path d="M5730 4405 c0 -69 2 -75 20 -75 17 0 19 4 12 18 -5 9 -9 43 -8 75 1
40 -3 57 -11 57 -9 0 -13 -21 -13 -75z"/>
<path d="M5851 4418 c3 -71 7 -88 20 -88 5 0 9 34 9 75 0 61 -3 75 -16 75 -12
0 -15 -11 -13 -62z"/>
<path d="M5789 4431 c8 -5 11 -16 8 -26 -4 -9 -3 -14 3 -10 17 11 11 45 -7 45
-15 0 -15 -2 -4 -9z"/>
<path d="M6342 4403 l3 -98 86 -3 c65 -2 89 1 98 12 8 9 11 43 9 98 l-3 83
-98 3 -98 3 3 -98z m86 55 c10 -10 15 -10 22 2 16 24 26 -3 26 -67 l-1 -58
-40 0 c-38 0 -40 2 -43 33 -2 18 1 39 7 46 6 6 8 22 4 34 -6 24 6 29 25 10z"/>
<path d="M6420 4430 c0 -5 7 -10 16 -10 8 0 12 5 9 10 -3 6 -10 10 -16 10 -5
0 -9 -4 -9 -10z"/>
<path d="M6410 4400 c0 -5 14 -10 31 -10 17 0 28 4 24 10 -3 6 -17 10 -31 10
-13 0 -24 -4 -24 -10z"/>
<path d="M6582 4403 l3 -98 95 0 95 0 0 95 0 95 -98 3 -98 3 3 -98z m94 56 c4
-8 9 -7 15 2 15 23 26 -6 28 -72 l2 -60 -43 3 c-41 3 -43 5 -46 36 -2 18 2 40
8 47 7 8 9 19 5 25 -7 11 2 30 15 30 5 0 12 -5 16 -11z"/>
<path d="M6660 4430 c0 -5 7 -10 16 -10 8 0 12 5 9 10 -3 6 -10 10 -16 10 -5
0 -9 -4 -9 -10z"/>
<path d="M6650 4400 c0 -5 14 -10 31 -10 17 0 28 4 24 10 -3 6 -17 10 -31 10
-13 0 -24 -4 -24 -10z"/>
<path d="M230 4050 l0 -400 190 0 190 0 0 25 c0 21 -5 25 -30 25 -35 0 -39 18
-10 45 19 17 19 18 0 43 -29 36 -25 52 10 52 l30 0 0 305 0 305 -190 0 -190 0
0 -400z m178 283 c3 -22 0 -23 -72 -23 -67 0 -76 2 -76 18 0 29 10 33 80 30
59 -3 65 -5 68 -25z m152 2 c0 -24 -2 -25 -70 -25 -68 0 -70 1 -70 25 0 24 2
25 70 25 68 0 70 -1 70 -25z m-230 -55 c0 -16 -7 -20 -35 -20 -28 0 -35 4 -35
20 0 16 7 20 35 20 28 0 35 -4 35 -20z m230 0 c0 -16 -7 -20 -30 -20 -23 0
-30 4 -30 20 0 16 7 20 30 20 23 0 30 -4 30 -20z m-134 -65 c-25 -25 -50 -45
-56 -45 -15 0 72 88 88 89 7 1 -8 -19 -32 -44z m-99 -12 c-2 -46 -3 -48 -33
-51 l-32 -3 0 50 0 51 34 0 33 0 -2 -47z m233 -3 c0 -49 -1 -50 -30 -50 -29 0
-30 1 -30 50 0 49 1 50 30 50 29 0 30 -1 30 -50z m-149 -82 c4 -7 8 -7 10 0 2
5 34 13 72 17 64 7 67 6 67 -14 0 -17 -7 -21 -32 -23 l-33 -1 33 -4 c24 -3 32
-9 32 -24 0 -14 -8 -19 -32 -21 l-33 -1 33 -4 c26 -4 32 -9 32 -29 0 -20 -5
-24 -32 -26 l-33 -1 33 -4 c24 -3 32 -9 32 -24 0 -18 -8 -19 -150 -19 -143 0
-150 1 -150 20 0 16 7 20 33 21 l32 1 -30 7 c-21 4 -30 12 -30 26 0 14 9 22
30 26 l30 7 -32 1 c-26 1 -33 5 -33 21 0 16 7 20 38 22 l37 1 -37 4 c-30 3
-38 8 -38 25 0 19 4 20 73 13 39 -4 75 -12 78 -17z m-1 -208 c0 -18 -7 -20
-75 -20 -68 0 -75 2 -75 20 0 18 7 20 75 20 68 0 75 -2 75 -20z m150 0 c0 -18
-7 -20 -70 -20 -63 0 -70 2 -70 20 0 18 7 20 70 20 63 0 70 -2 70 -20z"/>
<path d="M340 4025 c0 -69 2 -75 20 -75 17 0 19 3 11 19 -6 10 -9 44 -8 75 2
40 -1 56 -10 56 -9 0 -13 -21 -13 -75z"/>
<path d="M461 4048 c3 -29 5 -56 3 -60 -6 -10 7 -38 17 -38 5 0 9 34 9 75 0
66 -2 75 -18 75 -16 0 -18 -6 -11 -52z"/>
<path d="M399 4051 c8 -5 11 -16 8 -26 -4 -9 -3 -14 2 -10 5 3 11 2 14 -2 2
-5 2 -2 0 5 -1 8 -3 20 -3 28 0 8 -8 14 -17 14 -15 0 -15 -2 -4 -9z"/>
<path d="M1140 4235 l0 -215 1480 0 1480 0 0 215 0 215 -1480 0 -1480 0 0
-215z m1290 5 l0 -90 -50 0 -50 0 0 35 c0 34 1 35 40 35 33 0 40 4 40 19 0 10
-9 21 -20 24 -11 3 -20 1 -20 -4 0 -17 -50 -43 -62 -31 -7 7 -3 14 13 23 44
23 51 49 14 49 -14 0 -25 5 -25 11 0 6 16 9 38 7 29 -2 36 -7 34 -20 -2 -11 3
-18 13 -18 9 0 15 9 15 25 0 14 5 25 10 25 6 0 10 -37 10 -90z m150 20 c0 -40
-4 -70 -10 -70 -6 0 -10 30 -10 70 0 40 4 70 10 70 6 0 10 -30 10 -70z m180
-20 l0 -90 -50 0 -50 0 0 35 c0 34 1 35 40 35 33 0 40 4 40 19 0 10 -9 21 -20
24 -11 3 -20 1 -20 -4 0 -17 -50 -43 -62 -31 -7 7 -3 14 13 23 44 23 51 49 14
49 -14 0 -25 5 -25 11 0 6 16 9 38 7 29 -2 36 -7 34 -20 -2 -11 3 -18 13 -18
9 0 15 9 15 25 0 14 5 25 10 25 6 0 10 -37 10 -90z m140 54 c0 -31 3 -35 23
-32 15 2 25 13 32 36 10 35 25 43 25 14 0 -11 9 -27 20 -37 25 -22 10 -46 -15
-25 -12 10 -18 10 -32 -1 -9 -8 -24 -13 -35 -11 -15 3 -18 -4 -18 -47 0 -28
-4 -51 -10 -51 -6 0 -10 38 -10 95 0 57 4 95 10 95 6 0 10 -16 10 -36z m150
-39 l0 -75 -40 0 c-22 0 -40 -4 -40 -10 0 -5 20 -10 45 -10 25 0 45 -4 45 -10
0 -5 -25 -10 -55 -10 -54 0 -55 0 -55 30 0 28 2 30 43 32 l42 1 -42 4 c-54 5
-56 23 -3 23 l40 0 0 50 c0 28 5 50 10 50 6 0 10 -32 10 -75z m-220 38 c0 -16
9 -43 21 -62 24 -39 18 -52 -12 -25 -19 17 -21 18 -30 1 -6 -9 -17 -17 -24
-17 -19 0 -19 9 1 31 9 10 18 36 21 58 6 46 23 56 23 14z m-280 7 c0 -5 -9
-10 -20 -10 -26 0 -25 -15 1 -41 25 -25 17 -39 -12 -20 -18 10 -24 10 -39 -4
-26 -23 -36 -1 -10 25 25 25 26 40 0 40 -11 0 -20 5 -20 10 0 6 23 10 50 10
28 0 50 -4 50 -10z m-50 -110 c0 -17 7 -20 45 -20 25 0 45 -4 45 -10 0 -5 -25
-10 -55 -10 -54 0 -55 0 -55 30 0 17 5 30 10 30 6 0 10 -9 10 -20z"/>
<path d="M2350 4185 c0 -10 10 -15 30 -15 20 0 30 5 30 15 0 10 -10 15 -30 15
-20 0 -30 -5 -30 -15z"/>
<path d="M2680 4185 c0 -10 10 -15 30 -15 20 0 30 5 30 15 0 10 -10 15 -30 15
-20 0 -30 -5 -30 -15z"/>
<path d="M4120 4235 l0 -215 650 0 650 0 0 215 0 215 -650 0 -650 0 0 -215z
m460 5 c0 -53 -4 -90 -10 -90 -5 0 -10 9 -10 20 0 13 -5 18 -15 14 -9 -4 -18
1 -21 10 -6 16 -8 16 -25 0 -27 -24 -32 -13 -14 29 19 46 19 67 0 67 -8 0 -15
5 -15 10 0 6 18 10 40 10 22 0 40 -4 40 -10 0 -5 -7 -10 -15 -10 -8 0 -15 -9
-15 -19 0 -14 5 -18 20 -14 15 4 20 14 20 39 0 19 5 34 10 34 6 0 10 -37 10
-90z m30 -5 c0 -57 -4 -95 -10 -95 -6 0 -10 38 -10 95 0 57 4 95 10 95 6 0 10
-38 10 -95z m140 25 c0 -40 -4 -70 -10 -70 -6 0 -10 30 -10 70 0 40 4 70 10
70 6 0 10 -30 10 -70z m300 0 c0 -40 -4 -70 -10 -70 -6 0 -10 30 -10 70 0 40
4 70 10 70 6 0 10 -30 10 -70z m140 -25 c0 -57 -4 -95 -10 -95 -5 0 -10 23
-10 50 l0 50 -40 0 c-30 0 -40 -4 -40 -16 0 -12 7 -15 30 -12 20 3 30 0 30 -9
0 -9 -13 -13 -40 -13 l-40 0 0 60 0 60 35 0 c19 0 35 -4 35 -10 0 -5 -11 -10
-25 -10 -16 0 -25 -6 -25 -15 0 -11 11 -15 40 -15 39 0 40 1 40 35 0 19 5 35
10 35 6 0 10 -38 10 -95z m-740 55 c0 -16 5 -30 10 -30 6 0 10 -4 10 -10 0 -5
-13 -10 -30 -10 -20 0 -30 -5 -30 -15 0 -8 9 -15 20 -15 16 0 20 -7 20 -35 0
-19 -4 -35 -10 -35 -5 0 -10 11 -10 25 0 23 -4 25 -45 25 -25 0 -45 5 -45 10
0 6 11 10 25 10 16 0 25 6 25 15 0 10 -10 15 -30 15 -16 0 -30 5 -30 10 0 6
23 10 50 10 43 0 50 3 50 20 0 17 -7 20 -45 20 -25 0 -45 5 -45 10 0 6 25 10
55 10 54 0 55 0 55 -30z m570 -35 c0 -37 -4 -65 -10 -65 -5 0 -10 16 -10 35 0
26 -4 35 -16 35 -14 0 -14 -3 -4 -15 15 -19 5 -34 -12 -17 -9 9 -16 8 -29 -4
-24 -21 -35 0 -15 28 9 12 16 30 16 40 0 10 5 18 10 18 6 0 10 -9 10 -19 0
-14 5 -18 20 -14 11 3 20 14 20 24 0 11 5 19 10 19 6 0 10 -28 10 -65z m-300
45 c0 -5 -9 -10 -20 -10 -26 0 -25 -15 1 -41 25 -25 17 -39 -12 -20 -18 10
-24 10 -39 -4 -26 -23 -36 -1 -10 25 25 25 26 40 0 40 -11 0 -20 5 -20 10 0 6
23 10 50 10 28 0 50 -4 50 -10z m170 -20 c0 -29 -2 -30 -45 -30 -25 0 -45 -4
-45 -10 0 -5 23 -10 50 -10 28 0 50 -4 50 -10 0 -5 -7 -10 -15 -10 -8 0 -15
-7 -15 -15 0 -8 9 -15 20 -15 11 0 20 -4 20 -10 0 -5 -21 -10 -47 -10 -27 0
-85 -3 -130 -7 l-83 -6 0 32 c0 17 5 31 10 31 6 0 10 -9 10 -20 0 -16 7 -20
34 -20 54 0 96 11 96 26 0 8 -4 14 -10 14 -5 0 -10 14 -10 30 0 29 2 30 45 30
25 0 45 5 45 10 0 6 -20 10 -45 10 -25 0 -45 5 -45 10 0 6 25 10 55 10 54 0
55 0 55 -30z m70 -90 c0 -17 7 -20 44 -20 25 0 48 -4 51 -10 4 -6 -17 -10 -54
-10 l-61 0 0 30 c0 17 5 30 10 30 6 0 10 -9 10 -20z"/>
<path d="M4530 4231 c0 -5 7 -14 15 -21 13 -10 15 -9 15 9 0 12 -6 21 -15 21
-8 0 -15 -4 -15 -9z"/>
<path d="M4820 4195 c0 -8 7 -15 15 -15 8 0 15 7 15 15 0 8 -7 15 -15 15 -8 0
-15 -7 -15 -15z"/>
<path d="M674 4327 c-2 -8 -4 -52 -2 -98 l3 -84 95 0 95 0 0 95 0 95 -93 3
c-71 2 -94 0 -98 -11z m88 -45 c-2 -15 2 -22 14 -22 12 0 14 3 6 13 -7 8 -6
16 4 25 11 10 14 10 16 0 2 -23 5 -33 12 -50 4 -9 6 -29 4 -45 -3 -25 -7 -28
-46 -31 l-43 -3 2 63 c2 35 5 67 7 71 8 16 27 -1 24 -21z"/>
<path d="M745 4240 c-4 -6 7 -10 24 -10 17 0 31 5 31 10 0 6 -11 10 -24 10
-14 0 -28 -4 -31 -10z"/>
<path d="M1140 3400 l0 -300 70 0 70 0 0 300 0 300 -70 0 -70 0 0 -300z m100
104 c0 -31 -3 -35 -17 -29 -10 4 -23 8 -30 8 -8 0 -13 50 -4 52 0 0 12 2 26 3
22 2 25 -2 25 -34z m-30 -94 c10 0 20 -9 23 -20 4 -17 0 -20 -31 -19 -21 0
-32 3 -25 5 7 3 11 17 9 32 -2 15 -1 21 1 15 2 -7 13 -13 23 -13z m0 -94 c9
-12 8 -15 -8 -13 -12 0 -18 6 -15 14 6 16 8 16 23 -1z m30 -21 c0 -31 -3 -35
-25 -35 -16 0 -25 6 -25 15 0 8 9 15 20 15 13 0 20 7 20 20 0 11 2 20 5 20 3
0 5 -16 5 -35z"/>
<path d="M1508 3693 l-208 -3 0 -140 0 -140 210 0 210 0 0 145 c0 80 -1 144
-2 143 -2 -2 -96 -4 -210 -5z m12 -87 c0 -8 5 -16 10 -18 12 -4 14 -28 4 -75
-7 -36 -34 -46 -34 -12 0 11 -4 28 -9 38 -7 12 -6 26 4 44 7 14 11 28 7 31 -3
3 0 6 6 6 7 0 12 -6 12 -14z"/>
<path d="M1980 3475 l0 -225 210 0 210 0 0 225 0 225 -210 0 -210 0 0 -225z"/>
<path d="M2420 3440 l0 -260 305 0 304 0 3 256 c2 141 1 258 -1 260 -2 2 -141
4 -308 4 l-303 0 0 -260z"/>
<path d="M3730 3480 l0 -220 320 0 320 0 0 220 0 220 -320 0 -320 0 0 -220z"/>
<path d="M4390 3480 l0 -220 230 0 230 0 0 220 0 220 -230 0 -230 0 0 -220z"/>
<path d="M4870 3230 l0 -470 275 0 275 0 0 470 0 470 -275 0 -275 0 0 -470z"/>
<path d="M5850 3385 l0 -305 185 0 185 0 0 180 0 180 -75 0 -75 0 0 125 0 125
-110 0 -110 0 0 -305z m210 -46 c15 -28 3 -129 -16 -129 -8 0 -14 10 -14 25 0
14 -5 34 -11 44 -9 14 -9 25 2 50 16 36 24 39 39 10z"/>
<path d="M6318 3568 l-3 -123 -32 -3 -33 -3 0 -180 0 -179 145 0 145 0 0 305
0 305 -110 0 -109 0 -3 -122z m90 -235 c15 -32 16 -73 2 -73 -5 0 -10 -9 -10
-20 0 -32 -14 -23 -26 16 -12 37 -8 74 7 74 5 0 6 7 3 15 -11 26 11 16 24 -12z"/>
<path d="M7260 3390 l0 -300 415 0 415 0 0 300 0 300 -415 0 -415 0 0 -300z
m340 6 c0 -8 2 -20 3 -28 2 -7 2 -9 -1 -5 -2 4 -11 2 -20 -5 -13 -11 -15 -10
-9 5 4 10 7 25 7 33 0 8 5 14 10 14 6 0 10 -6 10 -14z m31 -38 c-9 -20 -10
-18 -10 17 0 31 2 36 9 23 6 -10 7 -25 1 -40z m69 37 c0 -9 -9 -15 -25 -15
-16 0 -25 6 -25 15 0 9 9 15 25 15 16 0 25 -6 25 -15z m50 1 c9 -12 8 -15 -8
-13 -12 0 -18 6 -15 14 6 16 8 16 23 -1z m26 -42 c-7 -19 -46 -18 -46 1 0 8 9
15 20 15 14 0 20 7 21 23 l2 22 4 -23 c3 -13 2 -30 -1 -38z m-76 9 c-8 -3 -18
-11 -22 -17 -6 -8 -8 -8 -8 1 0 6 -8 14 -17 16 -10 3 0 5 22 5 22 0 33 -2 25
-5z"/>
<path d="M7668 3393 c7 -3 16 -2 19 1 4 3 -2 6 -13 5 -11 0 -14 -3 -6 -6z"/>
<path d="M6647 3623 c-4 -3 -7 -48 -7 -100 l0 -94 98 3 97 3 3 83 c2 53 -1 89
-9 98 -8 10 -35 14 -94 14 -45 0 -85 -3 -88 -7z m84 -51 c-16 -5 -13 -22 4
-22 8 0 14 3 14 8 -1 4 -1 16 0 27 2 43 24 -6 28 -65 l5 -61 -43 3 c-43 3 -44
4 -47 41 -2 23 1 37 8 37 8 0 10 9 6 24 -7 29 3 40 22 24 9 -8 10 -14 3 -16z"/>
<path d="M6715 3521 c3 -6 15 -8 27 -6 34 7 34 15 -1 15 -18 0 -30 -4 -26 -9z"/>
<path d="M1300 3245 l0 -135 210 0 210 0 0 135 0 135 -210 0 -210 0 0 -135z
m227 58 c-4 -3 -2 -12 4 -19 6 -7 7 -32 3 -64 -9 -65 -34 -66 -47 -1 -10 49 5
91 31 91 9 0 12 -3 9 -7z"/>
<path d="M3410 3310 c0 -5 8 -6 17 -3 13 5 15 3 9 -13 -5 -14 -4 -16 5 -7 6 6
8 16 5 22 -9 14 -36 15 -36 1z"/>
<path d="M3341 3280 c10 -27 29 -33 29 -9 0 6 -4 7 -10 4 -5 -3 -10 1 -10 9 0
8 -4 17 -10 21 -5 3 -5 -7 1 -25z"/>
<path d="M3392 3285 c0 -16 2 -22 5 -12 2 9 2 23 0 30 -3 6 -5 -1 -5 -18z"/>
<path d="M3730 2998 l0 -238 320 0 320 0 0 235 0 234 -320 3 -320 3 0 -237z"/>
<path d="M1980 2995 l0 -235 210 0 210 0 0 235 0 235 -210 0 -210 0 0 -235z"/>
<path d="M4392 2998 l3 -233 228 -3 227 -2 0 235 0 235 -230 0 -230 0 2 -232z"/>
<path d="M3365 3211 c-3 -5 0 -13 6 -17 8 -4 9 -3 5 4 -4 7 -1 12 8 12 9 0 16
-5 16 -11 0 -5 5 -7 10 -4 15 9 2 25 -20 25 -10 0 -21 -4 -25 -9z"/>
<path d="M3300 3200 c10 -6 11 -10 3 -10 -7 0 -13 -7 -13 -16 0 -14 2 -14 15
0 20 20 19 36 -2 36 -15 0 -16 -2 -3 -10z"/>
<path d="M3330 3178 c0 -21 2 -38 4 -38 9 0 12 50 5 62 -6 8 -9 -1 -9 -24z"/>
<path d="M3445 3200 c4 -6 1 -17 -5 -25 -9 -11 -8 -14 7 -12 21 1 26 47 5 47
-7 0 -10 -5 -7 -10z"/>
<path d="M3482 3190 c0 -14 2 -19 5 -12 2 6 2 18 0 25 -3 6 -5 1 -5 -13z"/>
<path d="M3373 3173 c9 -2 25 -2 35 0 9 3 1 5 -18 5 -19 0 -27 -2 -17 -5z"/>
<path d="M2420 2960 l0 -201 118 3 117 3 3 198 2 197 -120 0 -120 0 0 -200z"/>
<path d="M2680 2960 l0 -200 176 2 176 3 5 162 c3 90 2 179 -1 198 l-7 35
-174 0 -175 0 0 -200z"/>
<path d="M3368 3148 c6 -6 18 -8 28 -6 14 3 12 5 -9 10 -19 3 -25 2 -19 -4z"/>
<path d="M1140 2520 l0 -560 290 0 290 0 0 560 0 560 -290 0 -290 0 0 -560z"/>
<path d="M6403 2957 c0 -8 6 -14 12 -14 6 0 12 6 12 14 0 7 -6 13 -12 13 -6 0
-12 -6 -12 -13z"/>
<path d="M6484 2958 c-4 -7 -4 -10 1 -6 4 4 15 2 24 -5 14 -11 14 -10 2 6 -16
20 -18 21 -27 5z"/>
<path d="M6589 2953 c-12 -16 -12 -17 2 -6 12 10 18 10 29 0 12 -10 12 -9 1 6
-7 9 -15 17 -16 17 -1 0 -9 -8 -16 -17z"/>
<path d="M6690 2954 c0 -8 5 -12 10 -9 6 4 8 11 5 16 -9 14 -15 11 -15 -7z"/>
<path d="M6658 2943 c7 -3 16 -2 19 1 4 3 -2 6 -13 5 -11 0 -14 -3 -6 -6z"/>
<path d="M6491 2914 c0 -11 3 -14 6 -6 3 7 2 16 -1 19 -3 4 -6 -2 -5 -13z"/>
<path d="M6601 2914 c0 -11 3 -14 6 -6 3 7 2 16 -1 19 -3 4 -6 -2 -5 -13z"/>
<path d="M6650 2916 c0 -9 5 -16 10 -16 6 0 10 4 10 9 0 6 -4 13 -10 16 -5 3
-10 -1 -10 -9z"/>
<path d="M6691 2914 c0 -11 3 -14 6 -6 3 7 2 16 -1 19 -3 4 -6 -2 -5 -13z"/>
<path d="M6405 2910 c3 -5 8 -10 11 -10 2 0 4 5 4 10 0 6 -5 10 -11 10 -5 0
-7 -4 -4 -10z"/>
<path d="M6440 2909 c0 -5 5 -7 10 -4 6 3 10 8 10 11 0 2 -4 4 -10 4 -5 0 -10
-5 -10 -11z"/>
<path d="M5842 2813 l3 -48 693 -3 692 -2 0 50 0 50 -696 0 -695 0 3 -47z"/>
<path d="M6120 2490 c0 -5 -11 -10 -25 -10 -14 0 -25 -4 -25 -10 0 -6 28 -10
65 -10 37 0 65 4 65 10 0 6 -13 10 -30 10 -16 0 -30 5 -30 10 0 6 -4 10 -10
10 -5 0 -10 -4 -10 -10z"/>
<path d="M6220 2435 c0 -37 4 -65 10 -65 6 0 10 14 10 30 0 20 5 30 15 30 8 0
15 5 15 10 0 6 -7 10 -15 10 -9 0 -15 9 -15 25 0 14 -4 25 -10 25 -6 0 -10
-28 -10 -65z"/>
<path d="M6450 2475 c0 -18 -5 -25 -20 -25 -11 0 -20 -4 -20 -10 0 -5 9 -10
20 -10 15 0 20 -7 20 -25 0 -14 5 -25 10 -25 6 0 10 27 10 60 0 33 -4 60 -10
60 -5 0 -10 -11 -10 -25z"/>
<path d="M6680 2420 c0 -47 4 -80 10 -80 6 0 10 33 10 80 0 47 -4 80 -10 80
-6 0 -10 -33 -10 -80z"/>
<path d="M6870 2475 c0 -16 -6 -25 -15 -25 -8 0 -15 -4 -15 -10 0 -5 7 -10 15
-10 11 0 15 -12 15 -45 0 -25 5 -45 10 -45 6 0 10 33 10 80 0 47 -4 80 -10 80
-5 0 -10 -11 -10 -25z"/>
<path d="M6910 2420 c0 -47 4 -80 10 -80 6 0 10 33 10 80 0 47 -4 80 -10 80
-6 0 -10 -33 -10 -80z"/>
<path d="M7130 2460 c0 -33 -3 -40 -20 -40 -11 0 -20 -4 -20 -10 0 -5 9 -10
20 -10 18 0 20 -7 20 -60 0 -33 4 -60 10 -60 6 0 10 43 10 110 0 67 -4 110
-10 110 -5 0 -10 -18 -10 -40z"/>
<path d="M5860 2480 c0 -5 17 -10 38 -10 l37 -1 -24 -19 c-13 -11 -29 -20 -37
-20 -8 0 -14 -5 -14 -11 0 -12 34 -4 65 15 17 11 25 10 50 -6 33 -20 55 -23
55 -8 0 6 -6 10 -14 10 -8 0 -24 9 -37 20 l-24 19 33 1 c17 0 32 5 32 10 0 6
-33 10 -80 10 -47 0 -80 -4 -80 -10z"/>
<path d="M6310 2480 c0 -5 16 -10 35 -10 33 0 34 -1 24 -23 -6 -13 -24 -31
-40 -41 -38 -22 -38 -41 0 -21 36 18 71 61 71 86 0 16 -8 19 -45 19 -25 0 -45
-4 -45 -10z"/>
<path d="M6530 2480 c0 -5 11 -10 25 -10 32 0 32 -20 -1 -60 -15 -17 -23 -34
-19 -38 4 -4 17 5 29 19 l23 26 22 -23 c13 -13 27 -21 33 -18 5 3 -2 16 -17
29 -31 29 -34 65 -5 65 11 0 20 5 20 10 0 6 -25 10 -55 10 -30 0 -55 -4 -55
-10z"/>
<path d="M6790 2461 c0 -15 -10 -40 -21 -55 -12 -15 -18 -30 -14 -34 4 -4 16
4 27 18 18 22 21 23 29 7 6 -9 17 -17 26 -17 14 0 13 4 -5 23 -13 14 -22 36
-22 55 0 18 -4 32 -10 32 -5 0 -10 -13 -10 -29z"/>
<path d="M1740 2220 l0 -260 648 0 647 0 -2 257 -2 258 -646 3 -645 2 0 -260z"/>
<path d="M3730 2220 l0 -260 270 0 270 0 0 260 0 260 -270 0 -270 0 0 -260z"/>
<path d="M4290 2220 l0 -260 280 0 280 0 0 260 0 260 -280 0 -280 0 0 -260z"/>
<path d="M4870 2220 l0 -260 275 0 275 0 0 260 0 260 -275 0 -275 0 0 -260z"/>
<path d="M6980 2405 l0 -75 49 0 c28 0 53 5 56 10 4 6 -12 10 -39 10 -42 0
-46 2 -46 25 0 22 4 25 35 25 19 0 35 5 35 10 0 6 -16 10 -35 10 -28 0 -35 4
-35 20 0 17 7 20 40 20 22 0 40 5 40 10 0 6 -22 10 -50 10 l-50 0 0 -75z"/>
<path d="M6097 2435 c-10 -9 -17 -20 -17 -25 0 -5 7 -16 17 -25 25 -25 93 -7
93 25 0 32 -68 50 -93 25z m68 -25 c0 -18 -43 -26 -57 -12 -16 16 2 33 30 30
16 -2 27 -9 27 -18z"/>
<path d="M5930 2405 c0 -11 -11 -15 -40 -15 -22 0 -40 -4 -40 -10 0 -6 38 -10
95 -10 57 0 95 4 95 10 0 6 -20 10 -45 10 -33 0 -45 4 -45 15 0 8 -4 15 -10
15 -5 0 -10 -7 -10 -15z"/>
<path d="M6100 2315 l0 -45 70 0 70 0 0 45 c0 25 -4 45 -10 45 -5 0 -10 -4
-10 -10 0 -5 -22 -10 -50 -10 -27 0 -50 5 -50 10 0 6 -4 10 -10 10 -5 0 -10
-20 -10 -45z m120 -10 c0 -11 -12 -15 -50 -15 -38 0 -50 4 -50 15 0 11 12 15
50 15 38 0 50 -4 50 -15z"/>
<path d="M6330 2315 l0 -45 70 0 70 0 0 45 0 45 -70 0 -70 0 0 -45z m120 0 c0
-23 -3 -25 -50 -25 -47 0 -50 2 -50 25 0 23 3 25 50 25 47 0 50 -2 50 -25z"/>
<path d="M5900 2341 c-38 -11 -34 -52 5 -63 63 -18 136 16 103 48 -17 18 -73
26 -108 15z m95 -31 c0 -11 -13 -16 -44 -18 -45 -3 -68 8 -56 28 11 17 100 9
100 -10z"/>
<path d="M6560 2315 l0 -35 70 0 c40 0 70 4 70 10 0 6 -27 10 -60 10 -57 0
-60 1 -60 25 0 14 -4 25 -10 25 -5 0 -10 -16 -10 -35z"/>
<path d="M6790 2315 l0 -35 70 0 c40 0 70 4 70 10 0 6 -27 10 -60 10 -57 0
-60 1 -60 25 0 14 -4 25 -10 25 -5 0 -10 -16 -10 -35z"/>
<path d="M3287 2253 c-2 -4 -3 -16 -2 -25 2 -10 -2 -18 -8 -18 -8 0 -7 -4 2
-9 7 -5 21 -7 30 -6 9 2 21 4 26 4 6 1 6 4 0 9 -6 4 -11 16 -10 27 0 20 -29
34 -38 18z m23 -23 c0 -5 -5 -10 -11 -10 -5 0 -7 5 -4 10 3 6 8 10 11 10 2 0
4 -4 4 -10z"/>
<path d="M3468 2235 c-6 -30 -3 -43 8 -33 3 4 4 19 2 35 l-3 28 -7 -30z"/>
<path d="M3357 2243 c10 -3 10 -10 2 -26 -9 -21 -9 -21 5 -4 14 18 15 18 19
-5 4 -21 4 -21 6 3 0 16 -5 29 -15 33 -19 7 -35 7 -17 -1z"/>
<path d="M3427 2236 c-6 -16 1 -26 17 -26 6 0 4 5 -4 10 -10 6 -11 10 -2 10 6
0 12 5 12 10 0 15 -17 12 -23 -4z"/>
<path d="M3401 2204 c0 -11 3 -14 6 -6 3 7 2 16 -1 19 -3 4 -6 -2 -5 -13z"/>
<path d="M7442 2143 l3 -38 85 0 85 0 0 35 0 35 -88 3 -88 3 3 -38z"/>
<path d="M7454 2049 c-10 -17 13 -36 27 -22 12 12 4 33 -11 33 -5 0 -12 -5
-16 -11z m26 -9 c0 -5 -4 -10 -10 -10 -5 0 -10 5 -10 10 0 6 5 10 10 10 6 0
10 -4 10 -10z"/>
<path d="M7502 2035 c0 -16 2 -22 5 -12 2 9 2 23 0 30 -3 6 -5 -1 -5 -18z"/>
<path d="M7561 2030 c0 -29 1 -32 10 -17 7 11 7 23 0 35 -9 14 -10 11 -10 -18z"/>
<path d="M7532 2030 c0 -14 2 -19 5 -12 2 6 2 18 0 25 -3 6 -5 1 -5 -13z"/>
<path d="M7460 1999 c0 -5 11 -9 25 -9 14 0 25 2 25 4 0 2 -11 6 -25 8 -14 3
-25 1 -25 -3z"/>
<path d="M8170 2765 c0 -52 3 -95 6 -95 4 0 13 8 20 17 9 13 9 22 2 31 -8 9
-8 16 0 24 7 7 12 34 12 60 l0 48 55 0 55 0 0 -79 c0 -90 -5 -97 -70 -100 -24
-1 -47 -5 -50 -8 -3 -3 24 -3 60 0 36 3 73 6 83 6 16 1 17 10 15 94 l-3 92
-92 3 -93 3 0 -96z"/>
<path d="M8246 2804 c7 -3 10 -14 7 -24 -3 -11 0 -20 6 -20 6 0 11 7 11 16 0
11 5 14 16 10 14 -5 15 -4 4 9 -7 8 -22 15 -34 14 -11 0 -16 -3 -10 -5z"/>
<path d="M8260 2530 c-12 -8 -9 -10 13 -10 16 0 26 4 22 10 -8 12 -16 12 -35
0z"/>
<path d="M8268 2383 c7 -3 16 -2 19 1 4 3 -2 6 -13 5 -11 0 -14 -3 -6 -6z"/>
<path d="M8250 2250 c0 -5 5 -10 10 -10 6 0 10 5 10 10 0 6 -4 10 -10 10 -5 0
-10 -4 -10 -10z"/>
<path d="M8273 2183 c9 -2 23 -2 30 0 6 3 -1 5 -18 5 -16 0 -22 -2 -12 -5z"/>
<path d="M7264 1367 c-2 -7 -3 -65 -2 -128 l3 -114 119 -3 c78 -2 123 1 132 9
10 8 14 39 14 114 0 57 -3 110 -6 119 -5 13 -26 16 -130 16 -94 0 -126 -3
-130 -13z m216 -57 c0 -5 -7 -10 -15 -10 -8 0 -15 -7 -15 -15 0 -8 -7 -15 -15
-15 -8 0 -15 -7 -15 -15 0 -8 -7 -15 -15 -15 -8 0 -15 -7 -15 -15 0 -8 -7 -15
-15 -15 -8 0 -15 -7 -15 -15 0 -9 -9 -15 -25 -15 -14 0 -25 5 -25 10 0 6 7 10
15 10 8 0 15 7 15 15 0 8 7 15 15 15 8 0 15 7 15 15 0 8 7 15 15 15 8 0 15 7
15 15 0 8 7 15 15 15 8 0 15 7 15 15 0 9 9 15 25 15 14 0 25 -4 25 -10z"/>
<path d="M7634 1367 c-2 -7 -3 -65 -2 -128 l3 -114 125 0 125 0 3 128 3 127
-126 0 c-94 0 -127 -3 -131 -13z m96 -38 c0 -5 -7 -9 -15 -9 -15 0 -20 12 -9
23 8 8 24 -1 24 -14z m94 -3 c-1 -9 4 -16 12 -16 10 0 14 -13 14 -40 0 -22 -5
-40 -11 -40 -6 0 -9 -15 -7 -36 3 -32 0 -37 -19 -40 -21 -4 -23 0 -23 35 0 22
-4 43 -10 46 -16 10 -12 65 5 71 8 4 15 15 15 26 0 11 5 18 13 15 6 -2 11 -12
11 -21z m-74 -42 c8 -20 6 -34 -5 -57 -8 -16 -15 -40 -15 -52 0 -13 -6 -22
-15 -22 -10 0 -15 11 -15 34 0 18 -4 33 -10 33 -5 0 -7 7 -4 15 4 8 1 15 -4
15 -8 0 -8 9 -1 30 14 40 55 42 69 4z"/>
<path d="M8004 1367 c-2 -7 -3 -65 -2 -128 l3 -114 125 0 125 0 0 125 0 125
-123 3 c-95 2 -124 0 -128 -11z m120 -42 c3 -8 10 -15 16 -15 5 0 10 7 10 15
0 8 5 15 10 15 6 0 10 -7 10 -15 0 -8 5 -15 11 -15 8 0 7 -6 -2 -17 -11 -13
-11 -17 -1 -20 7 -3 12 -25 12 -59 l0 -55 -57 3 -58 3 -3 43 c-2 24 2 50 9 58
6 7 9 24 5 37 -3 13 -3 27 1 31 11 11 31 6 37 -9z"/>
<path d="M8110 1290 c0 -13 7 -20 20 -20 23 0 26 10 8 28 -18 18 -28 15 -28
-8z"/>
<path d="M8097 1253 c-15 -14 -5 -19 33 -19 26 0 40 5 40 13 0 14 -61 19 -73
6z"/>
<path d="M8091 1194 c0 -11 3 -14 6 -6 3 7 2 16 -1 19 -3 4 -6 -2 -5 -13z"/>
<path d="M8110 1190 c0 -5 5 -10 11 -10 5 0 7 5 4 10 -3 6 -8 10 -11 10 -2 0
-4 -4 -4 -10z"/>
<path d="M6910 1250 l0 -120 115 0 115 0 0 120 0 120 -115 0 -115 0 0 -120z
m180 45 c0 -37 4 -65 10 -65 14 0 12 -27 -2 -33 -10 -3 -10 -9 0 -26 17 -30
16 -31 -30 -31 -25 0 -49 7 -60 17 -18 16 -18 16 -12 0 8 -22 -4 -22 -28 0
-25 22 -26 108 0 117 9 3 22 9 29 12 20 9 20 -29 1 -68 -10 -21 -16 -38 -13
-38 2 0 13 17 24 38 19 35 21 36 27 15 5 -17 13 -23 33 -22 23 2 23 2 4 6 -12
2 -25 13 -28 24 -3 10 -7 28 -10 38 -4 13 0 21 12 24 10 3 4 5 -13 6 -17 0
-37 -6 -44 -14 -22 -26 -40 -18 -40 18 0 19 3 37 7 40 3 4 35 7 70 7 l63 0 0
-65z"/>
<path d="M6990 1330 c0 -5 5 -10 10 -10 6 0 10 5 10 10 0 6 -4 10 -10 10 -5 0
-10 -4 -10 -10z"/>
<path d="M6910 1008 c0 -31 4 -38 20 -38 16 0 20 7 20 38 0 28 -3 33 -10 22
-9 -13 -11 -13 -20 0 -7 11 -10 6 -10 -22z m30 -13 c0 -8 -4 -15 -10 -15 -5 0
-10 7 -10 15 0 8 5 15 10 15 6 0 10 -7 10 -15z"/>
<path d="M6968 1000 c-2 -22 0 -40 4 -40 5 0 8 18 8 40 0 22 -2 40 -4 40 -2 0
-6 -18 -8 -40z"/>
<path d="M7002 1023 c-9 -15 -7 -19 9 -19 21 0 23 4 10 25 -7 11 -11 10 -19
-6z"/>
<path d="M7050 1016 c0 -18 -6 -25 -22 -28 -32 -4 -30 -33 2 -33 22 0 25 5 28
43 1 23 0 42 -3 42 -3 0 -5 -11 -5 -24z m-5 -46 c-3 -5 -13 -10 -21 -10 -8 0
-14 5 -14 10 0 6 9 10 21 10 11 0 17 -4 14 -10z"/>
<path d="M7103 1033 c35 -6 30 -26 -9 -34 -16 -4 -21 -7 -12 -8 9 0 19 -11 21
-23 l4 -23 2 23 c1 14 7 22 20 22 14 0 17 6 13 25 -4 21 -10 25 -36 24 -31 -2
-31 -2 -3 -6z"/>
<path d="M7334 1023 c3 -8 1 -24 -5 -36 -9 -18 -9 -20 2 -9 18 16 29 15 29 -3
0 -8 7 -15 15 -15 11 0 15 11 15 39 0 38 -2 40 -30 39 -22 -1 -29 -5 -26 -15z"/>
<path d="M7400 1020 c0 -15 6 -20 28 -19 23 2 24 2 5 6 -27 5 -30 20 -5 26 13
4 11 5 -5 6 -17 1 -23 -5 -23 -19z"/>
<path d="M7460 1013 c0 -18 2 -33 4 -33 9 0 13 39 5 51 -6 10 -9 4 -9 -18z"/>
<path d="M7652 1033 c-10 -4 -9 -9 5 -19 17 -13 17 -15 -1 -29 -19 -14 -18
-15 11 -15 17 0 34 -6 36 -12 3 -7 6 -1 6 15 1 26 11 32 46 28 6 0 11 8 11 19
0 12 -7 20 -18 20 -11 0 -15 -5 -12 -15 4 -9 0 -15 -9 -15 -9 0 -18 8 -20 18
-3 9 -5 2 -6 -15 0 -18 -5 -33 -9 -33 -4 0 -8 12 -8 27 1 27 -9 35 -32 26z"/>
<path d="M7780 1016 c0 -18 -6 -26 -22 -28 -12 -2 -23 -8 -25 -15 -5 -15 36
-28 49 -15 14 14 18 71 7 78 -5 3 -9 -6 -9 -20z m0 -46 c0 -5 -7 -10 -15 -10
-8 0 -15 5 -15 10 0 6 7 10 15 10 8 0 15 -4 15 -10z"/>
<path d="M7816 1024 c-3 -9 -6 -17 -6 -18 0 -1 9 -2 20 -2 11 0 20 1 20 2 0
11 -14 34 -20 34 -4 0 -11 -7 -14 -16z"/>
<path d="M7868 1018 c-2 -15 -11 -24 -25 -26 -31 -5 -29 -28 2 -34 14 -3 25
-5 26 -4 0 0 2 20 5 44 5 43 -2 61 -8 20z"/>
<path d="M7974 1028 c-4 -5 -2 -14 3 -19 12 -12 53 0 53 16 0 15 -48 17 -56 3z
m26 -2 c0 -3 -4 -8 -10 -11 -5 -3 -10 -1 -10 4 0 6 5 11 10 11 6 0 10 -2 10
-4z"/>
<path d="M8050 1029 c11 -8 12 -12 3 -16 -23 -9 -14 -40 12 -45 16 -4 25 -1
25 7 0 8 -8 11 -20 8 -11 -3 -20 0 -20 6 0 6 5 11 10 11 6 0 10 9 10 20 0 12
-7 20 -17 20 -16 0 -16 -2 -3 -11z"/>
<path d="M8140 1023 c0 -10 -4 -14 -8 -8 -16 22 -33 15 -30 -12 4 -31 24 -42
31 -16 4 14 5 13 6 -4 2 -40 21 -24 21 17 0 22 -4 40 -10 40 -5 0 -10 -8 -10
-17z"/>
<path d="M8174 1027 c-7 -20 -2 -47 11 -50 14 -3 19 43 6 56 -7 7 -12 6 -17
-6z m13 -34 c-3 -10 -5 -4 -5 12 0 17 2 24 5 18 2 -7 2 -21 0 -30z"/>
<path d="M8213 1000 c0 -25 2 -35 4 -22 2 12 2 32 0 45 -2 12 -4 2 -4 -23z"/>
<path d="M8230 1005 c0 -27 4 -35 18 -35 14 0 15 2 2 10 -12 8 -13 11 -1 19
11 7 11 9 0 14 -12 4 -11 7 1 16 13 9 13 11 -2 11 -14 0 -18 -8 -18 -35z"/>
<path d="M8003 993 c-20 -7 -15 -30 7 -36 15 -4 20 0 20 13 0 22 -9 29 -27 23z"/>
<path d="M7410 968 c0 -4 14 -8 30 -8 17 0 30 2 30 4 0 2 -13 6 -30 8 -16 3
-30 1 -30 -4z"/>
</g>
</svg>
